%TF.GenerationSoftware,Altium Limited,Altium Designer,25.8.1 (18)*%
G04 Layer_Color=65535*
%FSLAX45Y45*%
%MOMM*%
%TF.SameCoordinates,FDD92109-F931-40D5-AFAB-DC256326DFAA*%
%TF.FilePolarity,Positive*%
%TF.FileFunction,Legend,Top*%
%TF.Part,Single*%
G01*
G75*
%TA.AperFunction,NonConductor*%
%ADD58C,0.20000*%
%ADD59C,0.15240*%
%ADD60C,0.25000*%
%ADD61C,0.10000*%
%ADD62C,0.60000*%
%ADD63C,0.25400*%
%ADD64C,0.50000*%
%ADD65C,0.17000*%
%ADD66C,0.12700*%
%ADD67C,0.10160*%
%ADD68R,1.20000X0.20000*%
G36*
X18022501Y23514999D02*
X18000000D01*
Y23664999D01*
X18022501D01*
Y23514999D01*
D02*
G37*
G36*
X15562500D02*
X15539999D01*
Y23664999D01*
X15562500D01*
Y23514999D01*
D02*
G37*
G36*
X13102499D02*
X13080000D01*
Y23664999D01*
X13102499D01*
Y23514999D01*
D02*
G37*
G36*
X10642500D02*
X10620000D01*
Y23664999D01*
X10642500D01*
Y23514999D01*
D02*
G37*
G36*
X17980000D02*
X17957500Y23514999D01*
X17957500Y23664999D01*
X17980000Y23664999D01*
X17980000Y23514999D01*
D02*
G37*
G36*
X15520000D02*
X15497501Y23514999D01*
X15497501Y23664999D01*
X15520000Y23664999D01*
X15520000Y23514999D01*
D02*
G37*
G36*
X13060001D02*
X13037498Y23514999D01*
X13037500Y23664999D01*
X13060001Y23664999D01*
X13060001Y23514999D01*
D02*
G37*
G36*
X10600000D02*
X10577500Y23514999D01*
X10577500Y23664999D01*
X10600000Y23664999D01*
X10600000Y23514999D01*
D02*
G37*
G36*
X17375000Y23047501D02*
X17335001D01*
Y23112500D01*
X17375000D01*
Y23047501D01*
D02*
G37*
G36*
X17264999D02*
X17225000D01*
Y23112500D01*
X17264999D01*
Y23047501D01*
D02*
G37*
G36*
X14914999D02*
X14875000D01*
Y23112500D01*
X14914999D01*
Y23047501D01*
D02*
G37*
G36*
X14805000D02*
X14764999D01*
Y23112500D01*
X14805000D01*
Y23047501D01*
D02*
G37*
G36*
X12455000D02*
X12415000D01*
Y23112500D01*
X12455000D01*
Y23047501D01*
D02*
G37*
G36*
X12345000D02*
X12305000D01*
Y23112500D01*
X12345000D01*
Y23047501D01*
D02*
G37*
G36*
X9995000D02*
X9955000D01*
Y23112500D01*
X9995000D01*
Y23047501D01*
D02*
G37*
G36*
X9885000D02*
X9845000D01*
Y23112500D01*
X9885000D01*
Y23047501D01*
D02*
G37*
G36*
X17022501Y22895000D02*
X17000000D01*
Y23045000D01*
X17022501D01*
Y22895000D01*
D02*
G37*
G36*
X14562500D02*
X14539999D01*
Y23045000D01*
X14562500D01*
Y22895000D01*
D02*
G37*
G36*
X12102500D02*
X12080000D01*
Y23045000D01*
X12102500D01*
Y22895000D01*
D02*
G37*
G36*
X9642500D02*
X9620000D01*
Y23045000D01*
X9642500D01*
Y22895000D01*
D02*
G37*
G36*
X16980000D02*
X16957500Y22895000D01*
X16957500Y23045000D01*
X16980000Y23045000D01*
X16980000Y22895000D01*
D02*
G37*
G36*
X14520000D02*
X14497499Y22895000D01*
X14497501Y23045000D01*
X14520000Y23045000D01*
X14520000Y22895000D01*
D02*
G37*
G36*
X12060000D02*
X12037499Y22895000D01*
X12037499Y23045000D01*
X12060000Y23045000D01*
X12060000Y22895000D01*
D02*
G37*
G36*
X9600000D02*
X9577499Y22895000D01*
X9577500Y23045000D01*
X9600000Y23045000D01*
X9600000Y22895000D01*
D02*
G37*
G36*
X18232500Y21135001D02*
X18210001D01*
Y21285001D01*
X18232500D01*
Y21135001D01*
D02*
G37*
G36*
X17772501D02*
X17750000D01*
Y21285001D01*
X17772501D01*
Y21135001D01*
D02*
G37*
G36*
X15772501D02*
X15750000D01*
Y21285001D01*
X15772501D01*
Y21135001D01*
D02*
G37*
G36*
X15312500D02*
X15289999D01*
Y21285001D01*
X15312500D01*
Y21135001D01*
D02*
G37*
G36*
X13312500D02*
X13289999D01*
Y21285001D01*
X13312500D01*
Y21135001D01*
D02*
G37*
G36*
X12852499D02*
X12830000D01*
Y21285001D01*
X12852499D01*
Y21135001D01*
D02*
G37*
G36*
X10852500D02*
X10830000D01*
Y21285001D01*
X10852500D01*
Y21135001D01*
D02*
G37*
G36*
X10392500D02*
X10370000D01*
Y21285001D01*
X10392500D01*
Y21135001D01*
D02*
G37*
G36*
X18189999D02*
X18167500Y21135001D01*
X18167500Y21285001D01*
X18189999Y21285001D01*
X18189999Y21135001D01*
D02*
G37*
G36*
X17730000D02*
X17707500Y21135001D01*
X17707500Y21285001D01*
X17730000Y21285001D01*
X17730000Y21135001D01*
D02*
G37*
G36*
X15730000D02*
X15707500Y21135001D01*
X15707500Y21285001D01*
X15730000Y21285001D01*
X15730000Y21135001D01*
D02*
G37*
G36*
X15270000D02*
X15247501Y21135001D01*
X15247501Y21285001D01*
X15270000Y21285001D01*
X15270000Y21135001D01*
D02*
G37*
G36*
X13270000D02*
X13247501Y21135001D01*
X13247501Y21285001D01*
X13270000Y21285001D01*
X13270000Y21135001D01*
D02*
G37*
G36*
X12810001D02*
X12787499Y21135001D01*
X12787500Y21285001D01*
X12810001Y21285001D01*
X12810001Y21135001D01*
D02*
G37*
G36*
X10810000D02*
X10787500Y21135001D01*
X10787500Y21285001D01*
X10810000Y21285001D01*
X10810000Y21135001D01*
D02*
G37*
G36*
X10350000D02*
X10327500Y21135001D01*
X10327500Y21285001D01*
X10350000Y21285001D01*
X10350000Y21135001D01*
D02*
G37*
G36*
X17375000Y20997501D02*
X17335001D01*
Y21062500D01*
X17375000D01*
Y20997501D01*
D02*
G37*
G36*
X17264999D02*
X17225000D01*
Y21062500D01*
X17264999D01*
Y20997501D01*
D02*
G37*
G36*
X17135001D02*
X17095000D01*
Y21062500D01*
X17135001D01*
Y20997501D01*
D02*
G37*
G36*
X17025000D02*
X16985001D01*
Y21062500D01*
X17025000D01*
Y20997501D01*
D02*
G37*
G36*
X14914999D02*
X14875000D01*
Y21062500D01*
X14914999D01*
Y20997501D01*
D02*
G37*
G36*
X14805000D02*
X14764999D01*
Y21062500D01*
X14805000D01*
Y20997501D01*
D02*
G37*
G36*
X14675000D02*
X14635001D01*
Y21062500D01*
X14675000D01*
Y20997501D01*
D02*
G37*
G36*
X14564999D02*
X14525000D01*
Y21062500D01*
X14564999D01*
Y20997501D01*
D02*
G37*
G36*
X12455000D02*
X12415000D01*
Y21062500D01*
X12455000D01*
Y20997501D01*
D02*
G37*
G36*
X12345000D02*
X12305000D01*
Y21062500D01*
X12345000D01*
Y20997501D01*
D02*
G37*
G36*
X12215000D02*
X12175000D01*
Y21062500D01*
X12215000D01*
Y20997501D01*
D02*
G37*
G36*
X12105000D02*
X12065000D01*
Y21062500D01*
X12105000D01*
Y20997501D01*
D02*
G37*
G36*
X9995000D02*
X9955000D01*
Y21062500D01*
X9995000D01*
Y20997501D01*
D02*
G37*
G36*
X9885000D02*
X9845000D01*
Y21062500D01*
X9885000D01*
Y20997501D01*
D02*
G37*
G36*
X9755000D02*
X9715000D01*
Y21062500D01*
X9755000D01*
Y20997501D01*
D02*
G37*
G36*
X9645000D02*
X9605000D01*
Y21062500D01*
X9645000D01*
Y20997501D01*
D02*
G37*
G36*
X18652499Y20995000D02*
X18587500D01*
Y21035001D01*
X18652499D01*
Y20995000D01*
D02*
G37*
G36*
X18232500D02*
X18167500D01*
Y21035001D01*
X18232500D01*
Y20995000D01*
D02*
G37*
G36*
X16192500D02*
X16127499D01*
Y21035001D01*
X16192500D01*
Y20995000D01*
D02*
G37*
G36*
X15772501D02*
X15707500D01*
Y21035001D01*
X15772501D01*
Y20995000D01*
D02*
G37*
G36*
X13732500D02*
X13667500D01*
Y21035001D01*
X13732500D01*
Y20995000D01*
D02*
G37*
G36*
X13312500D02*
X13247501D01*
Y21035001D01*
X13312500D01*
Y20995000D01*
D02*
G37*
G36*
X11272500D02*
X11207500D01*
Y21035001D01*
X11272500D01*
Y20995000D01*
D02*
G37*
G36*
X10852500D02*
X10787500D01*
Y21035001D01*
X10852500D01*
Y20995000D01*
D02*
G37*
G36*
X18652499Y20885001D02*
X18587500D01*
Y20925000D01*
X18652499D01*
Y20885001D01*
D02*
G37*
G36*
X18232500D02*
X18167500D01*
Y20925000D01*
X18232500D01*
Y20885001D01*
D02*
G37*
G36*
X16192500D02*
X16127499D01*
Y20925000D01*
X16192500D01*
Y20885001D01*
D02*
G37*
G36*
X15772501D02*
X15707500D01*
Y20925000D01*
X15772501D01*
Y20885001D01*
D02*
G37*
G36*
X13732500D02*
X13667500D01*
Y20925000D01*
X13732500D01*
Y20885001D01*
D02*
G37*
G36*
X13312500D02*
X13247501D01*
Y20925000D01*
X13312500D01*
Y20885001D01*
D02*
G37*
G36*
X11272500D02*
X11207500D01*
Y20925000D01*
X11272500D01*
Y20885001D01*
D02*
G37*
G36*
X10852500D02*
X10787500D01*
Y20925000D01*
X10852500D01*
Y20885001D01*
D02*
G37*
G36*
X822500Y17295000D02*
X757500D01*
Y17335001D01*
X822500D01*
Y17295000D01*
D02*
G37*
G36*
Y17185001D02*
X757500D01*
Y17225000D01*
X822500D01*
Y17185001D01*
D02*
G37*
G36*
X705000Y16887500D02*
X665000D01*
Y16952499D01*
X705000D01*
Y16887500D01*
D02*
G37*
G36*
X595000D02*
X555000D01*
Y16952499D01*
X595000D01*
Y16887500D01*
D02*
G37*
G36*
X945000Y16877499D02*
X905000D01*
Y16942500D01*
X945000D01*
Y16877499D01*
D02*
G37*
G36*
X835000D02*
X795000D01*
Y16942500D01*
X835000D01*
Y16877499D01*
D02*
G37*
G36*
X982500Y16614999D02*
X917500D01*
Y16655000D01*
X982500D01*
Y16614999D01*
D02*
G37*
G36*
Y16505000D02*
X917500D01*
Y16545000D01*
X982500D01*
Y16505000D01*
D02*
G37*
G36*
X2792495Y16415074D02*
X2727495D01*
Y16455075D01*
X2792495D01*
Y16415074D01*
D02*
G37*
G36*
Y16305074D02*
X2727495D01*
Y16345074D01*
X2792495D01*
Y16305074D01*
D02*
G37*
G36*
X895000Y16239999D02*
X745000D01*
Y16262500D01*
X895000D01*
Y16239999D01*
D02*
G37*
G36*
X2792495Y16205074D02*
X2727495D01*
Y16245074D01*
X2792495D01*
Y16205074D01*
D02*
G37*
G36*
X1105000Y16197501D02*
X1065000D01*
Y16262500D01*
X1105000D01*
Y16197501D01*
D02*
G37*
G36*
X995000D02*
X955000D01*
Y16262500D01*
X995000D01*
Y16197501D01*
D02*
G37*
G36*
X895000Y16220000D02*
X895000Y16197499D01*
X745000Y16197499D01*
X745000Y16220000D01*
X895000Y16220000D01*
D02*
G37*
G36*
X2792495Y16095074D02*
X2727495D01*
Y16135074D01*
X2792495D01*
Y16095074D01*
D02*
G37*
G36*
X8463600Y15552499D02*
X8463600Y15530000D01*
X8313600Y15530000D01*
X8313600Y15552501D01*
X8463600Y15552499D01*
D02*
G37*
G36*
X7242500Y15495000D02*
X7220000D01*
Y15645000D01*
X7242500D01*
Y15495000D01*
D02*
G37*
G36*
X6792500D02*
X6770000D01*
Y15645000D01*
X6792500D01*
Y15495000D01*
D02*
G37*
G36*
X7200000D02*
X7177499Y15495000D01*
X7177499Y15645000D01*
X7200000Y15645000D01*
X7200000Y15495000D01*
D02*
G37*
G36*
X6750000D02*
X6727499Y15495000D01*
X6727500Y15645000D01*
X6750000Y15645000D01*
X6750000Y15495000D01*
D02*
G37*
G36*
X8463600Y15487500D02*
X8313600D01*
Y15510001D01*
X8463600D01*
Y15487500D01*
D02*
G37*
G36*
X8243600Y15422501D02*
X8243600Y15400000D01*
X8093600Y15400000D01*
X8093600Y15422501D01*
X8243600Y15422501D01*
D02*
G37*
G36*
X8243600Y15357500D02*
X8093600D01*
Y15380000D01*
X8243600D01*
Y15357500D01*
D02*
G37*
G36*
X6922500Y15275000D02*
X6900000D01*
Y15425000D01*
X6922500D01*
Y15275000D01*
D02*
G37*
G36*
X6880000D02*
X6857499Y15274998D01*
X6857500Y15425000D01*
X6880000Y15425000D01*
X6880000Y15275000D01*
D02*
G37*
G36*
X8463600Y15102499D02*
X8463600Y15080000D01*
X8313600Y15080000D01*
X8313600Y15102501D01*
X8463600Y15102499D01*
D02*
G37*
G36*
X8463600Y15037500D02*
X8313600D01*
Y15060001D01*
X8463600D01*
Y15037500D01*
D02*
G37*
G36*
X6932505Y14084926D02*
X6867505D01*
Y14124927D01*
X6932505D01*
Y14084926D01*
D02*
G37*
G36*
X8915000Y14022501D02*
X8915000Y14000000D01*
X8765000Y14000000D01*
X8765000Y14022501D01*
X8915000Y14022501D01*
D02*
G37*
G36*
X6932505Y13974927D02*
X6867505D01*
Y14014926D01*
X6932505D01*
Y13974927D01*
D02*
G37*
G36*
X8915000Y13957500D02*
X8765000D01*
Y13980000D01*
X8915000D01*
Y13957500D01*
D02*
G37*
G36*
X8705000Y13957500D02*
X8665000D01*
Y14022501D01*
X8705000D01*
Y13957500D01*
D02*
G37*
G36*
X8595000D02*
X8555000D01*
Y14022501D01*
X8595000D01*
Y13957500D01*
D02*
G37*
G36*
X6932505Y13874927D02*
X6867505D01*
Y13914926D01*
X6932505D01*
Y13874927D01*
D02*
G37*
G36*
Y13764925D02*
X6867505D01*
Y13804926D01*
X6932505D01*
Y13764925D01*
D02*
G37*
G36*
X8742500Y13675000D02*
X8677500D01*
Y13714999D01*
X8742500D01*
Y13675000D01*
D02*
G37*
G36*
Y13564999D02*
X8677500D01*
Y13605000D01*
X8742500D01*
Y13564999D01*
D02*
G37*
G36*
X8865000Y13277499D02*
X8825000D01*
Y13342500D01*
X8865000D01*
Y13277499D01*
D02*
G37*
G36*
X8755000D02*
X8715000D01*
Y13342500D01*
X8755000D01*
Y13277499D01*
D02*
G37*
G36*
X9105000Y13267500D02*
X9065000D01*
Y13332500D01*
X9105000D01*
Y13267500D01*
D02*
G37*
G36*
X8995000D02*
X8955000D01*
Y13332500D01*
X8995000D01*
Y13267500D01*
D02*
G37*
G36*
X8902500Y12995000D02*
X8837500D01*
Y13035001D01*
X8902500D01*
Y12995000D01*
D02*
G37*
G36*
Y12885001D02*
X8837500D01*
Y12925000D01*
X8902500D01*
Y12885001D01*
D02*
G37*
G36*
X17482500Y12565000D02*
X17417500D01*
Y12605000D01*
X17482500D01*
Y12565000D01*
D02*
G37*
G36*
X17062500D02*
X16997501D01*
Y12605000D01*
X17062500D01*
Y12565000D01*
D02*
G37*
G36*
X15022501D02*
X14957500D01*
Y12605000D01*
X15022501D01*
Y12565000D01*
D02*
G37*
G36*
X14602499D02*
X14537500D01*
Y12605000D01*
X14602499D01*
Y12565000D01*
D02*
G37*
G36*
X12562500D02*
X12497500D01*
Y12605000D01*
X12562500D01*
Y12565000D01*
D02*
G37*
G36*
X12142500D02*
X12077500D01*
Y12605000D01*
X12142500D01*
Y12565000D01*
D02*
G37*
G36*
X10102500D02*
X10037500D01*
Y12605000D01*
X10102500D01*
Y12565000D01*
D02*
G37*
G36*
X9682500D02*
X9617500D01*
Y12605000D01*
X9682500D01*
Y12565000D01*
D02*
G37*
G36*
X17482500Y12455000D02*
X17417500D01*
Y12495000D01*
X17482500D01*
Y12455000D01*
D02*
G37*
G36*
X17062500D02*
X16997501D01*
Y12495000D01*
X17062500D01*
Y12455000D01*
D02*
G37*
G36*
X15022501D02*
X14957500D01*
Y12495000D01*
X15022501D01*
Y12455000D01*
D02*
G37*
G36*
X14602499D02*
X14537500D01*
Y12495000D01*
X14602499D01*
Y12455000D01*
D02*
G37*
G36*
X12562500D02*
X12497500D01*
Y12495000D01*
X12562500D01*
Y12455000D01*
D02*
G37*
G36*
X12142500D02*
X12077500D01*
Y12495000D01*
X12142500D01*
Y12455000D01*
D02*
G37*
G36*
X10102500D02*
X10037500D01*
Y12495000D01*
X10102500D01*
Y12455000D01*
D02*
G37*
G36*
X9682500D02*
X9617500D01*
Y12495000D01*
X9682500D01*
Y12455000D01*
D02*
G37*
G36*
X18664999Y12427500D02*
X18625000D01*
Y12492500D01*
X18664999D01*
Y12427500D01*
D02*
G37*
G36*
X18555000D02*
X18514999D01*
Y12492500D01*
X18555000D01*
Y12427500D01*
D02*
G37*
G36*
X18425000D02*
X18385001D01*
Y12492500D01*
X18425000D01*
Y12427500D01*
D02*
G37*
G36*
X18314999D02*
X18275000D01*
Y12492500D01*
X18314999D01*
Y12427500D01*
D02*
G37*
G36*
X16205000D02*
X16164999D01*
Y12492500D01*
X16205000D01*
Y12427500D01*
D02*
G37*
G36*
X16095000D02*
X16055000D01*
Y12492500D01*
X16095000D01*
Y12427500D01*
D02*
G37*
G36*
X15964999D02*
X15925000D01*
Y12492500D01*
X15964999D01*
Y12427500D01*
D02*
G37*
G36*
X15855000D02*
X15814999D01*
Y12492500D01*
X15855000D01*
Y12427500D01*
D02*
G37*
G36*
X13745000D02*
X13705000D01*
Y12492500D01*
X13745000D01*
Y12427500D01*
D02*
G37*
G36*
X13635001D02*
X13595000D01*
Y12492500D01*
X13635001D01*
Y12427500D01*
D02*
G37*
G36*
X13505000D02*
X13464999D01*
Y12492500D01*
X13505000D01*
Y12427500D01*
D02*
G37*
G36*
X13395000D02*
X13355000D01*
Y12492500D01*
X13395000D01*
Y12427500D01*
D02*
G37*
G36*
X11285000D02*
X11245000D01*
Y12492500D01*
X11285000D01*
Y12427500D01*
D02*
G37*
G36*
X11175000D02*
X11135000D01*
Y12492500D01*
X11175000D01*
Y12427500D01*
D02*
G37*
G36*
X11045000D02*
X11005000D01*
Y12492500D01*
X11045000D01*
Y12427500D01*
D02*
G37*
G36*
X10935000D02*
X10895000D01*
Y12492500D01*
X10935000D01*
Y12427500D01*
D02*
G37*
G36*
X17942500Y12205000D02*
X17920000Y12205000D01*
X17920000Y12355000D01*
X17942500Y12355000D01*
X17942500Y12205000D01*
D02*
G37*
G36*
X17900000Y12205000D02*
X17877499D01*
Y12355000D01*
X17900000D01*
Y12205000D01*
D02*
G37*
G36*
X17482500Y12205000D02*
X17460001Y12205000D01*
X17460001Y12355000D01*
X17482500Y12355000D01*
X17482500Y12205000D01*
D02*
G37*
G36*
X17439999Y12205000D02*
X17417500D01*
Y12355000D01*
X17439999D01*
Y12205000D01*
D02*
G37*
G36*
X15482500Y12205000D02*
X15460001Y12205000D01*
X15460001Y12355000D01*
X15482500Y12355000D01*
X15482500Y12205000D01*
D02*
G37*
G36*
X15439999Y12205000D02*
X15417500D01*
Y12355000D01*
X15439999D01*
Y12205000D01*
D02*
G37*
G36*
X15022501Y12205000D02*
X15000000Y12205000D01*
X15000000Y12355000D01*
X15022501Y12355000D01*
X15022501Y12205000D01*
D02*
G37*
G36*
X14980000Y12205000D02*
X14957500D01*
Y12355000D01*
X14980000D01*
Y12205000D01*
D02*
G37*
G36*
X13022501Y12205000D02*
X13000000Y12205000D01*
X13000000Y12355000D01*
X13022501Y12355000D01*
X13022501Y12205000D01*
D02*
G37*
G36*
X12980000Y12205000D02*
X12957500D01*
Y12355000D01*
X12980000D01*
Y12205000D01*
D02*
G37*
G36*
X12562500Y12205000D02*
X12540000Y12205000D01*
X12540000Y12355000D01*
X12562500Y12355000D01*
X12562500Y12205000D01*
D02*
G37*
G36*
X12520000Y12205000D02*
X12497500D01*
Y12355000D01*
X12520000D01*
Y12205000D01*
D02*
G37*
G36*
X10562500Y12205000D02*
X10540000Y12205000D01*
X10540000Y12355000D01*
X10562501Y12355000D01*
X10562500Y12205000D01*
D02*
G37*
G36*
X10520000Y12205000D02*
X10497500D01*
Y12355000D01*
X10520000D01*
Y12205000D01*
D02*
G37*
G36*
X10102500Y12205000D02*
X10080000Y12205000D01*
X10080000Y12355000D01*
X10102500Y12355000D01*
X10102500Y12205000D01*
D02*
G37*
G36*
X10060000Y12205000D02*
X10037500D01*
Y12355000D01*
X10060000D01*
Y12205000D01*
D02*
G37*
G36*
X4741036Y10638458D02*
X4745052Y10637119D01*
X4755093Y10635111D01*
X4766473Y10631764D01*
X4771828Y10630425D01*
X4794587Y10627747D01*
X4840774Y10625739D01*
X4846129Y10624400D01*
X4852823Y10621723D01*
X4866880Y10615698D01*
X4876251Y10614360D01*
X4904365Y10613021D01*
X4913737Y10607666D01*
X4925786Y10602311D01*
X4939173Y10600972D01*
X4951222Y10599633D01*
X4960594Y10592939D01*
X4969965Y10588923D01*
X4979336Y10587584D01*
X4990046Y10586246D01*
X5004773Y10576874D01*
X5014144Y10575535D01*
X5019499Y10574197D01*
X5027532Y10572858D01*
X5034226Y10566164D01*
X5043597Y10563487D01*
X5048952Y10562148D01*
X5056315Y10560140D01*
X5061001Y10558132D01*
X5070372Y10551438D01*
X5081083Y10548760D01*
X5088446Y10546752D01*
X5094470Y10540727D01*
X5097148Y10539389D01*
X5101164Y10538050D01*
X5111874Y10535372D01*
X5119237Y10529348D01*
X5122584Y10526001D01*
X5131956Y10523324D01*
X5140657Y10519977D01*
X5145343Y10513952D01*
X5152037Y10511275D01*
X5162747Y10507258D01*
X5168102Y10501903D01*
X5170780Y10500564D01*
X5188184Y10491193D01*
X5190861Y10488516D01*
X5200233Y10484499D01*
X5202910Y10483161D01*
X5210273Y10477136D01*
X5213620Y10473789D01*
X5222322Y10470442D01*
X5225669Y10467095D01*
X5228347Y10465757D01*
X5232363Y10461740D01*
X5244412Y10455046D01*
X5249767Y10449692D01*
X5252445Y10448353D01*
X5261816Y10441659D01*
X5267171Y10436304D01*
X5276542Y10430949D01*
X5279220Y10428271D01*
X5281897Y10426932D01*
X5287253Y10421577D01*
X5293946Y10417561D01*
X5301979Y10409529D01*
X5304656Y10408190D01*
X5312020Y10402165D01*
X5318044Y10396141D01*
X5320722Y10394802D01*
X5331432Y10384092D01*
X5334109Y10382753D01*
X5341472Y10376729D01*
X5342811Y10374051D01*
X5344819Y10372043D01*
X5347497Y10370704D01*
X5360885Y10357317D01*
X5363562Y10355978D01*
X5368248Y10351292D01*
X5369587Y10348615D01*
X5374272Y10345268D01*
X5381635Y10337904D01*
X5382974Y10335227D01*
X5384982Y10333219D01*
X5387660Y10331880D01*
X5391007Y10328533D01*
X5392346Y10325856D01*
X5404395Y10313807D01*
X5405733Y10311129D01*
X5417782Y10299080D01*
X5419121Y10296403D01*
X5423807Y10291717D01*
X5426484Y10290378D01*
X5431839Y10282346D01*
X5437194Y10276991D01*
X5439202Y10276321D01*
X5440541Y10273644D01*
X5446566Y10266280D01*
X5452590Y10260256D01*
X5453929Y10257578D01*
X5462631Y10244860D01*
X5465978Y10241513D01*
X5472002Y10230134D01*
X5474680Y10228795D01*
X5479365Y10224109D01*
X5484721Y10214738D01*
X5486729Y10212730D01*
X5489406Y10211391D01*
X5491414Y10209383D01*
X5496100Y10196665D01*
X5499447Y10191979D01*
X5503463Y10189301D01*
X5510157Y10177253D01*
X5513504Y10173906D01*
X5516182Y10172567D01*
X5519528Y10163865D01*
X5520867Y10157171D01*
X5524214Y10152485D01*
X5526892Y10151147D01*
X5531577Y10146461D01*
X5533585Y10139098D01*
X5538271Y10131735D01*
X5542287Y10127718D01*
X5547642Y10112992D01*
X5554336Y10106298D01*
X5557014Y10099604D01*
X5559022Y10090902D01*
X5562369Y10086217D01*
X5567724Y10080861D01*
X5570401Y10074168D01*
X5572410Y10065466D01*
X5574418Y10060780D01*
X5579773Y10055425D01*
X5583789Y10046054D01*
X5585797Y10034674D01*
X5590483Y10027311D01*
X5594499Y10023294D01*
X5597177Y10013923D01*
X5598516Y10001874D01*
X5601193Y9999197D01*
X5602532Y9996519D01*
X5607887Y9991164D01*
X5610564Y9975099D01*
X5612572Y9966397D01*
X5614581Y9964389D01*
X5615919Y9961711D01*
X5618597Y9959034D01*
X5619936Y9956356D01*
X5622613Y9949662D01*
X5624621Y9931589D01*
X5627299Y9924895D01*
X5632654Y9916863D01*
X5634662Y9909499D01*
X5636001Y9900128D01*
X5638009Y9884732D01*
X5640687Y9878038D01*
X5646711Y9863981D01*
X5648050Y9854610D01*
X5649389Y9841222D01*
X5651397Y9829843D01*
X5653405Y9822480D01*
X5656082Y9815786D01*
X5658760Y9805076D01*
X5661437Y9786333D01*
X5664784Y9745500D01*
X5669470Y9707346D01*
X5670809Y9697974D01*
X5672148Y9667183D01*
X5670809Y9663166D01*
X5671478Y9631705D01*
X5670809Y9621665D01*
X5672148Y9617648D01*
X5670809Y9556065D01*
X5669470Y9552049D01*
X5666123Y9524604D01*
X5664784Y9516572D01*
X5663446Y9505861D01*
X5660768Y9468376D01*
X5659429Y9456327D01*
X5658091Y9449633D01*
X5654074Y9438923D01*
X5652066Y9431560D01*
X5650727Y9426205D01*
X5648050Y9399430D01*
X5646711Y9390058D01*
X5638679Y9372654D01*
X5636001Y9356589D01*
X5633993Y9343871D01*
X5631985Y9339185D01*
X5625291Y9328475D01*
X5623952Y9319104D01*
X5621275Y9303038D01*
X5615250Y9295675D01*
X5611903Y9288312D01*
X5610564Y9278941D01*
X5608556Y9268900D01*
X5603871Y9261537D01*
X5599854Y9257520D01*
X5597177Y9246810D01*
X5595838Y9237439D01*
X5589814Y9230076D01*
X5586467Y9224051D01*
X5585128Y9218696D01*
X5583120Y9209994D01*
X5580442Y9203300D01*
X5573079Y9195937D01*
X5571740Y9190582D01*
X5569063Y9178533D01*
X5561030Y9170501D01*
X5558353Y9163807D01*
X5557014Y9155774D01*
X5550989Y9148411D01*
X5547642Y9145064D01*
X5542287Y9130338D01*
X5536263Y9122974D01*
X5534255Y9120966D01*
X5532247Y9113603D01*
X5527561Y9106240D01*
X5522875Y9102893D01*
X5519528Y9094191D01*
X5518190Y9088836D01*
X5507479Y9078126D01*
X5506141Y9072771D01*
X5499447Y9063399D01*
X5496769Y9060722D01*
X5488737Y9045995D01*
X5486729Y9043987D01*
X5484051Y9042648D01*
X5476019Y9029261D01*
X5473341Y9027922D01*
X5471333Y9025914D01*
X5463300Y9011187D01*
X5456606Y9004494D01*
X5455267Y9001816D01*
X5449243Y8994453D01*
X5441880Y8987090D01*
X5440541Y8984412D01*
X5429831Y8973702D01*
X5425815Y8967008D01*
X5422468Y8963661D01*
X5419790Y8962322D01*
X5414435Y8954290D01*
X5404395Y8944249D01*
X5403056Y8941572D01*
X5397031Y8935547D01*
X5396362Y8934878D01*
X5391007Y8929523D01*
X5389668Y8926845D01*
X5364901Y8902078D01*
X5362223Y8900739D01*
X5350174Y8888690D01*
X5347497Y8887352D01*
X5336787Y8876641D01*
X5334109Y8875303D01*
X5328085Y8870617D01*
X5326746Y8867939D01*
X5323399Y8864593D01*
X5320722Y8863254D01*
X5313358Y8857229D01*
X5312020Y8854552D01*
X5308673Y8851205D01*
X5301979Y8847189D01*
X5292607Y8837817D01*
X5283236Y8832462D01*
X5277881Y8827107D01*
X5275204Y8825768D01*
X5265832Y8820413D01*
X5263824Y8818405D01*
X5262485Y8815728D01*
X5260477Y8813719D01*
X5251106Y8808364D01*
X5243073Y8800332D01*
X5234371Y8796985D01*
X5227008Y8792299D01*
X5221653Y8786944D01*
X5212282Y8781589D01*
X5205588Y8774895D01*
X5200233Y8773556D01*
X5191531Y8770210D01*
X5182829Y8761507D01*
X5170110Y8756822D01*
X5168102Y8754814D01*
X5165425Y8753475D01*
X5161409Y8749459D01*
X5148690Y8744773D01*
X5144004Y8741426D01*
X5141327Y8738749D01*
X5131956Y8734732D01*
X5124592Y8732724D01*
X5119907Y8729377D01*
X5117229Y8726700D01*
X5114552Y8725361D01*
X5107858Y8722683D01*
X5095139Y8717998D01*
X5090454Y8713312D01*
X5081083Y8709296D01*
X5072381Y8707288D01*
X5067695Y8705279D01*
X5058323Y8698586D01*
X5048952Y8695908D01*
X5040250Y8693900D01*
X5029540Y8687206D01*
X5020838Y8683859D01*
X5010797Y8681851D01*
X5005442Y8680512D01*
X4991385Y8673149D01*
X4980675Y8670471D01*
X4971973Y8668463D01*
X4966618Y8667125D01*
X4951222Y8659761D01*
X4935157Y8657084D01*
X4929802Y8655745D01*
X4922439Y8653737D01*
X4915745Y8651059D01*
X4907043Y8647712D01*
X4890978Y8645035D01*
X4881606Y8643696D01*
X4866210Y8640349D01*
X4854831Y8637002D01*
X4844121Y8634325D01*
X4830733Y8632986D01*
X4821362Y8631647D01*
X4801950Y8629639D01*
X4785885Y8626962D01*
X4779191Y8625623D01*
X4763126Y8622945D01*
X4747060Y8621607D01*
X4708236Y8620268D01*
X4702212Y8619598D01*
X4698195Y8620937D01*
X4684808Y8619598D01*
X4582392Y8621607D01*
X4564988Y8622945D01*
X4554278Y8624284D01*
X4546245Y8625623D01*
X4532858Y8628300D01*
X4514784Y8630308D01*
X4509429Y8631647D01*
X4484662Y8633655D01*
X4476630Y8634994D01*
X4471275Y8636333D01*
X4459895Y8639680D01*
X4450524Y8642357D01*
X4445169Y8643696D01*
X4429773Y8645704D01*
X4416385Y8648382D01*
X4405006Y8653068D01*
X4395634Y8655745D01*
X4379569Y8658423D01*
X4366851Y8663108D01*
X4359488Y8666455D01*
X4343422Y8670471D01*
X4334721Y8672480D01*
X4315308Y8681182D01*
X4304598Y8683859D01*
X4297235Y8685867D01*
X4295227Y8687875D01*
X4292549Y8689214D01*
X4285856Y8693231D01*
X4269790Y8697247D01*
X4260419Y8702602D01*
X4248370Y8707957D01*
X4243015Y8709296D01*
X4234313Y8712642D01*
X4229627Y8717328D01*
X4226950Y8718667D01*
X4220256Y8721345D01*
X4211554Y8723353D01*
X4203521Y8730047D01*
X4197497Y8733394D01*
X4188795Y8735402D01*
X4184109Y8737410D01*
X4177416Y8744104D01*
X4170722Y8746781D01*
X4163358Y8748789D01*
X4158673Y8752136D01*
X4154656Y8756152D01*
X4151979Y8757491D01*
X4137253Y8765524D01*
X4133236Y8769540D01*
X4119849Y8774895D01*
X4110477Y8784267D01*
X4101775Y8787613D01*
X4097090Y8790960D01*
X4093073Y8794977D01*
X4090396Y8796315D01*
X4081024Y8801670D01*
X4072992Y8809703D01*
X4063620Y8815058D01*
X4056927Y8821752D01*
X4044878Y8828446D01*
X4036845Y8836478D01*
X4030151Y8840495D01*
X4024127Y8846519D01*
X4023457Y8848527D01*
X4020780Y8849866D01*
X4013417Y8855891D01*
X4006053Y8863254D01*
X3999360Y8867270D01*
X3989988Y8876641D01*
X3987311Y8877980D01*
X3977939Y8887352D01*
X3975262Y8888690D01*
X3960535Y8903417D01*
X3957858Y8904756D01*
X3935768Y8926845D01*
X3934430Y8929523D01*
X3918364Y8945588D01*
X3917025Y8948265D01*
X3910332Y8954959D01*
X3908993Y8957637D01*
X3898283Y8968347D01*
X3894267Y8975041D01*
X3884895Y8984412D01*
X3880879Y8991106D01*
X3876193Y8994453D01*
X3874185Y8996461D01*
X3872846Y8999138D01*
X3866822Y9006502D01*
X3859459Y9013865D01*
X3854104Y9023236D01*
X3851426Y9025914D01*
X3850087Y9028591D01*
X3847410Y9031269D01*
X3844732Y9037963D01*
X3842724Y9041310D01*
X3840046Y9042648D01*
X3834022Y9048673D01*
X3828667Y9058044D01*
X3823312Y9063399D01*
X3817957Y9076787D01*
X3808585Y9086158D01*
X3805239Y9094860D01*
X3801892Y9099546D01*
X3797875Y9103562D01*
X3792520Y9116950D01*
X3783149Y9126321D01*
X3781810Y9131676D01*
X3779802Y9140378D01*
X3769761Y9150419D01*
X3768422Y9155774D01*
X3767084Y9163807D01*
X3761059Y9171170D01*
X3756373Y9175856D01*
X3755035Y9185227D01*
X3753696Y9190582D01*
X3749010Y9196606D01*
X3746333Y9197945D01*
X3742986Y9205308D01*
X3740978Y9218027D01*
X3738970Y9220035D01*
X3737631Y9222712D01*
X3732276Y9228067D01*
X3729598Y9238778D01*
X3728259Y9246810D01*
X3718888Y9261537D01*
X3717549Y9266892D01*
X3716210Y9276263D01*
X3714872Y9281618D01*
X3713533Y9284296D01*
X3706839Y9293667D01*
X3704831Y9301030D01*
X3702154Y9318434D01*
X3699476Y9325128D01*
X3694790Y9333830D01*
X3692113Y9340524D01*
X3690774Y9353911D01*
X3689435Y9359267D01*
X3688097Y9367299D01*
X3680064Y9384703D01*
X3676717Y9417503D01*
X3675378Y9424197D01*
X3670023Y9437584D01*
X3667346Y9448295D01*
X3666007Y9461682D01*
X3664668Y9477747D01*
X3663329Y9492474D01*
X3661991Y9503184D01*
X3659313Y9513894D01*
X3657974Y9520588D01*
X3656636Y9528621D01*
X3655297Y9539331D01*
X3653289Y9578824D01*
X3651950Y9632375D01*
X3653958Y9703999D01*
X3655297Y9722742D01*
X3656636Y9734791D01*
X3660652Y9754872D01*
X3661991Y9762905D01*
X3663329Y9773615D01*
X3664668Y9787002D01*
X3666007Y9801729D01*
X3667346Y9812439D01*
X3668684Y9819133D01*
X3672701Y9829843D01*
X3674709Y9835867D01*
X3676048Y9841222D01*
X3677386Y9850594D01*
X3679394Y9867328D01*
X3680733Y9872683D01*
X3683411Y9879377D01*
X3689435Y9893434D01*
X3692782Y9915524D01*
X3696799Y9926234D01*
X3698807Y9928242D01*
X3701484Y9934936D01*
X3702823Y9940291D01*
X3704831Y9953009D01*
X3706170Y9958364D01*
X3712864Y9969075D01*
X3716210Y9977776D01*
X3718219Y9990495D01*
X3720896Y9997189D01*
X3722904Y9999197D01*
X3724243Y10001874D01*
X3726921Y10004552D01*
X3728929Y10011915D01*
X3730268Y10019948D01*
X3731606Y10025303D01*
X3736292Y10032666D01*
X3738970Y10035343D01*
X3741647Y10042037D01*
X3742986Y10051409D01*
X3748341Y10060780D01*
X3752357Y10063457D01*
X3753696Y10066135D01*
X3755035Y10070151D01*
X3756373Y10079523D01*
X3757712Y10082200D01*
X3761059Y10086886D01*
X3763737Y10088225D01*
X3767084Y10091572D01*
X3768422Y10096927D01*
X3770431Y10106967D01*
X3773778Y10111653D01*
X3780471Y10117008D01*
X3783818Y10131065D01*
X3787165Y10135751D01*
X3792520Y10139767D01*
X3797875Y10153155D01*
X3803900Y10160518D01*
X3805908Y10162526D01*
X3807916Y10169889D01*
X3811263Y10174575D01*
X3819296Y10182608D01*
X3823981Y10195326D01*
X3831344Y10202689D01*
X3836699Y10212061D01*
X3841385Y10216746D01*
X3843393Y10217416D01*
X3844732Y10220093D01*
X3850087Y10229464D01*
X3856112Y10236828D01*
X3862136Y10248207D01*
X3871507Y10257578D01*
X3872846Y10260256D01*
X3876193Y10264942D01*
X3878871Y10266280D01*
X3884895Y10272305D01*
X3886234Y10274982D01*
X3889581Y10279668D01*
X3892258Y10281007D01*
X3895605Y10284354D01*
X3896944Y10287031D01*
X3902968Y10294395D01*
X3910332Y10301758D01*
X3911670Y10304435D01*
X3921042Y10313807D01*
X3922381Y10316484D01*
X3967229Y10361333D01*
X3969907Y10362672D01*
X3980617Y10373382D01*
X3983294Y10374721D01*
X3986641Y10379406D01*
X3988649Y10381414D01*
X3991327Y10382753D01*
X3994004Y10385431D01*
X3996682Y10386769D01*
X4004715Y10394802D01*
X4007392Y10396141D01*
X4018102Y10406851D01*
X4020780Y10408190D01*
X4028143Y10414214D01*
X4032829Y10418900D01*
X4035506Y10420238D01*
X4047555Y10429610D01*
X4050233Y10432287D01*
X4059604Y10437643D01*
X4066298Y10444336D01*
X4075669Y10449692D01*
X4080355Y10453038D01*
X4081024Y10455046D01*
X4083702Y10456385D01*
X4086379Y10459063D01*
X4098428Y10465757D01*
X4101106Y10468434D01*
X4103783Y10469773D01*
X4115832Y10476467D01*
X4122526Y10483161D01*
X4131898Y10487177D01*
X4134575Y10488516D01*
X4141938Y10494540D01*
X4157334Y10503242D01*
X4165367Y10508597D01*
X4172060Y10511275D01*
X4181432Y10516630D01*
X4186787Y10521985D01*
X4194150Y10523993D01*
X4199505Y10525332D01*
X4206868Y10530017D01*
X4210885Y10534034D01*
X4217578Y10536711D01*
X4224942Y10538719D01*
X4229627Y10540727D01*
X4234982Y10546083D01*
X4244354Y10548760D01*
X4253056Y10550768D01*
X4260419Y10555454D01*
X4264435Y10559470D01*
X4273807Y10562148D01*
X4283178Y10563487D01*
X4295896Y10572189D01*
X4303259Y10574197D01*
X4312631Y10575535D01*
X4319994Y10577543D01*
X4322002Y10579552D01*
X4324680Y10580890D01*
X4328696Y10584907D01*
X4338067Y10587584D01*
X4352794Y10588923D01*
X4356810Y10590262D01*
X4363504Y10594278D01*
X4366182Y10596956D01*
X4372875Y10599633D01*
X4378230Y10600972D01*
X4402328Y10602311D01*
X4411700Y10607666D01*
X4423748Y10613021D01*
X4441152Y10614360D01*
X4461234Y10615698D01*
X4478638Y10623731D01*
X4483993Y10625070D01*
X4501397Y10626409D01*
X4536205Y10627747D01*
X4540221Y10629086D01*
X4550262Y10631094D01*
X4555617Y10632433D01*
X4562980Y10634441D01*
X4573690Y10637119D01*
X4583061Y10638458D01*
X4612514Y10639796D01*
X4613853Y10638458D01*
X4617869Y10639796D01*
X4741036Y10638458D01*
D02*
G37*
G36*
X18702499Y10435000D02*
X18680000Y10435000D01*
X18680000Y10585000D01*
X18702501Y10585000D01*
X18702499Y10435000D01*
D02*
G37*
G36*
X18660001Y10435000D02*
X18637500D01*
Y10585000D01*
X18660001D01*
Y10435000D01*
D02*
G37*
G36*
X16242500Y10435000D02*
X16220000Y10435000D01*
X16220000Y10585000D01*
X16242500Y10585000D01*
X16242500Y10435000D01*
D02*
G37*
G36*
X16200000Y10435000D02*
X16177499D01*
Y10585000D01*
X16200000D01*
Y10435000D01*
D02*
G37*
G36*
X13782500Y10435000D02*
X13760001Y10435000D01*
X13760001Y10585000D01*
X13782501Y10585000D01*
X13782500Y10435000D01*
D02*
G37*
G36*
X13739999Y10435000D02*
X13717500D01*
Y10585000D01*
X13739999D01*
Y10435000D01*
D02*
G37*
G36*
X11322500Y10435000D02*
X11300000Y10435000D01*
X11300000Y10585000D01*
X11322501Y10585000D01*
X11322500Y10435000D01*
D02*
G37*
G36*
X11280000Y10435000D02*
X11257500D01*
Y10585000D01*
X11280000D01*
Y10435000D01*
D02*
G37*
G36*
X18425000Y10377500D02*
X18385001D01*
Y10442500D01*
X18425000D01*
Y10377500D01*
D02*
G37*
G36*
X18314999D02*
X18275000D01*
Y10442500D01*
X18314999D01*
Y10377500D01*
D02*
G37*
G36*
X15964999D02*
X15925000D01*
Y10442500D01*
X15964999D01*
Y10377500D01*
D02*
G37*
G36*
X15855000D02*
X15814999D01*
Y10442500D01*
X15855000D01*
Y10377500D01*
D02*
G37*
G36*
X13505000D02*
X13464999D01*
Y10442500D01*
X13505000D01*
Y10377500D01*
D02*
G37*
G36*
X13395000D02*
X13355000D01*
Y10442500D01*
X13395000D01*
Y10377500D01*
D02*
G37*
G36*
X11045000D02*
X11005000D01*
Y10442500D01*
X11045000D01*
Y10377500D01*
D02*
G37*
G36*
X10935000D02*
X10895000D01*
Y10442500D01*
X10935000D01*
Y10377500D01*
D02*
G37*
G36*
X17692500Y9825000D02*
X17670000Y9825000D01*
X17670000Y9975000D01*
X17692500Y9975000D01*
X17692500Y9825000D01*
D02*
G37*
G36*
X17650000Y9825000D02*
X17627499D01*
Y9975000D01*
X17650000D01*
Y9825000D01*
D02*
G37*
G36*
X15232500Y9825000D02*
X15210001Y9825000D01*
X15210001Y9975000D01*
X15232500Y9975000D01*
X15232500Y9825000D01*
D02*
G37*
G36*
X15189999Y9825000D02*
X15167500D01*
Y9975000D01*
X15189999D01*
Y9825000D01*
D02*
G37*
G36*
X12772500Y9825000D02*
X12750000Y9825000D01*
X12750000Y9975000D01*
X12772500Y9975000D01*
X12772500Y9825000D01*
D02*
G37*
G36*
X12730000Y9825000D02*
X12707500D01*
Y9975000D01*
X12730000D01*
Y9825000D01*
D02*
G37*
G36*
X10312500Y9825000D02*
X10290000Y9825000D01*
X10290000Y9975000D01*
X10312501Y9975000D01*
X10312500Y9825000D01*
D02*
G37*
G36*
X10270000Y9825000D02*
X10247500D01*
Y9975000D01*
X10270000D01*
Y9825000D01*
D02*
G37*
G36*
X18032500Y8645000D02*
X18010001D01*
Y8795000D01*
X18032500D01*
Y8645000D01*
D02*
G37*
G36*
X15572501D02*
X15550000D01*
Y8795000D01*
X15572501D01*
Y8645000D01*
D02*
G37*
G36*
X13112500D02*
X13089999D01*
Y8795000D01*
X13112500D01*
Y8645000D01*
D02*
G37*
G36*
X10652500D02*
X10630000D01*
Y8795000D01*
X10652500D01*
Y8645000D01*
D02*
G37*
G36*
X17989999D02*
X17967500Y8644999D01*
X17967500Y8795000D01*
X17989999Y8795000D01*
X17989999Y8645000D01*
D02*
G37*
G36*
X15530000D02*
X15507500Y8644999D01*
X15507500Y8795000D01*
X15530000Y8795000D01*
X15530000Y8645000D01*
D02*
G37*
G36*
X13070000D02*
X13047501Y8644999D01*
X13047501Y8795000D01*
X13070000Y8795000D01*
X13070000Y8645000D01*
D02*
G37*
G36*
X10610000D02*
X10587500Y8644999D01*
X10587500Y8795000D01*
X10610000Y8795000D01*
X10610000Y8645000D01*
D02*
G37*
G36*
X17385001Y8177500D02*
X17345000D01*
Y8242500D01*
X17385001D01*
Y8177500D01*
D02*
G37*
G36*
X17275002D02*
X17235001D01*
Y8242500D01*
X17275002D01*
Y8177500D01*
D02*
G37*
G36*
X14925000D02*
X14885001D01*
Y8242500D01*
X14925000D01*
Y8177500D01*
D02*
G37*
G36*
X14814999D02*
X14775000D01*
Y8242500D01*
X14814999D01*
Y8177500D01*
D02*
G37*
G36*
X12465000D02*
X12425000D01*
Y8242500D01*
X12465000D01*
Y8177500D01*
D02*
G37*
G36*
X12355000D02*
X12315000D01*
Y8242500D01*
X12355000D01*
Y8177500D01*
D02*
G37*
G36*
X10005001D02*
X9965000D01*
Y8242500D01*
X10005001D01*
Y8177500D01*
D02*
G37*
G36*
X9895001D02*
X9855000D01*
Y8242500D01*
X9895001D01*
Y8177500D01*
D02*
G37*
G36*
X17032500Y8025000D02*
X17010001D01*
Y8175000D01*
X17032500D01*
Y8025000D01*
D02*
G37*
G36*
X14572501D02*
X14550000D01*
Y8175000D01*
X14572501D01*
Y8025000D01*
D02*
G37*
G36*
X12112500D02*
X12090000D01*
Y8175000D01*
X12112500D01*
Y8025000D01*
D02*
G37*
G36*
X9652500D02*
X9630000D01*
Y8175000D01*
X9652500D01*
Y8025000D01*
D02*
G37*
G36*
X16989999D02*
X16967499Y8025000D01*
X16967500Y8175000D01*
X16989999Y8175000D01*
X16989999Y8025000D01*
D02*
G37*
G36*
X14530000D02*
X14507500Y8025000D01*
X14507500Y8175000D01*
X14530000Y8175000D01*
X14530000Y8025000D01*
D02*
G37*
G36*
X12070000D02*
X12047499Y8025000D01*
X12047500Y8175000D01*
X12070000Y8175000D01*
X12070000Y8025000D01*
D02*
G37*
G36*
X9610000D02*
X9587499Y8025000D01*
X9587500Y8175000D01*
X9610000Y8175000D01*
X9610000Y8025000D01*
D02*
G37*
G36*
X18242500Y6265000D02*
X18220000D01*
Y6415000D01*
X18242500D01*
Y6265000D01*
D02*
G37*
G36*
X17782500D02*
X17760001D01*
Y6415000D01*
X17782500D01*
Y6265000D01*
D02*
G37*
G36*
X15782500D02*
X15760001D01*
Y6415000D01*
X15782500D01*
Y6265000D01*
D02*
G37*
G36*
X15322501D02*
X15300000D01*
Y6415000D01*
X15322501D01*
Y6265000D01*
D02*
G37*
G36*
X13322501D02*
X13300000D01*
Y6415000D01*
X13322501D01*
Y6265000D01*
D02*
G37*
G36*
X12862500D02*
X12839999D01*
Y6415000D01*
X12862500D01*
Y6265000D01*
D02*
G37*
G36*
X10862500D02*
X10840000D01*
Y6415000D01*
X10862500D01*
Y6265000D01*
D02*
G37*
G36*
X10402500D02*
X10380000D01*
Y6415000D01*
X10402500D01*
Y6265000D01*
D02*
G37*
G36*
X18200000D02*
X18177499Y6265000D01*
X18177499Y6415000D01*
X18200000Y6415000D01*
X18200000Y6265000D01*
D02*
G37*
G36*
X17739999D02*
X17717500Y6265000D01*
X17717500Y6415000D01*
X17739999Y6415000D01*
X17739999Y6265000D01*
D02*
G37*
G36*
X15739999D02*
X15717500Y6265000D01*
X15717500Y6415000D01*
X15739999Y6415000D01*
X15739999Y6265000D01*
D02*
G37*
G36*
X15280000D02*
X15257500Y6265000D01*
X15257500Y6415000D01*
X15280000Y6415000D01*
X15280000Y6265000D01*
D02*
G37*
G36*
X13280000D02*
X13257500Y6265000D01*
X13257500Y6415000D01*
X13280000Y6415000D01*
X13280000Y6265000D01*
D02*
G37*
G36*
X12820000D02*
X12797500Y6265000D01*
X12797500Y6415000D01*
X12820000Y6415000D01*
X12820000Y6265000D01*
D02*
G37*
G36*
X10820000D02*
X10797500Y6265000D01*
X10797500Y6415000D01*
X10820000Y6415000D01*
X10820000Y6265000D01*
D02*
G37*
G36*
X10360000D02*
X10337500Y6265000D01*
X10337500Y6415000D01*
X10360000Y6415000D01*
X10360000Y6265000D01*
D02*
G37*
G36*
X17385001Y6127500D02*
X17345000D01*
Y6192500D01*
X17385001D01*
Y6127500D01*
D02*
G37*
G36*
X17275000D02*
X17235001D01*
Y6192500D01*
X17275000D01*
Y6127500D01*
D02*
G37*
G36*
X17145001D02*
X17105000D01*
Y6192500D01*
X17145001D01*
Y6127500D01*
D02*
G37*
G36*
X17035001D02*
X16995000D01*
Y6192500D01*
X17035001D01*
Y6127500D01*
D02*
G37*
G36*
X14925000D02*
X14885001D01*
Y6192500D01*
X14925000D01*
Y6127500D01*
D02*
G37*
G36*
X14814999D02*
X14775000D01*
Y6192500D01*
X14814999D01*
Y6127500D01*
D02*
G37*
G36*
X14685001D02*
X14645000D01*
Y6192500D01*
X14685001D01*
Y6127500D01*
D02*
G37*
G36*
X14575000D02*
X14535001D01*
Y6192500D01*
X14575000D01*
Y6127500D01*
D02*
G37*
G36*
X12465000D02*
X12425000D01*
Y6192500D01*
X12465000D01*
Y6127500D01*
D02*
G37*
G36*
X12355000D02*
X12315000D01*
Y6192500D01*
X12355000D01*
Y6127500D01*
D02*
G37*
G36*
X12225000D02*
X12185000D01*
Y6192500D01*
X12225000D01*
Y6127500D01*
D02*
G37*
G36*
X12115000D02*
X12075000D01*
Y6192500D01*
X12115000D01*
Y6127500D01*
D02*
G37*
G36*
X10005000D02*
X9965000D01*
Y6192500D01*
X10005000D01*
Y6127500D01*
D02*
G37*
G36*
X9895000D02*
X9855000D01*
Y6192500D01*
X9895000D01*
Y6127500D01*
D02*
G37*
G36*
X9765001D02*
X9725000D01*
Y6192500D01*
X9765001D01*
Y6127500D01*
D02*
G37*
G36*
X9655001D02*
X9615000D01*
Y6192500D01*
X9655001D01*
Y6127500D01*
D02*
G37*
G36*
X18662500Y6125000D02*
X18597501D01*
Y6165000D01*
X18662500D01*
Y6125000D01*
D02*
G37*
G36*
X18242500D02*
X18177499D01*
Y6165000D01*
X18242500D01*
Y6125000D01*
D02*
G37*
G36*
X16202499D02*
X16137500D01*
Y6165000D01*
X16202499D01*
Y6125000D01*
D02*
G37*
G36*
X15782500D02*
X15717500D01*
Y6165000D01*
X15782500D01*
Y6125000D01*
D02*
G37*
G36*
X13742500D02*
X13677499D01*
Y6165000D01*
X13742500D01*
Y6125000D01*
D02*
G37*
G36*
X13322501D02*
X13257500D01*
Y6165000D01*
X13322501D01*
Y6125000D01*
D02*
G37*
G36*
X11282500D02*
X11217500D01*
Y6165000D01*
X11282500D01*
Y6125000D01*
D02*
G37*
G36*
X10862501D02*
X10797500D01*
Y6165000D01*
X10862501D01*
Y6125000D01*
D02*
G37*
G36*
X8713500Y6125000D02*
X8691000Y6125000D01*
X8691000Y6275000D01*
X8713501Y6275000D01*
X8713500Y6125000D01*
D02*
G37*
G36*
X8671000Y6125000D02*
X8648500D01*
Y6275000D01*
X8671000D01*
Y6125000D01*
D02*
G37*
G36*
X18662500Y6015000D02*
X18597501D01*
Y6055000D01*
X18662500D01*
Y6015000D01*
D02*
G37*
G36*
X18242500D02*
X18177499D01*
Y6055000D01*
X18242500D01*
Y6015000D01*
D02*
G37*
G36*
X16202499D02*
X16137500D01*
Y6055000D01*
X16202499D01*
Y6015000D01*
D02*
G37*
G36*
X15782500D02*
X15717500D01*
Y6055000D01*
X15782500D01*
Y6015000D01*
D02*
G37*
G36*
X13742500D02*
X13677499D01*
Y6055000D01*
X13742500D01*
Y6015000D01*
D02*
G37*
G36*
X13322501D02*
X13257500D01*
Y6055000D01*
X13322501D01*
Y6015000D01*
D02*
G37*
G36*
X11282500D02*
X11217500D01*
Y6055000D01*
X11282500D01*
Y6015000D01*
D02*
G37*
G36*
X10862501D02*
X10797500D01*
Y6055000D01*
X10862501D01*
Y6015000D01*
D02*
G37*
G36*
X8843500Y5905000D02*
X8821000Y5905000D01*
X8821000Y6055000D01*
X8843501Y6055001D01*
X8843500Y5905000D01*
D02*
G37*
G36*
X8801000Y5905000D02*
X8778500D01*
Y6055000D01*
X8801000D01*
Y5905000D01*
D02*
G37*
G36*
X8393501Y5905000D02*
X8371000Y5905000D01*
X8371001Y6055000D01*
X8393501Y6055001D01*
X8393501Y5905000D01*
D02*
G37*
G36*
X8351000Y5905000D02*
X8328500D01*
Y6055000D01*
X8351000D01*
Y5905000D01*
D02*
G37*
G36*
X3482505Y5464926D02*
X3417505D01*
Y5504926D01*
X3482505D01*
Y5464926D01*
D02*
G37*
G36*
X5465000Y5402500D02*
X5465000Y5380000D01*
X5315000Y5380000D01*
X5315000Y5402501D01*
X5465000Y5402500D01*
D02*
G37*
G36*
X3482505Y5354926D02*
X3417505D01*
Y5394926D01*
X3482505D01*
Y5354926D01*
D02*
G37*
G36*
X5465000Y5337500D02*
X5315000D01*
Y5360000D01*
X5465000D01*
Y5337500D01*
D02*
G37*
G36*
X5255000Y5337500D02*
X5215000D01*
Y5402500D01*
X5255000D01*
Y5337500D01*
D02*
G37*
G36*
X5145000D02*
X5105000D01*
Y5402500D01*
X5145000D01*
Y5337500D01*
D02*
G37*
G36*
X3482505Y5254925D02*
X3417505D01*
Y5294926D01*
X3482505D01*
Y5254925D01*
D02*
G37*
G36*
Y5144925D02*
X3417505D01*
Y5184926D01*
X3482505D01*
Y5144925D01*
D02*
G37*
G36*
X5292500Y5055000D02*
X5227500D01*
Y5095000D01*
X5292500D01*
Y5055000D01*
D02*
G37*
G36*
Y4945000D02*
X5227500D01*
Y4985000D01*
X5292500D01*
Y4945000D01*
D02*
G37*
G36*
X5415000Y4657500D02*
X5375000D01*
Y4722500D01*
X5415000D01*
Y4657500D01*
D02*
G37*
G36*
X5305000D02*
X5265000D01*
Y4722500D01*
X5305000D01*
Y4657500D01*
D02*
G37*
G36*
X5655000Y4647500D02*
X5615000D01*
Y4712500D01*
X5655000D01*
Y4647500D01*
D02*
G37*
G36*
X5545000D02*
X5505000D01*
Y4712500D01*
X5545000D01*
Y4647500D01*
D02*
G37*
G36*
X5452500Y4375000D02*
X5387500D01*
Y4415000D01*
X5452500D01*
Y4375000D01*
D02*
G37*
G36*
Y4265000D02*
X5387500D01*
Y4305000D01*
X5452500D01*
Y4265000D01*
D02*
G37*
%LPC*%
G36*
X4635273Y10535372D02*
X4631257Y10534034D01*
X4566996Y10532695D01*
X4562980Y10531356D01*
X4542898Y10530017D01*
X4538882Y10528679D01*
X4530180Y10526671D01*
X4519470Y10523993D01*
X4511438Y10522654D01*
X4479307Y10518638D01*
X4471275Y10517299D01*
X4460564Y10513283D01*
X4449185Y10509936D01*
X4430442Y10507258D01*
X4423079Y10505250D01*
X4416385Y10502573D01*
X4409022Y10499226D01*
X4399651Y10496548D01*
X4394296Y10495209D01*
X4382916Y10493201D01*
X4376222Y10490524D01*
X4366182Y10484499D01*
X4344092Y10479814D01*
X4330035Y10472450D01*
X4320663Y10469773D01*
X4307945Y10465087D01*
X4304598Y10461740D01*
X4295227Y10457724D01*
X4286525Y10455716D01*
X4275815Y10449022D01*
X4268451Y10445675D01*
X4263096Y10444336D01*
X4251048Y10437643D01*
X4248370Y10434965D01*
X4241676Y10432287D01*
X4230966Y10428271D01*
X4225611Y10422916D01*
X4216240Y10418900D01*
X4210885Y10417561D01*
X4203521Y10411537D01*
X4200174Y10408190D01*
X4191472Y10404843D01*
X4184109Y10400157D01*
X4181432Y10397480D01*
X4178754Y10396141D01*
X4166705Y10389447D01*
X4160011Y10382753D01*
X4153318Y10380076D01*
X4146624Y10376059D01*
X4139930Y10369366D01*
X4130559Y10364011D01*
X4125204Y10358655D01*
X4122526Y10357317D01*
X4113155Y10351962D01*
X4106461Y10345268D01*
X4103783Y10343929D01*
X4094412Y10337235D01*
X4086379Y10329203D01*
X4083702Y10327864D01*
X4072992Y10317154D01*
X4070314Y10315815D01*
X4062951Y10309790D01*
X4055588Y10302427D01*
X4052910Y10301088D01*
X4039523Y10287701D01*
X4036845Y10286362D01*
X4004045Y10253562D01*
X4002706Y10250885D01*
X3990657Y10238836D01*
X3989319Y10236158D01*
X3978609Y10225448D01*
X3977270Y10222771D01*
X3974593Y10220093D01*
X3973254Y10217416D01*
X3969907Y10214069D01*
X3967229Y10212730D01*
X3961874Y10204697D01*
X3960535Y10202020D01*
X3957858Y10200681D01*
X3953172Y10195995D01*
X3947817Y10186624D01*
X3941123Y10181269D01*
X3935768Y10171898D01*
X3929744Y10164534D01*
X3927736Y10162526D01*
X3926397Y10157171D01*
X3920372Y10149808D01*
X3914348Y10143783D01*
X3913009Y10138428D01*
X3910332Y10135751D01*
X3908993Y10133073D01*
X3903638Y10127718D01*
X3899622Y10118347D01*
X3898283Y10115669D01*
X3892258Y10108306D01*
X3888911Y10104959D01*
X3887573Y10099604D01*
X3880879Y10090233D01*
X3876862Y10083539D01*
X3873515Y10074837D01*
X3870169Y10070151D01*
X3866152Y10066135D01*
X3863475Y10059441D01*
X3861467Y10050739D01*
X3858120Y10046054D01*
X3851426Y10039360D01*
X3850087Y10029988D01*
X3846740Y10021286D01*
X3844063Y10018609D01*
X3841385Y10017270D01*
X3839377Y10015262D01*
X3836699Y10004552D01*
X3835361Y9996519D01*
X3832683Y9993842D01*
X3831344Y9991164D01*
X3827328Y9987148D01*
X3824651Y9980454D01*
X3822642Y9967736D01*
X3819965Y9961042D01*
X3813941Y9955017D01*
X3811263Y9948324D01*
X3809924Y9930920D01*
X3799214Y9914854D01*
X3797875Y9905483D01*
X3796536Y9890757D01*
X3787834Y9878038D01*
X3785826Y9870675D01*
X3784488Y9859965D01*
X3785826Y9858626D01*
X3784488Y9854610D01*
X3783149Y9839884D01*
X3776455Y9830512D01*
X3773778Y9823818D01*
X3772439Y9814447D01*
X3771100Y9778300D01*
X3768422Y9771607D01*
X3761729Y9754202D01*
X3760390Y9748847D01*
X3759051Y9723411D01*
X3758382Y9603591D01*
X3759720Y9516572D01*
X3761059Y9505861D01*
X3766414Y9491135D01*
X3769761Y9482433D01*
X3771100Y9477078D01*
X3773108Y9436246D01*
X3775786Y9429552D01*
X3781141Y9421519D01*
X3784488Y9412817D01*
X3785826Y9386042D01*
X3794528Y9373324D01*
X3797875Y9364622D01*
X3799214Y9341863D01*
X3805239Y9334499D01*
X3809924Y9325797D01*
X3811263Y9320442D01*
X3812602Y9305716D01*
X3819296Y9299022D01*
X3820634Y9296345D01*
X3823312Y9289651D01*
X3825989Y9273585D01*
X3832014Y9266222D01*
X3835361Y9262875D01*
X3836699Y9257520D01*
X3838038Y9245471D01*
X3840046Y9242125D01*
X3842724Y9240786D01*
X3847410Y9236100D01*
X3850087Y9226729D01*
X3851426Y9218696D01*
X3860797Y9209325D01*
X3863475Y9198615D01*
X3866822Y9191251D01*
X3869499Y9189913D01*
X3872846Y9186566D01*
X3875524Y9179872D01*
X3878871Y9171170D01*
X3883556Y9166484D01*
X3884895Y9163807D01*
X3892928Y9149080D01*
X3899622Y9142387D01*
X3900960Y9137032D01*
X3906315Y9127660D01*
X3911670Y9122305D01*
X3918364Y9110256D01*
X3920372Y9108248D01*
X3922381Y9107578D01*
X3923719Y9104901D01*
X3929074Y9095530D01*
X3931752Y9092852D01*
X3933091Y9090175D01*
X3937107Y9086158D01*
X3938446Y9083481D01*
X3945139Y9074109D01*
X3951833Y9067416D01*
X3955850Y9060722D01*
X3963882Y9052689D01*
X3965221Y9050012D01*
X3971246Y9042648D01*
X3977270Y9036624D01*
X3978609Y9033946D01*
X3987980Y9024575D01*
X3989319Y9021898D01*
X3994674Y9016543D01*
X3996013Y9013865D01*
X4018772Y8991106D01*
X4020110Y8988428D01*
X4023457Y8985081D01*
X4026135Y8983743D01*
X4044878Y8965000D01*
X4047555Y8963661D01*
X4055588Y8955629D01*
X4058265Y8954290D01*
X4068306Y8944249D01*
X4068975Y8943580D01*
X4071653Y8942241D01*
X4079016Y8936217D01*
X4085041Y8930192D01*
X4087718Y8928853D01*
X4097090Y8919482D01*
X4099767Y8918143D01*
X4107130Y8912119D01*
X4110477Y8907433D01*
X4125204Y8899401D01*
X4130559Y8894045D01*
X4141938Y8888021D01*
X4143277Y8885343D01*
X4147962Y8880658D01*
X4160011Y8873964D01*
X4164028Y8869948D01*
X4170722Y8867270D01*
X4176077Y8865931D01*
X4180762Y8862584D01*
X4182101Y8859907D01*
X4188125Y8853882D01*
X4196828Y8851874D01*
X4201513Y8849866D01*
X4208207Y8843172D01*
X4216909Y8839825D01*
X4224272Y8835140D01*
X4229627Y8829785D01*
X4238999Y8828446D01*
X4248370Y8823091D01*
X4250378Y8821083D01*
X4251048Y8819075D01*
X4253725Y8817736D01*
X4257741Y8816397D01*
X4263096Y8815058D01*
X4269790Y8813719D01*
X4277153Y8807695D01*
X4279162Y8805687D01*
X4285856Y8803009D01*
X4297235Y8801001D01*
X4304598Y8796315D01*
X4307276Y8793638D01*
X4309953Y8792299D01*
X4316647Y8789622D01*
X4330035Y8788283D01*
X4337398Y8782259D01*
X4339406Y8780250D01*
X4346100Y8777573D01*
X4355471Y8776234D01*
X4366182Y8774895D01*
X4379569Y8765524D01*
X4384924Y8764185D01*
X4404336Y8762177D01*
X4411030Y8759499D01*
X4413038Y8757491D01*
X4415716Y8756152D01*
X4425087Y8752136D01*
X4434458Y8750797D01*
X4453201Y8749459D01*
X4457218Y8748120D01*
X4471944Y8741426D01*
X4482654Y8738749D01*
X4508091Y8737410D01*
X4520809Y8735402D01*
X4527503Y8734063D01*
X4538213Y8731385D01*
X4549592Y8728038D01*
X4558964Y8726700D01*
X4588417Y8725361D01*
X4597788Y8724022D01*
X4757101Y8725361D01*
X4761117Y8726700D01*
X4778521Y8728038D01*
X4782538Y8729377D01*
X4801280Y8734732D01*
X4806636Y8736071D01*
X4848807Y8739418D01*
X4855500Y8742096D01*
X4869557Y8748120D01*
X4874913Y8749459D01*
X4901688Y8752136D01*
X4911059Y8757491D01*
X4923108Y8762846D01*
X4942520Y8764854D01*
X4947875Y8766193D01*
X4953900Y8772218D01*
X4960594Y8774895D01*
X4969965Y8776234D01*
X4980675Y8777573D01*
X4990046Y8784267D01*
X4992724Y8786944D01*
X5003434Y8789622D01*
X5014144Y8790960D01*
X5020838Y8797654D01*
X5030209Y8801670D01*
X5041589Y8803679D01*
X5048952Y8808364D01*
X5052968Y8812381D01*
X5059662Y8815058D01*
X5069703Y8817066D01*
X5074389Y8820413D01*
X5078405Y8824430D01*
X5081083Y8825768D01*
X5087776Y8828446D01*
X5095139Y8830454D01*
X5097148Y8832462D01*
X5099825Y8833801D01*
X5103841Y8837817D01*
X5117229Y8843172D01*
X5126601Y8852544D01*
X5137311Y8853882D01*
X5143335Y8858568D01*
X5144674Y8861246D01*
X5149360Y8865931D01*
X5158062Y8869278D01*
X5162747Y8872625D01*
X5165425Y8875303D01*
X5168102Y8876641D01*
X5174796Y8879319D01*
X5177474Y8880658D01*
X5180820Y8882666D01*
X5182159Y8885343D01*
X5188184Y8891368D01*
X5197555Y8896723D01*
X5204249Y8903417D01*
X5216298Y8910110D01*
X5221653Y8915466D01*
X5224330Y8916804D01*
X5233032Y8922829D01*
X5234371Y8925506D01*
X5237718Y8928853D01*
X5240396Y8930192D01*
X5247759Y8936217D01*
X5251106Y8940902D01*
X5253783Y8942241D01*
X5261146Y8948265D01*
X5268510Y8955629D01*
X5271187Y8956967D01*
X5281897Y8967678D01*
X5284575Y8969016D01*
X5324069Y9008510D01*
X5325407Y9011187D01*
X5337456Y9023236D01*
X5338795Y9025914D01*
X5349505Y9036624D01*
X5350844Y9039301D01*
X5360215Y9048673D01*
X5361554Y9051350D01*
X5367578Y9058714D01*
X5373603Y9064738D01*
X5377619Y9071432D01*
X5382974Y9076787D01*
X5384313Y9079464D01*
X5386990Y9082142D01*
X5392346Y9091513D01*
X5397701Y9096869D01*
X5399039Y9099546D01*
X5407741Y9112264D01*
X5412427Y9116950D01*
X5415104Y9123644D01*
X5421129Y9131007D01*
X5423137Y9133015D01*
X5425815Y9139709D01*
X5429831Y9146403D01*
X5436525Y9153097D01*
X5439202Y9159790D01*
X5442549Y9168492D01*
X5448574Y9174517D01*
X5451251Y9181211D01*
X5457945Y9193259D01*
X5461961Y9197276D01*
X5463300Y9202631D01*
X5466647Y9211333D01*
X5473341Y9219366D01*
X5476688Y9226729D01*
X5478696Y9236769D01*
X5482043Y9241455D01*
X5486059Y9245471D01*
X5488737Y9252165D01*
X5490075Y9257520D01*
X5492084Y9264884D01*
X5496769Y9272247D01*
X5499447Y9274924D01*
X5502124Y9281618D01*
X5503463Y9290990D01*
X5504802Y9299022D01*
X5514173Y9308393D01*
X5515512Y9313748D01*
X5516851Y9331153D01*
X5520867Y9337846D01*
X5526222Y9343201D01*
X5528900Y9353911D01*
X5530238Y9375332D01*
X5536263Y9382695D01*
X5538271Y9384703D01*
X5540949Y9391397D01*
X5542287Y9408801D01*
X5543626Y9423527D01*
X5554336Y9446286D01*
X5555675Y9487788D01*
X5557014Y9491804D01*
X5559022Y9499168D01*
X5561700Y9505861D01*
X5565046Y9517241D01*
X5566385Y9530629D01*
X5567724Y9548032D01*
X5566385Y9738137D01*
X5565046Y9742154D01*
X5563038Y9749517D01*
X5559691Y9756880D01*
X5557014Y9766251D01*
X5555675Y9775623D01*
X5552998Y9818463D01*
X5547642Y9827835D01*
X5543626Y9837206D01*
X5542287Y9842561D01*
X5540949Y9867998D01*
X5535593Y9877369D01*
X5532916Y9880047D01*
X5530238Y9886740D01*
X5528900Y9896112D01*
X5527561Y9912177D01*
X5521537Y9919540D01*
X5518190Y9925565D01*
X5516851Y9930920D01*
X5515512Y9944307D01*
X5514173Y9949662D01*
X5508149Y9957026D01*
X5504802Y9960373D01*
X5503463Y9969744D01*
X5501455Y9979785D01*
X5498108Y9984470D01*
X5494092Y9988486D01*
X5490075Y10001874D01*
X5488067Y10009238D01*
X5482712Y10017270D01*
X5480704Y10019278D01*
X5478027Y10025972D01*
X5476688Y10031327D01*
X5471333Y10040698D01*
X5468655Y10043376D01*
X5464639Y10052747D01*
X5461292Y10061449D01*
X5459284Y10063457D01*
X5457945Y10066135D01*
X5455267Y10068812D01*
X5451251Y10078184D01*
X5445896Y10087555D01*
X5441880Y10091572D01*
X5439202Y10098265D01*
X5433847Y10107637D01*
X5428492Y10112992D01*
X5425815Y10119686D01*
X5420460Y10129057D01*
X5416443Y10133073D01*
X5409750Y10145122D01*
X5403056Y10151816D01*
X5396362Y10163865D01*
X5389668Y10170559D01*
X5384313Y10179930D01*
X5378958Y10185285D01*
X5377619Y10187963D01*
X5374942Y10190640D01*
X5370925Y10197334D01*
X5362893Y10205367D01*
X5358877Y10212061D01*
X5354191Y10215407D01*
X5352183Y10217416D01*
X5350844Y10220093D01*
X5344819Y10227456D01*
X5336117Y10236158D01*
X5334779Y10238836D01*
X5331432Y10242183D01*
X5328754Y10243522D01*
X5325407Y10248207D01*
X5313358Y10260256D01*
X5312020Y10262933D01*
X5305995Y10268958D01*
X5303987Y10269627D01*
X5302648Y10272305D01*
X5296624Y10278329D01*
X5293946Y10279668D01*
X5280559Y10293056D01*
X5277881Y10294395D01*
X5274534Y10297741D01*
X5273195Y10300419D01*
X5268510Y10303766D01*
X5262485Y10308452D01*
X5261146Y10311129D01*
X5256461Y10315815D01*
X5253783Y10317154D01*
X5247759Y10321839D01*
X5246420Y10324517D01*
X5243073Y10327864D01*
X5236379Y10331880D01*
X5228347Y10339913D01*
X5218975Y10345268D01*
X5216298Y10347945D01*
X5213620Y10349284D01*
X5209604Y10353300D01*
X5200233Y10358655D01*
X5198225Y10360664D01*
X5196886Y10363341D01*
X5182159Y10372712D01*
X5177474Y10377398D01*
X5162747Y10385431D01*
X5156053Y10392125D01*
X5147351Y10395471D01*
X5142666Y10398818D01*
X5138649Y10402835D01*
X5131956Y10405512D01*
X5122584Y10410867D01*
X5118568Y10414884D01*
X5115890Y10416222D01*
X5102503Y10421577D01*
X5095139Y10427602D01*
X5093131Y10429610D01*
X5083760Y10432287D01*
X5074389Y10437643D01*
X5071711Y10440320D01*
X5065017Y10442998D01*
X5052299Y10447683D01*
X5047613Y10451030D01*
X5035564Y10456385D01*
X5030209Y10457724D01*
X5018160Y10464418D01*
X5015483Y10467095D01*
X4993393Y10473120D01*
X4977997Y10480483D01*
X4972642Y10481822D01*
X4963941Y10483830D01*
X4955239Y10487177D01*
X4940512Y10493871D01*
X4927794Y10495879D01*
X4921100Y10497218D01*
X4914406Y10499895D01*
X4900349Y10505920D01*
X4894994Y10507258D01*
X4881606Y10508597D01*
X4876251Y10509936D01*
X4867549Y10511944D01*
X4853492Y10517969D01*
X4834750Y10520646D01*
X4812660Y10522654D01*
X4792578Y10526671D01*
X4785215Y10528679D01*
X4779860Y10530017D01*
X4770489Y10531356D01*
X4737020Y10532695D01*
X4727648Y10534034D01*
X4635273Y10535372D01*
D02*
G37*
%LPD*%
G36*
X4696187Y10143783D02*
X4700203Y10139767D01*
X4700873Y10137759D01*
X4703550Y10136420D01*
X4706897Y10133073D01*
X4709575Y10126380D01*
X4711583Y10115000D01*
X4716269Y10108975D01*
X4717608Y10106298D01*
X4720285Y10103620D01*
X4722963Y10096927D01*
X4724971Y10086886D01*
X4726979Y10082200D01*
X4732334Y10076845D01*
X4736350Y10067474D01*
X4738358Y10057433D01*
X4741705Y10052747D01*
X4745722Y10048731D01*
X4748399Y10042037D01*
X4751077Y10029988D01*
X4757101Y10022625D01*
X4759109Y10020617D01*
X4761787Y10011246D01*
X4763795Y10003882D01*
X4768481Y9996519D01*
X4772497Y9992503D01*
X4774505Y9983801D01*
X4778521Y9973091D01*
X4781868Y9969744D01*
X4783207Y9967066D01*
X4787223Y9957695D01*
X4789231Y9950332D01*
X4795925Y9939622D01*
X4799272Y9932259D01*
X4801950Y9922887D01*
X4807305Y9913516D01*
X4811321Y9906822D01*
X4813999Y9897451D01*
X4815337Y9892096D01*
X4824709Y9878708D01*
X4826717Y9870006D01*
X4829394Y9863312D01*
X4832741Y9859965D01*
X4834080Y9857288D01*
X4838096Y9847916D01*
X4839435Y9842561D01*
X4846129Y9830512D01*
X4848807Y9827835D01*
X4851484Y9818463D01*
X4854831Y9809761D01*
X4860186Y9801729D01*
X4863533Y9794365D01*
X4865541Y9787002D01*
X4868219Y9780308D01*
X4870227Y9778300D01*
X4871566Y9775623D01*
X4876921Y9763574D01*
X4878259Y9758219D01*
X4883615Y9748847D01*
X4886292Y9746170D01*
X4888970Y9736799D01*
X4893655Y9728097D01*
X4903027Y9726758D01*
X4974651Y9727427D01*
X5067695Y9726758D01*
X5071711Y9728097D01*
X5105180Y9726758D01*
X5138649Y9728097D01*
X5160070Y9726758D01*
X5265832Y9725419D01*
X5268510Y9722742D01*
X5271187Y9721403D01*
X5280559Y9702660D01*
X5283906Y9699313D01*
X5285244Y9696636D01*
X5287922Y9689942D01*
X5294616Y9677893D01*
X5297293Y9675215D01*
X5301309Y9665844D01*
X5303987Y9659150D01*
X5310011Y9651787D01*
X5313358Y9644424D01*
X5316705Y9635722D01*
X5321391Y9631036D01*
X5322730Y9628358D01*
X5326746Y9618987D01*
X5332101Y9609616D01*
X5334779Y9606938D01*
X5336117Y9604261D01*
X5340134Y9594889D01*
X5345489Y9585518D01*
X5349505Y9581502D01*
X5354860Y9566775D01*
X5364232Y9557404D01*
X5362893Y9548032D01*
X5359546Y9544686D01*
X5350844Y9544016D01*
X4998079Y9544686D01*
X4989377Y9540000D01*
X4990716Y9530629D01*
X4997410Y9518580D01*
X5001426Y9514563D01*
X5004104Y9507869D01*
X5006112Y9499168D01*
X5010797Y9491804D01*
X5016152Y9483772D01*
X5018160Y9475070D01*
X5020838Y9468376D01*
X5024185Y9463690D01*
X5029540Y9455658D01*
X5031548Y9446956D01*
X5032887Y9441601D01*
X5042928Y9427544D01*
X5046275Y9413487D01*
X5052968Y9405454D01*
X5054977Y9403446D01*
X5058993Y9387381D01*
X5063678Y9381356D01*
X5066356Y9380017D01*
X5068364Y9378009D01*
X5069703Y9372654D01*
X5071042Y9360605D01*
X5075727Y9354581D01*
X5078405Y9353242D01*
X5081752Y9349895D01*
X5083091Y9340524D01*
X5084430Y9332491D01*
X5095139Y9321781D01*
X5096478Y9312410D01*
X5095139Y9304377D01*
X5093131Y9301030D01*
X5087776Y9299692D01*
X4903027Y9301030D01*
X4898341Y9305716D01*
X4897002Y9309732D01*
X4896333Y9310401D01*
X4890978Y9318434D01*
X4888970Y9320442D01*
X4886962Y9327806D01*
X4885623Y9333161D01*
X4878929Y9343871D01*
X4876921Y9345879D01*
X4875582Y9351234D01*
X4874243Y9355250D01*
X4872904Y9360605D01*
X4868888Y9367299D01*
X4863533Y9375332D01*
X4860855Y9382026D01*
X4858847Y9389389D01*
X4852154Y9400099D01*
X4848807Y9408801D01*
X4846799Y9416164D01*
X4842113Y9423527D01*
X4836758Y9435576D01*
X4832072Y9448295D01*
X4828725Y9451641D01*
X4827386Y9454319D01*
X4823370Y9463690D01*
X4822031Y9469045D01*
X4815337Y9481094D01*
X4812660Y9483772D01*
X4809983Y9493143D01*
X4805966Y9503853D01*
X4800611Y9509208D01*
X4797934Y9515902D01*
X4795925Y9524604D01*
X4793917Y9529290D01*
X4787893Y9536653D01*
X4784546Y9544016D01*
X4782538Y9554057D01*
X4775844Y9562090D01*
X4773836Y9564098D01*
X4771158Y9574808D01*
X4769150Y9582171D01*
X4767142Y9584179D01*
X4765803Y9586857D01*
X4761787Y9590873D01*
X4759109Y9600244D01*
X4757101Y9607608D01*
X4752415Y9614971D01*
X4749738Y9617648D01*
X4747060Y9624342D01*
X4745722Y9629697D01*
X4743713Y9637060D01*
X4739697Y9643754D01*
X4737689Y9644424D01*
X4736350Y9647101D01*
X4732334Y9656473D01*
X4730995Y9665844D01*
X4724971Y9673207D01*
X4721624Y9676554D01*
X4720285Y9681909D01*
X4717608Y9693958D01*
X4708236Y9703329D01*
X4706897Y9712701D01*
X4705559Y9720733D01*
X4700873Y9725419D01*
X4698195Y9726758D01*
X4696187Y9728766D01*
X4694849Y9734121D01*
X4692840Y9746839D01*
X4690163Y9750856D01*
X4687485Y9752194D01*
X4682800Y9756880D01*
X4681461Y9766251D01*
X4679453Y9773615D01*
X4676106Y9778300D01*
X4668743Y9788341D01*
X4663387Y9789680D01*
X4660710Y9788341D01*
X4658702Y9786333D01*
X4656694Y9769598D01*
X4652677Y9765582D01*
X4650000Y9764243D01*
X4646653Y9760896D01*
X4645314Y9755541D01*
X4643975Y9744831D01*
X4634604Y9735460D01*
X4631926Y9726088D01*
X4630588Y9719395D01*
X4621216Y9710023D01*
X4619208Y9701321D01*
X4617869Y9695966D01*
X4613853Y9689272D01*
X4611845Y9688603D01*
X4610506Y9685926D01*
X4607829Y9683248D01*
X4605821Y9673207D01*
X4603812Y9668521D01*
X4597788Y9661158D01*
X4595780Y9659150D01*
X4593102Y9648440D01*
X4587747Y9639069D01*
X4583731Y9635052D01*
X4581053Y9625681D01*
X4577706Y9616979D01*
X4574360Y9613632D01*
X4573021Y9610955D01*
X4570343Y9608277D01*
X4569005Y9602922D01*
X4564319Y9590204D01*
X4556956Y9582840D01*
X4554947Y9574139D01*
X4552270Y9567445D01*
X4548923Y9562759D01*
X4546245Y9560081D01*
X4543568Y9553388D01*
X4540221Y9544686D01*
X4535535Y9537323D01*
X4532858Y9534645D01*
X4530180Y9527951D01*
X4528172Y9520588D01*
X4523487Y9513225D01*
X4520809Y9510547D01*
X4518131Y9503853D01*
X4514784Y9495151D01*
X4510099Y9487788D01*
X4506082Y9481094D01*
X4501397Y9468376D01*
X4498050Y9463690D01*
X4492695Y9455658D01*
X4488009Y9442939D01*
X4482654Y9434907D01*
X4480646Y9432899D01*
X4479307Y9427544D01*
X4477968Y9423527D01*
X4471275Y9411479D01*
X4468597Y9408801D01*
X4464581Y9395413D01*
X4459226Y9386042D01*
X4456548Y9383364D01*
X4453871Y9376671D01*
X4450524Y9367969D01*
X4447177Y9363283D01*
X4441822Y9355250D01*
X4439814Y9347887D01*
X4437136Y9341193D01*
X4433789Y9337846D01*
X4432450Y9335169D01*
X4429773Y9332491D01*
X4427765Y9325128D01*
X4424418Y9316426D01*
X4421740Y9313748D01*
X4420401Y9311071D01*
X4417724Y9308393D01*
X4416385Y9305716D01*
X4411700Y9301030D01*
X4406345Y9299692D01*
X4227619Y9299022D01*
X4222264Y9300361D01*
X4218248Y9304377D01*
X4219587Y9317765D01*
X4222933Y9322450D01*
X4225611Y9323789D01*
X4227619Y9325797D01*
X4230297Y9332491D01*
X4231635Y9337846D01*
X4234313Y9344540D01*
X4236991Y9347218D01*
X4237660Y9349226D01*
X4239668Y9349895D01*
X4241007Y9352573D01*
X4243684Y9359267D01*
X4247701Y9369977D01*
X4250378Y9372654D01*
X4251717Y9375332D01*
X4254395Y9378009D01*
X4257072Y9387381D01*
X4262427Y9396752D01*
X4267782Y9402107D01*
X4270460Y9411479D01*
X4275815Y9420850D01*
X4279831Y9424866D01*
X4282509Y9434237D01*
X4285856Y9442939D01*
X4293219Y9450303D01*
X4297235Y9466368D01*
X4305267Y9474400D01*
X4307945Y9481094D01*
X4309953Y9489796D01*
X4316647Y9497829D01*
X4318655Y9499837D01*
X4321333Y9509208D01*
X4323341Y9516572D01*
X4330035Y9524604D01*
X4333382Y9527951D01*
X4336059Y9534645D01*
X4334721Y9541339D01*
X4332712Y9543347D01*
X4323341Y9544686D01*
X4309284Y9544016D01*
X4234982Y9544686D01*
X4230966Y9543347D01*
X4225611Y9544686D01*
X4160011Y9543347D01*
X4128551Y9544016D01*
X4081024Y9543347D01*
X4077008Y9544686D01*
X4032829Y9543347D01*
X4028812Y9544686D01*
X3977270Y9544016D01*
X3976601Y9544686D01*
X3972584Y9543347D01*
X3955180Y9544686D01*
X3951833Y9546694D01*
X3950495Y9552049D01*
X3951833Y9557404D01*
X3961205Y9566775D01*
X3964552Y9575477D01*
X3967899Y9580163D01*
X3970576Y9582840D01*
X3971915Y9585518D01*
X3979948Y9600244D01*
X3982625Y9602922D01*
X3983964Y9605600D01*
X3991996Y9620326D01*
X3997351Y9625681D01*
X4001368Y9635052D01*
X4005384Y9641746D01*
X4009400Y9645763D01*
X4010739Y9648440D01*
X4018772Y9663166D01*
X4022788Y9667183D01*
X4026804Y9676554D01*
X4030820Y9683248D01*
X4034837Y9687264D01*
X4036176Y9689942D01*
X4044208Y9704668D01*
X4046886Y9707346D01*
X4048225Y9710023D01*
X4055588Y9724080D01*
X4062282Y9726758D01*
X4430442Y9728097D01*
X4435128Y9731444D01*
X4441152Y9748178D01*
X4445838Y9752864D01*
X4448516Y9759558D01*
X4453201Y9772276D01*
X4455209Y9774284D01*
X4456548Y9776962D01*
X4460564Y9780978D01*
X4462572Y9788341D01*
X4465250Y9795035D01*
X4468597Y9799721D01*
X4471275Y9802398D01*
X4473952Y9809092D01*
X4477299Y9817794D01*
X4483993Y9828504D01*
X4486001Y9830512D01*
X4488009Y9837875D01*
X4490687Y9844569D01*
X4496042Y9852602D01*
X4498050Y9854610D01*
X4500727Y9861304D01*
X4502066Y9866659D01*
X4507421Y9876030D01*
X4511438Y9880047D01*
X4513446Y9887410D01*
X4516123Y9894104D01*
X4520809Y9901467D01*
X4523487Y9904144D01*
X4526164Y9910838D01*
X4528172Y9918201D01*
X4532858Y9925565D01*
X4535535Y9928242D01*
X4538213Y9934936D01*
X4542898Y9947654D01*
X4548923Y9953679D01*
X4554947Y9970413D01*
X4558294Y9975099D01*
X4560972Y9977776D01*
X4562311Y9980454D01*
X4564988Y9987148D01*
X4566996Y9994511D01*
X4569005Y9996519D01*
X4570343Y9999197D01*
X4574360Y10003213D01*
X4577037Y10009907D01*
X4578376Y10015262D01*
X4583731Y10024633D01*
X4586408Y10027311D01*
X4587747Y10029988D01*
X4590425Y10036682D01*
X4592433Y10044045D01*
X4595780Y10048731D01*
X4598457Y10051409D01*
X4599796Y10054086D01*
X4603812Y10063457D01*
X4605151Y10070151D01*
X4611176Y10077515D01*
X4614523Y10080861D01*
X4615861Y10086217D01*
X4617869Y10094919D01*
X4624563Y10102951D01*
X4627910Y10106298D01*
X4629249Y10115669D01*
X4631926Y10122363D01*
X4636612Y10127049D01*
X4639290Y10128388D01*
X4642637Y10135751D01*
X4643975Y10143783D01*
X4647322Y10148469D01*
X4652677Y10149808D01*
X4672089Y10149138D01*
X4688824Y10149808D01*
X4696187Y10143783D01*
D02*
G37*
D58*
X13650000Y1900000D02*
G03*
X13650000Y1900000I-1800000J0D01*
G01*
X8499005Y13320425D02*
G03*
X8499005Y13320425I-10000J0D01*
G01*
X7510000Y17365700D02*
G03*
X7490000Y17365700I-10000J0D01*
G01*
D02*
G03*
X7510000Y17365700I10000J0D01*
G01*
X8300000Y19500000D02*
G03*
X8300000Y19500000I-1800000J0D01*
G01*
X4500000D02*
G03*
X4500000Y19500000I-1800000J0D01*
G01*
X10184300Y14789999D02*
G03*
X10184300Y14770000I0J-10000D01*
G01*
D02*
G03*
X10184300Y14789999I0J10000D01*
G01*
X8081000Y4184300D02*
G03*
X8061000Y4184300I-10000J0D01*
G01*
D02*
G03*
X8081000Y4184300I10000J0D01*
G01*
X2560000Y3275000D02*
G03*
X2560000Y3275000I-10000J0D01*
G01*
X1180995Y16899574D02*
G03*
X1180995Y16899574I-10000J0D01*
G01*
X5049005Y4700426D02*
G03*
X5049005Y4700426I-10000J0D01*
G01*
X17350000Y1900000D02*
G03*
X17350000Y1900000I-1800000J0D01*
G01*
X3908000Y14741499D02*
Y15264500D01*
Y14741499D02*
X5208000D01*
X3908000Y15264500D02*
X5208000D01*
Y14741499D02*
Y15264500D01*
X12845000Y22770000D02*
Y23389999D01*
X13039999D01*
X12845000Y22770000D02*
X13039999D01*
X13300000D02*
X13495000D01*
X13300000Y23389999D02*
X13495000D01*
Y22770000D02*
Y23389999D01*
X17050000Y12760000D02*
Y13270000D01*
X18639999D01*
Y12760000D02*
Y13270000D01*
X17050000Y12760000D02*
X18639999D01*
X17885001Y10100000D02*
Y10720000D01*
X17689999Y10100000D02*
X17885001D01*
X17689999Y10720000D02*
X17885001D01*
X17235001D02*
X17430000D01*
X17235001Y10100000D02*
X17430000D01*
X17235001D02*
Y10720000D01*
X17697501Y12620000D02*
X18064500D01*
X17795500Y12460000D02*
X18064500D01*
X17072501Y11280000D02*
Y11560000D01*
X16847501Y11280000D02*
Y11560000D01*
X13689999Y5350000D02*
Y5860000D01*
X12100000Y5350000D02*
X13689999D01*
X12100000D02*
Y5860000D01*
X13689999D01*
X12855000Y7900000D02*
Y8520000D01*
X13050000D01*
X12855000Y7900000D02*
X13050000D01*
X13310001D02*
X13505000D01*
X13310001Y8520000D02*
X13505000D01*
Y7900000D02*
Y8520000D01*
X12675500Y6000000D02*
X13042500D01*
X12675500Y6160000D02*
X12944501D01*
X13667500Y7060000D02*
Y7340000D01*
X13892500Y7060000D02*
Y7340000D01*
X8267505Y13609926D02*
Y14289926D01*
X7432505Y13609926D02*
Y14289926D01*
Y13609926D02*
X8267505D01*
X7432505Y14289926D02*
X8267505D01*
X6700005Y13059924D02*
X7100005D01*
X6700005Y13459926D02*
X7100005D01*
X6700005Y13059924D02*
Y13089926D01*
Y13429926D02*
Y13459926D01*
X7100005Y13059924D02*
Y13089926D01*
Y13429926D02*
Y13459926D01*
X7620000Y16179700D02*
Y16931700D01*
X6491000Y16179700D02*
X7620000D01*
X6491000D02*
Y16931700D01*
X7620000D01*
X1075000Y21700000D02*
X4325000D01*
X1075000D02*
Y23300000D01*
X4325000D01*
Y21700000D02*
Y23300000D01*
X9750300Y14660001D02*
Y15789000D01*
X8998300D02*
X9750300D01*
X8998300Y14660001D02*
Y15789000D01*
Y14660001D02*
X9750300D01*
X14560001Y5860000D02*
X16150000D01*
X14560001Y5350000D02*
Y5860000D01*
Y5350000D02*
X16150000D01*
Y5860000D01*
X9630000Y20730000D02*
X11220000D01*
X9630000Y20220000D02*
Y20730000D01*
Y20220000D02*
X11220000D01*
Y20730000D01*
X12090000D02*
X13680000D01*
X12090000Y20220000D02*
Y20730000D01*
Y20220000D02*
X13680000D01*
Y20730000D01*
X14550000D02*
X16139999D01*
X14550000Y20220000D02*
Y20730000D01*
Y20220000D02*
X16139999D01*
Y20730000D01*
X17010001D02*
X18600000D01*
X17010001Y20220000D02*
Y20730000D01*
Y20220000D02*
X18600000D01*
Y20730000D01*
X9670000Y12760000D02*
X11260000D01*
Y13270000D01*
X9670000D02*
X11260000D01*
X9670000Y12760000D02*
Y13270000D01*
X12130000Y12760000D02*
X13720000D01*
Y13270000D01*
X12130000D02*
X13720000D01*
X12130000Y12760000D02*
Y13270000D01*
X14589999Y12760000D02*
X16180000D01*
Y13270000D01*
X14589999D02*
X16180000D01*
X14589999Y12760000D02*
Y13270000D01*
X17020000Y5860000D02*
X18610001D01*
X17020000Y5350000D02*
Y5860000D01*
Y5350000D02*
X18610001D01*
Y5860000D01*
X9640000D02*
X11230000D01*
X9640000Y5350000D02*
Y5860000D01*
Y5350000D02*
X11230000D01*
Y5860000D01*
X10215500Y6160000D02*
X10484500D01*
X10215500Y6000000D02*
X10582500D01*
X7951000Y4618300D02*
X9080000D01*
Y5370300D01*
X7951000D02*
X9080000D01*
X7951000Y4618300D02*
Y5370300D01*
X10205500Y21030000D02*
X10474500D01*
X10205500Y20870000D02*
X10572500D01*
X11035000Y22770000D02*
Y23389999D01*
X10840000D02*
X11035000D01*
X10840000Y22770000D02*
X11035000D01*
X10385000D02*
X10580000D01*
X10385000Y23389999D02*
X10580000D01*
X10385000Y22770000D02*
Y23389999D01*
X11422500Y21930000D02*
Y22210001D01*
X11197500Y21930000D02*
Y22210001D01*
X12665500Y21030000D02*
X12934500D01*
X12665500Y20870000D02*
X13032500D01*
X13882500Y21930000D02*
Y22210001D01*
X13657500Y21930000D02*
Y22210001D01*
X15125500Y21030000D02*
X15394501D01*
X15125500Y20870000D02*
X15492500D01*
X15955000Y22770000D02*
Y23389999D01*
X15760001D02*
X15955000D01*
X15760001Y22770000D02*
X15955000D01*
X15305000D02*
X15500000D01*
X15305000Y23389999D02*
X15500000D01*
X15305000Y22770000D02*
Y23389999D01*
X16342500Y21930000D02*
Y22210001D01*
X16117500Y21930000D02*
Y22210001D01*
X17585500Y21030000D02*
X17854500D01*
X17585500Y20870000D02*
X17952499D01*
X18414999Y22770000D02*
Y23389999D01*
X18220000D02*
X18414999D01*
X18220000Y22770000D02*
X18414999D01*
X17764999D02*
X17960001D01*
X17764999Y23389999D02*
X17960001D01*
X17764999Y22770000D02*
Y23389999D01*
X18802499Y21930000D02*
Y22210001D01*
X18577499Y21930000D02*
Y22210001D01*
X10415500Y12460000D02*
X10684500D01*
X10317500Y12620000D02*
X10684500D01*
X9855000Y10100000D02*
Y10720000D01*
Y10100000D02*
X10050000D01*
X9855000Y10720000D02*
X10050000D01*
X10310000D02*
X10505000D01*
X10310000Y10100000D02*
X10505000D01*
Y10720000D01*
X9467500Y11280000D02*
Y11560000D01*
X9692500Y11280000D02*
Y11560000D01*
X12875500Y12460000D02*
X13144501D01*
X12777500Y12620000D02*
X13144501D01*
X12315000Y10100000D02*
Y10720000D01*
Y10100000D02*
X12510000D01*
X12315000Y10720000D02*
X12510000D01*
X12770000D02*
X12964999D01*
X12770000Y10100000D02*
X12964999D01*
Y10720000D01*
X11927500Y11280000D02*
Y11560000D01*
X12152500Y11280000D02*
Y11560000D01*
X15335500Y12460000D02*
X15604500D01*
X15237500Y12620000D02*
X15604500D01*
X14775000Y10100000D02*
Y10720000D01*
Y10100000D02*
X14970000D01*
X14775000Y10720000D02*
X14970000D01*
X15230000D02*
X15425000D01*
X15230000Y10100000D02*
X15425000D01*
Y10720000D01*
X14387500Y11280000D02*
Y11560000D01*
X14612500Y11280000D02*
Y11560000D01*
X17595500Y6160000D02*
X17864500D01*
X17595500Y6000000D02*
X17962500D01*
X18425000Y7900000D02*
Y8520000D01*
X18230000D02*
X18425000D01*
X18230000Y7900000D02*
X18425000D01*
X17775000D02*
X17970000D01*
X17775000Y8520000D02*
X17970000D01*
X17775000Y7900000D02*
Y8520000D01*
X18812500Y7060000D02*
Y7340000D01*
X18587502Y7060000D02*
Y7340000D01*
X15135500Y6160000D02*
X15404500D01*
X15135500Y6000000D02*
X15502499D01*
X15964999Y7900000D02*
Y8520000D01*
X15770000D02*
X15964999D01*
X15770000Y7900000D02*
X15964999D01*
X15314999D02*
X15510001D01*
X15314999Y8520000D02*
X15510001D01*
X15314999Y7900000D02*
Y8520000D01*
X16352499Y7060000D02*
Y7340000D01*
X16127499Y7060000D02*
Y7340000D01*
X11045001Y7900000D02*
Y8520000D01*
X10850000D02*
X11045001D01*
X10850000Y7900000D02*
X11045001D01*
X10395000D02*
X10590000D01*
X10395000Y8520000D02*
X10590000D01*
X10395000Y7900000D02*
Y8520000D01*
X11432500Y7060000D02*
Y7340000D01*
X11207501Y7060000D02*
Y7340000D01*
X2559995Y16760074D02*
Y16790076D01*
Y17130074D02*
Y17160075D01*
X2959995Y16760074D02*
Y16790076D01*
Y17130074D02*
Y17160075D01*
X2559995Y16760074D02*
X2959995D01*
X2559995Y17160075D02*
X2959995D01*
X1392495Y15930074D02*
X2227495D01*
X1392495Y16610074D02*
X2227495D01*
Y15930074D02*
Y16610074D01*
X1392495Y15930074D02*
Y16610074D01*
X3650005Y4809925D02*
Y4839926D01*
Y4439925D02*
Y4469926D01*
X3250005Y4809925D02*
Y4839926D01*
Y4439925D02*
Y4469926D01*
Y4839926D02*
X3650005D01*
X3250005Y4439925D02*
X3650005D01*
X3982505Y5669926D02*
X4817505D01*
X3982505Y4989926D02*
X4817505D01*
X3982505D02*
Y5669926D01*
X4817505Y4989926D02*
Y5669926D01*
X298983Y2952508D02*
X1181000D01*
X1249000D02*
X1325000D01*
X1249000D02*
X1266500Y3012508D01*
X1163500D02*
X1181000Y2952508D01*
X1163500Y3012508D02*
X1266500D01*
X74983Y2952508D02*
X230983D01*
X298983D02*
X316483Y3012508D01*
X213483D02*
X230983Y2952508D01*
X213483Y3012508D02*
X316483D01*
X1325000Y1047500D02*
Y2952508D01*
X75000Y1047500D02*
X1325000D01*
X75000D02*
Y2952508D01*
X1465000Y1175000D02*
Y2825000D01*
X2135000D01*
Y1175000D02*
Y2825000D01*
X1465000Y1175000D02*
X2135000D01*
X8400000Y75000D02*
Y2825000D01*
X7400000Y75000D02*
X8400000D01*
X7400000D02*
Y2825000D01*
X8400000D01*
X5250000Y4050000D02*
X7350000D01*
X5050000Y3850000D02*
X5250000Y4050000D01*
X7350000Y50000D02*
Y4050000D01*
X5050000Y50000D02*
X7350000D01*
X5050000D02*
Y3850000D01*
X5000000Y75000D02*
Y2825000D01*
X4000000Y75000D02*
X5000000D01*
X4000000D02*
Y2825000D01*
X5000000D01*
X238500Y12850000D02*
X761500D01*
Y14150000D01*
X238500Y12850000D02*
Y14150000D01*
X761500D01*
X8238500Y8750000D02*
X8761500D01*
X8238500Y7450000D02*
Y8750000D01*
X8761500Y7450000D02*
Y8750000D01*
X8238500Y7450000D02*
X8761500D01*
X1804000Y5238500D02*
Y5761500D01*
Y5238500D02*
X2596000D01*
X1804000Y5761500D02*
X2596000D01*
Y5238500D02*
Y5761500D01*
X8238500Y11150000D02*
X8761500D01*
X8238500Y9850000D02*
Y11150000D01*
X8761500Y9850000D02*
Y11150000D01*
X8238500Y9850000D02*
X8761500D01*
X5788500Y13603999D02*
X6311500D01*
Y14396001D01*
X5788500Y13603999D02*
Y14396001D01*
X6311500D01*
X1604000Y14738499D02*
Y15261501D01*
Y14738499D02*
X2396000D01*
X1604000Y15261501D02*
X2396000D01*
Y14738499D02*
Y15261501D01*
X7950000Y23720000D02*
Y24280000D01*
X7050000Y23720000D02*
Y24280000D01*
X10750000Y16270000D02*
Y16830000D01*
X9850000Y16270000D02*
Y16830000D01*
X13950000Y17720000D02*
Y18280000D01*
X13050000Y17720000D02*
Y18280000D01*
X13950000Y15220000D02*
Y15780000D01*
X13050000Y15220000D02*
Y15780000D01*
X12000000Y15220000D02*
Y15780000D01*
X11100000Y15220000D02*
Y15780000D01*
X8450000Y3170000D02*
Y3730000D01*
X7550000Y3170000D02*
Y3730000D01*
X7350000Y4420000D02*
Y4980000D01*
X6450000Y4420000D02*
Y4980000D01*
X18450000Y17720000D02*
Y18280000D01*
X17550000Y17720000D02*
Y18280000D01*
X18450000Y15220000D02*
Y15780000D01*
X17550000Y15220000D02*
Y15780000D01*
X4875000Y21700000D02*
X8125000D01*
X4875000D02*
Y23300000D01*
X8125000D01*
Y21700000D02*
Y23300000D01*
X19200000Y1375000D02*
Y4625000D01*
X20800000D01*
Y1375000D02*
Y4625000D01*
X19200000Y1375000D02*
X20800000D01*
X17450000Y675000D02*
Y3925000D01*
X19050000D01*
Y675000D02*
Y3925000D01*
X17450000Y675000D02*
X19050000D01*
X2050000Y23720000D02*
Y24280000D01*
X1150000Y23720000D02*
Y24280000D01*
X11849951Y65000D02*
Y-134935D01*
X11949919Y-34967D02*
X11749984D01*
X8335000Y19499953D02*
X8534935D01*
X8434967Y19599919D02*
Y19399985D01*
X4535000Y19499953D02*
X4734935D01*
X4634967Y19599919D02*
Y19399985D01*
X15549951Y65000D02*
Y-134935D01*
X15649919Y-34967D02*
X15449985D01*
D59*
X8927620Y1399350D02*
G03*
X8927620Y1399350I-7620J0D01*
G01*
X8759980Y2042570D02*
X8801636D01*
X9080020Y1557430D02*
Y2042570D01*
X9038364D02*
X9080020D01*
X8759980Y1557430D02*
Y2042570D01*
Y1557430D02*
X8801636D01*
X9038364D02*
X9080020D01*
D60*
X3874500Y14878000D02*
G03*
X3874500Y14878000I-12500J0D01*
G01*
X13182500Y23439999D02*
G03*
X13182500Y23439999I-12500J0D01*
G01*
X16997501Y12989999D02*
G03*
X16997501Y12989999I-12500J0D01*
G01*
X17572501Y10050000D02*
G03*
X17572501Y10050000I-12500J0D01*
G01*
X13767500Y5630000D02*
G03*
X13767500Y5630000I-12500J0D01*
G01*
X13192500Y8570000D02*
G03*
X13192500Y8570000I-12500J0D01*
G01*
X8400005Y13672426D02*
G03*
X8400005Y13672426I-12500J0D01*
G01*
X16227499Y5630000D02*
G03*
X16227499Y5630000I-12500J0D01*
G01*
X11297500Y20500000D02*
G03*
X11297500Y20500000I-12500J0D01*
G01*
X13757500D02*
G03*
X13757500Y20500000I-12500J0D01*
G01*
X16217500D02*
G03*
X16217500Y20500000I-12500J0D01*
G01*
X18677499D02*
G03*
X18677499Y20500000I-12500J0D01*
G01*
X9617500Y12989999D02*
G03*
X9617500Y12989999I-12500J0D01*
G01*
X12077500D02*
G03*
X12077500Y12989999I-12500J0D01*
G01*
X14537500D02*
G03*
X14537500Y12989999I-12500J0D01*
G01*
X18687500Y5630000D02*
G03*
X18687500Y5630000I-12500J0D01*
G01*
X11307500D02*
G03*
X11307500Y5630000I-12500J0D01*
G01*
X10722500Y23439999D02*
G03*
X10722500Y23439999I-12500J0D01*
G01*
X15642500D02*
G03*
X15642500Y23439999I-12500J0D01*
G01*
X18102499D02*
G03*
X18102499Y23439999I-12500J0D01*
G01*
X10192500Y10050000D02*
G03*
X10192500Y10050000I-12500J0D01*
G01*
X12652500D02*
G03*
X12652500Y10050000I-12500J0D01*
G01*
X15112500D02*
G03*
X15112500Y10050000I-12500J0D01*
G01*
X18112500Y8570000D02*
G03*
X18112500Y8570000I-12500J0D01*
G01*
X15652499D02*
G03*
X15652499Y8570000I-12500J0D01*
G01*
X10732501D02*
G03*
X10732501Y8570000I-12500J0D01*
G01*
X1284995Y16547574D02*
G03*
X1284995Y16547574I-12500J0D01*
G01*
X4950005Y5052426D02*
G03*
X4950005Y5052426I-12500J0D01*
G01*
X387500Y14196001D02*
G03*
X387500Y14196001I-12500J0D01*
G01*
X8637500Y7404000D02*
G03*
X8637500Y7404000I-12500J0D01*
G01*
X2654500Y5625000D02*
G03*
X2654500Y5625000I-12500J0D01*
G01*
X8637500Y9804000D02*
G03*
X8637500Y9804000I-12500J0D01*
G01*
X5937500Y14442000D02*
G03*
X5937500Y14442000I-12500J0D01*
G01*
X2454500Y15125000D02*
G03*
X2454500Y15125000I-12500J0D01*
G01*
D61*
X18159451Y10785000D02*
G03*
X18159451Y10785000I-4251J0D01*
G01*
X18158929D02*
G03*
X18158929Y10785000I-3730J0D01*
G01*
X18167688D02*
G03*
X18167688Y10785000I-12488J0D01*
G01*
X18173161D02*
G03*
X18173161Y10785000I-17961J0D01*
G01*
X12589052Y7835000D02*
G03*
X12589052Y7835000I-4251J0D01*
G01*
X12588531D02*
G03*
X12588531Y7835000I-3730J0D01*
G01*
X12597289D02*
G03*
X12597289Y7835000I-12488J0D01*
G01*
X12602761D02*
G03*
X12602761Y7835000I-17961J0D01*
G01*
X10142761D02*
G03*
X10142761Y7835000I-17961J0D01*
G01*
X10137289D02*
G03*
X10137289Y7835000I-12488J0D01*
G01*
X10128531D02*
G03*
X10128531Y7835000I-3730J0D01*
G01*
X10129052D02*
G03*
X10129052Y7835000I-4251J0D01*
G01*
X10132761Y22705000D02*
G03*
X10132761Y22705000I-17961J0D01*
G01*
X10127289D02*
G03*
X10127289Y22705000I-12488J0D01*
G01*
X10118530D02*
G03*
X10118530Y22705000I-3730J0D01*
G01*
X10119051D02*
G03*
X10119051Y22705000I-4251J0D01*
G01*
X12592761D02*
G03*
X12592761Y22705000I-17961J0D01*
G01*
X12587289D02*
G03*
X12587289Y22705000I-12488J0D01*
G01*
X12578530D02*
G03*
X12578530Y22705000I-3730J0D01*
G01*
X12579051D02*
G03*
X12579051Y22705000I-4251J0D01*
G01*
X15052760D02*
G03*
X15052760Y22705000I-17961J0D01*
G01*
X15047289D02*
G03*
X15047289Y22705000I-12488J0D01*
G01*
X15038531D02*
G03*
X15038531Y22705000I-3730J0D01*
G01*
X15039050D02*
G03*
X15039050Y22705000I-4251J0D01*
G01*
X17512761D02*
G03*
X17512761Y22705000I-17961J0D01*
G01*
X17507289D02*
G03*
X17507289Y22705000I-12488J0D01*
G01*
X17498531D02*
G03*
X17498531Y22705000I-3730J0D01*
G01*
X17499051D02*
G03*
X17499051Y22705000I-4251J0D01*
G01*
X10793161Y10785000D02*
G03*
X10793161Y10785000I-17961J0D01*
G01*
X10787688D02*
G03*
X10787688Y10785000I-12488J0D01*
G01*
X10778930D02*
G03*
X10778930Y10785000I-3730J0D01*
G01*
X10779451D02*
G03*
X10779451Y10785000I-4251J0D01*
G01*
X13253160D02*
G03*
X13253160Y10785000I-17961J0D01*
G01*
X13247688D02*
G03*
X13247688Y10785000I-12488J0D01*
G01*
X13238930D02*
G03*
X13238930Y10785000I-3730J0D01*
G01*
X13239452D02*
G03*
X13239452Y10785000I-4251J0D01*
G01*
X15713161D02*
G03*
X15713161Y10785000I-17961J0D01*
G01*
X15707687D02*
G03*
X15707687Y10785000I-12488J0D01*
G01*
X15698930D02*
G03*
X15698930Y10785000I-3730J0D01*
G01*
X15699451D02*
G03*
X15699451Y10785000I-4251J0D01*
G01*
X17522762Y7835000D02*
G03*
X17522762Y7835000I-17961J0D01*
G01*
X17517290D02*
G03*
X17517290Y7835000I-12488J0D01*
G01*
X17508531D02*
G03*
X17508531Y7835000I-3730J0D01*
G01*
X17509052D02*
G03*
X17509052Y7835000I-4251J0D01*
G01*
X15062761D02*
G03*
X15062761Y7835000I-17961J0D01*
G01*
X15057289D02*
G03*
X15057289Y7835000I-12488J0D01*
G01*
X15048531D02*
G03*
X15048531Y7835000I-3730J0D01*
G01*
X15049051D02*
G03*
X15049051Y7835000I-4251J0D01*
G01*
X17214999Y10810000D02*
Y12030000D01*
X17926199D01*
X17214999Y10810000D02*
X17926199D01*
Y12030000D01*
X13525000Y6590000D02*
Y7810000D01*
X12813800Y6590000D02*
X13525000D01*
X12813800Y7810000D02*
X13525000D01*
X12813800Y6590000D02*
Y7810000D01*
X10353800Y6590000D02*
Y7810000D01*
X11065000D01*
X10353800Y6590000D02*
X11065000D01*
Y7810000D01*
X10343800Y21460001D02*
Y22680000D01*
X11055000D01*
X10343800Y21460001D02*
X11055000D01*
Y22680000D01*
X12803799Y21460001D02*
Y22680000D01*
X13514999D01*
X12803799Y21460001D02*
X13514999D01*
Y22680000D01*
X15263800Y21460001D02*
Y22680000D01*
X15975000D01*
X15263800Y21460001D02*
X15975000D01*
Y22680000D01*
X17723801Y21460001D02*
Y22680000D01*
X18435001D01*
X17723801Y21460001D02*
X18435001D01*
Y22680000D01*
X10546200Y10810000D02*
Y12030000D01*
X9835000Y10810000D02*
X10546200D01*
X9835000Y12030000D02*
X10546200D01*
X9835000Y10810000D02*
Y12030000D01*
X13006200Y10810000D02*
Y12030000D01*
X12295000Y10810000D02*
X13006200D01*
X12295000Y12030000D02*
X13006200D01*
X12295000Y10810000D02*
Y12030000D01*
X15466200Y10810000D02*
Y12030000D01*
X14755000Y10810000D02*
X15466200D01*
X14755000Y12030000D02*
X15466200D01*
X14755000Y10810000D02*
Y12030000D01*
X17733800Y6590000D02*
Y7810000D01*
X18445000D01*
X17733800Y6590000D02*
X18445000D01*
Y7810000D01*
X15273801Y6590000D02*
Y7810000D01*
X15985001D01*
X15273801Y6590000D02*
X15985001D01*
Y7810000D01*
D62*
X8197505Y13709926D02*
G03*
X8197505Y13709926I-30000J0D01*
G01*
X1522495Y16510074D02*
G03*
X1522495Y16510074I-30000J0D01*
G01*
X4747505Y5089926D02*
G03*
X4747505Y5089926I-30000J0D01*
G01*
D63*
X12770000Y14830000D02*
X18780000D01*
X12770000Y18660001D02*
X18780000D01*
Y14830000D02*
Y18660001D01*
X12770000Y14830000D02*
Y18660001D01*
X3215400Y7528534D02*
Y7376183D01*
X3291575D01*
X3316967Y7401575D01*
Y7503142D01*
X3291575Y7528534D01*
X3215400D01*
X3443926Y7376183D02*
X3393143D01*
X3367751Y7401575D01*
Y7452359D01*
X3393143Y7477751D01*
X3443926D01*
X3469318Y7452359D01*
Y7426967D01*
X3367751D01*
X3520101Y7376183D02*
X3596277D01*
X3621669Y7401575D01*
X3596277Y7426967D01*
X3545493D01*
X3520101Y7452359D01*
X3545493Y7477751D01*
X3621669D01*
X3672452Y7376183D02*
X3723236D01*
X3697844D01*
Y7477751D01*
X3672452D01*
X3850194Y7325400D02*
X3875586D01*
X3900978Y7350791D01*
Y7477751D01*
X3824803D01*
X3799411Y7452359D01*
Y7401575D01*
X3824803Y7376183D01*
X3900978D01*
X3951762D02*
Y7477751D01*
X4027937D01*
X4053329Y7452359D01*
Y7376183D01*
X4180288D02*
X4129504D01*
X4104112Y7401575D01*
Y7452359D01*
X4129504Y7477751D01*
X4180288D01*
X4205680Y7452359D01*
Y7426967D01*
X4104112D01*
X4358030Y7528534D02*
Y7376183D01*
X4281855D01*
X4256463Y7401575D01*
Y7452359D01*
X4281855Y7477751D01*
X4358030D01*
X4561165Y7528534D02*
Y7376183D01*
X4637340D01*
X4662732Y7401575D01*
Y7426967D01*
Y7452359D01*
X4637340Y7477751D01*
X4561165D01*
X4713515D02*
Y7401575D01*
X4738907Y7376183D01*
X4815083D01*
Y7350791D01*
X4789691Y7325400D01*
X4764299D01*
X4815083Y7376183D02*
Y7477751D01*
X5018217Y7376183D02*
X5094392D01*
X5119784Y7401575D01*
X5094392Y7426967D01*
X5043609D01*
X5018217Y7452359D01*
X5043609Y7477751D01*
X5119784D01*
X5170568D02*
Y7401575D01*
X5195959Y7376183D01*
X5272135D01*
Y7477751D01*
X5322918Y7528534D02*
Y7376183D01*
X5399094D01*
X5424485Y7401575D01*
Y7426967D01*
X5399094Y7452359D01*
X5322918D01*
X5399094D01*
X5424485Y7477751D01*
Y7503142D01*
X5399094Y7528534D01*
X5322918D01*
X5500661Y7477751D02*
X5551444D01*
X5576836Y7452359D01*
Y7376183D01*
X5500661D01*
X5475269Y7401575D01*
X5500661Y7426967D01*
X5576836D01*
X5627620Y7477751D02*
Y7376183D01*
Y7426967D01*
X5653012Y7452359D01*
X5678403Y7477751D01*
X5703795D01*
X5881538Y7528534D02*
Y7376183D01*
X5805362D01*
X5779970Y7401575D01*
Y7452359D01*
X5805362Y7477751D01*
X5881538D01*
X5957713D02*
X6008496D01*
X6033888Y7452359D01*
Y7376183D01*
X5957713D01*
X5932321Y7401575D01*
X5957713Y7426967D01*
X6033888D01*
X6135455Y7325400D02*
X6160847D01*
X6186239Y7350791D01*
Y7477751D01*
X6110064D01*
X6084672Y7452359D01*
Y7401575D01*
X6110064Y7376183D01*
X6186239D01*
X6237023D02*
X6287806D01*
X6262414D01*
Y7477751D01*
X6237023D01*
X4166967Y7685400D02*
X4065400D01*
X4166967Y7786967D01*
Y7812359D01*
X4141575Y7837751D01*
X4090792D01*
X4065400Y7812359D01*
X4217751D02*
X4243143Y7837751D01*
X4293926D01*
X4319318Y7812359D01*
Y7710792D01*
X4293926Y7685400D01*
X4243143D01*
X4217751Y7710792D01*
Y7812359D01*
X4471669Y7685400D02*
X4370101D01*
X4471669Y7786967D01*
Y7812359D01*
X4446277Y7837751D01*
X4395493D01*
X4370101Y7812359D01*
X4624019Y7837751D02*
X4522452D01*
Y7761575D01*
X4573236Y7786967D01*
X4598628D01*
X4624019Y7761575D01*
Y7710792D01*
X4598628Y7685400D01*
X4547844D01*
X4522452Y7710792D01*
X4674803Y7761575D02*
X4776370D01*
X4928721Y7685400D02*
X4827154D01*
X4928721Y7786967D01*
Y7812359D01*
X4903329Y7837751D01*
X4852546D01*
X4827154Y7812359D01*
X4979504D02*
X5004896Y7837751D01*
X5055680D01*
X5081072Y7812359D01*
Y7710792D01*
X5055680Y7685400D01*
X5004896D01*
X4979504Y7710792D01*
Y7812359D01*
X5233422Y7685400D02*
X5131855D01*
X5233422Y7786967D01*
Y7812359D01*
X5208030Y7837751D01*
X5157247D01*
X5131855Y7812359D01*
X5385773Y7837751D02*
X5334989Y7812359D01*
X5284206Y7761575D01*
Y7710792D01*
X5309598Y7685400D01*
X5360381D01*
X5385773Y7710792D01*
Y7736183D01*
X5360381Y7761575D01*
X5284206D01*
X2975400Y8016183D02*
Y8117751D01*
X3026183Y8168534D01*
X3076967Y8117751D01*
Y8016183D01*
Y8092359D01*
X2975400D01*
X3229318Y8168534D02*
X3127751D01*
Y8016183D01*
X3229318D01*
X3127751Y8092359D02*
X3178534D01*
X3381669Y8143142D02*
X3356277Y8168534D01*
X3305493D01*
X3280101Y8143142D01*
Y8117751D01*
X3305493Y8092359D01*
X3356277D01*
X3381669Y8066967D01*
Y8041575D01*
X3356277Y8016183D01*
X3305493D01*
X3280101Y8041575D01*
X3432452Y8168534D02*
Y8016183D01*
Y8066967D01*
X3534019Y8168534D01*
X3457844Y8092359D01*
X3534019Y8016183D01*
X3838721Y8143142D02*
X3813329Y8168534D01*
X3762545D01*
X3737154Y8143142D01*
Y8041575D01*
X3762545Y8016183D01*
X3813329D01*
X3838721Y8041575D01*
X3889504Y8168534D02*
Y8016183D01*
Y8092359D01*
X3914896Y8117751D01*
X3965680D01*
X3991072Y8092359D01*
Y8016183D01*
X4067247Y8117751D02*
X4118030D01*
X4143422Y8092359D01*
Y8016183D01*
X4067247D01*
X4041855Y8041575D01*
X4067247Y8066967D01*
X4143422D01*
X4194206Y8117751D02*
Y8016183D01*
Y8066967D01*
X4219598Y8092359D01*
X4244989Y8117751D01*
X4270381D01*
X4397340Y7965400D02*
X4422732D01*
X4448124Y7990791D01*
Y8117751D01*
X4371948D01*
X4346556Y8092359D01*
Y8041575D01*
X4371948Y8016183D01*
X4448124D01*
X4575083D02*
X4524299D01*
X4498907Y8041575D01*
Y8092359D01*
X4524299Y8117751D01*
X4575083D01*
X4600474Y8092359D01*
Y8066967D01*
X4498907D01*
X4651258Y8117751D02*
Y8016183D01*
Y8066967D01*
X4676650Y8092359D01*
X4702041Y8117751D01*
X4727433D01*
X4955959Y8016183D02*
Y8168534D01*
X5032135D01*
X5057527Y8143142D01*
Y8092359D01*
X5032135Y8066967D01*
X4955959D01*
X5133702Y8016183D02*
X5184485D01*
X5209877Y8041575D01*
Y8092359D01*
X5184485Y8117751D01*
X5133702D01*
X5108310Y8092359D01*
Y8041575D01*
X5133702Y8016183D01*
X5260661Y8117751D02*
Y8041575D01*
X5286053Y8016183D01*
X5311444Y8041575D01*
X5336836Y8016183D01*
X5362228Y8041575D01*
Y8117751D01*
X5489187Y8016183D02*
X5438403D01*
X5413012Y8041575D01*
Y8092359D01*
X5438403Y8117751D01*
X5489187D01*
X5514579Y8092359D01*
Y8066967D01*
X5413012D01*
X5565362Y8117751D02*
Y8016183D01*
Y8066967D01*
X5590754Y8092359D01*
X5616146Y8117751D01*
X5641538D01*
X5870064Y8168534D02*
Y8016183D01*
X5946239D01*
X5971631Y8041575D01*
Y8066967D01*
X5946239Y8092359D01*
X5870064D01*
X5946239D01*
X5971631Y8117751D01*
Y8143142D01*
X5946239Y8168534D01*
X5870064D01*
X6047806Y8016183D02*
X6098590D01*
X6123982Y8041575D01*
Y8092359D01*
X6098590Y8117751D01*
X6047806D01*
X6022414Y8092359D01*
Y8041575D01*
X6047806Y8016183D01*
X6200157Y8117751D02*
X6250941D01*
X6276332Y8092359D01*
Y8016183D01*
X6200157D01*
X6174765Y8041575D01*
X6200157Y8066967D01*
X6276332D01*
X6327116Y8117751D02*
Y8016183D01*
Y8066967D01*
X6352508Y8092359D01*
X6377899Y8117751D01*
X6403291D01*
X6581034Y8168534D02*
Y8016183D01*
X6504858D01*
X6479467Y8041575D01*
Y8092359D01*
X6504858Y8117751D01*
X6581034D01*
X14215401Y16787750D02*
X14316966D01*
X14266183D01*
Y16635400D01*
X14367751Y16736967D02*
Y16635400D01*
Y16686185D01*
X14393143Y16711575D01*
X14418533Y16736967D01*
X14443925D01*
X14545493D02*
X14596277D01*
X14621669Y16711575D01*
Y16635400D01*
X14545493D01*
X14520102Y16660793D01*
X14545493Y16686185D01*
X14621669D01*
X14672452Y16635400D02*
Y16736967D01*
X14748628D01*
X14774019Y16711575D01*
Y16635400D01*
X14824803D02*
X14900978D01*
X14926370Y16660793D01*
X14900978Y16686185D01*
X14850195D01*
X14824803Y16711575D01*
X14850195Y16736967D01*
X14926370D01*
X15002547Y16635400D02*
Y16762360D01*
Y16711575D01*
X14977155D01*
X15027937D01*
X15002547D01*
Y16762360D01*
X15027937Y16787750D01*
X15129504Y16635400D02*
X15180289D01*
X15205679Y16660793D01*
Y16711575D01*
X15180289Y16736967D01*
X15129504D01*
X15104112Y16711575D01*
Y16660793D01*
X15129504Y16635400D01*
X15256464Y16736967D02*
Y16635400D01*
Y16686185D01*
X15281854Y16711575D01*
X15307246Y16736967D01*
X15332639D01*
X15408813Y16635400D02*
Y16736967D01*
X15434206D01*
X15459596Y16711575D01*
Y16635400D01*
Y16711575D01*
X15484988Y16736967D01*
X15510381Y16711575D01*
Y16635400D01*
X15637340D02*
X15586557D01*
X15561165Y16660793D01*
Y16711575D01*
X15586557Y16736967D01*
X15637340D01*
X15662732Y16711575D01*
Y16686185D01*
X15561165D01*
X15713515Y16736967D02*
Y16635400D01*
Y16686185D01*
X15738907Y16711575D01*
X15764299Y16736967D01*
X15789691D01*
X16018217Y16787750D02*
X16119785D01*
X16069000D01*
Y16635400D01*
X16246742D02*
X16195959D01*
X16170567Y16660793D01*
Y16711575D01*
X16195959Y16736967D01*
X16246742D01*
X16272134Y16711575D01*
Y16686185D01*
X16170567D01*
X16322919Y16736967D02*
Y16635400D01*
Y16686185D01*
X16348309Y16711575D01*
X16373701Y16736967D01*
X16399094D01*
X16475269Y16635400D02*
Y16736967D01*
X16500661D01*
X16526053Y16711575D01*
Y16635400D01*
Y16711575D01*
X16551443Y16736967D01*
X16576836Y16711575D01*
Y16635400D01*
X16627620D02*
X16678403D01*
X16653012D01*
Y16736967D01*
X16627620D01*
X16754579Y16635400D02*
Y16736967D01*
X16830754D01*
X16856146Y16711575D01*
Y16635400D01*
X16932321Y16736967D02*
X16983105D01*
X17008498Y16711575D01*
Y16635400D01*
X16932321D01*
X16906929Y16660793D01*
X16932321Y16686185D01*
X17008498D01*
X17059280Y16635400D02*
X17110065D01*
X17084673D01*
Y16787750D01*
X17059280D01*
X17186240Y16635400D02*
X17262415D01*
X17287807Y16660793D01*
X17262415Y16686185D01*
X17211630D01*
X17186240Y16711575D01*
X17211630Y16736967D01*
X17287807D01*
X8115400Y23997751D02*
Y23845399D01*
X8191575D01*
X8216967Y23870792D01*
Y23896184D01*
X8191575Y23921574D01*
X8115400D01*
X8191575D01*
X8216967Y23946967D01*
Y23972359D01*
X8191575Y23997751D01*
X8115400D01*
X8267751Y23845399D02*
Y23946967D01*
X8318534Y23997751D01*
X8369318Y23946967D01*
Y23845399D01*
Y23921574D01*
X8267751D01*
X8420102Y23997751D02*
X8521669D01*
X8470885D01*
Y23845399D01*
X8572452Y23921574D02*
X8674019D01*
X8623236Y23972359D02*
Y23870792D01*
X2255400Y24097751D02*
Y23945399D01*
X2331575D01*
X2356967Y23970792D01*
Y23996182D01*
X2331575Y24021574D01*
X2255400D01*
X2331575D01*
X2356967Y24046967D01*
Y24072359D01*
X2331575Y24097751D01*
X2255400D01*
X2407751Y23945399D02*
Y24046967D01*
X2458534Y24097751D01*
X2509318Y24046967D01*
Y23945399D01*
Y24021574D01*
X2407751D01*
X2560102Y24097751D02*
X2661669D01*
X2610885D01*
Y23945399D01*
X2814020Y24072359D02*
X2788628Y24097751D01*
X2737844D01*
X2712452Y24072359D01*
Y23970792D01*
X2737844Y23945399D01*
X2788628D01*
X2814020Y23970792D01*
Y24021574D01*
X2763236D01*
X2864803Y23945399D02*
Y24097751D01*
X2966370Y23945399D01*
Y24097751D01*
X3017154D02*
Y23945399D01*
X3093329D01*
X3118721Y23970792D01*
Y24072359D01*
X3093329Y24097751D01*
X3017154D01*
D64*
X9045500Y2480000D02*
Y3780000D01*
Y2480000D02*
X9947200D01*
X9045500Y3780000D02*
X9947200D01*
Y2480000D02*
Y3780000D01*
X80000Y3030100D02*
Y3969900D01*
X2520000D01*
X80000Y3030100D02*
X2520000D01*
Y3969900D01*
X4230000Y23530099D02*
Y24469901D01*
X6670000D01*
X4230000Y23530099D02*
X6670000D01*
Y24469901D01*
D65*
X18755000Y11122500D02*
Y11717500D01*
X18164999Y11040000D02*
Y11717500D01*
X18210001Y10795000D02*
Y11040000D01*
X18164999D02*
X18210001D01*
X11985000Y6902500D02*
Y7497500D01*
X12575000Y6902500D02*
Y7580000D01*
X12530000D02*
Y7825000D01*
Y7580000D02*
X12575000D01*
X10070000D02*
X10115000D01*
X10070000D02*
Y7825000D01*
X10115000Y6902500D02*
Y7580000D01*
X9525001Y6902500D02*
Y7497500D01*
X10060000Y22450000D02*
X10105000D01*
X10060000D02*
Y22695000D01*
X10105000Y21772501D02*
Y22450000D01*
X9515000Y21772501D02*
Y22367500D01*
X12520000Y22450000D02*
X12565000D01*
X12520000D02*
Y22695000D01*
X12565000Y21772501D02*
Y22450000D01*
X11975000Y21772501D02*
Y22367500D01*
X14980000Y22450000D02*
X15025000D01*
X14980000D02*
Y22695000D01*
X15025000Y21772501D02*
Y22450000D01*
X14435001Y21772501D02*
Y22367500D01*
X17439999Y22450000D02*
X17485001D01*
X17439999D02*
Y22695000D01*
X17485001Y21772501D02*
Y22450000D01*
X16895000Y21772501D02*
Y22367500D01*
X10785000Y11040000D02*
X10830000D01*
Y10795000D02*
Y11040000D01*
X10785000D02*
Y11717500D01*
X11375000Y11122500D02*
Y11717500D01*
X13245000Y11040000D02*
X13289999D01*
Y10795000D02*
Y11040000D01*
X13245000D02*
Y11717500D01*
X13835001Y11122500D02*
Y11717500D01*
X15705000Y11040000D02*
X15750000D01*
Y10795000D02*
Y11040000D01*
X15705000D02*
Y11717500D01*
X16295000Y11122500D02*
Y11717500D01*
X17450000Y7580000D02*
X17495000D01*
X17450000D02*
Y7825000D01*
X17495000Y6902500D02*
Y7580000D01*
X16905000Y6902500D02*
Y7497500D01*
X14989999Y7580000D02*
X15035001D01*
X14989999D02*
Y7825000D01*
X15035001Y6902500D02*
Y7580000D01*
X14445000Y6902500D02*
Y7497500D01*
D66*
X8425005Y12849927D02*
Y13449927D01*
X7275005D02*
X8425005D01*
X7275005Y12849927D02*
Y13449927D01*
Y12849927D02*
X8425005D01*
X3885000Y550000D02*
Y3450000D01*
X2615000Y550000D02*
X3885000D01*
X2615000D02*
Y3450000D01*
X3885000D01*
X1234995Y17370074D02*
X2384995D01*
Y16770074D02*
Y17370074D01*
X1234995Y16770074D02*
X2384995D01*
X1234995D02*
Y17370074D01*
X3825005Y4229926D02*
X4975005D01*
X3825005D02*
Y4829926D01*
X4975005D01*
Y4229926D02*
Y4829926D01*
D67*
X17510400Y11522527D02*
X17514027Y11511644D01*
X17524911Y11504388D01*
X17543051Y11500761D01*
X17553934D01*
X17572073Y11504388D01*
X17582956Y11511644D01*
X17586584Y11522527D01*
Y11529783D01*
X17582956Y11540666D01*
X17572073Y11547922D01*
X17553934Y11551550D01*
X17543051D01*
X17524911Y11547922D01*
X17514027Y11540666D01*
X17510400Y11529783D01*
Y11522527D01*
Y11568600D02*
X17586584Y11597623D01*
X17510400Y11626645D02*
X17586584Y11597623D01*
X17523080Y11745607D02*
X17588380D01*
X17555730Y11712957D02*
Y11778258D01*
X17512196Y11800750D02*
X17588380Y11829772D01*
X17512196Y11858794D02*
X17588380Y11829772D01*
X17537592Y11886729D02*
X17541219Y11879473D01*
X17548474Y11872218D01*
X17559358Y11868590D01*
X17566612D01*
X17577496Y11872218D01*
X17584752Y11879473D01*
X17588380Y11886729D01*
Y11897612D01*
X17584752Y11904868D01*
X17577496Y11912123D01*
X17566612Y11915751D01*
X17559358D01*
X17548474Y11912123D01*
X17541219Y11904868D01*
X17537592Y11897612D01*
Y11886729D01*
X17510672Y11216641D02*
X17586856Y11245664D01*
X17510672Y11274686D02*
X17586856Y11245664D01*
X17510672Y11291737D02*
X17514301Y11295365D01*
X17510672Y11298992D01*
X17507043Y11295365D01*
X17510672Y11291737D01*
X17536067Y11295365D02*
X17586856D01*
X17536067Y11312415D02*
X17586856D01*
X17550578D02*
X17539696Y11323298D01*
X17536067Y11330554D01*
Y11341437D01*
X17539696Y11348693D01*
X17550578Y11352321D01*
X17586856D01*
X17342017Y11119400D02*
X17418201D01*
X17342017D02*
Y11152050D01*
X17345644Y11162933D01*
X17349272Y11166561D01*
X17356528Y11170189D01*
X17363783D01*
X17371039Y11166561D01*
X17374666Y11162933D01*
X17378294Y11152050D01*
Y11119400D02*
Y11152050D01*
X17381921Y11162933D01*
X17385550Y11166561D01*
X17392805Y11170189D01*
X17403690D01*
X17410944Y11166561D01*
X17414572Y11162933D01*
X17418201Y11152050D01*
Y11119400D01*
X17443594Y11187240D02*
Y11245284D01*
X17352901Y11305869D02*
X17345644Y11298613D01*
X17342017Y11287730D01*
Y11273218D01*
X17345644Y11262335D01*
X17352901Y11255080D01*
X17360155D01*
X17367410Y11258707D01*
X17371039Y11262335D01*
X17374666Y11269591D01*
X17381921Y11291358D01*
X17385550Y11298613D01*
X17389178Y11302241D01*
X17396432Y11305869D01*
X17407317D01*
X17414572Y11298613D01*
X17418201Y11287730D01*
Y11273218D01*
X17414572Y11262335D01*
X17407317Y11255080D01*
X17385550Y11322919D02*
Y11388220D01*
X17356528Y11410712D02*
X17352901Y11417968D01*
X17342017Y11428851D01*
X17418201D01*
X17342017Y11466580D02*
X17418201Y11484719D01*
X17342017Y11502858D02*
X17418201Y11484719D01*
X17342017Y11502858D02*
X17418201Y11520997D01*
X17342017Y11539136D02*
X17418201Y11520997D01*
X17342017Y11554373D02*
X17418201D01*
X17342017D02*
Y11587023D01*
X17345644Y11597906D01*
X17349272Y11601534D01*
X17356528Y11605162D01*
X17363783D01*
X17371039Y11601534D01*
X17374666Y11597906D01*
X17378294Y11587023D01*
Y11554373D01*
Y11579767D02*
X17418201Y11605162D01*
X17342017Y11629468D02*
Y11669374D01*
X17371039Y11647607D01*
Y11658491D01*
X17374666Y11665746D01*
X17378294Y11669374D01*
X17389178Y11673002D01*
X17396432D01*
X17407317Y11669374D01*
X17414572Y11662118D01*
X17418201Y11651235D01*
Y11640351D01*
X17414572Y11629468D01*
X17410944Y11625840D01*
X17403690Y11622212D01*
X17529573Y11013756D02*
X17522318Y11010128D01*
X17515062Y11002873D01*
X17511433Y10995617D01*
Y10981106D01*
X17515062Y10973851D01*
X17522318Y10966595D01*
X17529573Y10962967D01*
X17540457Y10959339D01*
X17558595D01*
X17569479Y10962967D01*
X17576733Y10966595D01*
X17583990Y10973851D01*
X17587617Y10981106D01*
Y10995617D01*
X17583990Y11002873D01*
X17576733Y11010128D01*
X17569479Y11013756D01*
X17558595D01*
Y10995617D02*
Y11013756D01*
X17511433Y11031170D02*
X17587617D01*
X17511433D02*
X17587617Y11081959D01*
X17511433D02*
X17587617D01*
X17511433Y11103000D02*
X17587617D01*
X17511433D02*
Y11128395D01*
X17515062Y11139278D01*
X17522318Y11146534D01*
X17529573Y11150161D01*
X17540457Y11153789D01*
X17558595D01*
X17569479Y11150161D01*
X17576733Y11146534D01*
X17583990Y11139278D01*
X17587617Y11128395D01*
Y11103000D01*
X13229601Y7097472D02*
X13225972Y7108356D01*
X13215089Y7115611D01*
X13196950Y7119239D01*
X13186066D01*
X13167928Y7115611D01*
X13157043Y7108356D01*
X13153416Y7097472D01*
Y7090217D01*
X13157043Y7079334D01*
X13167928Y7072078D01*
X13186066Y7068450D01*
X13196950D01*
X13215089Y7072078D01*
X13225972Y7079334D01*
X13229601Y7090217D01*
Y7097472D01*
Y7051399D02*
X13153416Y7022377D01*
X13229601Y6993355D02*
X13153416Y7022377D01*
X13216920Y6874392D02*
X13151620D01*
X13184271Y6907043D02*
Y6841742D01*
X13227805Y6819250D02*
X13151620Y6790228D01*
X13227805Y6761205D02*
X13151620Y6790228D01*
X13202409Y6733271D02*
X13198782Y6740527D01*
X13191525Y6747782D01*
X13180643Y6751410D01*
X13173387D01*
X13162505Y6747782D01*
X13155247Y6740527D01*
X13151620Y6733271D01*
Y6722388D01*
X13155247Y6715132D01*
X13162505Y6707877D01*
X13173387Y6704249D01*
X13180643D01*
X13191525Y6707877D01*
X13198782Y6715132D01*
X13202409Y6722388D01*
Y6733271D01*
X13229327Y7403359D02*
X13153143Y7374336D01*
X13229327Y7345314D02*
X13153143Y7374336D01*
X13229327Y7328263D02*
X13225700Y7324635D01*
X13229327Y7321007D01*
X13232956Y7324635D01*
X13229327Y7328263D01*
X13203934Y7324635D02*
X13153143D01*
X13203934Y7307585D02*
X13153143D01*
X13189423D02*
X13200307Y7296701D01*
X13203934Y7289446D01*
Y7278563D01*
X13200307Y7271307D01*
X13189423Y7267679D01*
X13153143D01*
X13397984Y7500600D02*
X13321800D01*
X13397984D02*
Y7467950D01*
X13394356Y7457066D01*
X13390729Y7453439D01*
X13383473Y7449811D01*
X13376218D01*
X13368962Y7453439D01*
X13365334Y7457066D01*
X13361707Y7467950D01*
Y7500600D02*
Y7467950D01*
X13358078Y7457066D01*
X13354451Y7453439D01*
X13347195Y7449811D01*
X13336311D01*
X13329056Y7453439D01*
X13325427Y7457066D01*
X13321800Y7467950D01*
Y7500600D01*
X13296407Y7432760D02*
Y7374716D01*
X13387102Y7314131D02*
X13394356Y7321387D01*
X13397984Y7332270D01*
Y7346781D01*
X13394356Y7357665D01*
X13387102Y7364920D01*
X13379845D01*
X13372589Y7361292D01*
X13368962Y7357665D01*
X13365334Y7350409D01*
X13358078Y7328642D01*
X13354451Y7321387D01*
X13350822Y7317759D01*
X13343567Y7314131D01*
X13332684D01*
X13325427Y7321387D01*
X13321800Y7332270D01*
Y7346781D01*
X13325427Y7357665D01*
X13332684Y7364920D01*
X13354451Y7297080D02*
Y7231780D01*
X13383473Y7209288D02*
X13387102Y7202032D01*
X13397984Y7191149D01*
X13321800D01*
X13397984Y7153420D02*
X13321800Y7135281D01*
X13397984Y7117142D02*
X13321800Y7135281D01*
X13397984Y7117142D02*
X13321800Y7099003D01*
X13397984Y7080864D02*
X13321800Y7099003D01*
X13397984Y7065627D02*
X13321800D01*
X13397984D02*
Y7032977D01*
X13394356Y7022094D01*
X13390729Y7018466D01*
X13383473Y7014838D01*
X13376218D01*
X13368962Y7018466D01*
X13365334Y7022094D01*
X13361707Y7032977D01*
Y7065627D01*
Y7040233D02*
X13321800Y7014838D01*
X13397984Y6990532D02*
Y6950626D01*
X13368962Y6972393D01*
Y6961509D01*
X13365334Y6954254D01*
X13361707Y6950626D01*
X13350822Y6946998D01*
X13343567D01*
X13332684Y6950626D01*
X13325427Y6957882D01*
X13321800Y6968765D01*
Y6979648D01*
X13325427Y6990532D01*
X13329056Y6994159D01*
X13336311Y6997787D01*
X13210426Y7606244D02*
X13217683Y7609871D01*
X13224937Y7617127D01*
X13228566Y7624383D01*
Y7638894D01*
X13224937Y7646149D01*
X13217683Y7653405D01*
X13210426Y7657033D01*
X13199544Y7660661D01*
X13181406D01*
X13170522Y7657033D01*
X13163266Y7653405D01*
X13156010Y7646149D01*
X13152382Y7638894D01*
Y7624383D01*
X13156010Y7617127D01*
X13163266Y7609871D01*
X13170522Y7606244D01*
X13181406D01*
Y7624383D02*
Y7606244D01*
X13228566Y7588830D02*
X13152382D01*
X13228566D02*
X13152382Y7538041D01*
X13228566D02*
X13152382D01*
X13228566Y7517000D02*
X13152382D01*
X13228566D02*
Y7491605D01*
X13224937Y7480722D01*
X13217683Y7473466D01*
X13210426Y7469839D01*
X13199544Y7466211D01*
X13181406D01*
X13170522Y7469839D01*
X13163266Y7473466D01*
X13156010Y7480722D01*
X13152382Y7491605D01*
Y7517000D01*
X10750427Y7606244D02*
X10757683Y7609871D01*
X10764938Y7617127D01*
X10768566Y7624383D01*
Y7638894D01*
X10764938Y7646149D01*
X10757683Y7653405D01*
X10750427Y7657033D01*
X10739544Y7660661D01*
X10721405D01*
X10710521Y7657033D01*
X10703266Y7653405D01*
X10696010Y7646149D01*
X10692382Y7638894D01*
Y7624383D01*
X10696010Y7617127D01*
X10703266Y7609871D01*
X10710521Y7606244D01*
X10721405D01*
Y7624383D02*
Y7606244D01*
X10768566Y7588830D02*
X10692382D01*
X10768566D02*
X10692382Y7538041D01*
X10768566D02*
X10692382D01*
X10768566Y7517000D02*
X10692382D01*
X10768566D02*
Y7491605D01*
X10764938Y7480722D01*
X10757683Y7473466D01*
X10750427Y7469839D01*
X10739544Y7466211D01*
X10721405D01*
X10710521Y7469839D01*
X10703266Y7473466D01*
X10696010Y7480722D01*
X10692382Y7491605D01*
Y7517000D01*
X10937984Y7500600D02*
X10861800D01*
X10937984D02*
Y7467950D01*
X10934356Y7457066D01*
X10930728Y7453439D01*
X10923473Y7449811D01*
X10916217D01*
X10908962Y7453439D01*
X10905334Y7457066D01*
X10901706Y7467950D01*
Y7500600D02*
Y7467950D01*
X10898079Y7457066D01*
X10894451Y7453439D01*
X10887195Y7449811D01*
X10876312D01*
X10869056Y7453439D01*
X10865428Y7457066D01*
X10861800Y7467950D01*
Y7500600D01*
X10836406Y7432760D02*
Y7374716D01*
X10927101Y7314131D02*
X10934356Y7321387D01*
X10937984Y7332270D01*
Y7346781D01*
X10934356Y7357665D01*
X10927101Y7364920D01*
X10919845D01*
X10912590Y7361292D01*
X10908962Y7357665D01*
X10905334Y7350409D01*
X10898079Y7328642D01*
X10894451Y7321387D01*
X10890823Y7317759D01*
X10883567Y7314131D01*
X10872684D01*
X10865428Y7321387D01*
X10861800Y7332270D01*
Y7346781D01*
X10865428Y7357665D01*
X10872684Y7364920D01*
X10894451Y7297080D02*
Y7231780D01*
X10923473Y7209288D02*
X10927101Y7202032D01*
X10937984Y7191149D01*
X10861800D01*
X10937984Y7153420D02*
X10861800Y7135281D01*
X10937984Y7117142D02*
X10861800Y7135281D01*
X10937984Y7117142D02*
X10861800Y7099003D01*
X10937984Y7080864D02*
X10861800Y7099003D01*
X10937984Y7065627D02*
X10861800D01*
X10937984D02*
Y7032977D01*
X10934356Y7022094D01*
X10930728Y7018466D01*
X10923473Y7014838D01*
X10916217D01*
X10908962Y7018466D01*
X10905334Y7022094D01*
X10901706Y7032977D01*
Y7065627D01*
Y7040233D02*
X10861800Y7014838D01*
X10937984Y6990532D02*
Y6950626D01*
X10908962Y6972393D01*
Y6961509D01*
X10905334Y6954254D01*
X10901706Y6950626D01*
X10890823Y6946998D01*
X10883567D01*
X10872684Y6950626D01*
X10865428Y6957882D01*
X10861800Y6968765D01*
Y6979648D01*
X10865428Y6990532D01*
X10869056Y6994159D01*
X10876312Y6997787D01*
X10769328Y7403359D02*
X10693144Y7374336D01*
X10769328Y7345314D02*
X10693144Y7374336D01*
X10769328Y7328263D02*
X10765700Y7324635D01*
X10769328Y7321007D01*
X10772956Y7324635D01*
X10769328Y7328263D01*
X10743934Y7324635D02*
X10693144D01*
X10743934Y7307585D02*
X10693144D01*
X10729423D02*
X10740306Y7296701D01*
X10743934Y7289446D01*
Y7278563D01*
X10740306Y7271307D01*
X10729423Y7267679D01*
X10693144D01*
X10756921Y6874392D02*
X10691620D01*
X10724271Y6907043D02*
Y6841742D01*
X10767804Y6819250D02*
X10691620Y6790228D01*
X10767804Y6761205D02*
X10691620Y6790228D01*
X10742410Y6733271D02*
X10738782Y6740527D01*
X10731526Y6747782D01*
X10720643Y6751410D01*
X10713387D01*
X10702504Y6747782D01*
X10695248Y6740527D01*
X10691620Y6733271D01*
Y6722388D01*
X10695248Y6715132D01*
X10702504Y6707877D01*
X10713387Y6704249D01*
X10720643D01*
X10731526Y6707877D01*
X10738782Y6715132D01*
X10742410Y6722388D01*
Y6733271D01*
X10769600Y7097472D02*
X10765972Y7108356D01*
X10755089Y7115611D01*
X10736950Y7119239D01*
X10726066D01*
X10707928Y7115611D01*
X10697044Y7108356D01*
X10693416Y7097472D01*
Y7090217D01*
X10697044Y7079334D01*
X10707928Y7072078D01*
X10726066Y7068450D01*
X10736950D01*
X10755089Y7072078D01*
X10765972Y7079334D01*
X10769600Y7090217D01*
Y7097472D01*
Y7051399D02*
X10693416Y7022377D01*
X10769600Y6993355D02*
X10693416Y7022377D01*
X10740427Y22476244D02*
X10747683Y22479871D01*
X10754938Y22487128D01*
X10758566Y22494382D01*
Y22508894D01*
X10754938Y22516148D01*
X10747683Y22523405D01*
X10740427Y22527032D01*
X10729543Y22530661D01*
X10711405D01*
X10700521Y22527032D01*
X10693266Y22523405D01*
X10686010Y22516148D01*
X10682382Y22508894D01*
Y22494382D01*
X10686010Y22487128D01*
X10693266Y22479871D01*
X10700521Y22476244D01*
X10711405D01*
Y22494382D02*
Y22476244D01*
X10758566Y22458830D02*
X10682382D01*
X10758566D02*
X10682382Y22408041D01*
X10758566D02*
X10682382D01*
X10758566Y22387000D02*
X10682382D01*
X10758566D02*
Y22361604D01*
X10754938Y22350722D01*
X10747683Y22343466D01*
X10740427Y22339838D01*
X10729543Y22336211D01*
X10711405D01*
X10700521Y22339838D01*
X10693266Y22343466D01*
X10686010Y22350722D01*
X10682382Y22361604D01*
Y22387000D01*
X10927984Y22370599D02*
X10851800D01*
X10927984D02*
Y22337950D01*
X10924356Y22327066D01*
X10920728Y22323439D01*
X10913473Y22319810D01*
X10906217D01*
X10898961Y22323439D01*
X10895334Y22327066D01*
X10891706Y22337950D01*
Y22370599D02*
Y22337950D01*
X10888078Y22327066D01*
X10884450Y22323439D01*
X10877195Y22319810D01*
X10866312D01*
X10859056Y22323439D01*
X10855428Y22327066D01*
X10851800Y22337950D01*
Y22370599D01*
X10826406Y22302760D02*
Y22244714D01*
X10917101Y22184131D02*
X10924356Y22191386D01*
X10927984Y22202271D01*
Y22216782D01*
X10924356Y22227666D01*
X10917101Y22234920D01*
X10909845D01*
X10902589Y22231293D01*
X10898961Y22227666D01*
X10895334Y22220409D01*
X10888078Y22198642D01*
X10884450Y22191386D01*
X10880823Y22187759D01*
X10873567Y22184131D01*
X10862684D01*
X10855428Y22191386D01*
X10851800Y22202271D01*
Y22216782D01*
X10855428Y22227666D01*
X10862684Y22234920D01*
X10884450Y22167081D02*
Y22101781D01*
X10913473Y22079288D02*
X10917101Y22072032D01*
X10927984Y22061150D01*
X10851800D01*
X10927984Y22023421D02*
X10851800Y22005281D01*
X10927984Y21987141D02*
X10851800Y22005281D01*
X10927984Y21987141D02*
X10851800Y21969003D01*
X10927984Y21950864D02*
X10851800Y21969003D01*
X10927984Y21935628D02*
X10851800D01*
X10927984D02*
Y21902977D01*
X10924356Y21892094D01*
X10920728Y21888466D01*
X10913473Y21884837D01*
X10906217D01*
X10898961Y21888466D01*
X10895334Y21892094D01*
X10891706Y21902977D01*
Y21935628D01*
Y21910233D02*
X10851800Y21884837D01*
X10927984Y21860532D02*
Y21820625D01*
X10898961Y21842393D01*
Y21831509D01*
X10895334Y21824254D01*
X10891706Y21820625D01*
X10880823Y21816998D01*
X10873567D01*
X10862684Y21820625D01*
X10855428Y21827882D01*
X10851800Y21838765D01*
Y21849648D01*
X10855428Y21860532D01*
X10859056Y21864159D01*
X10866312Y21867787D01*
X10759328Y22273360D02*
X10683144Y22244336D01*
X10759328Y22215314D02*
X10683144Y22244336D01*
X10759328Y22198264D02*
X10755700Y22194635D01*
X10759328Y22191006D01*
X10762956Y22194635D01*
X10759328Y22198264D01*
X10733933Y22194635D02*
X10683144D01*
X10733933Y22177585D02*
X10683144D01*
X10719422D02*
X10730305Y22166701D01*
X10733933Y22159447D01*
Y22148563D01*
X10730305Y22141307D01*
X10719422Y22137679D01*
X10683144D01*
X10746921Y21744392D02*
X10681620D01*
X10714270Y21777043D02*
Y21711742D01*
X10757804Y21689250D02*
X10681620Y21660228D01*
X10757804Y21631206D02*
X10681620Y21660228D01*
X10732409Y21603271D02*
X10728781Y21610527D01*
X10721526Y21617783D01*
X10710643Y21621410D01*
X10703387D01*
X10692504Y21617783D01*
X10685248Y21610527D01*
X10681620Y21603271D01*
Y21592387D01*
X10685248Y21585132D01*
X10692504Y21577876D01*
X10703387Y21574249D01*
X10710643D01*
X10721526Y21577876D01*
X10728781Y21585132D01*
X10732409Y21592387D01*
Y21603271D01*
X10759600Y21967471D02*
X10755972Y21978355D01*
X10745088Y21985611D01*
X10726950Y21989240D01*
X10716066D01*
X10697927Y21985611D01*
X10687044Y21978355D01*
X10683416Y21967471D01*
Y21960217D01*
X10687044Y21949335D01*
X10697927Y21942078D01*
X10716066Y21938451D01*
X10726950D01*
X10745088Y21942078D01*
X10755972Y21949335D01*
X10759600Y21960217D01*
Y21967471D01*
Y21921399D02*
X10683416Y21892377D01*
X10759600Y21863354D02*
X10683416Y21892377D01*
X13200427Y22476244D02*
X13207683Y22479871D01*
X13214938Y22487128D01*
X13218565Y22494382D01*
Y22508894D01*
X13214938Y22516148D01*
X13207683Y22523405D01*
X13200427Y22527032D01*
X13189543Y22530661D01*
X13171404D01*
X13160521Y22527032D01*
X13153265Y22523405D01*
X13146010Y22516148D01*
X13142381Y22508894D01*
Y22494382D01*
X13146010Y22487128D01*
X13153265Y22479871D01*
X13160521Y22476244D01*
X13171404D01*
Y22494382D02*
Y22476244D01*
X13218565Y22458830D02*
X13142381D01*
X13218565D02*
X13142381Y22408041D01*
X13218565D02*
X13142381D01*
X13218565Y22387000D02*
X13142381D01*
X13218565D02*
Y22361604D01*
X13214938Y22350722D01*
X13207683Y22343466D01*
X13200427Y22339838D01*
X13189543Y22336211D01*
X13171404D01*
X13160521Y22339838D01*
X13153265Y22343466D01*
X13146010Y22350722D01*
X13142381Y22361604D01*
Y22387000D01*
X13387984Y22370599D02*
X13311800D01*
X13387984D02*
Y22337950D01*
X13384357Y22327066D01*
X13380728Y22323439D01*
X13373473Y22319810D01*
X13366217D01*
X13358961Y22323439D01*
X13355334Y22327066D01*
X13351706Y22337950D01*
Y22370599D02*
Y22337950D01*
X13348077Y22327066D01*
X13344450Y22323439D01*
X13337195Y22319810D01*
X13326311D01*
X13319057Y22323439D01*
X13315428Y22327066D01*
X13311800Y22337950D01*
Y22370599D01*
X13286404Y22302760D02*
Y22244714D01*
X13377101Y22184131D02*
X13384357Y22191386D01*
X13387984Y22202271D01*
Y22216782D01*
X13384357Y22227666D01*
X13377101Y22234920D01*
X13369846D01*
X13362589Y22231293D01*
X13358961Y22227666D01*
X13355334Y22220409D01*
X13348077Y22198642D01*
X13344450Y22191386D01*
X13340822Y22187759D01*
X13333566Y22184131D01*
X13322684D01*
X13315428Y22191386D01*
X13311800Y22202271D01*
Y22216782D01*
X13315428Y22227666D01*
X13322684Y22234920D01*
X13344450Y22167081D02*
Y22101781D01*
X13373473Y22079288D02*
X13377101Y22072032D01*
X13387984Y22061150D01*
X13311800D01*
X13387984Y22023421D02*
X13311800Y22005281D01*
X13387984Y21987141D02*
X13311800Y22005281D01*
X13387984Y21987141D02*
X13311800Y21969003D01*
X13387984Y21950864D02*
X13311800Y21969003D01*
X13387984Y21935628D02*
X13311800D01*
X13387984D02*
Y21902977D01*
X13384357Y21892094D01*
X13380728Y21888466D01*
X13373473Y21884837D01*
X13366217D01*
X13358961Y21888466D01*
X13355334Y21892094D01*
X13351706Y21902977D01*
Y21935628D01*
Y21910233D02*
X13311800Y21884837D01*
X13387984Y21860532D02*
Y21820625D01*
X13358961Y21842393D01*
Y21831509D01*
X13355334Y21824254D01*
X13351706Y21820625D01*
X13340822Y21816998D01*
X13333566D01*
X13322684Y21820625D01*
X13315428Y21827882D01*
X13311800Y21838765D01*
Y21849648D01*
X13315428Y21860532D01*
X13319057Y21864159D01*
X13326311Y21867787D01*
X13219328Y22273360D02*
X13143144Y22244336D01*
X13219328Y22215314D02*
X13143144Y22244336D01*
X13219328Y22198264D02*
X13215700Y22194635D01*
X13219328Y22191006D01*
X13222955Y22194635D01*
X13219328Y22198264D01*
X13193933Y22194635D02*
X13143144D01*
X13193933Y22177585D02*
X13143144D01*
X13179422D02*
X13190305Y22166701D01*
X13193933Y22159447D01*
Y22148563D01*
X13190305Y22141307D01*
X13179422Y22137679D01*
X13143144D01*
X13206921Y21744392D02*
X13141620D01*
X13174271Y21777043D02*
Y21711742D01*
X13217804Y21689250D02*
X13141620Y21660228D01*
X13217804Y21631206D02*
X13141620Y21660228D01*
X13192409Y21603271D02*
X13188782Y21610527D01*
X13181526Y21617783D01*
X13170642Y21621410D01*
X13163387D01*
X13152504Y21617783D01*
X13145248Y21610527D01*
X13141620Y21603271D01*
Y21592387D01*
X13145248Y21585132D01*
X13152504Y21577876D01*
X13163387Y21574249D01*
X13170642D01*
X13181526Y21577876D01*
X13188782Y21585132D01*
X13192409Y21592387D01*
Y21603271D01*
X13219600Y21967471D02*
X13215971Y21978355D01*
X13205087Y21985611D01*
X13186949Y21989240D01*
X13176067D01*
X13157927Y21985611D01*
X13147044Y21978355D01*
X13143416Y21967471D01*
Y21960217D01*
X13147044Y21949335D01*
X13157927Y21942078D01*
X13176067Y21938451D01*
X13186949D01*
X13205087Y21942078D01*
X13215971Y21949335D01*
X13219600Y21960217D01*
Y21967471D01*
Y21921399D02*
X13143416Y21892377D01*
X13219600Y21863354D02*
X13143416Y21892377D01*
X15660426Y22476244D02*
X15667683Y22479871D01*
X15674937Y22487128D01*
X15678566Y22494382D01*
Y22508894D01*
X15674937Y22516148D01*
X15667683Y22523405D01*
X15660426Y22527032D01*
X15649544Y22530661D01*
X15631406D01*
X15620522Y22527032D01*
X15613266Y22523405D01*
X15606010Y22516148D01*
X15602382Y22508894D01*
Y22494382D01*
X15606010Y22487128D01*
X15613266Y22479871D01*
X15620522Y22476244D01*
X15631406D01*
Y22494382D02*
Y22476244D01*
X15678566Y22458830D02*
X15602382D01*
X15678566D02*
X15602382Y22408041D01*
X15678566D02*
X15602382D01*
X15678566Y22387000D02*
X15602382D01*
X15678566D02*
Y22361604D01*
X15674937Y22350722D01*
X15667683Y22343466D01*
X15660426Y22339838D01*
X15649544Y22336211D01*
X15631406D01*
X15620522Y22339838D01*
X15613266Y22343466D01*
X15606010Y22350722D01*
X15602382Y22361604D01*
Y22387000D01*
X15847984Y22370599D02*
X15771800D01*
X15847984D02*
Y22337950D01*
X15844356Y22327066D01*
X15840729Y22323439D01*
X15833473Y22319810D01*
X15826218D01*
X15818962Y22323439D01*
X15815334Y22327066D01*
X15811707Y22337950D01*
Y22370599D02*
Y22337950D01*
X15808078Y22327066D01*
X15804449Y22323439D01*
X15797195Y22319810D01*
X15786311D01*
X15779056Y22323439D01*
X15775427Y22327066D01*
X15771800Y22337950D01*
Y22370599D01*
X15746407Y22302760D02*
Y22244714D01*
X15837102Y22184131D02*
X15844356Y22191386D01*
X15847984Y22202271D01*
Y22216782D01*
X15844356Y22227666D01*
X15837102Y22234920D01*
X15829845D01*
X15822589Y22231293D01*
X15818962Y22227666D01*
X15815334Y22220409D01*
X15808078Y22198642D01*
X15804449Y22191386D01*
X15800822Y22187759D01*
X15793567Y22184131D01*
X15782684D01*
X15775427Y22191386D01*
X15771800Y22202271D01*
Y22216782D01*
X15775427Y22227666D01*
X15782684Y22234920D01*
X15804449Y22167081D02*
Y22101781D01*
X15833473Y22079288D02*
X15837102Y22072032D01*
X15847984Y22061150D01*
X15771800D01*
X15847984Y22023421D02*
X15771800Y22005281D01*
X15847984Y21987141D02*
X15771800Y22005281D01*
X15847984Y21987141D02*
X15771800Y21969003D01*
X15847984Y21950864D02*
X15771800Y21969003D01*
X15847984Y21935628D02*
X15771800D01*
X15847984D02*
Y21902977D01*
X15844356Y21892094D01*
X15840729Y21888466D01*
X15833473Y21884837D01*
X15826218D01*
X15818962Y21888466D01*
X15815334Y21892094D01*
X15811707Y21902977D01*
Y21935628D01*
Y21910233D02*
X15771800Y21884837D01*
X15847984Y21860532D02*
Y21820625D01*
X15818962Y21842393D01*
Y21831509D01*
X15815334Y21824254D01*
X15811707Y21820625D01*
X15800822Y21816998D01*
X15793567D01*
X15782684Y21820625D01*
X15775427Y21827882D01*
X15771800Y21838765D01*
Y21849648D01*
X15775427Y21860532D01*
X15779056Y21864159D01*
X15786311Y21867787D01*
X15679327Y22273360D02*
X15603143Y22244336D01*
X15679327Y22215314D02*
X15603143Y22244336D01*
X15679327Y22198264D02*
X15675700Y22194635D01*
X15679327Y22191006D01*
X15682956Y22194635D01*
X15679327Y22198264D01*
X15653934Y22194635D02*
X15603143D01*
X15653934Y22177585D02*
X15603143D01*
X15639423D02*
X15650307Y22166701D01*
X15653934Y22159447D01*
Y22148563D01*
X15650307Y22141307D01*
X15639423Y22137679D01*
X15603143D01*
X15666920Y21744392D02*
X15601620D01*
X15634270Y21777043D02*
Y21711742D01*
X15677805Y21689250D02*
X15601620Y21660228D01*
X15677805Y21631206D02*
X15601620Y21660228D01*
X15652409Y21603271D02*
X15648782Y21610527D01*
X15641525Y21617783D01*
X15630643Y21621410D01*
X15623387D01*
X15612505Y21617783D01*
X15605247Y21610527D01*
X15601620Y21603271D01*
Y21592387D01*
X15605247Y21585132D01*
X15612505Y21577876D01*
X15623387Y21574249D01*
X15630643D01*
X15641525Y21577876D01*
X15648782Y21585132D01*
X15652409Y21592387D01*
Y21603271D01*
X15679601Y21967471D02*
X15675972Y21978355D01*
X15665089Y21985611D01*
X15646950Y21989240D01*
X15636066D01*
X15617928Y21985611D01*
X15607043Y21978355D01*
X15603416Y21967471D01*
Y21960217D01*
X15607043Y21949335D01*
X15617928Y21942078D01*
X15636066Y21938451D01*
X15646950D01*
X15665089Y21942078D01*
X15675972Y21949335D01*
X15679601Y21960217D01*
Y21967471D01*
Y21921399D02*
X15603416Y21892377D01*
X15679601Y21863354D02*
X15603416Y21892377D01*
X18120427Y22476244D02*
X18127682Y22479871D01*
X18134938Y22487128D01*
X18138567Y22494382D01*
Y22508894D01*
X18134938Y22516148D01*
X18127682Y22523405D01*
X18120427Y22527032D01*
X18109543Y22530661D01*
X18091405D01*
X18080521Y22527032D01*
X18073267Y22523405D01*
X18066010Y22516148D01*
X18062383Y22508894D01*
Y22494382D01*
X18066010Y22487128D01*
X18073267Y22479871D01*
X18080521Y22476244D01*
X18091405D01*
Y22494382D02*
Y22476244D01*
X18138567Y22458830D02*
X18062383D01*
X18138567D02*
X18062383Y22408041D01*
X18138567D02*
X18062383D01*
X18138567Y22387000D02*
X18062383D01*
X18138567D02*
Y22361604D01*
X18134938Y22350722D01*
X18127682Y22343466D01*
X18120427Y22339838D01*
X18109543Y22336211D01*
X18091405D01*
X18080521Y22339838D01*
X18073267Y22343466D01*
X18066010Y22350722D01*
X18062383Y22361604D01*
Y22387000D01*
X18307983Y22370599D02*
X18231799D01*
X18307983D02*
Y22337950D01*
X18304356Y22327066D01*
X18300728Y22323439D01*
X18293472Y22319810D01*
X18286217D01*
X18278961Y22323439D01*
X18275334Y22327066D01*
X18271706Y22337950D01*
Y22370599D02*
Y22337950D01*
X18268079Y22327066D01*
X18264450Y22323439D01*
X18257195Y22319810D01*
X18246310D01*
X18239056Y22323439D01*
X18235428Y22327066D01*
X18231799Y22337950D01*
Y22370599D01*
X18206406Y22302760D02*
Y22244714D01*
X18297101Y22184131D02*
X18304356Y22191386D01*
X18307983Y22202271D01*
Y22216782D01*
X18304356Y22227666D01*
X18297101Y22234920D01*
X18289845D01*
X18282590Y22231293D01*
X18278961Y22227666D01*
X18275334Y22220409D01*
X18268079Y22198642D01*
X18264450Y22191386D01*
X18260823Y22187759D01*
X18253568Y22184131D01*
X18242683D01*
X18235428Y22191386D01*
X18231799Y22202271D01*
Y22216782D01*
X18235428Y22227666D01*
X18242683Y22234920D01*
X18264450Y22167081D02*
Y22101781D01*
X18293472Y22079288D02*
X18297101Y22072032D01*
X18307983Y22061150D01*
X18231799D01*
X18307983Y22023421D02*
X18231799Y22005281D01*
X18307983Y21987141D02*
X18231799Y22005281D01*
X18307983Y21987141D02*
X18231799Y21969003D01*
X18307983Y21950864D02*
X18231799Y21969003D01*
X18307983Y21935628D02*
X18231799D01*
X18307983D02*
Y21902977D01*
X18304356Y21892094D01*
X18300728Y21888466D01*
X18293472Y21884837D01*
X18286217D01*
X18278961Y21888466D01*
X18275334Y21892094D01*
X18271706Y21902977D01*
Y21935628D01*
Y21910233D02*
X18231799Y21884837D01*
X18307983Y21860532D02*
Y21820625D01*
X18278961Y21842393D01*
Y21831509D01*
X18275334Y21824254D01*
X18271706Y21820625D01*
X18260823Y21816998D01*
X18253568D01*
X18242683Y21820625D01*
X18235428Y21827882D01*
X18231799Y21838765D01*
Y21849648D01*
X18235428Y21860532D01*
X18239056Y21864159D01*
X18246310Y21867787D01*
X18139328Y22273360D02*
X18063144Y22244336D01*
X18139328Y22215314D02*
X18063144Y22244336D01*
X18139328Y22198264D02*
X18135699Y22194635D01*
X18139328Y22191006D01*
X18142957Y22194635D01*
X18139328Y22198264D01*
X18113933Y22194635D02*
X18063144D01*
X18113933Y22177585D02*
X18063144D01*
X18099422D02*
X18110304Y22166701D01*
X18113933Y22159447D01*
Y22148563D01*
X18110304Y22141307D01*
X18099422Y22137679D01*
X18063144D01*
X18126921Y21744392D02*
X18061620D01*
X18094270Y21777043D02*
Y21711742D01*
X18137804Y21689250D02*
X18061620Y21660228D01*
X18137804Y21631206D02*
X18061620Y21660228D01*
X18112408Y21603271D02*
X18108781Y21610527D01*
X18101526Y21617783D01*
X18090643Y21621410D01*
X18083388D01*
X18072504Y21617783D01*
X18065248Y21610527D01*
X18061620Y21603271D01*
Y21592387D01*
X18065248Y21585132D01*
X18072504Y21577876D01*
X18083388Y21574249D01*
X18090643D01*
X18101526Y21577876D01*
X18108781Y21585132D01*
X18112408Y21592387D01*
Y21603271D01*
X18139600Y21967471D02*
X18135973Y21978355D01*
X18125089Y21985611D01*
X18106950Y21989240D01*
X18096066D01*
X18077927Y21985611D01*
X18067044Y21978355D01*
X18063416Y21967471D01*
Y21960217D01*
X18067044Y21949335D01*
X18077927Y21942078D01*
X18096066Y21938451D01*
X18106950D01*
X18125089Y21942078D01*
X18135973Y21949335D01*
X18139600Y21960217D01*
Y21967471D01*
Y21921399D02*
X18063416Y21892377D01*
X18139600Y21863354D02*
X18063416Y21892377D01*
X10149573Y11013756D02*
X10142318Y11010128D01*
X10135062Y11002873D01*
X10131434Y10995617D01*
Y10981106D01*
X10135062Y10973851D01*
X10142318Y10966595D01*
X10149573Y10962967D01*
X10160457Y10959339D01*
X10178596D01*
X10189479Y10962967D01*
X10196734Y10966595D01*
X10203990Y10973851D01*
X10207618Y10981106D01*
Y10995617D01*
X10203990Y11002873D01*
X10196734Y11010128D01*
X10189479Y11013756D01*
X10178596D01*
Y10995617D02*
Y11013756D01*
X10131434Y11031170D02*
X10207618D01*
X10131434D02*
X10207618Y11081959D01*
X10131434D02*
X10207618D01*
X10131434Y11103000D02*
X10207618D01*
X10131434D02*
Y11128395D01*
X10135062Y11139278D01*
X10142318Y11146534D01*
X10149573Y11150161D01*
X10160457Y11153789D01*
X10178596D01*
X10189479Y11150161D01*
X10196734Y11146534D01*
X10203990Y11139278D01*
X10207618Y11128395D01*
Y11103000D01*
X9962016Y11119400D02*
X10038200D01*
X9962016D02*
Y11152050D01*
X9965644Y11162933D01*
X9969272Y11166561D01*
X9976527Y11170189D01*
X9983783D01*
X9991039Y11166561D01*
X9994666Y11162933D01*
X9998294Y11152050D01*
Y11119400D02*
Y11152050D01*
X10001922Y11162933D01*
X10005550Y11166561D01*
X10012805Y11170189D01*
X10023689D01*
X10030944Y11166561D01*
X10034572Y11162933D01*
X10038200Y11152050D01*
Y11119400D01*
X10063595Y11187240D02*
Y11245284D01*
X9972900Y11305869D02*
X9965644Y11298613D01*
X9962016Y11287730D01*
Y11273218D01*
X9965644Y11262335D01*
X9972900Y11255080D01*
X9980155D01*
X9987411Y11258707D01*
X9991039Y11262335D01*
X9994666Y11269591D01*
X10001922Y11291358D01*
X10005550Y11298613D01*
X10009178Y11302241D01*
X10016433Y11305869D01*
X10027316D01*
X10034572Y11298613D01*
X10038200Y11287730D01*
Y11273218D01*
X10034572Y11262335D01*
X10027316Y11255080D01*
X10005550Y11322919D02*
Y11388220D01*
X9976527Y11410712D02*
X9972900Y11417968D01*
X9962016Y11428851D01*
X10038200D01*
X9962016Y11466580D02*
X10038200Y11484719D01*
X9962016Y11502858D02*
X10038200Y11484719D01*
X9962016Y11502858D02*
X10038200Y11520997D01*
X9962016Y11539136D02*
X10038200Y11520997D01*
X9962016Y11554373D02*
X10038200D01*
X9962016D02*
Y11587023D01*
X9965644Y11597906D01*
X9969272Y11601534D01*
X9976527Y11605162D01*
X9983783D01*
X9991039Y11601534D01*
X9994666Y11597906D01*
X9998294Y11587023D01*
Y11554373D01*
Y11579767D02*
X10038200Y11605162D01*
X9962016Y11629468D02*
Y11669374D01*
X9991039Y11647607D01*
Y11658491D01*
X9994666Y11665746D01*
X9998294Y11669374D01*
X10009178Y11673002D01*
X10016433D01*
X10027316Y11669374D01*
X10034572Y11662118D01*
X10038200Y11651235D01*
Y11640351D01*
X10034572Y11629468D01*
X10030944Y11625840D01*
X10023689Y11622212D01*
X10130672Y11216641D02*
X10206856Y11245664D01*
X10130672Y11274686D02*
X10206856Y11245664D01*
X10130672Y11291737D02*
X10134300Y11295365D01*
X10130672Y11298992D01*
X10127045Y11295365D01*
X10130672Y11291737D01*
X10156067Y11295365D02*
X10206856D01*
X10156067Y11312415D02*
X10206856D01*
X10170578D02*
X10159695Y11323298D01*
X10156067Y11330554D01*
Y11341437D01*
X10159695Y11348693D01*
X10170578Y11352321D01*
X10206856D01*
X10143080Y11745607D02*
X10208380D01*
X10175730Y11712957D02*
Y11778258D01*
X10132196Y11800750D02*
X10208380Y11829772D01*
X10132196Y11858794D02*
X10208380Y11829772D01*
X10157591Y11886729D02*
X10161219Y11879473D01*
X10168474Y11872218D01*
X10179358Y11868590D01*
X10186613D01*
X10197496Y11872218D01*
X10204752Y11879473D01*
X10208380Y11886729D01*
Y11897612D01*
X10204752Y11904868D01*
X10197496Y11912123D01*
X10186613Y11915751D01*
X10179358D01*
X10168474Y11912123D01*
X10161219Y11904868D01*
X10157591Y11897612D01*
Y11886729D01*
X10130400Y11522527D02*
X10134028Y11511644D01*
X10144912Y11504388D01*
X10163051Y11500761D01*
X10173934D01*
X10192073Y11504388D01*
X10202956Y11511644D01*
X10206584Y11522527D01*
Y11529783D01*
X10202956Y11540666D01*
X10192073Y11547922D01*
X10173934Y11551550D01*
X10163051D01*
X10144912Y11547922D01*
X10134028Y11540666D01*
X10130400Y11529783D01*
Y11522527D01*
Y11568600D02*
X10206584Y11597623D01*
X10130400Y11626645D02*
X10206584Y11597623D01*
X12609573Y11013756D02*
X12602317Y11010128D01*
X12595062Y11002873D01*
X12591434Y10995617D01*
Y10981106D01*
X12595062Y10973851D01*
X12602317Y10966595D01*
X12609573Y10962967D01*
X12620457Y10959339D01*
X12638596D01*
X12649479Y10962967D01*
X12656734Y10966595D01*
X12663990Y10973851D01*
X12667618Y10981106D01*
Y10995617D01*
X12663990Y11002873D01*
X12656734Y11010128D01*
X12649479Y11013756D01*
X12638596D01*
Y10995617D02*
Y11013756D01*
X12591434Y11031170D02*
X12667618D01*
X12591434D02*
X12667618Y11081959D01*
X12591434D02*
X12667618D01*
X12591434Y11103000D02*
X12667618D01*
X12591434D02*
Y11128395D01*
X12595062Y11139278D01*
X12602317Y11146534D01*
X12609573Y11150161D01*
X12620457Y11153789D01*
X12638596D01*
X12649479Y11150161D01*
X12656734Y11146534D01*
X12663990Y11139278D01*
X12667618Y11128395D01*
Y11103000D01*
X12422016Y11119400D02*
X12498200D01*
X12422016D02*
Y11152050D01*
X12425644Y11162933D01*
X12429272Y11166561D01*
X12436527Y11170189D01*
X12443783D01*
X12451039Y11166561D01*
X12454666Y11162933D01*
X12458294Y11152050D01*
Y11119400D02*
Y11152050D01*
X12461922Y11162933D01*
X12465550Y11166561D01*
X12472805Y11170189D01*
X12483689D01*
X12490944Y11166561D01*
X12494572Y11162933D01*
X12498200Y11152050D01*
Y11119400D01*
X12523594Y11187240D02*
Y11245284D01*
X12432899Y11305869D02*
X12425644Y11298613D01*
X12422016Y11287730D01*
Y11273218D01*
X12425644Y11262335D01*
X12432899Y11255080D01*
X12440155D01*
X12447411Y11258707D01*
X12451039Y11262335D01*
X12454666Y11269591D01*
X12461922Y11291358D01*
X12465550Y11298613D01*
X12469178Y11302241D01*
X12476433Y11305869D01*
X12487316D01*
X12494572Y11298613D01*
X12498200Y11287730D01*
Y11273218D01*
X12494572Y11262335D01*
X12487316Y11255080D01*
X12465550Y11322919D02*
Y11388220D01*
X12436527Y11410712D02*
X12432899Y11417968D01*
X12422016Y11428851D01*
X12498200D01*
X12422016Y11466580D02*
X12498200Y11484719D01*
X12422016Y11502858D02*
X12498200Y11484719D01*
X12422016Y11502858D02*
X12498200Y11520997D01*
X12422016Y11539136D02*
X12498200Y11520997D01*
X12422016Y11554373D02*
X12498200D01*
X12422016D02*
Y11587023D01*
X12425644Y11597906D01*
X12429272Y11601534D01*
X12436527Y11605162D01*
X12443783D01*
X12451039Y11601534D01*
X12454666Y11597906D01*
X12458294Y11587023D01*
Y11554373D01*
Y11579767D02*
X12498200Y11605162D01*
X12422016Y11629468D02*
Y11669374D01*
X12451039Y11647607D01*
Y11658491D01*
X12454666Y11665746D01*
X12458294Y11669374D01*
X12469178Y11673002D01*
X12476433D01*
X12487316Y11669374D01*
X12494572Y11662118D01*
X12498200Y11651235D01*
Y11640351D01*
X12494572Y11629468D01*
X12490944Y11625840D01*
X12483689Y11622212D01*
X12590672Y11216641D02*
X12666856Y11245664D01*
X12590672Y11274686D02*
X12666856Y11245664D01*
X12590672Y11291737D02*
X12594300Y11295365D01*
X12590672Y11298992D01*
X12587044Y11295365D01*
X12590672Y11291737D01*
X12616067Y11295365D02*
X12666856D01*
X12616067Y11312415D02*
X12666856D01*
X12630578D02*
X12619695Y11323298D01*
X12616067Y11330554D01*
Y11341437D01*
X12619695Y11348693D01*
X12630578Y11352321D01*
X12666856D01*
X12603079Y11745607D02*
X12668380D01*
X12635730Y11712957D02*
Y11778258D01*
X12592196Y11800750D02*
X12668380Y11829772D01*
X12592196Y11858794D02*
X12668380Y11829772D01*
X12617591Y11886729D02*
X12621219Y11879473D01*
X12628474Y11872218D01*
X12639357Y11868590D01*
X12646613D01*
X12657496Y11872218D01*
X12664752Y11879473D01*
X12668380Y11886729D01*
Y11897612D01*
X12664752Y11904868D01*
X12657496Y11912123D01*
X12646613Y11915751D01*
X12639357D01*
X12628474Y11912123D01*
X12621219Y11904868D01*
X12617591Y11897612D01*
Y11886729D01*
X12590400Y11522527D02*
X12594028Y11511644D01*
X12604912Y11504388D01*
X12623050Y11500761D01*
X12633934D01*
X12652073Y11504388D01*
X12662956Y11511644D01*
X12666584Y11522527D01*
Y11529783D01*
X12662956Y11540666D01*
X12652073Y11547922D01*
X12633934Y11551550D01*
X12623050D01*
X12604912Y11547922D01*
X12594028Y11540666D01*
X12590400Y11529783D01*
Y11522527D01*
Y11568600D02*
X12666584Y11597623D01*
X12590400Y11626645D02*
X12666584Y11597623D01*
X15069572Y11013756D02*
X15062317Y11010128D01*
X15055061Y11002873D01*
X15051434Y10995617D01*
Y10981106D01*
X15055061Y10973851D01*
X15062317Y10966595D01*
X15069572Y10962967D01*
X15080457Y10959339D01*
X15098595D01*
X15109479Y10962967D01*
X15116734Y10966595D01*
X15123990Y10973851D01*
X15127618Y10981106D01*
Y10995617D01*
X15123990Y11002873D01*
X15116734Y11010128D01*
X15109479Y11013756D01*
X15098595D01*
Y10995617D02*
Y11013756D01*
X15051434Y11031170D02*
X15127618D01*
X15051434D02*
X15127618Y11081959D01*
X15051434D02*
X15127618D01*
X15051434Y11103000D02*
X15127618D01*
X15051434D02*
Y11128395D01*
X15055061Y11139278D01*
X15062317Y11146534D01*
X15069572Y11150161D01*
X15080457Y11153789D01*
X15098595D01*
X15109479Y11150161D01*
X15116734Y11146534D01*
X15123990Y11139278D01*
X15127618Y11128395D01*
Y11103000D01*
X14882016Y11119400D02*
X14958200D01*
X14882016D02*
Y11152050D01*
X14885645Y11162933D01*
X14889272Y11166561D01*
X14896527Y11170189D01*
X14903783D01*
X14911040Y11166561D01*
X14914667Y11162933D01*
X14918294Y11152050D01*
Y11119400D02*
Y11152050D01*
X14921922Y11162933D01*
X14925549Y11166561D01*
X14932805Y11170189D01*
X14943687D01*
X14950945Y11166561D01*
X14954572Y11162933D01*
X14958200Y11152050D01*
Y11119400D01*
X14983594Y11187240D02*
Y11245284D01*
X14892899Y11305869D02*
X14885645Y11298613D01*
X14882016Y11287730D01*
Y11273218D01*
X14885645Y11262335D01*
X14892899Y11255080D01*
X14900156D01*
X14907411Y11258707D01*
X14911040Y11262335D01*
X14914667Y11269591D01*
X14921922Y11291358D01*
X14925549Y11298613D01*
X14929176Y11302241D01*
X14936433Y11305869D01*
X14947316D01*
X14954572Y11298613D01*
X14958200Y11287730D01*
Y11273218D01*
X14954572Y11262335D01*
X14947316Y11255080D01*
X14925549Y11322919D02*
Y11388220D01*
X14896527Y11410712D02*
X14892899Y11417968D01*
X14882016Y11428851D01*
X14958200D01*
X14882016Y11466580D02*
X14958200Y11484719D01*
X14882016Y11502858D02*
X14958200Y11484719D01*
X14882016Y11502858D02*
X14958200Y11520997D01*
X14882016Y11539136D02*
X14958200Y11520997D01*
X14882016Y11554373D02*
X14958200D01*
X14882016D02*
Y11587023D01*
X14885645Y11597906D01*
X14889272Y11601534D01*
X14896527Y11605162D01*
X14903783D01*
X14911040Y11601534D01*
X14914667Y11597906D01*
X14918294Y11587023D01*
Y11554373D01*
Y11579767D02*
X14958200Y11605162D01*
X14882016Y11629468D02*
Y11669374D01*
X14911040Y11647607D01*
Y11658491D01*
X14914667Y11665746D01*
X14918294Y11669374D01*
X14929176Y11673002D01*
X14936433D01*
X14947316Y11669374D01*
X14954572Y11662118D01*
X14958200Y11651235D01*
Y11640351D01*
X14954572Y11629468D01*
X14950945Y11625840D01*
X14943687Y11622212D01*
X15050671Y11216641D02*
X15126855Y11245664D01*
X15050671Y11274686D02*
X15126855Y11245664D01*
X15050671Y11291737D02*
X15054300Y11295365D01*
X15050671Y11298992D01*
X15047044Y11295365D01*
X15050671Y11291737D01*
X15076067Y11295365D02*
X15126855D01*
X15076067Y11312415D02*
X15126855D01*
X15090578D02*
X15079695Y11323298D01*
X15076067Y11330554D01*
Y11341437D01*
X15079695Y11348693D01*
X15090578Y11352321D01*
X15126855D01*
X15063078Y11745607D02*
X15128380D01*
X15095731Y11712957D02*
Y11778258D01*
X15052196Y11800750D02*
X15128380Y11829772D01*
X15052196Y11858794D02*
X15128380Y11829772D01*
X15077591Y11886729D02*
X15081219Y11879473D01*
X15088474Y11872218D01*
X15099358Y11868590D01*
X15106613D01*
X15117496Y11872218D01*
X15124751Y11879473D01*
X15128380Y11886729D01*
Y11897612D01*
X15124751Y11904868D01*
X15117496Y11912123D01*
X15106613Y11915751D01*
X15099358D01*
X15088474Y11912123D01*
X15081219Y11904868D01*
X15077591Y11897612D01*
Y11886729D01*
X15050400Y11522527D02*
X15054028Y11511644D01*
X15064911Y11504388D01*
X15083051Y11500761D01*
X15093935D01*
X15112073Y11504388D01*
X15122955Y11511644D01*
X15126584Y11522527D01*
Y11529783D01*
X15122955Y11540666D01*
X15112073Y11547922D01*
X15093935Y11551550D01*
X15083051D01*
X15064911Y11547922D01*
X15054028Y11540666D01*
X15050400Y11529783D01*
Y11522527D01*
Y11568600D02*
X15126584Y11597623D01*
X15050400Y11626645D02*
X15126584Y11597623D01*
X18130428Y7606244D02*
X18137683Y7609871D01*
X18144939Y7617127D01*
X18148566Y7624383D01*
Y7638894D01*
X18144939Y7646149D01*
X18137683Y7653405D01*
X18130428Y7657033D01*
X18119543Y7660661D01*
X18101405D01*
X18090521Y7657033D01*
X18083266Y7653405D01*
X18076010Y7646149D01*
X18072382Y7638894D01*
Y7624383D01*
X18076010Y7617127D01*
X18083266Y7609871D01*
X18090521Y7606244D01*
X18101405D01*
Y7624383D02*
Y7606244D01*
X18148566Y7588830D02*
X18072382D01*
X18148566D02*
X18072382Y7538041D01*
X18148566D02*
X18072382D01*
X18148566Y7517000D02*
X18072382D01*
X18148566D02*
Y7491605D01*
X18144939Y7480722D01*
X18137683Y7473466D01*
X18130428Y7469839D01*
X18119543Y7466211D01*
X18101405D01*
X18090521Y7469839D01*
X18083266Y7473466D01*
X18076010Y7480722D01*
X18072382Y7491605D01*
Y7517000D01*
X18317984Y7500600D02*
X18241800D01*
X18317984D02*
Y7467950D01*
X18314355Y7457066D01*
X18310728Y7453439D01*
X18303473Y7449811D01*
X18296217D01*
X18288962Y7453439D01*
X18285333Y7457066D01*
X18281706Y7467950D01*
Y7500600D02*
Y7467950D01*
X18278079Y7457066D01*
X18274451Y7453439D01*
X18267195Y7449811D01*
X18256313D01*
X18249055Y7453439D01*
X18245428Y7457066D01*
X18241800Y7467950D01*
Y7500600D01*
X18216406Y7432760D02*
Y7374716D01*
X18307101Y7314131D02*
X18314355Y7321387D01*
X18317984Y7332270D01*
Y7346781D01*
X18314355Y7357665D01*
X18307101Y7364920D01*
X18299844D01*
X18292590Y7361292D01*
X18288962Y7357665D01*
X18285333Y7350409D01*
X18278079Y7328642D01*
X18274451Y7321387D01*
X18270824Y7317759D01*
X18263567Y7314131D01*
X18252684D01*
X18245428Y7321387D01*
X18241800Y7332270D01*
Y7346781D01*
X18245428Y7357665D01*
X18252684Y7364920D01*
X18274451Y7297080D02*
Y7231780D01*
X18303473Y7209288D02*
X18307101Y7202032D01*
X18317984Y7191149D01*
X18241800D01*
X18317984Y7153420D02*
X18241800Y7135281D01*
X18317984Y7117142D02*
X18241800Y7135281D01*
X18317984Y7117142D02*
X18241800Y7099003D01*
X18317984Y7080864D02*
X18241800Y7099003D01*
X18317984Y7065627D02*
X18241800D01*
X18317984D02*
Y7032977D01*
X18314355Y7022094D01*
X18310728Y7018466D01*
X18303473Y7014838D01*
X18296217D01*
X18288962Y7018466D01*
X18285333Y7022094D01*
X18281706Y7032977D01*
Y7065627D01*
Y7040233D02*
X18241800Y7014838D01*
X18317984Y6990532D02*
Y6950626D01*
X18288962Y6972393D01*
Y6961509D01*
X18285333Y6954254D01*
X18281706Y6950626D01*
X18270824Y6946998D01*
X18263567D01*
X18252684Y6950626D01*
X18245428Y6957882D01*
X18241800Y6968765D01*
Y6979648D01*
X18245428Y6990532D01*
X18249055Y6994159D01*
X18256313Y6997787D01*
X18149329Y7403359D02*
X18073145Y7374336D01*
X18149329Y7345314D02*
X18073145Y7374336D01*
X18149329Y7328263D02*
X18145700Y7324635D01*
X18149329Y7321007D01*
X18152956Y7324635D01*
X18149329Y7328263D01*
X18123933Y7324635D02*
X18073145D01*
X18123933Y7307585D02*
X18073145D01*
X18109422D02*
X18120306Y7296701D01*
X18123933Y7289446D01*
Y7278563D01*
X18120306Y7271307D01*
X18109422Y7267679D01*
X18073145D01*
X18136922Y6874392D02*
X18071620D01*
X18104271Y6907043D02*
Y6841742D01*
X18147804Y6819250D02*
X18071620Y6790228D01*
X18147804Y6761205D02*
X18071620Y6790228D01*
X18122411Y6733271D02*
X18118782Y6740527D01*
X18111526Y6747782D01*
X18100642Y6751410D01*
X18093387D01*
X18082504Y6747782D01*
X18075249Y6740527D01*
X18071620Y6733271D01*
Y6722388D01*
X18075249Y6715132D01*
X18082504Y6707877D01*
X18093387Y6704249D01*
X18100642D01*
X18111526Y6707877D01*
X18118782Y6715132D01*
X18122411Y6722388D01*
Y6733271D01*
X18149600Y7097472D02*
X18145972Y7108356D01*
X18135089Y7115611D01*
X18116949Y7119239D01*
X18106065D01*
X18087927Y7115611D01*
X18077045Y7108356D01*
X18073416Y7097472D01*
Y7090217D01*
X18077045Y7079334D01*
X18087927Y7072078D01*
X18106065Y7068450D01*
X18116949D01*
X18135089Y7072078D01*
X18145972Y7079334D01*
X18149600Y7090217D01*
Y7097472D01*
Y7051399D02*
X18073416Y7022377D01*
X18149600Y6993355D02*
X18073416Y7022377D01*
X15670427Y7606244D02*
X15677682Y7609871D01*
X15684938Y7617127D01*
X15688567Y7624383D01*
Y7638894D01*
X15684938Y7646149D01*
X15677682Y7653405D01*
X15670427Y7657033D01*
X15659543Y7660661D01*
X15641405D01*
X15630521Y7657033D01*
X15623267Y7653405D01*
X15616010Y7646149D01*
X15612383Y7638894D01*
Y7624383D01*
X15616010Y7617127D01*
X15623267Y7609871D01*
X15630521Y7606244D01*
X15641405D01*
Y7624383D02*
Y7606244D01*
X15688567Y7588830D02*
X15612383D01*
X15688567D02*
X15612383Y7538041D01*
X15688567D02*
X15612383D01*
X15688567Y7517000D02*
X15612383D01*
X15688567D02*
Y7491605D01*
X15684938Y7480722D01*
X15677682Y7473466D01*
X15670427Y7469839D01*
X15659543Y7466211D01*
X15641405D01*
X15630521Y7469839D01*
X15623267Y7473466D01*
X15616010Y7480722D01*
X15612383Y7491605D01*
Y7517000D01*
X15857983Y7500600D02*
X15781799D01*
X15857983D02*
Y7467950D01*
X15854356Y7457066D01*
X15850728Y7453439D01*
X15843472Y7449811D01*
X15836217D01*
X15828961Y7453439D01*
X15825334Y7457066D01*
X15821706Y7467950D01*
Y7500600D02*
Y7467950D01*
X15818079Y7457066D01*
X15814450Y7453439D01*
X15807195Y7449811D01*
X15796312D01*
X15789056Y7453439D01*
X15785428Y7457066D01*
X15781799Y7467950D01*
Y7500600D01*
X15756406Y7432760D02*
Y7374716D01*
X15847101Y7314131D02*
X15854356Y7321387D01*
X15857983Y7332270D01*
Y7346781D01*
X15854356Y7357665D01*
X15847101Y7364920D01*
X15839845D01*
X15832590Y7361292D01*
X15828961Y7357665D01*
X15825334Y7350409D01*
X15818079Y7328642D01*
X15814450Y7321387D01*
X15810823Y7317759D01*
X15803568Y7314131D01*
X15792683D01*
X15785428Y7321387D01*
X15781799Y7332270D01*
Y7346781D01*
X15785428Y7357665D01*
X15792683Y7364920D01*
X15814450Y7297080D02*
Y7231780D01*
X15843472Y7209288D02*
X15847101Y7202032D01*
X15857983Y7191149D01*
X15781799D01*
X15857983Y7153420D02*
X15781799Y7135281D01*
X15857983Y7117142D02*
X15781799Y7135281D01*
X15857983Y7117142D02*
X15781799Y7099003D01*
X15857983Y7080864D02*
X15781799Y7099003D01*
X15857983Y7065627D02*
X15781799D01*
X15857983D02*
Y7032977D01*
X15854356Y7022094D01*
X15850728Y7018466D01*
X15843472Y7014838D01*
X15836217D01*
X15828961Y7018466D01*
X15825334Y7022094D01*
X15821706Y7032977D01*
Y7065627D01*
Y7040233D02*
X15781799Y7014838D01*
X15857983Y6990532D02*
Y6950626D01*
X15828961Y6972393D01*
Y6961509D01*
X15825334Y6954254D01*
X15821706Y6950626D01*
X15810823Y6946998D01*
X15803568D01*
X15792683Y6950626D01*
X15785428Y6957882D01*
X15781799Y6968765D01*
Y6979648D01*
X15785428Y6990532D01*
X15789056Y6994159D01*
X15796312Y6997787D01*
X15689328Y7403359D02*
X15613144Y7374336D01*
X15689328Y7345314D02*
X15613144Y7374336D01*
X15689328Y7328263D02*
X15685699Y7324635D01*
X15689328Y7321007D01*
X15692957Y7324635D01*
X15689328Y7328263D01*
X15663933Y7324635D02*
X15613144D01*
X15663933Y7307585D02*
X15613144D01*
X15649422D02*
X15660304Y7296701D01*
X15663933Y7289446D01*
Y7278563D01*
X15660304Y7271307D01*
X15649422Y7267679D01*
X15613144D01*
X15676921Y6874392D02*
X15611620D01*
X15644270Y6907043D02*
Y6841742D01*
X15687804Y6819250D02*
X15611620Y6790228D01*
X15687804Y6761205D02*
X15611620Y6790228D01*
X15662408Y6733271D02*
X15658781Y6740527D01*
X15651526Y6747782D01*
X15640643Y6751410D01*
X15633388D01*
X15622504Y6747782D01*
X15615248Y6740527D01*
X15611620Y6733271D01*
Y6722388D01*
X15615248Y6715132D01*
X15622504Y6707877D01*
X15633388Y6704249D01*
X15640643D01*
X15651526Y6707877D01*
X15658781Y6715132D01*
X15662408Y6722388D01*
Y6733271D01*
X15689600Y7097472D02*
X15685973Y7108356D01*
X15675089Y7115611D01*
X15656950Y7119239D01*
X15646066D01*
X15627927Y7115611D01*
X15617044Y7108356D01*
X15613416Y7097472D01*
Y7090217D01*
X15617044Y7079334D01*
X15627927Y7072078D01*
X15646066Y7068450D01*
X15656950D01*
X15675089Y7072078D01*
X15685973Y7079334D01*
X15689600Y7090217D01*
Y7097472D01*
Y7051399D02*
X15613416Y7022377D01*
X15689600Y6993355D02*
X15613416Y7022377D01*
D68*
X13789966Y21475000D02*
D03*
X16249992D02*
D03*
X16939963Y12014972D02*
D03*
X13800044Y6605000D02*
D03*
X11329989Y21475000D02*
D03*
X18709988D02*
D03*
X9559995Y12014972D02*
D03*
X12019995Y12014976D02*
D03*
X14479993Y12014972D02*
D03*
X18719974Y6605000D02*
D03*
X16260014D02*
D03*
X11339921Y6604994D02*
D03*
%TF.MD5,3e2ec5caf0bc1923ecb0a2f1116cb05c*%
M02*
