G04*
G04 #@! TF.GenerationSoftware,Altium Limited,Altium Designer,25.8.1 (18)*
G04*
G04 Layer_Color=16711935*
%FSLAX44Y44*%
%MOMM*%
G71*
G04*
G04 #@! TF.SameCoordinates,DDD3FA79-87ED-428B-B654-174255E92D83*
G04*
G04*
G04 #@! TF.FilePolarity,Negative*
G04*
G01*
G75*
%ADD33R,1.6700X1.2500*%
%ADD35R,1.2500X1.6700*%
%ADD44C,3.1500*%
G04:AMPARAMS|DCode=45|XSize=3.15mm|YSize=3.15mm|CornerRadius=0.825mm|HoleSize=0mm|Usage=FLASHONLY|Rotation=270.000|XOffset=0mm|YOffset=0mm|HoleType=Round|Shape=RoundedRectangle|*
%AMROUNDEDRECTD45*
21,1,3.1500,1.5000,0,0,270.0*
21,1,1.5000,3.1500,0,0,270.0*
1,1,1.6500,-0.7500,-0.7500*
1,1,1.6500,-0.7500,0.7500*
1,1,1.6500,0.7500,0.7500*
1,1,1.6500,0.7500,-0.7500*
%
%ADD45ROUNDEDRECTD45*%
%ADD46C,2.2600*%
%ADD47C,1.8000*%
%ADD48R,1.4880X1.4880*%
%ADD49C,4.7500*%
%ADD50C,4.3500*%
%ADD51C,1.8300*%
%ADD52C,2.1500*%
G04:AMPARAMS|DCode=53|XSize=1.8mm|YSize=1.8mm|CornerRadius=0.4875mm|HoleSize=0mm|Usage=FLASHONLY|Rotation=0.000|XOffset=0mm|YOffset=0mm|HoleType=Round|Shape=RoundedRectangle|*
%AMROUNDEDRECTD53*
21,1,1.8000,0.8250,0,0,0.0*
21,1,0.8250,1.8000,0,0,0.0*
1,1,0.9750,0.4125,-0.4125*
1,1,0.9750,-0.4125,-0.4125*
1,1,0.9750,-0.4125,0.4125*
1,1,0.9750,0.4125,0.4125*
%
%ADD53ROUNDEDRECTD53*%
%ADD54C,1.9500*%
%ADD55R,2.2600X2.2600*%
%ADD56O,2.4500X1.5500*%
G04:AMPARAMS|DCode=57|XSize=1.8mm|YSize=1.8mm|CornerRadius=0.4875mm|HoleSize=0mm|Usage=FLASHONLY|Rotation=270.000|XOffset=0mm|YOffset=0mm|HoleType=Round|Shape=RoundedRectangle|*
%AMROUNDEDRECTD57*
21,1,1.8000,0.8250,0,0,270.0*
21,1,0.8250,1.8000,0,0,270.0*
1,1,0.9750,-0.4125,-0.4125*
1,1,0.9750,-0.4125,0.4125*
1,1,0.9750,0.4125,0.4125*
1,1,0.9750,0.4125,-0.4125*
%
%ADD57ROUNDEDRECTD57*%
%ADD58O,2.4500X1.7500*%
%ADD59C,1.4880*%
%ADD60C,7.5500*%
G04:AMPARAMS|DCode=61|XSize=3.15mm|YSize=3.15mm|CornerRadius=0.825mm|HoleSize=0mm|Usage=FLASHONLY|Rotation=0.000|XOffset=0mm|YOffset=0mm|HoleType=Round|Shape=RoundedRectangle|*
%AMROUNDEDRECTD61*
21,1,3.1500,1.5000,0,0,0.0*
21,1,1.5000,3.1500,0,0,0.0*
1,1,1.6500,0.7500,-0.7500*
1,1,1.6500,-0.7500,-0.7500*
1,1,1.6500,-0.7500,0.7500*
1,1,1.6500,0.7500,0.7500*
%
%ADD61ROUNDEDRECTD61*%
%ADD62C,0.1500*%
%ADD63C,2.1540*%
%ADD64R,2.1540X2.1540*%
%ADD65C,1.5500*%
%ADD66C,2.4000*%
G04:AMPARAMS|DCode=67|XSize=2.4mm|YSize=2.4mm|CornerRadius=0.6375mm|HoleSize=0mm|Usage=FLASHONLY|Rotation=270.000|XOffset=0mm|YOffset=0mm|HoleType=Round|Shape=RoundedRectangle|*
%AMROUNDEDRECTD67*
21,1,2.4000,1.1250,0,0,270.0*
21,1,1.1250,2.4000,0,0,270.0*
1,1,1.2750,-0.5625,-0.5625*
1,1,1.2750,-0.5625,0.5625*
1,1,1.2750,0.5625,0.5625*
1,1,1.2750,0.5625,-0.5625*
%
%ADD67ROUNDEDRECTD67*%
%ADD68C,0.9500*%
%ADD97R,2.2860X1.9050*%
%ADD98R,2.9500X1.6000*%
G36*
X842209Y393577D02*
X844211Y392748D01*
X846012Y391544D01*
X847544Y390012D01*
X848748Y388210D01*
X849577Y386209D01*
X850000Y384083D01*
Y383000D01*
Y307000D01*
Y305818D01*
X849539Y303500D01*
X848634Y301316D01*
X847321Y299350D01*
X845649Y297679D01*
X843684Y296366D01*
X841500Y295461D01*
X839182Y295000D01*
X760917D01*
X758791Y295423D01*
X756789Y296252D01*
X754988Y297456D01*
X753456Y298988D01*
X752252Y300790D01*
X751423Y302791D01*
X751000Y304917D01*
Y306000D01*
Y384000D01*
Y384985D01*
X751384Y386917D01*
X752138Y388737D01*
X753232Y390375D01*
X754625Y391768D01*
X756263Y392862D01*
X758083Y393616D01*
X760015Y394000D01*
X840083D01*
X842209Y393577D01*
D02*
G37*
G36*
X732209Y518577D02*
X734210Y517748D01*
X736012Y516544D01*
X737544Y515012D01*
X738748Y513210D01*
X739577Y511209D01*
X740000Y509083D01*
Y508000D01*
Y432000D01*
Y430818D01*
X739539Y428500D01*
X738634Y426316D01*
X737321Y424350D01*
X735649Y422679D01*
X733684Y421366D01*
X731500Y420461D01*
X729182Y420000D01*
X650917D01*
X648791Y420423D01*
X646789Y421252D01*
X644988Y422456D01*
X643456Y423988D01*
X642252Y425789D01*
X641423Y427791D01*
X641000Y429917D01*
Y431000D01*
Y509000D01*
Y509985D01*
X641384Y511917D01*
X642138Y513737D01*
X643232Y515375D01*
X644625Y516768D01*
X646263Y517862D01*
X648083Y518616D01*
X650015Y519000D01*
X730083D01*
X732209Y518577D01*
D02*
G37*
G36*
X1197209Y1598577D02*
X1199211Y1597748D01*
X1201012Y1596544D01*
X1202544Y1595012D01*
X1203748Y1593210D01*
X1204577Y1591209D01*
X1205000Y1589083D01*
Y1588000D01*
Y1512000D01*
Y1510818D01*
X1204539Y1508500D01*
X1203634Y1506316D01*
X1202321Y1504350D01*
X1200649Y1502679D01*
X1198684Y1501366D01*
X1196500Y1500461D01*
X1194182Y1500000D01*
X1115917D01*
X1113791Y1500423D01*
X1111789Y1501252D01*
X1109988Y1502456D01*
X1108456Y1503988D01*
X1107252Y1505789D01*
X1106423Y1507791D01*
X1106000Y1509917D01*
Y1511000D01*
Y1589000D01*
Y1589985D01*
X1106384Y1591917D01*
X1107138Y1593737D01*
X1108232Y1595375D01*
X1109625Y1596767D01*
X1111263Y1597862D01*
X1113083Y1598616D01*
X1115015Y1599000D01*
X1195083D01*
X1197209Y1598577D01*
D02*
G37*
G36*
X1392209D02*
X1394210Y1597748D01*
X1396012Y1596544D01*
X1397544Y1595012D01*
X1398748Y1593210D01*
X1399577Y1591209D01*
X1400000Y1589083D01*
Y1588000D01*
Y1512000D01*
Y1510818D01*
X1399539Y1508500D01*
X1398634Y1506316D01*
X1397321Y1504350D01*
X1395650Y1502679D01*
X1393684Y1501366D01*
X1391500Y1500461D01*
X1389182Y1500000D01*
X1310917D01*
X1308791Y1500423D01*
X1306790Y1501252D01*
X1304988Y1502456D01*
X1303456Y1503988D01*
X1302252Y1505789D01*
X1301423Y1507791D01*
X1301000Y1509917D01*
Y1511000D01*
Y1589000D01*
Y1589985D01*
X1301384Y1591917D01*
X1302138Y1593737D01*
X1303233Y1595375D01*
X1304625Y1596767D01*
X1306263Y1597862D01*
X1308083Y1598616D01*
X1310015Y1599000D01*
X1390083D01*
X1392209Y1598577D01*
D02*
G37*
G36*
X1842209D02*
X1844211Y1597748D01*
X1846012Y1596544D01*
X1847544Y1595012D01*
X1848748Y1593210D01*
X1849577Y1591209D01*
X1850000Y1589083D01*
Y1588000D01*
Y1512000D01*
Y1510818D01*
X1849539Y1508500D01*
X1848634Y1506316D01*
X1847321Y1504350D01*
X1845650Y1502679D01*
X1843684Y1501366D01*
X1841500Y1500461D01*
X1839182Y1500000D01*
X1760917D01*
X1758791Y1500423D01*
X1756790Y1501252D01*
X1754988Y1502456D01*
X1753456Y1503988D01*
X1752252Y1505789D01*
X1751423Y1507791D01*
X1751000Y1509917D01*
Y1511000D01*
Y1589000D01*
Y1589985D01*
X1751384Y1591917D01*
X1752138Y1593737D01*
X1753233Y1595375D01*
X1754625Y1596767D01*
X1756263Y1597862D01*
X1758083Y1598616D01*
X1760015Y1599000D01*
X1840083D01*
X1842209Y1598577D01*
D02*
G37*
G36*
X201917Y2448616D02*
X203737Y2447862D01*
X205375Y2446767D01*
X206768Y2445375D01*
X207862Y2443737D01*
X208616Y2441917D01*
X209000Y2439985D01*
Y2439000D01*
Y2362000D01*
Y2360917D01*
X208577Y2358791D01*
X207748Y2356790D01*
X206544Y2354988D01*
X205012Y2353456D01*
X203210Y2352252D01*
X201209Y2351423D01*
X199083Y2351000D01*
X120015D01*
X118083Y2351384D01*
X116263Y2352138D01*
X114625Y2353233D01*
X113232Y2354625D01*
X112138Y2356263D01*
X111384Y2358083D01*
X111000Y2360015D01*
Y2361000D01*
Y2439000D01*
Y2439985D01*
X111384Y2441917D01*
X112138Y2443737D01*
X113232Y2445375D01*
X114625Y2446767D01*
X116263Y2447862D01*
X118083Y2448616D01*
X120015Y2449000D01*
X199985D01*
X201917Y2448616D01*
D02*
G37*
G36*
X791917D02*
X793737Y2447862D01*
X795375Y2446767D01*
X796768Y2445375D01*
X797862Y2443737D01*
X798616Y2441917D01*
X799000Y2439985D01*
Y2439000D01*
Y2362000D01*
Y2360917D01*
X798577Y2358791D01*
X797748Y2356790D01*
X796544Y2354988D01*
X795012Y2353456D01*
X793210Y2352252D01*
X791209Y2351423D01*
X789083Y2351000D01*
X710015D01*
X708083Y2351384D01*
X706263Y2352138D01*
X704625Y2353233D01*
X703232Y2354625D01*
X702138Y2356263D01*
X701384Y2358083D01*
X701000Y2360015D01*
Y2361000D01*
Y2439000D01*
Y2439985D01*
X701384Y2441917D01*
X702138Y2443737D01*
X703232Y2445375D01*
X704625Y2446767D01*
X706263Y2447862D01*
X708083Y2448616D01*
X710015Y2449000D01*
X789985D01*
X791917Y2448616D01*
D02*
G37*
G36*
X1072209Y1703577D02*
X1074210Y1702748D01*
X1076012Y1701544D01*
X1077544Y1700012D01*
X1078748Y1698210D01*
X1079577Y1696209D01*
X1080000Y1694083D01*
Y1693000D01*
Y1617000D01*
Y1615818D01*
X1079539Y1613500D01*
X1078634Y1611316D01*
X1077321Y1609350D01*
X1075649Y1607679D01*
X1073684Y1606366D01*
X1071500Y1605461D01*
X1069182Y1605000D01*
X990917D01*
X988791Y1605423D01*
X986789Y1606252D01*
X984988Y1607456D01*
X983456Y1608988D01*
X982252Y1610789D01*
X981423Y1612791D01*
X981000Y1614917D01*
Y1616000D01*
Y1694000D01*
Y1694985D01*
X981384Y1696917D01*
X982138Y1698737D01*
X983232Y1700375D01*
X984625Y1701767D01*
X986263Y1702862D01*
X988083Y1703616D01*
X990015Y1704000D01*
X1070083D01*
X1072209Y1703577D01*
D02*
G37*
G36*
X1391917Y1848616D02*
X1393737Y1847862D01*
X1395375Y1846767D01*
X1396767Y1845375D01*
X1397862Y1843737D01*
X1398616Y1841917D01*
X1399000Y1839985D01*
Y1839000D01*
Y1762000D01*
Y1760917D01*
X1398577Y1758791D01*
X1397748Y1756790D01*
X1396544Y1754988D01*
X1395012Y1753456D01*
X1393210Y1752252D01*
X1391208Y1751423D01*
X1389083Y1751000D01*
X1310015D01*
X1308083Y1751384D01*
X1306263Y1752138D01*
X1304625Y1753233D01*
X1303233Y1754625D01*
X1302138Y1756263D01*
X1301384Y1758083D01*
X1301000Y1760015D01*
Y1761000D01*
Y1839000D01*
Y1839985D01*
X1301384Y1841917D01*
X1302138Y1843737D01*
X1303233Y1845375D01*
X1304625Y1846767D01*
X1306263Y1847862D01*
X1308083Y1848616D01*
X1310015Y1849000D01*
X1389985D01*
X1391917Y1848616D01*
D02*
G37*
G36*
X1841917D02*
X1843737Y1847862D01*
X1845375Y1846767D01*
X1846767Y1845375D01*
X1847862Y1843737D01*
X1848616Y1841917D01*
X1849000Y1839985D01*
Y1839000D01*
Y1762000D01*
Y1760917D01*
X1848577Y1758791D01*
X1847748Y1756790D01*
X1846544Y1754988D01*
X1845012Y1753456D01*
X1843210Y1752252D01*
X1841209Y1751423D01*
X1839083Y1751000D01*
X1760015D01*
X1758083Y1751384D01*
X1756263Y1752138D01*
X1754625Y1753233D01*
X1753233Y1754625D01*
X1752138Y1756263D01*
X1751384Y1758083D01*
X1751000Y1760015D01*
Y1761000D01*
Y1839000D01*
Y1839985D01*
X1751384Y1841917D01*
X1752138Y1843737D01*
X1753233Y1845375D01*
X1754625Y1846767D01*
X1756263Y1847862D01*
X1758083Y1848616D01*
X1760015Y1849000D01*
X1839985D01*
X1841917Y1848616D01*
D02*
G37*
D33*
X1328000Y2223000D02*
D03*
Y2171000D02*
D03*
Y2191000D02*
D03*
X1820000Y2243000D02*
D03*
X1745000Y1106000D02*
D03*
X1574000Y2243000D02*
D03*
X1328000D02*
D03*
X1499000Y1106000D02*
D03*
X1253000D02*
D03*
X1821000Y756000D02*
D03*
X1575000D02*
D03*
X1329000D02*
D03*
X1082000Y2243000D02*
D03*
X753000Y1404993D02*
D03*
X212999Y1617007D02*
D03*
X1007000Y1106000D02*
D03*
X1083000Y756000D02*
D03*
X408000Y542993D02*
D03*
X753000Y1384993D02*
D03*
X212999Y1637007D02*
D03*
X408000Y522993D02*
D03*
X1574000Y2223000D02*
D03*
Y2171000D02*
D03*
Y2191000D02*
D03*
X1745000Y1126000D02*
D03*
Y1158000D02*
D03*
Y1178000D02*
D03*
X1329000Y736000D02*
D03*
Y704000D02*
D03*
Y684000D02*
D03*
X1082000Y2171000D02*
D03*
Y2191000D02*
D03*
Y2223000D02*
D03*
X1820000Y2171000D02*
D03*
Y2191000D02*
D03*
Y2223000D02*
D03*
X1007000Y1178000D02*
D03*
Y1158000D02*
D03*
Y1126000D02*
D03*
X1253000Y1178000D02*
D03*
Y1158000D02*
D03*
Y1126000D02*
D03*
X1499000Y1178000D02*
D03*
Y1158000D02*
D03*
Y1126000D02*
D03*
X1821000Y684000D02*
D03*
Y704000D02*
D03*
Y736000D02*
D03*
X1575000Y684000D02*
D03*
Y704000D02*
D03*
Y736000D02*
D03*
X1083000D02*
D03*
Y684000D02*
D03*
Y704000D02*
D03*
D35*
X821001Y1306993D02*
D03*
X406001Y444993D02*
D03*
X426001D02*
D03*
X145000Y1715007D02*
D03*
X1207000Y2165000D02*
D03*
Y2144000D02*
D03*
X1187000Y2165000D02*
D03*
Y2144000D02*
D03*
X1758000Y2273000D02*
D03*
Y2252000D02*
D03*
X1512000D02*
D03*
Y2273000D02*
D03*
X1807000Y1097000D02*
D03*
X1561000D02*
D03*
X1266000Y2252000D02*
D03*
Y2273000D02*
D03*
X1315000Y1097000D02*
D03*
X1807000Y1076000D02*
D03*
X1561000D02*
D03*
X1759000Y786000D02*
D03*
Y765000D02*
D03*
X1315000Y1076000D02*
D03*
X1267000Y786000D02*
D03*
X1513000D02*
D03*
Y765000D02*
D03*
X1267000D02*
D03*
X1020000Y2252000D02*
D03*
Y2273000D02*
D03*
X771001Y1306993D02*
D03*
X195000Y1715007D02*
D03*
X1069000Y1097000D02*
D03*
Y1076000D02*
D03*
X1021000Y786000D02*
D03*
Y765000D02*
D03*
X1827000Y1097000D02*
D03*
X1738000Y2273000D02*
D03*
Y2252000D02*
D03*
X1581000Y1097000D02*
D03*
X1827000Y1076000D02*
D03*
X1492000Y2273000D02*
D03*
Y2252000D02*
D03*
X1246000Y2273000D02*
D03*
Y2252000D02*
D03*
X1335000Y1097000D02*
D03*
Y1076000D02*
D03*
X1581000D02*
D03*
X1739000Y786000D02*
D03*
Y765000D02*
D03*
X1493000Y786000D02*
D03*
X1247000D02*
D03*
X1493000Y765000D02*
D03*
X1247000D02*
D03*
X1000000Y2252000D02*
D03*
Y2273000D02*
D03*
X1089000Y1097000D02*
D03*
Y1076000D02*
D03*
X1001000Y786000D02*
D03*
Y765000D02*
D03*
X1453000Y2165000D02*
D03*
Y2144000D02*
D03*
X1433000Y2165000D02*
D03*
Y2144000D02*
D03*
X1886000Y1184000D02*
D03*
X1866000D02*
D03*
X1886000Y1205000D02*
D03*
X1866000D02*
D03*
X1188000Y678000D02*
D03*
X1208000D02*
D03*
X1188000Y657000D02*
D03*
X1208000D02*
D03*
X476001Y444993D02*
D03*
X801001Y1306993D02*
D03*
X751001D02*
D03*
X215000Y1715007D02*
D03*
X165000D02*
D03*
X456001Y444993D02*
D03*
X961000Y2144000D02*
D03*
X941000D02*
D03*
X961000Y2165000D02*
D03*
X941000D02*
D03*
X1699000Y2144000D02*
D03*
X1679000D02*
D03*
X1699000Y2165000D02*
D03*
X1679000D02*
D03*
X1128000Y1205000D02*
D03*
X1148000D02*
D03*
X1128000Y1184000D02*
D03*
X1148000D02*
D03*
X1374000Y1205000D02*
D03*
X1394000D02*
D03*
X1374000Y1184000D02*
D03*
X1394000D02*
D03*
X1620000Y1205000D02*
D03*
X1640000D02*
D03*
X1620000Y1184000D02*
D03*
X1640000D02*
D03*
X1700000Y657000D02*
D03*
X1680000D02*
D03*
X1700000Y678000D02*
D03*
X1680000D02*
D03*
X1454000Y657000D02*
D03*
X1434000D02*
D03*
X1454000Y678000D02*
D03*
X1434000D02*
D03*
X962000D02*
D03*
X942000D02*
D03*
X962000Y657000D02*
D03*
X942000D02*
D03*
D44*
X1185000Y240000D02*
D03*
X1555000D02*
D03*
X220000Y1950000D02*
D03*
X600000D02*
D03*
X695000Y80000D02*
D03*
X545000D02*
D03*
X205000Y350000D02*
D03*
X55000D02*
D03*
X695000Y330000D02*
D03*
X470000Y2400000D02*
D03*
X620000D02*
D03*
D45*
X1185000Y140000D02*
D03*
X1555000D02*
D03*
X545000Y330000D02*
D03*
D46*
X1046750Y1299000D02*
D03*
X1781250Y563000D02*
D03*
X1535250D02*
D03*
X1292750Y1299000D02*
D03*
X1042250Y2050000D02*
D03*
X1288250D02*
D03*
X1780250D02*
D03*
X1534250D02*
D03*
X1784750Y1299000D02*
D03*
X1289250Y563000D02*
D03*
X1538750Y1299000D02*
D03*
X1043250Y563000D02*
D03*
D47*
X2000000Y437500D02*
D03*
X1825000Y367500D02*
D03*
X430400Y1513000D02*
D03*
Y1487600D02*
D03*
X405000Y1513000D02*
D03*
X455800Y1487600D02*
D03*
Y1513000D02*
D03*
X481200Y1487600D02*
D03*
Y1513000D02*
D03*
X506600Y1487600D02*
D03*
Y1513000D02*
D03*
X512500Y2250000D02*
D03*
X132500D02*
D03*
X37300Y1324600D02*
D03*
Y1350000D02*
D03*
Y1375400D02*
D03*
X174600Y1512700D02*
D03*
X617700Y1374600D02*
D03*
X592300D02*
D03*
X174600Y1487300D02*
D03*
X62700Y1299200D02*
D03*
X37300D02*
D03*
X862700Y835400D02*
D03*
Y1100800D02*
D03*
Y1050000D02*
D03*
Y784600D02*
D03*
X837300Y1075400D02*
D03*
Y1024600D02*
D03*
Y1100800D02*
D03*
Y810000D02*
D03*
Y860800D02*
D03*
Y759200D02*
D03*
X194600Y562700D02*
D03*
Y537300D02*
D03*
X62700Y1400800D02*
D03*
Y1375400D02*
D03*
X2000000Y162500D02*
D03*
X1825000Y92500D02*
D03*
X862700Y1024600D02*
D03*
Y860800D02*
D03*
X790000Y32500D02*
D03*
X862700Y810000D02*
D03*
X407500Y2250000D02*
D03*
X450000Y32500D02*
D03*
Y257500D02*
D03*
X790000D02*
D03*
X62700Y1324600D02*
D03*
Y1350000D02*
D03*
X837300Y835400D02*
D03*
Y784600D02*
D03*
X245400Y537300D02*
D03*
X220000Y562700D02*
D03*
Y537300D02*
D03*
X862700Y1075400D02*
D03*
X837300Y1050000D02*
D03*
Y999200D02*
D03*
X617700Y1425400D02*
D03*
X592300Y1400000D02*
D03*
X617700D02*
D03*
X225400Y1487300D02*
D03*
X200000Y1512700D02*
D03*
Y1487300D02*
D03*
X787500Y2250000D02*
D03*
D48*
X823501Y1332493D02*
D03*
X142500Y1689507D02*
D03*
X478501Y470493D02*
D03*
D49*
X1010000Y318000D02*
D03*
Y42000D02*
D03*
D50*
X890000Y80000D02*
D03*
Y300000D02*
D03*
D51*
X1261350Y563000D02*
D03*
X1235950D02*
D03*
X1234950Y2050000D02*
D03*
X1260350D02*
D03*
X1480950D02*
D03*
X1506350D02*
D03*
X1812650Y1299000D02*
D03*
X1838050D02*
D03*
X1481950Y563000D02*
D03*
X1507350D02*
D03*
X988950Y2050000D02*
D03*
X1014350D02*
D03*
X1726950D02*
D03*
X1752350D02*
D03*
X1100050Y1299000D02*
D03*
X1074650D02*
D03*
X1346050D02*
D03*
X1320650D02*
D03*
X1592050D02*
D03*
X1566650D02*
D03*
X1727950Y563000D02*
D03*
X1753350D02*
D03*
X989950D02*
D03*
X1015350D02*
D03*
D52*
X949000Y338000D02*
D03*
Y288000D02*
D03*
D53*
X405000Y1487600D02*
D03*
X245400Y562700D02*
D03*
X225400Y1512700D02*
D03*
D54*
X198100Y2361900D02*
D03*
Y2438100D02*
D03*
X172700D02*
D03*
X147300D02*
D03*
X172700Y2361900D02*
D03*
X147300D02*
D03*
X121900D02*
D03*
Y2438100D02*
D03*
X1812700Y1838100D02*
D03*
X1838100D02*
D03*
X1787300D02*
D03*
X1838100Y1761900D02*
D03*
X1812700D02*
D03*
X1761900Y1838100D02*
D03*
X1787300Y1761900D02*
D03*
X1761900D02*
D03*
X1388100Y1838100D02*
D03*
X1362700D02*
D03*
X1388100Y1761900D02*
D03*
X1362700D02*
D03*
X1311900Y1838100D02*
D03*
X1337300D02*
D03*
Y1761900D02*
D03*
X1311900D02*
D03*
X1838100Y1588100D02*
D03*
X1812700D02*
D03*
X1787300D02*
D03*
X1838100Y1511900D02*
D03*
X1812700D02*
D03*
X1761900D02*
D03*
Y1588100D02*
D03*
X1787300Y1511900D02*
D03*
X788100Y2361900D02*
D03*
X762700D02*
D03*
X737300D02*
D03*
X711900D02*
D03*
X788100Y2438100D02*
D03*
X762700D02*
D03*
X737300D02*
D03*
X711900D02*
D03*
X1068100Y1616900D02*
D03*
X1042700D02*
D03*
X1017300D02*
D03*
X991900D02*
D03*
X1068100Y1693100D02*
D03*
X1042700D02*
D03*
X1017300D02*
D03*
X991900D02*
D03*
X1388100Y1511900D02*
D03*
X1362700D02*
D03*
X1337300D02*
D03*
X1311900D02*
D03*
X1388100Y1588100D02*
D03*
X1362700D02*
D03*
X1337300D02*
D03*
X1311900D02*
D03*
X1193100Y1511900D02*
D03*
X1167700D02*
D03*
X1142300D02*
D03*
X1116900D02*
D03*
X1193100Y1588100D02*
D03*
X1167700D02*
D03*
X1142300D02*
D03*
X1116900D02*
D03*
X838100Y306900D02*
D03*
X812700D02*
D03*
X787300D02*
D03*
X761900D02*
D03*
X838100Y383100D02*
D03*
X812700D02*
D03*
X787300D02*
D03*
X761900D02*
D03*
X728100Y431900D02*
D03*
X702700D02*
D03*
X677300D02*
D03*
X651900D02*
D03*
X728100Y508100D02*
D03*
X702700D02*
D03*
X677300D02*
D03*
X651900D02*
D03*
D55*
X1339050Y2050000D02*
D03*
X1093050D02*
D03*
X1831050D02*
D03*
X1585050D02*
D03*
X1733950Y1299000D02*
D03*
X1241950D02*
D03*
X1487950D02*
D03*
X1094050Y563000D02*
D03*
X1340050D02*
D03*
X1832050D02*
D03*
X1586050D02*
D03*
X995950Y1299000D02*
D03*
D56*
X1297000Y2219700D02*
D03*
Y2194300D02*
D03*
X1543000Y2219700D02*
D03*
Y2194300D02*
D03*
X1776000Y1129300D02*
D03*
Y1154700D02*
D03*
X1298000Y732700D02*
D03*
Y707300D02*
D03*
X1052000D02*
D03*
Y732700D02*
D03*
X1051000Y2194300D02*
D03*
Y2219700D02*
D03*
X1789000Y2194300D02*
D03*
Y2219700D02*
D03*
X1038000Y1154700D02*
D03*
Y1129300D02*
D03*
X1284000Y1154700D02*
D03*
Y1129300D02*
D03*
X1530000Y1154700D02*
D03*
Y1129300D02*
D03*
X1790000Y707300D02*
D03*
Y732700D02*
D03*
X1544000Y707300D02*
D03*
Y732700D02*
D03*
D57*
X37300Y1400800D02*
D03*
X862700Y999200D02*
D03*
Y759200D02*
D03*
X592300Y1425400D02*
D03*
D58*
X1297000Y2168900D02*
D03*
X1543000Y2245100D02*
D03*
X1789000D02*
D03*
X1776000Y1103900D02*
D03*
X1530000D02*
D03*
X1297000Y2245100D02*
D03*
X1284000Y1103900D02*
D03*
X1790000Y758100D02*
D03*
X1544000D02*
D03*
X1298000D02*
D03*
X1051000Y2245100D02*
D03*
X1038000Y1103900D02*
D03*
X1052000Y758100D02*
D03*
X1543000Y2168900D02*
D03*
X1776000Y1180100D02*
D03*
X1298000Y681900D02*
D03*
X1052000D02*
D03*
X1051000Y2168900D02*
D03*
X1789000D02*
D03*
X1038000Y1180100D02*
D03*
X1284000D02*
D03*
X1530000D02*
D03*
X1790000Y681900D02*
D03*
X1544000D02*
D03*
D59*
X772701Y1332493D02*
D03*
X193300Y1689507D02*
D03*
X427701Y470493D02*
D03*
X798101Y1332493D02*
D03*
X747300D02*
D03*
X218699Y1689507D02*
D03*
X167899D02*
D03*
X402300Y470493D02*
D03*
X453101D02*
D03*
D60*
X850000Y1700000D02*
D03*
X50000Y2450000D02*
D03*
X2050000D02*
D03*
Y1650000D02*
D03*
Y50000D02*
D03*
X50000D02*
D03*
D61*
X700000Y1950000D02*
D03*
X320000D02*
D03*
D62*
X57000Y713000D02*
D03*
X55000Y1176000D02*
D03*
D63*
X362500Y326700D02*
D03*
Y174100D02*
D03*
Y123700D02*
D03*
Y73300D02*
D03*
X287500D02*
D03*
Y123700D02*
D03*
Y174100D02*
D03*
D64*
Y326700D02*
D03*
D65*
X173500Y162500D02*
D03*
X186500Y237500D02*
D03*
D66*
X86500Y136499D02*
D03*
Y199999D02*
D03*
D67*
Y263499D02*
D03*
D68*
X884000Y1409000D02*
D03*
X1028430Y42190D02*
D03*
X1025890Y33300D02*
D03*
X1019540Y26950D02*
D03*
X1010650Y24410D02*
D03*
X1001760Y26950D02*
D03*
X995410Y33300D02*
D03*
X992870Y42190D02*
D03*
X1010650Y59970D02*
D03*
X995410Y51080D02*
D03*
X1001760Y57430D02*
D03*
X1025890Y51080D02*
D03*
X1019540Y57430D02*
D03*
X1018270Y333020D02*
D03*
X1024620Y326670D02*
D03*
X1000490Y333020D02*
D03*
X994140Y326670D02*
D03*
X1009380Y335560D02*
D03*
X991600Y317780D02*
D03*
X994140Y308890D02*
D03*
X1000490Y302540D02*
D03*
X1009380Y300000D02*
D03*
X1018270Y302540D02*
D03*
X1024620Y308890D02*
D03*
X1027160Y317780D02*
D03*
X539000Y547000D02*
D03*
X558000Y478000D02*
D03*
X408000Y522993D02*
D03*
X1317000Y2359000D02*
D03*
X1328000Y2223000D02*
D03*
X1238000Y2318000D02*
D03*
X1207000Y2165000D02*
D03*
Y2144000D02*
D03*
X1246000Y2273000D02*
D03*
Y2252000D02*
D03*
X82000Y1613000D02*
D03*
X63000Y1682000D02*
D03*
X1730000Y2318000D02*
D03*
X1484000D02*
D03*
X992000D02*
D03*
X1563000Y2359000D02*
D03*
X1809000D02*
D03*
X1756000Y990000D02*
D03*
X1510000D02*
D03*
X1810000Y872000D02*
D03*
X1564000D02*
D03*
X1071000Y2359000D02*
D03*
X1264000Y990000D02*
D03*
X1318000Y872000D02*
D03*
X1018000Y990000D02*
D03*
X1072000Y872000D02*
D03*
X1492000Y2252000D02*
D03*
Y2273000D02*
D03*
X1738000D02*
D03*
Y2252000D02*
D03*
X1827000Y1097000D02*
D03*
Y1076000D02*
D03*
X1581000Y1097000D02*
D03*
Y1076000D02*
D03*
X1335000Y1097000D02*
D03*
Y1076000D02*
D03*
X1739000Y786000D02*
D03*
Y765000D02*
D03*
X1493000Y786000D02*
D03*
Y765000D02*
D03*
X1247000Y786000D02*
D03*
Y765000D02*
D03*
X1000000Y2273000D02*
D03*
Y2252000D02*
D03*
X753000Y1384993D02*
D03*
X212999Y1637007D02*
D03*
X1089000Y1097000D02*
D03*
Y1076000D02*
D03*
X1001000Y786000D02*
D03*
Y765000D02*
D03*
X1453000Y2144000D02*
D03*
Y2165000D02*
D03*
X1574000Y2223000D02*
D03*
X903000Y1340000D02*
D03*
X1128000Y1205000D02*
D03*
Y1184000D02*
D03*
X1374000Y1205000D02*
D03*
Y1184000D02*
D03*
X1620000Y1205000D02*
D03*
Y1184000D02*
D03*
X1820000Y2223000D02*
D03*
X1699000Y2165000D02*
D03*
Y2144000D02*
D03*
X1082000Y2223000D02*
D03*
X961000Y2165000D02*
D03*
Y2144000D02*
D03*
X1821000Y736000D02*
D03*
X1700000Y678000D02*
D03*
Y657000D02*
D03*
X1575000Y736000D02*
D03*
X1454000Y678000D02*
D03*
Y657000D02*
D03*
X1329000Y736000D02*
D03*
X1208000Y678000D02*
D03*
Y657000D02*
D03*
X846100Y598000D02*
D03*
X840000Y1519000D02*
D03*
X711000Y1557000D02*
D03*
X1866000Y1184000D02*
D03*
Y1205000D02*
D03*
X1083000Y736000D02*
D03*
X962000Y657000D02*
D03*
Y678000D02*
D03*
D97*
X349523Y285000D02*
D03*
X300477D02*
D03*
D98*
X790000Y58750D02*
D03*
Y175750D02*
D03*
Y230250D02*
D03*
Y113250D02*
D03*
M02*
