%TF.GenerationSoftware,Altium Limited,Altium Designer,25.8.1 (18)*%
G04 Layer_Color=8388736*
%FSLAX45Y45*%
%MOMM*%
%TF.SameCoordinates,FDD92109-F931-40D5-AFAB-DC256326DFAA*%
%TF.FilePolarity,Negative*%
%TF.FileFunction,Soldermask,Top*%
%TF.Part,Single*%
G01*
G75*
%TA.AperFunction,SMDPad,CuDef*%
%ADD16R,1.90500X2.28600*%
%TA.AperFunction,ComponentPad*%
%ADD33C,2.26000*%
%ADD38C,1.83000*%
%ADD42R,2.26000X2.26000*%
%ADD49C,1.95000*%
%TA.AperFunction,SMDPad,CuDef*%
%ADD69R,1.67000X1.25000*%
%ADD70O,2.10000X0.79000*%
%ADD71R,1.25000X1.67000*%
%ADD72R,1.30000X0.95000*%
%ADD73R,2.05000X2.00000*%
%ADD74R,1.45000X1.25000*%
%ADD75R,0.70160X1.90160*%
%ADD76R,2.15000X1.50000*%
%ADD77R,0.95000X3.51000*%
%ADD78R,3.51000X0.95000*%
%ADD79R,1.75000X2.95000*%
%TA.AperFunction,ConnectorPad*%
%ADD80R,1.25000X1.67000*%
%TA.AperFunction,ComponentPad*%
%ADD81C,3.15000*%
G04:AMPARAMS|DCode=82|XSize=3.15mm|YSize=3.15mm|CornerRadius=0.825mm|HoleSize=0mm|Usage=FLASHONLY|Rotation=270.000|XOffset=0mm|YOffset=0mm|HoleType=Round|Shape=RoundedRectangle|*
%AMROUNDEDRECTD82*
21,1,3.15000,1.50000,0,0,270.0*
21,1,1.50000,3.15000,0,0,270.0*
1,1,1.65000,-0.75000,-0.75000*
1,1,1.65000,-0.75000,0.75000*
1,1,1.65000,0.75000,0.75000*
1,1,1.65000,0.75000,-0.75000*
%
%ADD82ROUNDEDRECTD82*%
%ADD83C,1.80000*%
%ADD84R,1.48800X1.48800*%
%ADD85C,4.75000*%
%ADD86C,4.35000*%
%ADD87C,2.15000*%
G04:AMPARAMS|DCode=88|XSize=1.8mm|YSize=1.8mm|CornerRadius=0.4875mm|HoleSize=0mm|Usage=FLASHONLY|Rotation=0.000|XOffset=0mm|YOffset=0mm|HoleType=Round|Shape=RoundedRectangle|*
%AMROUNDEDRECTD88*
21,1,1.80000,0.82500,0,0,0.0*
21,1,0.82500,1.80000,0,0,0.0*
1,1,0.97500,0.41250,-0.41250*
1,1,0.97500,-0.41250,-0.41250*
1,1,0.97500,-0.41250,0.41250*
1,1,0.97500,0.41250,0.41250*
%
%ADD88ROUNDEDRECTD88*%
%ADD89O,2.45000X1.55000*%
G04:AMPARAMS|DCode=90|XSize=1.8mm|YSize=1.8mm|CornerRadius=0.4875mm|HoleSize=0mm|Usage=FLASHONLY|Rotation=270.000|XOffset=0mm|YOffset=0mm|HoleType=Round|Shape=RoundedRectangle|*
%AMROUNDEDRECTD90*
21,1,1.80000,0.82500,0,0,270.0*
21,1,0.82500,1.80000,0,0,270.0*
1,1,0.97500,-0.41250,-0.41250*
1,1,0.97500,-0.41250,0.41250*
1,1,0.97500,0.41250,0.41250*
1,1,0.97500,0.41250,-0.41250*
%
%ADD90ROUNDEDRECTD90*%
%ADD91O,2.45000X1.75000*%
%ADD92C,1.48800*%
%ADD93C,7.55000*%
G04:AMPARAMS|DCode=94|XSize=3.15mm|YSize=3.15mm|CornerRadius=0.825mm|HoleSize=0mm|Usage=FLASHONLY|Rotation=0.000|XOffset=0mm|YOffset=0mm|HoleType=Round|Shape=RoundedRectangle|*
%AMROUNDEDRECTD94*
21,1,3.15000,1.50000,0,0,0.0*
21,1,1.50000,3.15000,0,0,0.0*
1,1,1.65000,0.75000,-0.75000*
1,1,1.65000,-0.75000,-0.75000*
1,1,1.65000,-0.75000,0.75000*
1,1,1.65000,0.75000,0.75000*
%
%ADD94ROUNDEDRECTD94*%
%ADD95C,0.15000*%
%ADD96C,2.15400*%
%ADD97R,2.15400X2.15400*%
%ADD98C,1.55000*%
%ADD99C,2.40000*%
G04:AMPARAMS|DCode=100|XSize=2.4mm|YSize=2.4mm|CornerRadius=0.6375mm|HoleSize=0mm|Usage=FLASHONLY|Rotation=270.000|XOffset=0mm|YOffset=0mm|HoleType=Round|Shape=RoundedRectangle|*
%AMROUNDEDRECTD100*
21,1,2.40000,1.12500,0,0,270.0*
21,1,1.12500,2.40000,0,0,270.0*
1,1,1.27500,-0.56250,-0.56250*
1,1,1.27500,-0.56250,0.56250*
1,1,1.27500,0.56250,0.56250*
1,1,1.27500,0.56250,-0.56250*
%
%ADD100ROUNDEDRECTD100*%
%TA.AperFunction,ViaPad*%
%ADD101C,0.95000*%
G36*
X8422086Y3935773D02*
X8442105Y3927481D01*
X8460121Y3915443D01*
X8475443Y3900121D01*
X8487481Y3882105D01*
X8495773Y3862086D01*
X8500000Y3840834D01*
Y3830000D01*
Y3070000D01*
Y3058181D01*
X8495388Y3034997D01*
X8486342Y3013159D01*
X8473210Y2993504D01*
X8456495Y2976790D01*
X8436841Y2963657D01*
X8415002Y2954611D01*
X8391819Y2950000D01*
X7609166D01*
X7587914Y2954227D01*
X7567895Y2962519D01*
X7549879Y2974557D01*
X7534557Y2989879D01*
X7522519Y3007895D01*
X7514227Y3027914D01*
X7510000Y3049166D01*
Y3060000D01*
Y3840000D01*
Y3849849D01*
X7513843Y3869169D01*
X7521381Y3887368D01*
X7532325Y3903746D01*
X7546254Y3917675D01*
X7562632Y3928619D01*
X7580831Y3936157D01*
X7600151Y3940000D01*
X8400834D01*
X8422086Y3935773D01*
D02*
G37*
G36*
X7312086Y5185773D02*
X7332104Y5177481D01*
X7350121Y5165443D01*
X7365442Y5150121D01*
X7377481Y5132105D01*
X7385773Y5112086D01*
X7390000Y5090834D01*
Y5080000D01*
Y4320000D01*
Y4308181D01*
X7385388Y4284997D01*
X7376342Y4263159D01*
X7363210Y4243504D01*
X7346495Y4226790D01*
X7326841Y4213657D01*
X7305002Y4204611D01*
X7281819Y4200000D01*
X6508181D01*
X6484997Y4204611D01*
X6463159Y4213657D01*
X6443504Y4226790D01*
X6426790Y4243504D01*
X6413657Y4263159D01*
X6404611Y4284997D01*
X6400000Y4308181D01*
Y4320000D01*
Y5080000D01*
Y5090834D01*
X6404227Y5112086D01*
X6412519Y5132105D01*
X6424557Y5150121D01*
X6439879Y5165443D01*
X6457895Y5177481D01*
X6477914Y5185773D01*
X6499166Y5190000D01*
X7290834D01*
X7312086Y5185773D01*
D02*
G37*
G36*
X11972086Y15985773D02*
X11992105Y15977481D01*
X12010121Y15965443D01*
X12025443Y15950121D01*
X12037481Y15932104D01*
X12045773Y15912086D01*
X12050000Y15890834D01*
Y15880000D01*
Y15120000D01*
Y15108182D01*
X12045388Y15084998D01*
X12036342Y15063159D01*
X12023210Y15043504D01*
X12006495Y15026790D01*
X11986841Y15013657D01*
X11965002Y15004611D01*
X11941819Y15000000D01*
X11159166D01*
X11137914Y15004227D01*
X11117895Y15012518D01*
X11099879Y15024557D01*
X11084557Y15039879D01*
X11072519Y15057895D01*
X11064227Y15077914D01*
X11060000Y15099165D01*
Y15110001D01*
Y15889999D01*
Y15899849D01*
X11063843Y15919170D01*
X11071381Y15937367D01*
X11082325Y15953746D01*
X11096254Y15967674D01*
X11112632Y15978619D01*
X11130831Y15986157D01*
X11150151Y15989999D01*
X11950834D01*
X11972086Y15985773D01*
D02*
G37*
G36*
X13922086D02*
X13942104Y15977481D01*
X13960121Y15965443D01*
X13975443Y15950121D01*
X13987482Y15932104D01*
X13995773Y15912086D01*
X14000000Y15890834D01*
Y15880000D01*
Y15120000D01*
Y15108182D01*
X13995387Y15084998D01*
X13986342Y15063159D01*
X13973210Y15043504D01*
X13956496Y15026790D01*
X13936841Y15013657D01*
X13915002Y15004611D01*
X13891818Y15000000D01*
X13109166D01*
X13087914Y15004227D01*
X13067896Y15012518D01*
X13049879Y15024557D01*
X13034557Y15039879D01*
X13022519Y15057895D01*
X13014227Y15077914D01*
X13010001Y15099165D01*
Y15110001D01*
Y15889999D01*
Y15899849D01*
X13013843Y15919170D01*
X13021381Y15937367D01*
X13032326Y15953746D01*
X13046254Y15967674D01*
X13062633Y15978619D01*
X13080830Y15986157D01*
X13100151Y15989999D01*
X13900835D01*
X13922086Y15985773D01*
D02*
G37*
G36*
X18422086D02*
X18442105Y15977481D01*
X18460121Y15965443D01*
X18475443Y15950121D01*
X18487482Y15932104D01*
X18495773Y15912086D01*
X18500000Y15890834D01*
Y15880000D01*
Y15120000D01*
Y15108182D01*
X18495387Y15084998D01*
X18486343Y15063159D01*
X18473210Y15043504D01*
X18456496Y15026790D01*
X18436841Y15013657D01*
X18415002Y15004611D01*
X18391818Y15000000D01*
X17609166D01*
X17587914Y15004227D01*
X17567896Y15012518D01*
X17549879Y15024557D01*
X17534557Y15039879D01*
X17522519Y15057895D01*
X17514227Y15077914D01*
X17510001Y15099165D01*
Y15110001D01*
Y15889999D01*
Y15899849D01*
X17513843Y15919170D01*
X17521381Y15937367D01*
X17532326Y15953746D01*
X17546254Y15967674D01*
X17562633Y15978619D01*
X17580830Y15986157D01*
X17600151Y15989999D01*
X18400835D01*
X18422086Y15985773D01*
D02*
G37*
G36*
X2019169Y24486157D02*
X2037368Y24478619D01*
X2053746Y24467674D01*
X2067675Y24453746D01*
X2078619Y24437367D01*
X2086157Y24419170D01*
X2090000Y24399849D01*
Y24389999D01*
Y23620000D01*
Y23609166D01*
X2085773Y23587914D01*
X2077480Y23567896D01*
X2065442Y23549879D01*
X2050121Y23534557D01*
X2032104Y23522519D01*
X2012086Y23514227D01*
X1990834Y23510001D01*
X1200151D01*
X1180831Y23513843D01*
X1162632Y23521381D01*
X1146254Y23532326D01*
X1132325Y23546254D01*
X1121381Y23562633D01*
X1113843Y23580830D01*
X1110000Y23600151D01*
Y23610001D01*
Y24389999D01*
Y24399849D01*
X1113843Y24419170D01*
X1121381Y24437367D01*
X1132325Y24453746D01*
X1146254Y24467674D01*
X1162632Y24478619D01*
X1180831Y24486157D01*
X1200151Y24489999D01*
X1999849D01*
X2019169Y24486157D01*
D02*
G37*
G36*
X7919169D02*
X7937367Y24478619D01*
X7953746Y24467674D01*
X7967675Y24453746D01*
X7978619Y24437367D01*
X7986157Y24419170D01*
X7990000Y24399849D01*
Y24389999D01*
Y23620000D01*
Y23609166D01*
X7985772Y23587914D01*
X7977480Y23567896D01*
X7965442Y23549879D01*
X7950120Y23534557D01*
X7932104Y23522519D01*
X7912086Y23514227D01*
X7890834Y23510001D01*
X7100151D01*
X7080831Y23513843D01*
X7062632Y23521381D01*
X7046254Y23532326D01*
X7032325Y23546254D01*
X7021381Y23562633D01*
X7013843Y23580830D01*
X7010000Y23600151D01*
Y23610001D01*
Y24389999D01*
Y24399849D01*
X7013843Y24419170D01*
X7021381Y24437367D01*
X7032325Y24453746D01*
X7046254Y24467674D01*
X7062632Y24478619D01*
X7080831Y24486157D01*
X7100151Y24489999D01*
X7899849D01*
X7919169Y24486157D01*
D02*
G37*
G36*
X10722086Y17035773D02*
X10742104Y17027481D01*
X10760121Y17015442D01*
X10775443Y17000121D01*
X10787481Y16982104D01*
X10795773Y16962086D01*
X10800000Y16940834D01*
Y16930000D01*
Y16170000D01*
Y16158182D01*
X10795388Y16134998D01*
X10786342Y16113159D01*
X10773210Y16093504D01*
X10756495Y16076790D01*
X10736841Y16063657D01*
X10715002Y16054611D01*
X10691819Y16050000D01*
X9909166D01*
X9887914Y16054227D01*
X9867895Y16062518D01*
X9849879Y16074557D01*
X9834557Y16089879D01*
X9822519Y16107895D01*
X9814227Y16127914D01*
X9810000Y16149165D01*
Y16160001D01*
Y16939999D01*
Y16949849D01*
X9813843Y16969170D01*
X9821381Y16987367D01*
X9832325Y17003746D01*
X9846254Y17017674D01*
X9862632Y17028619D01*
X9880831Y17036157D01*
X9900151Y17039999D01*
X10700834D01*
X10722086Y17035773D01*
D02*
G37*
G36*
X13919170Y18486157D02*
X13937367Y18478619D01*
X13953746Y18467674D01*
X13967674Y18453746D01*
X13978618Y18437367D01*
X13986157Y18419170D01*
X13989999Y18399849D01*
Y18389999D01*
Y17620000D01*
Y17609166D01*
X13985773Y17587914D01*
X13977480Y17567896D01*
X13965442Y17549879D01*
X13950121Y17534557D01*
X13932104Y17522519D01*
X13912085Y17514227D01*
X13890834Y17510001D01*
X13100151D01*
X13080830Y17513843D01*
X13062633Y17521381D01*
X13046254Y17532326D01*
X13032326Y17546254D01*
X13021381Y17562633D01*
X13013843Y17580830D01*
X13010001Y17600151D01*
Y17610001D01*
Y18389999D01*
Y18399849D01*
X13013843Y18419170D01*
X13021381Y18437367D01*
X13032326Y18453746D01*
X13046254Y18467674D01*
X13062633Y18478619D01*
X13080830Y18486157D01*
X13100151Y18489999D01*
X13899849D01*
X13919170Y18486157D01*
D02*
G37*
G36*
X18419170D02*
X18437367Y18478619D01*
X18453746Y18467674D01*
X18467674Y18453746D01*
X18478619Y18437367D01*
X18486157Y18419170D01*
X18489999Y18399849D01*
Y18389999D01*
Y17620000D01*
Y17609166D01*
X18485773Y17587914D01*
X18477480Y17567896D01*
X18465442Y17549879D01*
X18450121Y17534557D01*
X18432104Y17522519D01*
X18412086Y17514227D01*
X18390834Y17510001D01*
X17600151D01*
X17580830Y17513843D01*
X17562633Y17521381D01*
X17546254Y17532326D01*
X17532326Y17546254D01*
X17521381Y17562633D01*
X17513843Y17580830D01*
X17510001Y17600151D01*
Y17610001D01*
Y18389999D01*
Y18399849D01*
X17513843Y18419170D01*
X17521381Y18437367D01*
X17532326Y18453746D01*
X17546254Y18467674D01*
X17562633Y18478619D01*
X17580830Y18486157D01*
X17600151Y18489999D01*
X18399849D01*
X18419170Y18486157D01*
D02*
G37*
D16*
X8920000Y1554770D02*
D03*
Y2045230D02*
D03*
D33*
X10467500Y12989999D02*
D03*
X17812500Y5630000D02*
D03*
X15352499D02*
D03*
X12927499Y12989999D02*
D03*
X10422500Y20500000D02*
D03*
X12882500D02*
D03*
X17802499D02*
D03*
X15342500D02*
D03*
X17847501Y12989999D02*
D03*
X12892500Y5630000D02*
D03*
X15387500Y12989999D02*
D03*
X10432500Y5630000D02*
D03*
D38*
X12613500D02*
D03*
X12359500D02*
D03*
X12349500Y20500000D02*
D03*
X12603500D02*
D03*
X14809500D02*
D03*
X15063499D02*
D03*
X18126500Y12989999D02*
D03*
X18380499D02*
D03*
X14819501Y5630000D02*
D03*
X15073500D02*
D03*
X9889500Y20500000D02*
D03*
X10143500D02*
D03*
X17269501D02*
D03*
X17523500D02*
D03*
X11000500Y12989999D02*
D03*
X10746500D02*
D03*
X13460500D02*
D03*
X13206500D02*
D03*
X15920500D02*
D03*
X15666499D02*
D03*
X17279500Y5630000D02*
D03*
X17533501D02*
D03*
X9899500D02*
D03*
X10153500D02*
D03*
D42*
X13390500Y20500000D02*
D03*
X10930500D02*
D03*
X18310500D02*
D03*
X15850500D02*
D03*
X17339500Y12989999D02*
D03*
X12419500D02*
D03*
X14879500D02*
D03*
X10940500Y5630000D02*
D03*
X13400500D02*
D03*
X18320500D02*
D03*
X15860500D02*
D03*
X9959500Y12989999D02*
D03*
D49*
X1981000Y23619000D02*
D03*
Y24381000D02*
D03*
X1727000D02*
D03*
X1473000D02*
D03*
X1727000Y23619000D02*
D03*
X1473000D02*
D03*
X1219000D02*
D03*
Y24381000D02*
D03*
X18127000Y18381000D02*
D03*
X18381000D02*
D03*
X17873000D02*
D03*
X18381000Y17619000D02*
D03*
X18127000D02*
D03*
X17619000Y18381000D02*
D03*
X17873000Y17619000D02*
D03*
X17619000D02*
D03*
X13881000Y18381000D02*
D03*
X13627000D02*
D03*
X13881000Y17619000D02*
D03*
X13627000D02*
D03*
X13119000Y18381000D02*
D03*
X13373000D02*
D03*
Y17619000D02*
D03*
X13119000D02*
D03*
X18381000Y15881000D02*
D03*
X18127000D02*
D03*
X17873000D02*
D03*
X18381000Y15119000D02*
D03*
X18127000D02*
D03*
X17619000D02*
D03*
Y15881000D02*
D03*
X17873000Y15119000D02*
D03*
X7881000Y23619000D02*
D03*
X7627000D02*
D03*
X7373000D02*
D03*
X7119000D02*
D03*
X7881000Y24381000D02*
D03*
X7627000D02*
D03*
X7373000D02*
D03*
X7119000D02*
D03*
X10681000Y16169000D02*
D03*
X10427000D02*
D03*
X10173000D02*
D03*
X9919000D02*
D03*
X10681000Y16931000D02*
D03*
X10427000D02*
D03*
X10173000D02*
D03*
X9919000D02*
D03*
X13881000Y15119000D02*
D03*
X13627000D02*
D03*
X13373000D02*
D03*
X13119000D02*
D03*
X13881000Y15881000D02*
D03*
X13627000D02*
D03*
X13373000D02*
D03*
X13119000D02*
D03*
X11931000Y15119000D02*
D03*
X11677000D02*
D03*
X11423000D02*
D03*
X11169000D02*
D03*
X11931000Y15881000D02*
D03*
X11677000D02*
D03*
X11423000D02*
D03*
X11169000D02*
D03*
X8381000Y3069000D02*
D03*
X8127000D02*
D03*
X7873000D02*
D03*
X7619000D02*
D03*
X8381000Y3831000D02*
D03*
X8127000D02*
D03*
X7873000D02*
D03*
X7619000D02*
D03*
X7281000Y4319000D02*
D03*
X7027000D02*
D03*
X6773000D02*
D03*
X6519000D02*
D03*
X7281000Y5081000D02*
D03*
X7027000D02*
D03*
X6773000D02*
D03*
X6519000D02*
D03*
D69*
X8840000Y14089999D02*
D03*
X8630000D02*
D03*
X12390000Y6060000D02*
D03*
X12150001D02*
D03*
X1030000Y16130000D02*
D03*
X820000D02*
D03*
X12380000Y21130000D02*
D03*
X12380000Y22980000D02*
D03*
Y23180000D02*
D03*
X12380000Y20930000D02*
D03*
X12140000D02*
D03*
Y21130000D02*
D03*
X8388600Y15620000D02*
D03*
Y14970000D02*
D03*
X8168600Y15489999D02*
D03*
X14839999Y21130000D02*
D03*
X14840001Y22980000D02*
D03*
Y23180000D02*
D03*
X14839999Y20930000D02*
D03*
X14600002D02*
D03*
Y21130000D02*
D03*
X18350000Y12360000D02*
D03*
Y12560000D02*
D03*
X18350000Y10310000D02*
D03*
Y10510000D02*
D03*
X18589999Y12360000D02*
D03*
Y12560000D02*
D03*
X9030000Y13400000D02*
D03*
X12390000Y6260000D02*
D03*
X12390001Y8310000D02*
D03*
Y8110000D02*
D03*
X12150001Y6260000D02*
D03*
X5390000Y5470000D02*
D03*
X5180000D02*
D03*
X8630000Y13889999D02*
D03*
X8790000Y13410001D02*
D03*
Y13210001D02*
D03*
X9030000Y13200000D02*
D03*
X8840000Y13889999D02*
D03*
X8388600Y15170000D02*
D03*
Y15420000D02*
D03*
X8168600Y15289999D02*
D03*
X14850000Y6060000D02*
D03*
X14610001D02*
D03*
X9680000Y20930000D02*
D03*
Y21130000D02*
D03*
X9920000Y22980000D02*
D03*
Y23180000D02*
D03*
X9920000Y20930000D02*
D03*
Y21130000D02*
D03*
X17060001Y20930000D02*
D03*
Y21130000D02*
D03*
X17300000Y22980000D02*
D03*
Y23180000D02*
D03*
X17300000Y20930000D02*
D03*
Y21130000D02*
D03*
X11210000Y12560000D02*
D03*
Y12360000D02*
D03*
X10970000Y10510000D02*
D03*
Y10310000D02*
D03*
X10970000Y12560000D02*
D03*
Y12360000D02*
D03*
X13670000Y12560000D02*
D03*
Y12360000D02*
D03*
X13430000Y10510000D02*
D03*
Y10310000D02*
D03*
X13430000Y12560000D02*
D03*
Y12360000D02*
D03*
X16129999Y12560000D02*
D03*
Y12360000D02*
D03*
X15889999Y10510000D02*
D03*
Y10310000D02*
D03*
X15889999Y12560000D02*
D03*
Y12360000D02*
D03*
X17070001Y6060000D02*
D03*
Y6260000D02*
D03*
X17310001Y8110000D02*
D03*
Y8310000D02*
D03*
X17310001Y6060000D02*
D03*
Y6260000D02*
D03*
X14610001D02*
D03*
X14850002Y8110000D02*
D03*
Y8310000D02*
D03*
X14850000Y6260000D02*
D03*
X9690001Y6060000D02*
D03*
Y6260000D02*
D03*
X9930001Y8110000D02*
D03*
Y8310000D02*
D03*
X9930000Y6060000D02*
D03*
Y6260000D02*
D03*
X630000Y16820000D02*
D03*
Y17020000D02*
D03*
X870000Y17010001D02*
D03*
Y16810001D02*
D03*
X820000Y16330000D02*
D03*
X1030000D02*
D03*
X5580000Y4780000D02*
D03*
Y4580000D02*
D03*
X5340000Y4590000D02*
D03*
Y4790000D02*
D03*
X5390000Y5270000D02*
D03*
X5180000D02*
D03*
D70*
X8387505Y14140427D02*
D03*
Y14013426D02*
D03*
X1272495Y16206573D02*
D03*
Y16079575D02*
D03*
X7312505Y14140427D02*
D03*
X2347495Y16079575D02*
D03*
X3862505Y5520426D02*
D03*
X7312505Y13759425D02*
D03*
X2347495Y16460574D02*
D03*
X3862505Y5139426D02*
D03*
X4937505Y5393426D02*
D03*
Y5520426D02*
D03*
X8387505Y13759425D02*
D03*
Y13886426D02*
D03*
X7312505D02*
D03*
Y14013426D02*
D03*
X2347495Y16206573D02*
D03*
Y16333574D02*
D03*
X1272495D02*
D03*
Y16460574D02*
D03*
X3862505Y5393426D02*
D03*
Y5266426D02*
D03*
X4937505D02*
D03*
Y5139426D02*
D03*
D71*
X13189999Y6340000D02*
D03*
Y6090000D02*
D03*
X12930000Y6340000D02*
D03*
X12170000Y22970000D02*
D03*
X13800000Y20960001D02*
D03*
X18089999Y23589999D02*
D03*
X15630000D02*
D03*
X15100000Y9900000D02*
D03*
X18100000Y8720000D02*
D03*
X17560001Y9900000D02*
D03*
X15639999Y8720000D02*
D03*
X13170000Y23589999D02*
D03*
X10710000D02*
D03*
X12640000Y9900000D02*
D03*
X13180000Y8720000D02*
D03*
X10180000Y9900000D02*
D03*
X10720000Y8720000D02*
D03*
X13180000Y21210001D02*
D03*
Y20960001D02*
D03*
X12920000Y21210001D02*
D03*
X13380000D02*
D03*
X13600000Y20960001D02*
D03*
X13380000Y20960001D02*
D03*
X12720000Y21210001D02*
D03*
X17889999Y23589999D02*
D03*
X16889999Y22970000D02*
D03*
X15430000Y23589999D02*
D03*
X14430000Y22970000D02*
D03*
X12970000Y23589999D02*
D03*
X11970000Y22970000D02*
D03*
X18770000Y10510000D02*
D03*
X17900000Y8720000D02*
D03*
X17760001Y9900000D02*
D03*
X16310001Y10510000D02*
D03*
X15439999Y8720000D02*
D03*
X16900000Y8100000D02*
D03*
X15300000Y9900000D02*
D03*
X14439999Y8100000D02*
D03*
X13850000Y10510000D02*
D03*
X12839999Y9900000D02*
D03*
X12980000Y8720000D02*
D03*
X11390000Y10510000D02*
D03*
X11980000Y8100000D02*
D03*
X10510000Y23589999D02*
D03*
X9510000Y22970000D02*
D03*
X6660000Y15570000D02*
D03*
X7310000D02*
D03*
X6790000Y15350000D02*
D03*
X10520000Y8720000D02*
D03*
X10380000Y9900000D02*
D03*
X9520000Y8100000D02*
D03*
X8911000Y5980000D02*
D03*
X8781000Y6200000D02*
D03*
X8261000Y5980000D02*
D03*
X14630000Y22970000D02*
D03*
X16260001Y20960001D02*
D03*
X15639999Y21210001D02*
D03*
Y20960001D02*
D03*
X15380000Y21210001D02*
D03*
X15839999D02*
D03*
X16060001Y20960001D02*
D03*
X15839999Y20960001D02*
D03*
X15180000Y21210001D02*
D03*
X9710000Y22970000D02*
D03*
X17089999D02*
D03*
X11190000Y10510000D02*
D03*
X13650000D02*
D03*
X16110001D02*
D03*
X18570000D02*
D03*
X17100000Y8100000D02*
D03*
X14639999D02*
D03*
X12180000D02*
D03*
X9720000D02*
D03*
X16930000Y12530000D02*
D03*
X17130000D02*
D03*
X17550000Y12530000D02*
D03*
X17350000D02*
D03*
X18010001Y12280000D02*
D03*
X17810001D02*
D03*
X17550000D02*
D03*
X17350000D02*
D03*
X13810001Y6090000D02*
D03*
X13610001D02*
D03*
X13389999Y6090000D02*
D03*
X12730000Y6340000D02*
D03*
X13389999D02*
D03*
X7000005Y14049925D02*
D03*
X6800005D02*
D03*
X8610000Y13639999D02*
D03*
X8810000D02*
D03*
X8770000Y12960001D02*
D03*
X8970000D02*
D03*
X7000005Y13839925D02*
D03*
X6800005D02*
D03*
X7110000Y15570000D02*
D03*
X6860000D02*
D03*
X6990000Y15350000D02*
D03*
X8461000Y5980000D02*
D03*
X8581000Y6200000D02*
D03*
X8711000Y5980000D02*
D03*
X10920000Y21210001D02*
D03*
X10720000D02*
D03*
X10920000Y20960001D02*
D03*
X10720000D02*
D03*
X10460000Y21210001D02*
D03*
X10260000D02*
D03*
X11140000Y20960001D02*
D03*
X11340000D02*
D03*
X18300000Y21210001D02*
D03*
X18100000D02*
D03*
X18300000Y20960001D02*
D03*
X18100000D02*
D03*
X17839999Y21210001D02*
D03*
X17639999D02*
D03*
X18520000Y20960001D02*
D03*
X18720000D02*
D03*
X9970000Y12280000D02*
D03*
X10170000D02*
D03*
X9970000Y12530000D02*
D03*
X10170000D02*
D03*
X10430000Y12280000D02*
D03*
X10630000D02*
D03*
X9750000Y12530000D02*
D03*
X9550000D02*
D03*
X12430000Y12280000D02*
D03*
X12630000D02*
D03*
X12430000Y12530000D02*
D03*
X12630000D02*
D03*
X12889999Y12280000D02*
D03*
X13089999D02*
D03*
X12210000Y12530000D02*
D03*
X12010000D02*
D03*
X14889999Y12280000D02*
D03*
X15089999D02*
D03*
X14889999Y12530000D02*
D03*
X15089999D02*
D03*
X15350000Y12280000D02*
D03*
X15550000D02*
D03*
X14670000Y12530000D02*
D03*
X14470000D02*
D03*
X18310001Y6340000D02*
D03*
X18110001D02*
D03*
X18310001Y6090000D02*
D03*
X18110001D02*
D03*
X17850000Y6340000D02*
D03*
X17650000D02*
D03*
X18530000Y6090000D02*
D03*
X18730000D02*
D03*
X15850000Y6340000D02*
D03*
X15650000D02*
D03*
X15850000Y6090000D02*
D03*
X15650000D02*
D03*
X15389999Y6340000D02*
D03*
X15189999D02*
D03*
X16070000Y6090000D02*
D03*
X16270000D02*
D03*
X10930000Y6340000D02*
D03*
X10730000D02*
D03*
X10930000Y6090000D02*
D03*
X10730000D02*
D03*
X10470000Y6340000D02*
D03*
X10270000D02*
D03*
X11150000Y6090000D02*
D03*
X11350000D02*
D03*
X2859995Y16380075D02*
D03*
X2659995D02*
D03*
X850000Y16580000D02*
D03*
X1050000D02*
D03*
X2859995Y16170074D02*
D03*
X2659995D02*
D03*
X3350005Y5219925D02*
D03*
X3550005D02*
D03*
X5360000Y5020000D02*
D03*
X5160000D02*
D03*
X5520000Y4340000D02*
D03*
X5320000D02*
D03*
X3350005Y5429925D02*
D03*
X3550005D02*
D03*
D72*
X12985001Y6080000D02*
D03*
X12975000Y20950000D02*
D03*
X12625000D02*
D03*
X15435001D02*
D03*
X15085001D02*
D03*
X17755000Y12540000D02*
D03*
X18105000D02*
D03*
X12635000Y6080000D02*
D03*
X10175000D02*
D03*
X10525000D02*
D03*
X10165000Y20950000D02*
D03*
X10515000D02*
D03*
X17545000D02*
D03*
X17895000D02*
D03*
X10725000Y12540000D02*
D03*
X10375000D02*
D03*
X13185001D02*
D03*
X12835001D02*
D03*
X15645000D02*
D03*
X15295000D02*
D03*
X17555000Y6080000D02*
D03*
X17905000D02*
D03*
X15095000D02*
D03*
X15445000D02*
D03*
D73*
X13170000Y22862500D02*
D03*
Y23297501D02*
D03*
X18089999D02*
D03*
X17560001Y10192500D02*
D03*
X15630000Y23297501D02*
D03*
X15100000Y10192500D02*
D03*
X18100000Y8427500D02*
D03*
X15639999D02*
D03*
X10710000Y23297501D02*
D03*
X10180000Y10192500D02*
D03*
X12640000D02*
D03*
X13180000Y8427500D02*
D03*
X10720000D02*
D03*
X15630000Y22862500D02*
D03*
X17560001Y10627500D02*
D03*
X13180000Y7992500D02*
D03*
X10710000Y22862500D02*
D03*
X18089999D02*
D03*
X10180000Y10627500D02*
D03*
X12640000D02*
D03*
X15100000D02*
D03*
X18100000Y7992500D02*
D03*
X15639999D02*
D03*
X10720000D02*
D03*
D74*
X13789999Y21180000D02*
D03*
Y21389999D02*
D03*
X16250000Y21180000D02*
D03*
Y21389999D02*
D03*
X16939999Y12310000D02*
D03*
Y12100000D02*
D03*
X13800000Y6310000D02*
D03*
Y6520000D02*
D03*
X11330000Y21389999D02*
D03*
Y21180000D02*
D03*
X18710001Y21389999D02*
D03*
Y21180000D02*
D03*
X9560000Y12099963D02*
D03*
Y12309963D02*
D03*
X12020000Y12099943D02*
D03*
Y12309943D02*
D03*
X14480000Y12099977D02*
D03*
Y12309977D02*
D03*
X18720000Y6520000D02*
D03*
Y6310000D02*
D03*
X16260001Y6520000D02*
D03*
Y6310000D02*
D03*
X11340000Y6520000D02*
D03*
Y6310000D02*
D03*
D75*
X12333500Y21525000D02*
D03*
Y22614999D02*
D03*
X12206500Y21525000D02*
D03*
X12079500D02*
D03*
X12460500D02*
D03*
X17126500Y22614999D02*
D03*
X16999500D02*
D03*
X14539500D02*
D03*
X14666499D02*
D03*
X12079500D02*
D03*
X12206500D02*
D03*
X11270500Y10875000D02*
D03*
X18523500D02*
D03*
X18650500D02*
D03*
X16063499D02*
D03*
X16190500D02*
D03*
X17136501Y7745000D02*
D03*
X17009500D02*
D03*
X13603500Y10875000D02*
D03*
X13730499D02*
D03*
X14676500Y7745000D02*
D03*
X14549500D02*
D03*
X12216500D02*
D03*
X12089500D02*
D03*
X9619500Y22614999D02*
D03*
X9746500D02*
D03*
X11143500Y10875000D02*
D03*
X9756500Y7745000D02*
D03*
X9629500D02*
D03*
X17380499Y22614999D02*
D03*
X18269501Y10875000D02*
D03*
X15809500D02*
D03*
X14920500Y22614999D02*
D03*
X12460500D02*
D03*
X13349500Y10875000D02*
D03*
X17390500Y7745000D02*
D03*
X14930499D02*
D03*
X12470500D02*
D03*
X10000500Y22614999D02*
D03*
X10889500Y10875000D02*
D03*
X10010500Y7745000D02*
D03*
X14793500Y21525000D02*
D03*
Y22614999D02*
D03*
X14666499Y21525000D02*
D03*
X14539500D02*
D03*
X14920500D02*
D03*
X18269501Y11965000D02*
D03*
X18396500D02*
D03*
X18523500D02*
D03*
X18650500D02*
D03*
X18396500Y10875000D02*
D03*
X12470500Y6655000D02*
D03*
X12343500D02*
D03*
X12216500D02*
D03*
X12089500D02*
D03*
X12343500Y7745000D02*
D03*
X9883500D02*
D03*
X9629500Y6655000D02*
D03*
X9756500D02*
D03*
X9883500D02*
D03*
X10010500D02*
D03*
X9873500Y22614999D02*
D03*
X9619500Y21525000D02*
D03*
X9746500D02*
D03*
X9873500D02*
D03*
X10000500D02*
D03*
X17253500Y22614999D02*
D03*
X16999500Y21525000D02*
D03*
X17126500D02*
D03*
X17253500D02*
D03*
X17380499D02*
D03*
X11016500Y10875000D02*
D03*
X11270500Y11965000D02*
D03*
X11143500D02*
D03*
X11016500D02*
D03*
X10889500D02*
D03*
X13476500Y10875000D02*
D03*
X13730499Y11965000D02*
D03*
X13603500D02*
D03*
X13476500D02*
D03*
X13349500D02*
D03*
X15936501Y10875000D02*
D03*
X16190500Y11965000D02*
D03*
X16063499D02*
D03*
X15936501D02*
D03*
X15809500D02*
D03*
X17263499Y7745000D02*
D03*
X17009500Y6655000D02*
D03*
X17136501D02*
D03*
X17263499D02*
D03*
X17390500D02*
D03*
X14803500Y7745000D02*
D03*
X14549500Y6655000D02*
D03*
X14676500D02*
D03*
X14803500D02*
D03*
X14930499D02*
D03*
D76*
X13770000Y21827499D02*
D03*
X18689999Y22312500D02*
D03*
X16230000D02*
D03*
X16960001Y11177500D02*
D03*
X13770000Y22312500D02*
D03*
X14500000Y11177500D02*
D03*
X12040000D02*
D03*
X18700000Y7442500D02*
D03*
X16239999D02*
D03*
X13780000D02*
D03*
X11310000Y22312500D02*
D03*
X9580000Y11177500D02*
D03*
X11320000Y7442500D02*
D03*
X16230000Y21827499D02*
D03*
X16960001Y11662500D02*
D03*
X13780000Y6957500D02*
D03*
X11310000Y21827499D02*
D03*
X18689999D02*
D03*
X9580000Y11662500D02*
D03*
X12040000D02*
D03*
X14500000D02*
D03*
X18700000Y6957500D02*
D03*
X16239999D02*
D03*
X11320000D02*
D03*
D77*
X7500000Y15961400D02*
D03*
X6738000D02*
D03*
X6611000D02*
D03*
X8960000Y5588600D02*
D03*
X8833000D02*
D03*
X8071000D02*
D03*
X7500000Y17150000D02*
D03*
X7246000D02*
D03*
X7119000D02*
D03*
X7373000D02*
D03*
X6992000D02*
D03*
X6865000D02*
D03*
X6738000D02*
D03*
X6611000D02*
D03*
X6865000Y15961400D02*
D03*
X6992000D02*
D03*
X7119000D02*
D03*
X7246000D02*
D03*
X7373000D02*
D03*
X8198000Y5588600D02*
D03*
X8325000D02*
D03*
X8452000D02*
D03*
X8579000D02*
D03*
X8706000D02*
D03*
X8960000Y4400000D02*
D03*
X8833000D02*
D03*
X8706000D02*
D03*
X8579000D02*
D03*
X8452000D02*
D03*
X8325000D02*
D03*
X8198000D02*
D03*
X8071000D02*
D03*
D78*
X8780000Y15669000D02*
D03*
Y15542000D02*
D03*
Y14780000D02*
D03*
Y14907001D02*
D03*
Y15034000D02*
D03*
Y15161000D02*
D03*
Y15288000D02*
D03*
Y15414999D02*
D03*
X9968600Y15669000D02*
D03*
Y15542000D02*
D03*
Y15414999D02*
D03*
Y15288000D02*
D03*
Y15161000D02*
D03*
Y15034000D02*
D03*
Y14907001D02*
D03*
Y14780000D02*
D03*
D79*
X2889995Y16960075D02*
D03*
X6770005Y13259924D02*
D03*
X3320005Y4639925D02*
D03*
X7030005Y13259924D02*
D03*
X2629995Y16960075D02*
D03*
X3580005Y4639925D02*
D03*
D80*
X690000Y17260001D02*
D03*
X890000D02*
D03*
D81*
X11850000Y2400000D02*
D03*
X15550000D02*
D03*
X2200000Y19500000D02*
D03*
X6000000D02*
D03*
X6950000Y800000D02*
D03*
X5450000D02*
D03*
X2050000Y3500000D02*
D03*
X550000D02*
D03*
X6950000Y3300000D02*
D03*
X4700000Y24000000D02*
D03*
X6200000D02*
D03*
D82*
X11850000Y1400000D02*
D03*
X15550000D02*
D03*
X5450000Y3300000D02*
D03*
D83*
X20000000Y4375000D02*
D03*
X18250000Y3675000D02*
D03*
X4304000Y15130000D02*
D03*
Y14875999D02*
D03*
X4050000Y15130000D02*
D03*
X4558000Y14875999D02*
D03*
Y15130000D02*
D03*
X4812000Y14875999D02*
D03*
Y15130000D02*
D03*
X5066000Y14875999D02*
D03*
Y15130000D02*
D03*
X5125000Y22500000D02*
D03*
X1325000D02*
D03*
X373000Y13246001D02*
D03*
Y13500000D02*
D03*
Y13753999D02*
D03*
X1746000Y15127000D02*
D03*
X6177000Y13746001D02*
D03*
X5923000D02*
D03*
X1746000Y14873000D02*
D03*
X627000Y12992000D02*
D03*
X373000D02*
D03*
X8627000Y8354000D02*
D03*
Y11008000D02*
D03*
Y10500000D02*
D03*
Y7846000D02*
D03*
X8373000Y10754000D02*
D03*
Y10246000D02*
D03*
Y11008000D02*
D03*
Y8100000D02*
D03*
Y8608000D02*
D03*
Y7592000D02*
D03*
X1946000Y5627000D02*
D03*
Y5373000D02*
D03*
X627000Y14008000D02*
D03*
Y13753999D02*
D03*
X20000000Y1625000D02*
D03*
X18250000Y925000D02*
D03*
X8627000Y10246000D02*
D03*
Y8608000D02*
D03*
X7900000Y325000D02*
D03*
X8627000Y8100000D02*
D03*
X4075000Y22500000D02*
D03*
X4500000Y325000D02*
D03*
Y2575000D02*
D03*
X7900000D02*
D03*
X627000Y13246001D02*
D03*
Y13500000D02*
D03*
X8373000Y8354000D02*
D03*
Y7846000D02*
D03*
X2454000Y5373000D02*
D03*
X2200000Y5627000D02*
D03*
Y5373000D02*
D03*
X8627000Y10754000D02*
D03*
X8373000Y10500000D02*
D03*
Y9992000D02*
D03*
X6177000Y14253999D02*
D03*
X5923000Y14000000D02*
D03*
X6177000D02*
D03*
X2254000Y14873000D02*
D03*
X2000000Y15127000D02*
D03*
Y14873000D02*
D03*
X7875000Y22500000D02*
D03*
D84*
X8235005Y13324927D02*
D03*
X1424995Y16895074D02*
D03*
X4785005Y4704926D02*
D03*
D85*
X10100000Y3180000D02*
D03*
Y420000D02*
D03*
D86*
X8900000Y800000D02*
D03*
Y3000000D02*
D03*
D87*
X9490000Y3380000D02*
D03*
Y2880000D02*
D03*
D88*
X4050000Y14875999D02*
D03*
X2454000Y5627000D02*
D03*
X2254000Y15127000D02*
D03*
D89*
X12970000Y22197000D02*
D03*
Y21942999D02*
D03*
X15430000Y22197000D02*
D03*
Y21942999D02*
D03*
X17760001Y11293000D02*
D03*
Y11547000D02*
D03*
X12980000Y7327000D02*
D03*
Y7073000D02*
D03*
X10520000D02*
D03*
Y7327000D02*
D03*
X10510000Y21942999D02*
D03*
Y22197000D02*
D03*
X17889999Y21942999D02*
D03*
Y22197000D02*
D03*
X10380000Y11547000D02*
D03*
Y11293000D02*
D03*
X12839999Y11547000D02*
D03*
Y11293000D02*
D03*
X15300000Y11547000D02*
D03*
Y11293000D02*
D03*
X17900000Y7073000D02*
D03*
Y7327000D02*
D03*
X15439999Y7073000D02*
D03*
Y7327000D02*
D03*
D90*
X373000Y14008000D02*
D03*
X8627000Y9992000D02*
D03*
Y7592000D02*
D03*
X5923000Y14253999D02*
D03*
D91*
X12970000Y21689000D02*
D03*
X15430000Y22450999D02*
D03*
X17889999D02*
D03*
X17760001Y11039000D02*
D03*
X15300000D02*
D03*
X12970000Y22450999D02*
D03*
X12839999Y11039000D02*
D03*
X17900002Y7581000D02*
D03*
X15439999D02*
D03*
X12980000D02*
D03*
X10510000Y22450999D02*
D03*
X10380000Y11039000D02*
D03*
X10520001Y7581000D02*
D03*
X15430000Y21689000D02*
D03*
X17760001Y11801000D02*
D03*
X12980000Y6819000D02*
D03*
X10520000D02*
D03*
X10510000Y21689000D02*
D03*
X17889999D02*
D03*
X10380000Y11801000D02*
D03*
X12839999D02*
D03*
X15300000D02*
D03*
X17900000Y6819000D02*
D03*
X15439999D02*
D03*
D92*
X7727005Y13324927D02*
D03*
X1932995Y16895074D02*
D03*
X4277005Y4704926D02*
D03*
X7981005Y13324927D02*
D03*
X7473005D02*
D03*
X2186995Y16895074D02*
D03*
X1678995D02*
D03*
X4023005Y4704926D02*
D03*
X4531005D02*
D03*
D93*
X570000Y7130000D02*
D03*
X550000Y11760000D02*
D03*
D94*
X7000000Y19500000D02*
D03*
X3200000D02*
D03*
D95*
X8500000Y17000000D02*
D03*
X500000Y24500000D02*
D03*
X20500000D02*
D03*
Y16500000D02*
D03*
Y500000D02*
D03*
X500000D02*
D03*
D96*
X3625000Y3267000D02*
D03*
Y1741000D02*
D03*
Y1237000D02*
D03*
Y733000D02*
D03*
X2875000D02*
D03*
Y1237000D02*
D03*
Y1741000D02*
D03*
D97*
Y3267000D02*
D03*
D98*
X1735000Y1625000D02*
D03*
X1865000Y2375000D02*
D03*
D99*
X865000Y1364992D02*
D03*
Y1999992D02*
D03*
D100*
Y2634992D02*
D03*
D101*
X8840000Y14089999D02*
D03*
X10284300Y421900D02*
D03*
X10258900Y333000D02*
D03*
X10195400Y269500D02*
D03*
X10106500Y244100D02*
D03*
X10017600Y269500D02*
D03*
X9954100Y333000D02*
D03*
X9928700Y421900D02*
D03*
X10106500Y599700D02*
D03*
X9954100Y510800D02*
D03*
X10017600Y574300D02*
D03*
X10258900Y510800D02*
D03*
X10195400Y574300D02*
D03*
X10182700Y3330200D02*
D03*
X10246200Y3266700D02*
D03*
X10004900Y3330200D02*
D03*
X9941400Y3266700D02*
D03*
X10093800Y3355600D02*
D03*
X9916000Y3177800D02*
D03*
X9941400Y3088900D02*
D03*
X10004900Y3025400D02*
D03*
X10093800Y3000000D02*
D03*
X10182700Y3025400D02*
D03*
X10246200Y3088900D02*
D03*
X10271600Y3177800D02*
D03*
X5390000Y5470000D02*
D03*
X5580000Y4780000D02*
D03*
X4080005Y5229926D02*
D03*
X13170000Y23589999D02*
D03*
X13280000Y22230000D02*
D03*
X12380000Y23180000D02*
D03*
X12070000Y21650000D02*
D03*
Y21439999D02*
D03*
X12460000Y22730000D02*
D03*
Y22520000D02*
D03*
X820000Y16130000D02*
D03*
X630000Y16820000D02*
D03*
X17300000Y23180000D02*
D03*
X14840001D02*
D03*
X9920000D02*
D03*
X15630000Y23589999D02*
D03*
X18089999D02*
D03*
X17560001Y9900000D02*
D03*
X15100000D02*
D03*
X18100000Y8720000D02*
D03*
X15639999D02*
D03*
X10710000Y23589999D02*
D03*
X12640000Y9900000D02*
D03*
X13180000Y8720000D02*
D03*
X10180000Y9900000D02*
D03*
X10720000Y8720000D02*
D03*
X14920000Y22520000D02*
D03*
Y22730000D02*
D03*
X17380000D02*
D03*
Y22520000D02*
D03*
X18270000Y10970000D02*
D03*
Y10760000D02*
D03*
X15810001Y10970000D02*
D03*
Y10760000D02*
D03*
X13350000Y10970000D02*
D03*
Y10760000D02*
D03*
X17389999Y7860000D02*
D03*
Y7650000D02*
D03*
X14930000Y7860000D02*
D03*
Y7650000D02*
D03*
X12470000Y7860000D02*
D03*
Y7650000D02*
D03*
X10000000Y22730000D02*
D03*
Y22520000D02*
D03*
X7530005Y13849927D02*
D03*
X2129995Y16370074D02*
D03*
X10890000Y10970000D02*
D03*
Y10760000D02*
D03*
X10010000Y7860000D02*
D03*
Y7650000D02*
D03*
X14530000Y21439999D02*
D03*
Y21650000D02*
D03*
X15739999Y22230000D02*
D03*
X9030000Y13400000D02*
D03*
X11280000Y12050000D02*
D03*
Y11840000D02*
D03*
X13739999Y12050000D02*
D03*
Y11840000D02*
D03*
X16200000Y12050000D02*
D03*
Y11840000D02*
D03*
X18200000Y22230000D02*
D03*
X16989999Y21650000D02*
D03*
Y21439999D02*
D03*
X10820000Y22230000D02*
D03*
X9610000Y21650000D02*
D03*
Y21439999D02*
D03*
X18210001Y7360000D02*
D03*
X17000000Y6780000D02*
D03*
Y6570000D02*
D03*
X15750000Y7360000D02*
D03*
X14539999Y6780000D02*
D03*
Y6570000D02*
D03*
X13289999Y7360000D02*
D03*
X12080000Y6780000D02*
D03*
Y6570000D02*
D03*
X8461000Y5980000D02*
D03*
X8400000Y15189999D02*
D03*
X7110000Y15570000D02*
D03*
X18660001Y11840000D02*
D03*
Y12050000D02*
D03*
X10830000Y7360000D02*
D03*
X9620000Y6570000D02*
D03*
Y6780000D02*
D03*
%TF.MD5,f0715956d8599f7203653de1f778eef0*%
M02*
