%TF.GenerationSoftware,Altium Limited,Altium Designer,25.8.1 (18)*%
G04 Layer_Color=32896*
%FSLAX45Y45*%
%MOMM*%
%TF.SameCoordinates,FDD92109-F931-40D5-AFAB-DC256326DFAA*%
%TF.FilePolarity,Positive*%
%TF.FileFunction,Legend,Bot*%
%TF.Part,Single*%
G01*
G75*
%TA.AperFunction,NonConductor*%
%ADD58C,0.20000*%
%ADD59C,0.15240*%
%ADD63C,0.25400*%
%ADD64C,0.50000*%
G36*
X17512500Y22655000D02*
X17489999D01*
Y22805000D01*
X17512500D01*
Y22655000D01*
D02*
G37*
G36*
X17470000Y22805000D02*
X17470000Y22655000D01*
X17447501Y22655000D01*
X17447501Y22805000D01*
X17470000Y22805000D01*
D02*
G37*
G36*
X15052499Y22655000D02*
X15030000D01*
Y22805000D01*
X15052499D01*
Y22655000D01*
D02*
G37*
G36*
X15010001Y22805000D02*
X15010001Y22655000D01*
X14987500Y22655000D01*
X14987500Y22805000D01*
X15010001Y22805000D01*
D02*
G37*
G36*
X12592500Y22655000D02*
X12570000D01*
Y22805000D01*
X12592500D01*
Y22655000D01*
D02*
G37*
G36*
X12550000Y22805000D02*
X12550000Y22655000D01*
X12527500Y22655000D01*
X12527499Y22805000D01*
X12550000Y22805000D01*
D02*
G37*
G36*
X10132500Y22655000D02*
X10110000D01*
Y22805000D01*
X10132500D01*
Y22655000D01*
D02*
G37*
G36*
X10090000Y22805000D02*
X10090000Y22655000D01*
X10067500Y22655000D01*
X10067500Y22805000D01*
X10090000Y22805000D01*
D02*
G37*
G36*
X17512500Y22445000D02*
X17489999D01*
Y22595000D01*
X17512500D01*
Y22445000D01*
D02*
G37*
G36*
X17470000Y22595000D02*
X17470000Y22445000D01*
X17447501Y22445000D01*
X17447501Y22595000D01*
X17470000Y22595000D01*
D02*
G37*
G36*
X15052499Y22445000D02*
X15030000D01*
Y22595000D01*
X15052499D01*
Y22445000D01*
D02*
G37*
G36*
X15010001Y22595000D02*
X15010001Y22445000D01*
X14987500Y22445000D01*
X14987500Y22595000D01*
X15010001Y22595000D01*
D02*
G37*
G36*
X12592500Y22445000D02*
X12570000D01*
Y22595000D01*
X12592500D01*
Y22445000D01*
D02*
G37*
G36*
X12550000Y22595000D02*
X12550000Y22445000D01*
X12527500Y22445000D01*
X12527499Y22595000D01*
X12550000Y22595000D01*
D02*
G37*
G36*
X10132500Y22445000D02*
X10110000D01*
Y22595000D01*
X10132500D01*
Y22445000D01*
D02*
G37*
G36*
X10090000Y22595000D02*
X10090000Y22445000D01*
X10067500Y22445000D01*
X10067500Y22595000D01*
X10090000Y22595000D01*
D02*
G37*
G36*
X18275000Y22339999D02*
X18125000Y22339999D01*
X18125000Y22362500D01*
X18275002Y22362502D01*
X18275000Y22339999D01*
D02*
G37*
G36*
X15814999D02*
X15664999Y22339999D01*
X15664999Y22362500D01*
X15815001Y22362502D01*
X15814999Y22339999D01*
D02*
G37*
G36*
X13355000D02*
X13205000Y22339999D01*
X13205000Y22362500D01*
X13355000Y22362502D01*
X13355000Y22339999D01*
D02*
G37*
G36*
X10895000D02*
X10745000Y22339999D01*
X10745000Y22362500D01*
X10895001Y22362502D01*
X10895000Y22339999D01*
D02*
G37*
G36*
X18275000Y22297501D02*
X18125000D01*
Y22320000D01*
X18275000D01*
Y22297501D01*
D02*
G37*
G36*
X15814999D02*
X15664999D01*
Y22320000D01*
X15814999D01*
Y22297501D01*
D02*
G37*
G36*
X13355000D02*
X13205000D01*
Y22320000D01*
X13355000D01*
Y22297501D01*
D02*
G37*
G36*
X10895000D02*
X10745000D01*
Y22320000D01*
X10895000D01*
Y22297501D01*
D02*
G37*
G36*
X18275000Y21820000D02*
X18125000Y21820000D01*
X18125000Y21842500D01*
X18275002Y21842500D01*
X18275000Y21820000D01*
D02*
G37*
G36*
X15814999D02*
X15664999Y21820000D01*
X15664999Y21842500D01*
X15815001Y21842500D01*
X15814999Y21820000D01*
D02*
G37*
G36*
X13355000D02*
X13205000Y21820000D01*
X13205000Y21842500D01*
X13355000Y21842500D01*
X13355000Y21820000D01*
D02*
G37*
G36*
X10895000D02*
X10745000Y21820000D01*
X10745000Y21842500D01*
X10895001Y21842500D01*
X10895000Y21820000D01*
D02*
G37*
G36*
X18275000Y21777499D02*
X18125000D01*
Y21800000D01*
X18275000D01*
Y21777499D01*
D02*
G37*
G36*
X15814999D02*
X15664999D01*
Y21800000D01*
X15814999D01*
Y21777499D01*
D02*
G37*
G36*
X13355000D02*
X13205000D01*
Y21800000D01*
X13355000D01*
Y21777499D01*
D02*
G37*
G36*
X10895000D02*
X10745000D01*
Y21800000D01*
X10895000D01*
Y21777499D01*
D02*
G37*
G36*
X16922501Y21575000D02*
X16900000D01*
Y21725000D01*
X16922501D01*
Y21575000D01*
D02*
G37*
G36*
X16880000Y21725000D02*
X16880000Y21575000D01*
X16857500Y21575000D01*
X16857500Y21725000D01*
X16880000Y21725000D01*
D02*
G37*
G36*
X14462500Y21575000D02*
X14439999D01*
Y21725000D01*
X14462500D01*
Y21575000D01*
D02*
G37*
G36*
X14420000Y21725000D02*
X14420000Y21575000D01*
X14397501Y21575000D01*
X14397501Y21725000D01*
X14420000Y21725000D01*
D02*
G37*
G36*
X12002500Y21575000D02*
X11980000D01*
Y21725000D01*
X12002500D01*
Y21575000D01*
D02*
G37*
G36*
X11960000Y21725000D02*
X11960000Y21575000D01*
X11937500Y21575000D01*
X11937499Y21725000D01*
X11960000Y21725000D01*
D02*
G37*
G36*
X9542500Y21575000D02*
X9520000D01*
Y21725000D01*
X9542500D01*
Y21575000D01*
D02*
G37*
G36*
X9500000Y21725000D02*
X9500000Y21575000D01*
X9477500Y21575000D01*
X9477499Y21725000D01*
X9500000Y21725000D01*
D02*
G37*
G36*
X16922501Y21364999D02*
X16900000D01*
Y21514999D01*
X16922501D01*
Y21364999D01*
D02*
G37*
G36*
X16880000Y21514999D02*
X16880000Y21364999D01*
X16857500Y21364999D01*
X16857500Y21514999D01*
X16880000Y21514999D01*
D02*
G37*
G36*
X14462500Y21364999D02*
X14439999D01*
Y21514999D01*
X14462500D01*
Y21364999D01*
D02*
G37*
G36*
X14420000Y21514999D02*
X14420000Y21364999D01*
X14397501Y21364999D01*
X14397501Y21514999D01*
X14420000Y21514999D01*
D02*
G37*
G36*
X12002500Y21364999D02*
X11980000D01*
Y21514999D01*
X12002500D01*
Y21364999D01*
D02*
G37*
G36*
X11960000Y21514999D02*
X11960000Y21364999D01*
X11937500Y21364999D01*
X11937499Y21514999D01*
X11960000Y21514999D01*
D02*
G37*
G36*
X9542500Y21364999D02*
X9520000D01*
Y21514999D01*
X9542500D01*
Y21364999D01*
D02*
G37*
G36*
X9500000Y21514999D02*
X9500000Y21364999D01*
X9477500Y21364999D01*
X9477499Y21514999D01*
X9500000Y21514999D01*
D02*
G37*
G36*
X2082495Y17075073D02*
X2059995D01*
Y17225075D01*
X2082495D01*
Y17075073D01*
D02*
G37*
G36*
X2039995Y17225075D02*
X2039995Y17075073D01*
X2017495Y17075075D01*
X2017494Y17225075D01*
X2039995Y17225075D01*
D02*
G37*
G36*
X1582495Y17075073D02*
X1559995D01*
Y17225075D01*
X1582495D01*
Y17075073D01*
D02*
G37*
G36*
X1539995Y17225075D02*
X1539995Y17075073D01*
X1517495Y17075075D01*
X1517494Y17225075D01*
X1539995Y17225075D01*
D02*
G37*
G36*
X2204995Y16280074D02*
X2054995D01*
Y16302574D01*
X2204995D01*
Y16280074D01*
D02*
G37*
G36*
X2204995Y16237573D02*
X2054994Y16237573D01*
X2054995Y16260074D01*
X2204995Y16260074D01*
X2204995Y16237573D01*
D02*
G37*
G36*
X7605005Y13959926D02*
X7455005Y13959926D01*
X7455005Y13982426D01*
X7605006Y13982426D01*
X7605005Y13959926D01*
D02*
G37*
G36*
Y13917426D02*
X7455005D01*
Y13939926D01*
X7605005D01*
Y13917426D01*
D02*
G37*
G36*
X8100005Y12994925D02*
X8077505D01*
Y13144926D01*
X8100005D01*
Y12994925D01*
D02*
G37*
G36*
X7600005D02*
X7577505D01*
Y13144926D01*
X7600005D01*
Y12994925D01*
D02*
G37*
G36*
X8142505Y13144925D02*
X8142506Y12994925D01*
X8120005Y12994925D01*
X8120005Y13144926D01*
X8142505Y13144925D01*
D02*
G37*
G36*
X7642505D02*
X7642506Y12994925D01*
X7620005Y12994925D01*
X7620005Y13144926D01*
X7642505Y13144925D01*
D02*
G37*
G36*
X18750000Y11975000D02*
X18727499D01*
Y12125000D01*
X18750000D01*
Y11975000D01*
D02*
G37*
G36*
X16289999D02*
X16267500D01*
Y12125000D01*
X16289999D01*
Y11975000D01*
D02*
G37*
G36*
X13830000D02*
X13807500D01*
Y12125000D01*
X13830000D01*
Y11975000D01*
D02*
G37*
G36*
X11370000D02*
X11347500D01*
Y12125000D01*
X11370000D01*
Y11975000D01*
D02*
G37*
G36*
X18792500Y12125000D02*
X18792500Y11974999D01*
X18770000Y11975000D01*
X18770000Y12125000D01*
X18792500Y12125000D01*
D02*
G37*
G36*
X16332500D02*
X16332500Y11974999D01*
X16310001Y11975000D01*
X16310001Y12125000D01*
X16332500Y12125000D01*
D02*
G37*
G36*
X13872501D02*
X13872501Y11974999D01*
X13850000Y11975000D01*
X13850000Y12125000D01*
X13872501Y12125000D01*
D02*
G37*
G36*
X11412500D02*
X11412501Y11974999D01*
X11390000Y11975000D01*
X11390000Y12125000D01*
X11412500Y12125000D01*
D02*
G37*
G36*
X18750000Y11765000D02*
X18727499D01*
Y11915000D01*
X18750000D01*
Y11765000D01*
D02*
G37*
G36*
X16289999D02*
X16267500D01*
Y11915000D01*
X16289999D01*
Y11765000D01*
D02*
G37*
G36*
X13830000D02*
X13807500D01*
Y11915000D01*
X13830000D01*
Y11765000D01*
D02*
G37*
G36*
X11370000D02*
X11347500D01*
Y11915000D01*
X11370000D01*
Y11765000D01*
D02*
G37*
G36*
X18792500Y11915000D02*
X18792500Y11765000D01*
X18770000Y11765000D01*
X18770000Y11915000D01*
X18792500Y11915000D01*
D02*
G37*
G36*
X16332500D02*
X16332500Y11765000D01*
X16310001Y11765000D01*
X16310001Y11915000D01*
X16332500Y11915000D01*
D02*
G37*
G36*
X13872501D02*
X13872501Y11765000D01*
X13850000Y11765000D01*
X13850000Y11915000D01*
X13872501Y11915000D01*
D02*
G37*
G36*
X11412500D02*
X11412501Y11765000D01*
X11390000Y11765000D01*
X11390000Y11915000D01*
X11412500Y11915000D01*
D02*
G37*
G36*
X17525000Y11690000D02*
X17375000D01*
Y11712500D01*
X17525000D01*
Y11690000D01*
D02*
G37*
G36*
X15064999D02*
X14914999D01*
Y11712500D01*
X15064999D01*
Y11690000D01*
D02*
G37*
G36*
X12605000D02*
X12455000D01*
Y11712500D01*
X12605000D01*
Y11690000D01*
D02*
G37*
G36*
X10145000D02*
X9995000D01*
Y11712500D01*
X10145000D01*
Y11690000D01*
D02*
G37*
G36*
X17525000Y11647500D02*
X17375000Y11647499D01*
X17375000Y11670000D01*
X17525000Y11670000D01*
X17525000Y11647500D01*
D02*
G37*
G36*
X15064999D02*
X14914999Y11647499D01*
X14914999Y11670000D01*
X15064999Y11670000D01*
X15064999Y11647500D01*
D02*
G37*
G36*
X12605000D02*
X12454999Y11647499D01*
X12455000Y11670000D01*
X12605000Y11670000D01*
X12605000Y11647500D01*
D02*
G37*
G36*
X10145000D02*
X9995000Y11647499D01*
X9995000Y11670000D01*
X10145000Y11670000D01*
X10145000Y11647500D01*
D02*
G37*
G36*
X17525000Y11170000D02*
X17375000D01*
Y11192500D01*
X17525000D01*
Y11170000D01*
D02*
G37*
G36*
X15064999D02*
X14914999D01*
Y11192500D01*
X15064999D01*
Y11170000D01*
D02*
G37*
G36*
X12605000D02*
X12455000D01*
Y11192500D01*
X12605000D01*
Y11170000D01*
D02*
G37*
G36*
X10145000D02*
X9995000D01*
Y11192500D01*
X10145000D01*
Y11170000D01*
D02*
G37*
G36*
X17525000Y11127499D02*
X17375000Y11127499D01*
X17375000Y11150000D01*
X17525000Y11150000D01*
X17525000Y11127499D01*
D02*
G37*
G36*
X15064999D02*
X14914999Y11127499D01*
X14914999Y11150000D01*
X15064999Y11150000D01*
X15064999Y11127499D01*
D02*
G37*
G36*
X12605000D02*
X12454999Y11127499D01*
X12455000Y11150000D01*
X12605000Y11150000D01*
X12605000Y11127499D01*
D02*
G37*
G36*
X10145000D02*
X9995000Y11127499D01*
X9995000Y11150000D01*
X10145000Y11150000D01*
X10145000Y11127499D01*
D02*
G37*
G36*
X18160001Y10895000D02*
X18137500D01*
Y11045000D01*
X18160001D01*
Y10895000D01*
D02*
G37*
G36*
X15700000D02*
X15677499D01*
Y11045000D01*
X15700000D01*
Y10895000D01*
D02*
G37*
G36*
X13239999D02*
X13217500D01*
Y11045000D01*
X13239999D01*
Y10895000D01*
D02*
G37*
G36*
X10780000D02*
X10757500D01*
Y11045000D01*
X10780000D01*
Y10895000D01*
D02*
G37*
G36*
X18202499Y11045000D02*
X18202501Y10895000D01*
X18180000Y10895000D01*
X18180000Y11045000D01*
X18202499Y11045000D01*
D02*
G37*
G36*
X15742500D02*
X15742500Y10895000D01*
X15720000Y10895000D01*
X15720000Y11045000D01*
X15742500Y11045000D01*
D02*
G37*
G36*
X13282500D02*
X13282500Y10895000D01*
X13260001Y10895000D01*
X13260001Y11045000D01*
X13282500Y11045000D01*
D02*
G37*
G36*
X10822500D02*
X10822501Y10895000D01*
X10800000Y10895000D01*
X10800000Y11045000D01*
X10822500Y11045000D01*
D02*
G37*
G36*
X18160001Y10685000D02*
X18137500D01*
Y10835000D01*
X18160001D01*
Y10685000D01*
D02*
G37*
G36*
X15700000D02*
X15677499D01*
Y10835000D01*
X15700000D01*
Y10685000D01*
D02*
G37*
G36*
X13239999D02*
X13217500D01*
Y10835000D01*
X13239999D01*
Y10685000D01*
D02*
G37*
G36*
X10780000D02*
X10757500D01*
Y10835000D01*
X10780000D01*
Y10685000D01*
D02*
G37*
G36*
X18202499Y10835000D02*
X18202501Y10684999D01*
X18180000Y10685000D01*
X18180000Y10835000D01*
X18202499Y10835000D01*
D02*
G37*
G36*
X15742500D02*
X15742500Y10684999D01*
X15720000Y10685000D01*
X15720000Y10835000D01*
X15742500Y10835000D01*
D02*
G37*
G36*
X13282500D02*
X13282500Y10684999D01*
X13260001Y10685000D01*
X13260001Y10835000D01*
X13282500Y10835000D01*
D02*
G37*
G36*
X10822500D02*
X10822501Y10684999D01*
X10800000Y10685000D01*
X10800000Y10835000D01*
X10822500Y10835000D01*
D02*
G37*
G36*
X17522501Y7785000D02*
X17500000D01*
Y7935000D01*
X17522501D01*
Y7785000D01*
D02*
G37*
G36*
X17480000Y7935000D02*
X17480000Y7785000D01*
X17457500Y7785000D01*
X17457500Y7935000D01*
X17480000Y7935000D01*
D02*
G37*
G36*
X15062500Y7785000D02*
X15039999D01*
Y7935000D01*
X15062500D01*
Y7785000D01*
D02*
G37*
G36*
X15020000Y7935000D02*
X15020000Y7785000D01*
X14997501Y7785000D01*
X14997501Y7935000D01*
X15020000Y7935000D01*
D02*
G37*
G36*
X12602500Y7785000D02*
X12580000D01*
Y7935000D01*
X12602500D01*
Y7785000D01*
D02*
G37*
G36*
X12560000Y7935000D02*
X12560000Y7785000D01*
X12537500Y7785000D01*
X12537500Y7935000D01*
X12560000Y7935000D01*
D02*
G37*
G36*
X10142500Y7785000D02*
X10120000D01*
Y7935000D01*
X10142500D01*
Y7785000D01*
D02*
G37*
G36*
X10100000Y7935000D02*
X10100000Y7785000D01*
X10077500Y7785000D01*
X10077500Y7935000D01*
X10100000Y7935000D01*
D02*
G37*
G36*
X17522501Y7575000D02*
X17500000D01*
Y7725000D01*
X17522501D01*
Y7575000D01*
D02*
G37*
G36*
X17480000Y7725000D02*
X17480000Y7575000D01*
X17457500Y7575000D01*
X17457500Y7725000D01*
X17480000Y7725000D01*
D02*
G37*
G36*
X15062500Y7575000D02*
X15039999D01*
Y7725000D01*
X15062500D01*
Y7575000D01*
D02*
G37*
G36*
X15020000Y7725000D02*
X15020000Y7575000D01*
X14997501Y7575000D01*
X14997501Y7725000D01*
X15020000Y7725000D01*
D02*
G37*
G36*
X12602500Y7575000D02*
X12580000D01*
Y7725000D01*
X12602500D01*
Y7575000D01*
D02*
G37*
G36*
X12560000Y7725000D02*
X12560000Y7575000D01*
X12537500Y7575000D01*
X12537500Y7725000D01*
X12560000Y7725000D01*
D02*
G37*
G36*
X10142500Y7575000D02*
X10120000D01*
Y7725000D01*
X10142500D01*
Y7575000D01*
D02*
G37*
G36*
X10100000Y7725000D02*
X10100000Y7575000D01*
X10077500Y7575000D01*
X10077500Y7725000D01*
X10100000Y7725000D01*
D02*
G37*
G36*
X18285001Y7470000D02*
X18135001Y7470000D01*
X18135001Y7492500D01*
X18285001Y7492501D01*
X18285001Y7470000D01*
D02*
G37*
G36*
X15825000D02*
X15675000Y7470000D01*
X15675000Y7492500D01*
X15825002Y7492501D01*
X15825000Y7470000D01*
D02*
G37*
G36*
X13364999D02*
X13214999Y7470000D01*
X13214999Y7492500D01*
X13365001Y7492501D01*
X13364999Y7470000D01*
D02*
G37*
G36*
X10905001D02*
X10755000Y7470000D01*
X10755001Y7492500D01*
X10905001Y7492501D01*
X10905001Y7470000D01*
D02*
G37*
G36*
X18285001Y7427500D02*
X18135001D01*
Y7450000D01*
X18285001D01*
Y7427500D01*
D02*
G37*
G36*
X15825000D02*
X15675000D01*
Y7450000D01*
X15825000D01*
Y7427500D01*
D02*
G37*
G36*
X13364999D02*
X13214999D01*
Y7450000D01*
X13364999D01*
Y7427500D01*
D02*
G37*
G36*
X10905001D02*
X10755000D01*
Y7450000D01*
X10905001D01*
Y7427500D01*
D02*
G37*
G36*
X18285001Y6950000D02*
X18135001Y6950000D01*
X18135001Y6972500D01*
X18285001Y6972500D01*
X18285001Y6950000D01*
D02*
G37*
G36*
X15825000D02*
X15675000Y6950000D01*
X15675000Y6972500D01*
X15825002Y6972500D01*
X15825000Y6950000D01*
D02*
G37*
G36*
X13364999D02*
X13214999Y6950000D01*
X13214999Y6972500D01*
X13365001Y6972500D01*
X13364999Y6950000D01*
D02*
G37*
G36*
X10905001D02*
X10755000Y6950000D01*
X10755001Y6972500D01*
X10905001Y6972500D01*
X10905001Y6950000D01*
D02*
G37*
G36*
X18285001Y6907500D02*
X18135001D01*
Y6930000D01*
X18285001D01*
Y6907500D01*
D02*
G37*
G36*
X15825000D02*
X15675000D01*
Y6930000D01*
X15825000D01*
Y6907500D01*
D02*
G37*
G36*
X13364999D02*
X13214999D01*
Y6930000D01*
X13364999D01*
Y6907500D01*
D02*
G37*
G36*
X10905001D02*
X10755000D01*
Y6930000D01*
X10905001D01*
Y6907500D01*
D02*
G37*
G36*
X16932500Y6705000D02*
X16910001D01*
Y6855000D01*
X16932500D01*
Y6705000D01*
D02*
G37*
G36*
X16889999Y6855000D02*
X16889999Y6705000D01*
X16867500Y6705000D01*
X16867500Y6855000D01*
X16889999Y6855000D01*
D02*
G37*
G36*
X14472501Y6705000D02*
X14450000D01*
Y6855000D01*
X14472501D01*
Y6705000D01*
D02*
G37*
G36*
X14430000Y6855000D02*
X14430000Y6705000D01*
X14407500Y6705000D01*
X14407500Y6855000D01*
X14430000Y6855000D01*
D02*
G37*
G36*
X12012500Y6705000D02*
X11990000D01*
Y6855000D01*
X12012500D01*
Y6705000D01*
D02*
G37*
G36*
X11970000Y6855000D02*
X11970000Y6705000D01*
X11947500Y6705000D01*
X11947500Y6855000D01*
X11970000Y6855000D01*
D02*
G37*
G36*
X9552500Y6705000D02*
X9530000D01*
Y6855000D01*
X9552500D01*
Y6705000D01*
D02*
G37*
G36*
X9510000Y6855000D02*
X9510000Y6705000D01*
X9487500Y6705000D01*
X9487500Y6855000D01*
X9510000Y6855000D01*
D02*
G37*
G36*
X16932500Y6495000D02*
X16910001D01*
Y6645000D01*
X16932500D01*
Y6495000D01*
D02*
G37*
G36*
X16889999Y6645000D02*
X16889999Y6495000D01*
X16867500Y6495000D01*
X16867500Y6645000D01*
X16889999Y6645000D01*
D02*
G37*
G36*
X14472501Y6495000D02*
X14450000D01*
Y6645000D01*
X14472501D01*
Y6495000D01*
D02*
G37*
G36*
X14430000Y6645000D02*
X14430000Y6495000D01*
X14407500Y6495000D01*
X14407500Y6645000D01*
X14430000Y6645000D01*
D02*
G37*
G36*
X12012500Y6495000D02*
X11990000D01*
Y6645000D01*
X12012500D01*
Y6495000D01*
D02*
G37*
G36*
X11970000Y6645000D02*
X11970000Y6495000D01*
X11947500Y6495000D01*
X11947500Y6645000D01*
X11970000Y6645000D01*
D02*
G37*
G36*
X9552500Y6495000D02*
X9530000D01*
Y6645000D01*
X9552500D01*
Y6495000D01*
D02*
G37*
G36*
X9510000Y6645000D02*
X9510000Y6495000D01*
X9487500Y6495000D01*
X9487500Y6645000D01*
X9510000Y6645000D01*
D02*
G37*
G36*
X4155005Y5339926D02*
X4005005Y5339926D01*
X4005005Y5362426D01*
X4155006Y5362426D01*
X4155005Y5339926D01*
D02*
G37*
G36*
Y5297426D02*
X4005005D01*
Y5319926D01*
X4155005D01*
Y5297426D01*
D02*
G37*
G36*
X4650005Y4374925D02*
X4627505D01*
Y4524926D01*
X4650005D01*
Y4374925D01*
D02*
G37*
G36*
X4150005D02*
X4127505D01*
Y4524926D01*
X4150005D01*
Y4374925D01*
D02*
G37*
G36*
X4692505Y4524925D02*
X4692506Y4374925D01*
X4670005Y4374925D01*
X4670005Y4524926D01*
X4692505Y4524925D01*
D02*
G37*
G36*
X4192505D02*
X4192506Y4374925D01*
X4170005Y4374925D01*
X4170005Y4524926D01*
X4192505Y4524925D01*
D02*
G37*
D58*
X8080000Y1765000D02*
Y2295000D01*
X7720000Y1765000D02*
Y2295000D01*
Y595000D02*
Y1125000D01*
X8080000Y595000D02*
Y1125000D01*
D59*
X2856970Y2850000D02*
G03*
X2856970Y2850000I-7620J0D01*
G01*
X3007430Y2968364D02*
Y3010020D01*
Y2689980D02*
Y2731636D01*
Y2689980D02*
X3492570D01*
Y2968364D02*
Y3010020D01*
X3007430D02*
X3492570D01*
Y2689980D02*
Y2731636D01*
D63*
X8959999Y1480492D02*
G03*
X8959999Y1272646I-60000J-103923D01*
G01*
X8959999Y1688339D02*
G03*
X8959999Y1480492I-60000J-103923D01*
G01*
X8959999Y1896185D02*
G03*
X8959999Y1688339I-60000J-103923D01*
G01*
X8960000Y2104031D02*
G03*
X8960000Y1896185I-60000J-103923D01*
G01*
X8960000Y2311877D02*
G03*
X8960000Y2104031I-60000J-103923D01*
G01*
X8960000Y2519723D02*
G03*
X8960000Y2311877I-60000J-103923D01*
G01*
D64*
X9905985Y217586D02*
G03*
X10342512Y552545I196214J196214D01*
G01*
X10340313Y3041255D02*
G03*
X9903785Y3376214I-240313J138745D01*
G01*
X8620600Y3368300D02*
X9903785Y3376214D01*
X8620600Y217586D02*
X9905985D01*
X8620600D02*
Y3368300D01*
X10340313Y554745D02*
Y3041255D01*
%TF.MD5,1773f10dd5e90b01c799d888363b0d84*%
M02*
