M48
;Layer_Color=9474304
;FILE_FORMAT=4:4
METRIC,LZ
;TYPE=PLATED
T01F00S00C0.4000
T02F00S00C0.8300
T03F00S00C0.9000
T04F00S00C1.0000
T05F00S00C1.1000
T06F00S00C1.2300
T07F00S00C1.3000
T08F00S00C1.4750
T09F00S00C1.5000
T10F00S00C1.6600
T11F00S00C2.0000
T12F00S00C2.1000
T13F00S00C2.3000
;TYPE=NON_PLATED
T14F00S00C4.4000
%
T01
X0100176Y0002695
X0101065Y0002441
X0101954Y0002695
X0102589Y000333
X0102843Y0004219
X0102589Y0005108
X0101954Y0005743
X0101065Y0005997
X0100176Y0005743
X0099541Y0005108
X0099287Y0004219
X0099541Y000333
X0100049Y0030254
X0100938Y003
X0101827Y0030254
X0102462Y0030889
X0102716Y0031778
X0102462Y0032667
X0101827Y0033302
X0100938Y0033556
X0100049Y0033302
X0099414Y0032667
X009916Y0031778
X0099414Y0030889
X00962Y00418
X00946
X00953999Y00434
X00937999
X00946Y0045
X00962
X00953999Y00466
X00937999
X00946Y00482
X00962
X00953999Y00498
X00937999
X00946Y00514
X00962
X00929999
Y00482
Y0045
X00913999
X00922Y00434
X00906
X00913999Y00418
X00929999
X00558Y00478
X0041Y00482
X00394
X00418Y00498
X00426Y00514
X00408Y00522993
X00322Y0053
X00306
X0029
X00274
X00258
X00266Y00514
X00282
X00298
X00314
X00306Y00498
X00322
X00338
X00314Y00482
X00298
X00282
X00266
X0025
X00242Y00498
X00258
X00274
X0029
X0025Y00514
X00234
X00218
Y0045
X00202
X00194Y00466
X00162
X00146
X00154Y0045
X00146Y00434
X00162
X00178
X00226
X00278278Y00438278
X0029Y00434
X00306
X00322
X00338
X00354
X0037
X00386
X00378Y0045
X00154Y00482
X00146Y00498
X00162
X00154Y00514
X00146Y0053
X0013
X00114
X00098
X00082
X00066
X0005
X00034
X00018
X00026Y00514
X00042
X00058
X00074
X0009
X00106
X00122
X00138
X0013Y00498
X00114
X00098
X00082
X00066
X0005
X00034
X00018
X00026Y00482
X00042
X00058
X00074
X0009
X00106
X00122
X00138
X0013Y00466
X00114
X00098
X00082
X00066
X0005
X00034
X00018
X00026Y0045
X00042
X00058
X00074
X0009
X00106
X00122
X00138
X0013Y00434
X00114
X00098
X00082
X00066
X0005
X00034
X00018
X00026Y00546
X00042
X00058
X00074
X0009
X00106
X00122
X00138
X00114Y00562
X00098
X00082
X00066
X0005
X00034
X00018
X00026Y00578
X00042
X00058
X00074
X0009
X00106
X00122
X00114Y00594
X00098
X00082
X00066
X0005
X00034
X00018
X00026Y0061
X00042
X00058
X00074
X0009
X00106
X00122
X00114Y00626
X00098
X00082
X00066
X0005
X00034
X00018
X00026Y00642
X00042
X00058
X00074
X0009
X00106
X00122
X00114Y00658
X00098
X00082
X00066
X0005
X00034
X00018
X00026Y00674
X00018Y0069
Y00754
X00034
X00042Y0077
X00058
X00074
X0009
X00106
X00122
X00114Y00786
X00098
X00082
X00066
X0005
X00034
X00018
X00026Y00802
X00042
X00058
X00074
X0009
X00106
X00122
X00114Y00818
X00098
X00082
X00066
X0005
X00034
X00018
X00026Y00834
X00042
X00058
X00074
X0009
X00106
X00122
X00114Y00849999
X00098
X00082
X00066
X0005
X00034
X00018
X00026Y00866
X00042
X00058
X00074
X0009
X00106
X00122
X00114Y00882
X00098
X00082
X00066
X0005
X00034
X00018
X00026Y00897999
X00042
X00058
X00074
X0009
X00106
X00122
X00114Y00913999
X00098
X00082
X00066
X0005
X00034
X00018
X00026Y00929999
X00042
X00058
X00074
X0009
X00106
X00122
X00114Y00754
X00098
X00082
X00106Y00738
X00122
X00114Y00722
X00122Y00706
X00106
X00098Y0069
X00114
X00122Y00674
X00106
X0009
X00026Y0077
X0017
X00186
X00202
X00218
X00234
X0025
X00266
X00282
X00298
X00314
X0033
X00346
X00362
X00378
X00394
X0041
X00426
X00442
X00458
X00474
X0049
X00506
X00522
X00538
X0053Y00786
X00514
X00498
X00482
X00466
X0045
X00434
X00418
X00402
X00386
X0037
X00354
X00338
X00322
X00306
X0029
X00274
X00258
X00242
X00226
X0021
X00194
X00178
X00162
X0017Y00802
X00186
X00202
X00218
X00234
X0025
X00266
X00282
X00298
X00314
X0033
X00346
X00362
X00378
X00394
X0041
X00426
X00442
X00458
X00474
X0049
X00506
X00522
X00538
X0053Y00818
X00514
X00498
X00482
X00466
X0045
X00434
X00418
X00402
X00386
X0037
X00354
X00338
X00322
X00306
X0029
X00274
X00258
X00242
X00226
X0021
X00194
X00178
X00162
X0017Y00834
X00186
X00202
X00218
X00234
X0025
X00266
X00282
X00298
X00314
X0033
X00346
X00362
X00378
X00394
X0041
X00426
X00442
X00458
X00474
X0049
X00506
X00522
X00538
X0053Y00849999
X00514
X00498
X00482
X00466
X0045
X00434
X00418
X00402
X00386
X0037
X00354
X00338
X00322
X00306
X0029
X00274
X00258
X00242
X00226
X0021
X00194
X00178
X00162
X0017Y00866
X00186
X00202
X00218
X00234
X0025
X00266
X00282
X00298
X00314
X0033
X00346
X00362
X00378
X00394
X0041
X00426
X00442
X00458
X00474
X0049
X00506
X00522
X00538
X0053Y00882
X00514
X00498
X00482
X00466
X0045
X00434
X00418
X00402
X00386
X0037
X00354
X00338
X00322
X00306
X0029
X00274
X00258
X00242
X00226
X0021
X00194
X00178
X00162
X0017Y00897999
X00186
X00202
X00218
X00234
X0025
X00242Y00913999
X00226
X0021
X00194
X00178
X00162
X0017Y00929999
X00186
X00202
X00218
X00282
X00298
X00314
X0033
X00346
X00362
X00378
X00394
X0041
X00426
X00442
X00458
X00474
X0049
X00506
X00498Y00754
X00514
X0053
X00538Y00738
X00522
X00506
X0049
X00474
X00458
X00442
X00426
X0041
X00394
X00378
X00362
X00346
X0033
X00314
X00298
X00282
X00266
X0025
X00234
X00218
X00202
X00186
X0017
X00162Y00754
X00178
X00194
X0021
X00226
X00242
X00258
X00274
X0029
X00306
X00322
X00338
X00354
X0037
X00386
X00402
X00418
X00434
X0045
X00466
X00482
Y00722
X00498
X00514
X0053
X00538Y00706
X00522
X00506
X0049
X00474
X00458
X00442
X00426
X0041
X00394
X00378
X00362
X00346
X0033
X00314
X00298
X00282
X00266
X0025
X00234
X00218
X00202
X00186
X0017
X00162Y00722
X00178
X00194
X0021
X00226
X00242
X00258
X00274
X0029
X00306
X00322
X00338
X00354
X0037
X00386
X00402
X00418
X00434
X0045
X00466
Y0069
X00482
X00498
X00514
X0053
X00538Y00674
X00522
X00506
X0049
X00474
X00458
X00442
X00426
X0041
X00394
X00378
X00362
X00346
X0033
X00314
X00298
X00282
X00266
X0025
X00234
X00218
X00202
X00186
X0017
X00162Y0069
X00178
X00194
X0021
X00226
X00242
X00258
X00274
X0029
X00306
X00322
X00338
X00354
X0037
X00386
X00402
X00418
X00434
X0045
Y00658
X00466
X00482
X00498
X00514
X0053
X00538Y00642
X00522
X00506
X0049
X00474
X00458
X00442
X00426
X0041
X00394
X00378
X00362
X00346
X0033
X00314
X00298
X00282
X00266
X0025
X00234
X00218
X00202
X00186
X0017
X00162Y00658
X00178
X00194
X0021
X00226
X00242
X00258
X00274
X0029
X00306
X00322
X00338
X00354
X0037
X00386
X00402
X00418
X00434
X00442Y0061
X00458
X00474
X0049
X00506
X00522
X00538
X00539Y00547
X00426Y00546
X00418Y00562
X00402
X00386
X0037
X00354
X00338
X00322
X00306
X0029
X00274
X00282Y00578
X00298
X00314
X0033
X00346
X00362
X00378
X00394
X0041
X00426
X00418Y00594
X00434
X00426Y0061
X0041
X00394
X00378
X00362
X00346
X0033
X00314
X00306Y00594
X00322
X00338
X00354
X0037
X00386
X00402
X0029
X0025Y0061
X00234
X00218
X00202
X00186
X0017
X00162Y00594
X00178
X00194
X0021
X00226
X00218Y00578
X00202
X00186
X0017
X00178Y00562
Y00626
X00194
X0021
X00226
X00242
X00258
X00162
X00234Y00546
X00554Y0061
X0057
X00586
X00602
X00618
X00634
X0065
X00666
X00682
X00698
X00714
X0073
X00746
X00762
X00778
X00794
X00809999
X00802Y00594
X00786
X00794Y00578
Y00546
Y00642
X00778
X00762
X00746
X0073
X00714
X00698
X00682
X00666
X0065
X00634
X00618
X00602
X00586
X0057
X00554
X00546Y00658
X00562
X00578
X00594
X0061
X00626
X00642
X00658
X00674
X0069
X00706
X00722
X00738
X00754
X0077
X00762Y00674
X00746
X0073
X00714
X00698
X00682
X00666
X0065
X00634
X00618
X00602
X00586
X0057
X00554
X00546Y0069
X00562
X00578
X00594
X0061
X00626
X00642
X00658
X00674
X0069
X00706
X00722
X00738
X0073Y00706
X00714
X00698
X00682
X00666
X0065
X00634
X00618
X00602
X00586
X0057
X00554
X00546Y00722
X00562
X00578
X00594
X0061
X00626
X00642
X00658
X00674
X0069
X00706
X00698Y00738
X00682
X00666
X0065
X00634
X00618
X00602
X00586
X0057
X00554
X00546Y00754
X00562
X00578
X00594
X0061
X00626
X00642
X00658
X00674
X00666Y0077
X0065
X00634
X00618
X00602
X00586
X0057
X00554
X00546Y00786
X00562
X00578
X00594
X0061
X00626
X00642
X00634Y00802
X00618
X00602
X00586
X0057
X00554
X00546Y00818
X00562
X00578
X00594
X0061
X00602Y00834
X00586
X0057
X00554
X00546Y00849999
X00562
X00578
X0057Y00866
X00554
X00546Y00882
X0061
X00626
X00642
X00658
X00674
X0069
X00706
X00722
X00738
X00754
X0077
X00786
X00778Y00866
X00762
X00746
X0073
X00714
X00698
X00682
X00666
X0065
X00634
X00642Y00849999
X00658
X00674
X0069
X00706
X00722
X00738
X00754
X0077
X00786
X00778Y00834
X00762
X00746
X0073
X00714
X00698
X00682
X00666
X00674Y00818
X0069
X00706
X00722
X00738
X00754
X0077
X00786
X00794Y00802
X00778
X00762
X00746
X0073
X00714
X00698
X00706Y00786
X00722
X00738
X00754
X0077
X00786
X00802
X00818
X00826Y0077
X00809999
X00794
X00778
X00762
X00746
X0073
X00738Y00754
X00754
X0077
X00786
X00802
X00818
X00826Y00738
X00842
X00857999
X00873999
X00889999
X00906
X00922
X00913999Y00754
X00929999
X00922Y0077
X00906
X00889999
X00873999
X00882Y00786
X00897999
X00913999
X00929999
X00922Y00802
X00906
X00889999
Y00834
X00882Y00849999
X00897999
X00913999
Y00818
X00929999
Y00882
X00889999Y00866
X00866Y00882
X00849999
X00834
X00809999Y00866
Y00834
X00818Y00818
X00849999
Y00849999
X00842Y00929999
X00826
X00809999
X00794
X00778
X00762
X00746
X0073
X00714
X00698
X00682
X00666
X0065
X00634
X00618
X00602
X00586
X0057
X00762Y00738
X00778
X00794
X00809999
X00802Y00722
X00818
X00834
X00849999
X00866
X00882
X00897999
X00906Y00706
X00889999
X00873999
X00857999
X00842
X00826
X00809999
X00794
X00786Y00722
X0077
X00802Y0069
X00818
X00834
X00849999
X00866
X00882
X00897999
X00906Y00674
X00889999
X00873999
X00857999
X00842
X00826
X00834Y00658
X00849999
X00866
X00882
X00897999
X00906Y00642
X00889999
X00873999
X00857999
X008461Y00598
X00906Y0061
X00897999Y00626
X00929999Y00642
Y00674
Y00706
X00897999Y00754
X00882
X00929999Y0061
X00906Y00578
Y00546
X00946Y0061
X00953999Y00626
X00937999
X00946Y00642
X00962
X00962Y00657
Y00678
X00962Y00706
X00977999
X00993999
X01009999
X01026
X01033999Y00738
X01017999
X01002
X00986
X00969999
X00953999
X00937999
X00946Y00754
X00962
X00977999
X01001Y00765
Y00786
X01017999Y00802
X01033999
X01026Y00818
X01009999
X01017999Y00834
X01033999
X01026Y00849999
X01009999
X00993999
X00977999
X00962
X00969999Y00866
X00986
X01002
X01017999
X01033999
X01026Y00882
X01009999
X00993999
X00977999
X00962
X00946
X00953999Y00866
X00937999Y00802
X00946Y00786
X00953999Y0077
X00937999
X00946Y00706
X01017999Y00658
X01033999
X01049999
X01065999
X01113999
X01105999Y00674
X01121999
X01137999
X01145999Y00658
X01121999Y00642
X01105999
X01113999Y00626
Y0069
X01097999
X01105999Y00706
X01113999Y00738
X01097999
X01083Y00736
X01105999Y00754
X01113999Y0077
X01129999
X01145999
X01161999
X01177999
X01193999
X01185999Y00786
X01169999
X01153999
X01137999
X01121999
X01105999
X01113999Y00802
X01129999
X01145999
X01161999
X01177999
X01169999Y00818
X01185999
X01177999Y00834
X01161999
X01145999
X01129999
X01113999
X01121999Y00849999
X01137999
X01153999
X01145999Y00866
X01129999
X01113999
X01097999
X01105999Y00882
X01121999
X01072Y00872
X01121999Y00818
X01137999
X01153999
Y00754
X01169999
X01185999
X01201999
X01217999
X01233999
X01241999Y00738
X01257999
X01273999
X01265999Y00706
X01249999
X01233999
X01217999
X01201999
X01185999
X01193999Y00738
X01209999
X01225999
X01177999
X01161999
X01097999Y0077
X01065999
X01033999
X01009999Y00642
X01185999
X01201999
X01208Y00657
Y00678
X01193999Y00626
X01185999Y0061
X01257999Y00626
X01249999Y00642
X01257999Y00658
X01273999
X01289999
X01305999
X01321999
X01329Y00736
X01281999Y00786
X01273999Y00802
X01257999
X01265999Y00818
X01273999Y00834
X01257999
X01249999Y00849999
X01265999
X01273999Y00866
X01257999
X01241999
X01225999
X01217999Y00882
X01233999
X01249999
X01265999
X01281999
X01318Y00872
X01233999Y00849999
X01201999Y00882
X01247Y00786
Y00765
X01281999Y0061
X01353999Y00626
X01361999Y00642
X01353999Y00658
X01361999Y00674
X01377999
X01393999
X01401999Y0069
X01393999Y00706
X01425999
X01441999
X01457999
X01473999
X01489999
X01505999
X01521999
X01513999Y00738
X01497999
X01481999
X01465999
X01449999
X01433999
X01417999
X01401999
X01393999Y00754
X01409999
X01425999
X01441999
X01457999
X01473999
X01493Y00765
Y00786
X01513999Y00802
X01505999Y00818
X01521999
X01513999Y00834
X01505999Y00849999
X01521999
X01529999Y00866
X01513999
X01497999
X01481999
X01465999
X01457999Y00882
X01473999
X01489999
X01505999
X01521999
X01564Y00872
X01593999Y00866
X01609999
X01625999
X01617999Y00882
X01601999
Y00849999
X01617999
X01633999
X01649999
X01657999Y00834
X01641999
X01625999
X01609999
X01601999Y00818
X01617999
X01633999
X01649999
X01665999
X01673999Y00802
X01657999
X01641999
X01625999
X01609999
X01601999Y00786
X01617999
X01633999
X01649999
X01665999
X01681999
X01689999Y0077
X01673999
X01657999
X01641999
X01625999
X01609999
X01593999
X01601999Y00754
X01593999Y00738
X01575Y00736
X01601999Y00706
X01593999Y0069
X01601999Y00674
X01617999
X01633999
X01641999Y0069
Y00658
Y00626
X01609999
X01601999Y00642
X01609999Y00658
X01561999
X01545999
X01529999
X01513999
X01505999Y00642
X01489999
X01457999
X01441999
X01425999
X01433999Y00626
X01425999Y0061
X01441999
X01393999
X01401999Y00626
X01393999Y00642
X01401999Y00658
X01454Y00657
Y00678
X01433999Y0077
X01417999
X01401999
X01385999
X01369999
X01353999
X01337999
X01345999Y00754
X01361999
X01353999Y00738
X01345999Y00706
X01361999
X01353999Y0069
X01361999Y00786
X01377999
X01393999
X01409999
X01425999
X01441999
X01417999Y00802
X01401999
X01385999
X01369999
X01361999Y00818
X01377999
X01393999
X01409999
X01425999
X01417999Y00834
X01401999
X01385999
X01369999
X01361999Y00849999
X01377999
X01393999
X01385999Y00866
X01369999
X01353999
X01337999
X01361999Y00882
X01433999Y00866
X01465999Y00834
X01489999Y00849999
X01529999Y0077
X01649999Y00754
X01665999
X01681999
X01697999
X01713999
X01721999Y00738
X01705999
X01689999
X01673999
X01657999
X01641999
X01681999Y00706
X01697999
X01713999
X01729999
X017Y00678
Y00657
X01697999Y00642
X01681999
X01689999Y00626
X01681999Y0061
X01521999
X01697999Y00849999
X01705999Y00866
X01721999
X01713999Y00882
X01729999
Y00849999
X01697999Y00882
X01665999
X01745999
X01761999
X01777999
X01785999Y00897999
X01801999
X01793999Y00913999
X01809999
X01825999
X01777999
X01761999
X01769999Y00897999
X01753999
X01737999
Y00866
X01753999
X01769999
X01761999Y00849999
X01745999
X01753999Y00834
X01769999
X01761999Y00818
X01745999
X01753999Y00802
X01769999
Y0077
X01801999
X01833999
X01849999
X01865999
X01881999
X01897999
X01889999Y00786
X01873999
X01857999
X01865999Y00802
X01881999
X01897999
X01889999Y00818
X01873999
X01857999
X01865999Y00834
X01881999
X01897999
X01889999Y00849999
X01873999
X01857999
X01865999Y00866
X01881999
X01897999
X01889999Y00882
X01873999
X01857999
X01865999Y00897999
X01881999
X01897999
X01889999Y00913999
X01849999Y00866
X01833999
X0181Y00872
X01849999Y00834
Y00802
X01841999Y00754
X01849999Y00738
X01821Y00736
X01841999Y00706
X01849999Y0069
X01857999Y00674
X01873999
X01889999
Y00706
X01897999Y00738
X01889999Y00754
Y00642
Y0061
X01849999Y00626
X01857999Y00642
X01849999Y00658
X01817999
X01801999
X01785999
X01769999
X01753999
X01745999Y00642
X01753999Y00626
X01777999Y0061
X01761999Y00706
X01745999
X01753999Y00738
X01769999
X01737999
X01739Y00765
Y00786
X01737999Y00962
Y00993999
X01756Y0099
X01793999Y01009999
X01801999Y01026
X01793999Y01042
X01809999
X01801999Y01057999
X01793999Y01073999
X01785999Y01089999
X01769999
X01737999
X01793999Y01105999
X01801999Y01121999
X01817999
X01833999
X01849999
X01865999
X01881999
X01897999
X01889999Y01105999
X01873999
X01857999
X01841999
X01827Y01097
Y01076
X01873999Y01073999
X01889999
X01897999Y01089999
X01881999
X01897999Y01057999
X01889999Y01042
X01897999Y01026
X01881999
X01865999
X01849999
X01841999Y01009999
X01857999
X01873999
X01889999
X01897999Y00993999
X01881999
X01865999
X01849999
X01833999
X01825999Y00977999
X01841999
X01857999
X01873999
X01889999
X01897999Y00962
X01881999
X01865999
X01849999
X01833999
X01817999
X01809999Y01153999
X01825999
X01841999
X01857999
X01873999
X01889999
X01897999Y01169999
X01881999
X01866Y01184
Y01205
X01897999Y01201999
X01889999Y01217999
X01897999Y01233999
X01881999
X01873999Y01249999
X01889999
X01817999Y01233999
X01825999Y01217999
X01817999Y01201999
X01801999
X01785999
X01769999
X01801999Y01169999
X01817999
X01833999
X01849999
X01793999Y01153999
Y01249999
X01721999Y01233999
X01713999Y01217999
X01721999Y01201999
X01705999
X01697999Y01185999
X01713999
X01729999
X01721999Y01169999
X01713999Y01153999
X01729999
X01697999
X01681999
Y01185999
Y01217999
X01633999
X01641999Y01233999
X01633999Y01249999
X0162Y01205
Y01184
X01609999Y01169999
X01593999
X01577999
X01561999
X01545999
X01553999Y01153999
X01569999
X01585999
X01601999
X01617999
X01633999
X01641999Y01169999
Y01121999
X01657999
X01673999
X01665999Y01105999
X01681999
X01689999Y01089999
X01705999
X01721999
X01713999Y01105999
X01729999
X01721999Y01121999
X01713999Y01073999
X01697999
X01681999
X01665999
X01649999
X01633999
X01641999Y01089999
X01657999
X01673999
Y01057999
X01689999
X01705999
X01697999Y01042
X01713999
X01705999Y01026
X01689999
X01673999
X01657999
X01641999
X01625999
X01609999
X01617999Y01009999
X01633999
X01649999
X01665999
X01681999
X01697999
X01713999
X01721999Y00993999
X01705999
X01689999
X01673999
X01657999
X01641999
X01625999
X01649999Y00977999
X01665999
X01681999
X01697999
X01713999
X01729999
X01721999Y00962
X01705999
X01689999
X01673999
X01657999
X01609999
X01593999
X01577999
X01561999
X01569999Y00977999
X01585999
X01577999Y00993999
X01545999
X01553999Y01009999
X01561999Y01026
X01553999Y01042
X01561999Y01057999
X01581Y01076
Y01097
X01577999Y01121999
X01593999
X01609999
X01625999
X01617999Y01105999
X01633999
X01649999
X01601999
X01561999Y01121999
X01545999
Y01089999
X01529999
X01497999
X01481999
X01465999
X01449999
X01433999
X01417999
X01401999
X01385999
X01377999Y01105999
X01393999
X01409999
X01425999
X01433999Y01121999
X01417999
X01401999
X01385999
X01369999
X01353999
X01337999
X01335Y01097
Y01076
X01361999Y01105999
Y01153999
X01377999
X01393999
X01401999Y01169999
X01385999
X01374Y01184
Y01205
X01393999Y01217999
X01401999Y01233999
X01385999
X01393999Y01249999
X01465999Y01233999
X01473999Y01217999
X01481999Y01201999
X01465999
X01457999Y01185999
X01473999
X01481999Y01169999
X01465999
X01457999Y01153999
X01473999
X01441999
Y01185999
X01465999Y01121999
X01481999
X01473999Y01105999
Y01073999
X01457999
X01441999
X01425999
X01409999
X01393999
X01401999Y01057999
X01417999
X01433999
X01449999
X01465999
X01457999Y01042
X01441999
X01425999
X01409999
X01417999Y01026
X01433999
X01449999
X01465999
X01457999Y01009999
X01441999
X01425999
X01449999Y00993999
X01465999
X01481999
X01473999Y00977999
X01489999
X01497999Y00962
X01513999
X0151Y0099
X01481999Y00962
X01457999Y00977999
X01409999
X01393999
X01377999
X01361999
X01345999
X01353999Y00993999
X01369999
X01385999
X01377999Y01009999
X01361999
X01345999
X01337999Y00993999
Y00962
X01353999
X01369999
X01385999
X01401999
X01417999
X01345999Y01153999
X01353999Y01169999
X01337999
X01529999Y01201999
X01545999
X01561999
X01569999Y01217999
X01521999
X01641999Y01057999
X01657999
X01649999Y01042
X01665999
X01681999
X01313999
X01321999Y01057999
X01305999
Y01026
X01321999
X01313999Y01009999
Y00977999
X01329999
X01321999Y00962
X01264Y0099
X01241999Y00993999
X01225999
X01209999
X01193999
X01185999Y01009999
X01201999
X01217999
X01225999Y01026
X01209999
X01193999
X01177999
X01161999
X01153999Y01042
X01169999
X01185999
X01201999
X01217999
X01225999Y01057999
X01209999
X01193999
X01177999
X01161999
X01153999Y01073999
X01169999
X01185999
X01201999
X01217999
X01225999Y01089999
X01241999
X01233999Y01105999
X01217999
X01225999Y01121999
X01217999Y01153999
X01233999
X01225999Y01169999
X01217999Y01185999
X01233999
X01241999Y01201999
X01225999
X01217999Y01217999
X01225999Y01233999
X01185999Y01249999
X01153999
X01137999
X01145999Y01233999
X01153999Y01217999
X01185999
Y01185999
X01201999
Y01153999
X01185999
X01153999
X01137999
X01121999
X01105999
X01089999
X01073999
X01057999
X01065999Y01169999
X01081999
X01097999
X01113999
X01128Y01184
Y01205
X01089999Y01217999
X01073999
X01081999Y01233999
X01057999Y01249999
X01065999Y01201999
X01049999
X01033999
X00986
X00969999
X00962Y01185999
X00977999
X00986Y01169999
X00977999Y01153999
X00993999
X00962
X00946
Y01185999
X00977999Y01217999
X00969999Y01233999
X00986Y01121999
X00977999Y01105999
X00993999
X01002Y01089999
X00986
X00969999
X00953999
X00937999
X00946Y01105999
X00937999Y01121999
X00946Y01073999
X00962
X00977999
X00969999Y01057999
X00953999
X00937999
X00946Y01042
X00962
X00977999
X00969999Y01026
X00953999
X00937999
X00946Y01009999
X00962
X00977999
X00986Y00993999
X01002
X01018Y0099
X01049999Y00993999
X01057999Y01009999
X01065999Y01026
X01081999
X01073999Y01042
X01057999
X01065999Y01057999
X01081999
X01089Y01076
Y01097
X01105999Y01105999
X01121999
X01137999
X01153999
X01169999
X01185999
X01193999Y01089999
X01209999
X01177999
X01161999
X01145999
X01137999Y01073999
X01145999Y01121999
X01161999
X01177999
X01129999
X01113999
X01097999
X01081999
X01065999
X01057999Y01105999
X01049999Y01089999
X01033999
X01057999Y01073999
X01113999Y01026
X01105999Y01009999
X01121999
X01129999Y00993999
X01145999
X01137999Y00977999
X01153999
X01121999
X01105999
X01089999
X01073999
X01081999Y00993999
X01097999
X01113999
X01217999Y00977999
X01233999
X01249999
X01289999Y01089999
X01305999Y01121999
X01321999
X01313999Y01153999
X01329999
X01321999Y01169999
X01305999
Y01201999
X01321999
X01329999Y01217999
X01321999Y01233999
X01289999Y01201999
X01265999Y01153999
X01145999Y01169999
X00969999Y00993999
X00946Y00977999
X00929999
X00922Y00993999
X00906
X00897999Y01009999
X00913999
Y01042
X00929999
X00922Y01057999
X00906
X00897999Y01073999
X00913999
X00929999
X00922Y01089999
X00906
X00889999
X00873999
X00882Y01105999
X00897999
X00913999
X00929999
X00922Y01121999
X00906
X00889999
X00873999
X00857999
X00842
X00826
X00809999
X00794
X00778
X00762
X00746
X0073
X00714
X00698
X00682
X00666
X0065
X00634
X00618
X00602
X00586
X0057
X00554
X00546Y01137999
X00562
X00578
X00594
X0061
X00626
X00642
X00658
X00674
X0069
X00706
X00722
X00738
X00754
X0077
X00786
X00802
X00818
X00834
X00849999
X00866
X00882
X00897999
X00889999Y01153999
X00873999
X00857999
X00842
X00826
X00809999
X00794
X00778
X00762
X00746
X0073
X00714
X00698
X00682
X00666
X0065
X00634
X00618
X00602
X00586
X0057
X00554
X00546Y01169999
X00562
X00578
X00594
X0061
X00626
X00642
X00658
X00674
X0069
X00706
X00722
X00738
X00754
X0077
X00786
X00802
X00818
X00834
X00849999
X00866
X00882
X00889999Y01185999
X00873999
X00857999
X00842
X00826
X00809999
X00794
X00778
X00762
X00746
X0073
X00714
X00698
X00682
X00666
X0065
X00634
X00618
X00602
X00586
X0057
X00554
X00546Y01201999
X00562
X00578
X00594
X0061
X00626
X00642
X00658
X00674
X0069
X00706
X00722
X00738
X00754
X0077
X00786
X00802
X00818
X00834
X00849999
X00866
X00882
X00889999Y01217999
X00873999
X00857999
X00842
X00826
X00809999
X00794
X00778
X00762
X00746
X0073
X00714
X00698
X00682
X00666
X0065
X00634
X00618
X00602
X00586
X0057
X00554
X00546Y01233999
X00562
X00578
X00594
X0061
X00626
X00642
X00658
X00674
X0069
X00706
X00722
X00738
X00754
X0077
X00786
X00802
X00818
X00834
X00849999
X00866
X00882
X00889999Y01249999
X00873999
X00857999
X00842
X00826
X00809999
X00794
X00778
X00762
X00746
X0073
X00714
X00698
X00682
X00666
X0065
X00634
X00618
X00602
X00586
X0057
X00554
X00546Y01265999
X00562
X00578
X00594
X0061
X00626
X00642
X00658
X00674
X0069
X00706
X00722
X00738
X00754
X0077
X00786
X00802
X00818
X00834
X00849999
X00866
X00882
X00762Y01281999
X00746
X0073
X00714
X00698
X00682
X00666
X0065
X00634
X00618
X00602
X00586
X0057
X00554
X00546Y01297999
X00562
X00578
X00594
X0061
X00626
X00642
X00658
X00674
X0069
X00706
X00722
X00738
X0073Y01313999
X00722Y01105999
X00738
X00754
X0077
X00786
X00802
X00818
X00826Y01089999
X00809999
X00794
X00778
X00762
X00746
X0073
X00714
X00698
X00682
X00666
X0065
X00634
X00618
X00602
X00586
X0057
X00554
X00546Y01105999
X00562
X00578
X00594
X0061
X00626
X00642
X00658
X00674
X0069
X00706
Y01073999
X00722
X00738
X00754
X0077
X00786
X00802
X00818
X00809999Y01057999
X00794
X00778
X00762
X00746
X0073
X00714
X00698
X00682
X00666
X0065
X00634
X00618
X00602
X00586
X0057
X00554
X00546Y01073999
X00562
X00578
X00594
X0061
X00626
X00642
X00658
X00674
X0069
Y01042
X00706
X00722
X00738
X00754
X0077
X00786
X00802
X00818
X00849999
X00882
X00889999Y01026
X00882Y01073999
X00849999Y01105999
Y01009999
X00818
X00786
X0077
X00754
X00738
X00722
X00706
X0069
X00674
X00658
X00642
X00626
X0061
X00594
X00578
X00562
X00546
X00554Y01026
X0057
X00586
X00602
X00618
X00634
X0065
X00666
X00682
X00698
X00714
X0073
X00746
X00762
X00778
X00794
Y00993999
X00778
X00762
X00746
X0073
X00714
X00698
X00682
X00666
X0065
X00634
X00618
X00602
X00586
X0057
X00554
X00546Y00977999
X00562
X00578
X00594
X0061
X00626
X00642
X00658
X00674
X0069
X00706
X00722
X00738
X00754
X0077
X00786
X00802
X00809999Y00962
X00794
X00778
X00762
X00746
X0073
X00714
X00698
X00682
X00666
X0065
X00634
X00618
X00602
X00586
X0057
X00554
X00546Y00946
X00562
X00578
X00594
X0061
X00626
X00642
X00658
X00674
X0069
X00706
X00722
X00738
X00754
X0077
X00786
X00802
X00818
X00834
X00873999Y00962
X00889999
X00906
X00897999Y00977999
X00882
X00866
X00674Y01042
X00658
X00642
X00626
X0061
X00594
X00578
X00562
X00546
X0053
X00514
X00498
X00482
X00466
X0045
X00458Y01057999
X00474
X0049
X00506
X00522
X00538
X0053Y01073999
X00514
X00498
X00482
X00466
X0045
X00434
X00418
X00426Y01089999
X00442
X00458
X00474
X0049
X00506
X00522
X00538
X0053Y01105999
X00514
X00498
X00482
X00466
X0045
X00434
X00418
X00402
X00386
X00394Y01121999
X0041
X00426
X00442
X00458
X00474
X0049
X00506
X00522
X00538
X0053Y01137999
X00514
X00498
X00482
X00466
X0045
X00434
X00418
X00402
X00386
X0037
X00354
X00362Y01153999
X00378
X00394
X0041
X00426
X00442
X00458
X00474
X0049
X00506
X00522
X00538
X0053Y01169999
X00514
X00498
X00482
X00466
X0045
X00434
X00418
X00402
X00386
X0037
X00354
X00338
X00322
X0033Y01185999
X00346
X00362
X00378
X00394
X0041
X00426
X00442
X00458
X00474
X0049
X00506
X00522
X00538
X0053Y01201999
X00514
X00498
X00482
X00466
X0045
X00434
X00418
X00402
X00386
X0037
X00354
X00338
X00322
X00306
X0029
X00298Y01217999
X00314
X0033
X00346
X00362
X00378
X00394
X0041
X00426
X00442
X00458
X00474
X0049
X00506
X00522
X00538
X0053Y01233999
X00514
X00498
X00482
X00466
X0045
X00434
X00418
X00402
X00386
X0037
X00354
X00338
X00322
X00306
X0029
X00274
X00258
X00266Y01249999
X00282
X00298
X00314
X0033
X00346
X00362
X00378
X00394
X0041
X00426
X00442
X00458
X00474
X0049
X00506
X00522
X00538
X0053Y01265999
X00514
X00498
X00482
X00466
X0045
X00434
X00418
X00402
X00386
X0037
X00354
X00338
X00322
X00306
X0029
X00274
X00258
X00242
X00226
X00234Y01281999
X0025
X00266
X00282
X00298
X00314
X0033
X00346
X00362
X00378
X00394
X0041
X00426
X00442
X00458
X00474
X0049
X00506
X00522
X00538
X0053Y01297999
X00514
X00498
X00482
X00466
X0045
X00434
X00418
X00402
X00386
X0037
X00354
X00338
X00322
X00306
X0029
X00274
X00258
X00242
X00226
X0021
X00194
X00218Y01281999
X0025Y01249999
X00282Y01217999
X00314Y01185999
X00346Y01153999
X00378Y01121999
X0041Y01089999
X00442Y01057999
X00474Y01026
X0049
X00506
X00522
X00538
X0053Y01009999
X00514
X00498
X00482
X00506Y00993999
X00522
X00538
X0053Y00977999
X00514
X00538Y00962
X00474
X00458
X00442
X00426
X0041
X00394
X00378
X00362
X00346
X0033
X00314
X00298
X00282
X00266
X0025
X00242Y00977999
X00258
X00274
X0029
X00306
X00322
X00338
X00354
X0037
X00386
X00402
X00418
X00434
X0045
X00442Y00993999
X00426
X0041
X00394
X00378
X00362
X00346
X0033
X00314
X00298
X00282
X00266
X0025
X00234
X00218
X0021Y01009999
X00226
X00242
X00258
X00274
X0029
X00306
X00322
X00338
X00354
X0037
X00386
X00402
X00418
X0041Y01026
X00394
X00378
X00362
X00346
X0033
X00314
X00298
X00282
X00266
X0025
X00234
X00218
X00202
X00186
X00178Y01042
X00194
X0021
X00226
X00242
X00258
X00274
X0029
X00306
X00322
X00338
X00354
X0037
X00386
X00378Y01057999
X00362
X00346
X0033
X00314
X00298
X00282
X00266
X0025
X00234
X00218
X00202
X00186
X0017
X00162Y01073999
X00178
X00194
X0021
X00226
X00242
X00258
X00274
X0029
X00306
X00322
X00338
X00354
X00346Y01089999
X0033
X00314
X00298
X00282
X00266
X0025
X00234
X00218
X00202
X00186
X0017
X00162Y01105999
X00178
X00194
X0021
X00226
X00242
X00258
X00274
X0029
X00306
X00322
X00314Y01121999
X00298
X00282
X00266
X0025
X00234
X00218
X00202
X00186
X0017
X00162Y01137999
X00178
X00194
X0021
X00226
X00242
X00258
X00274
X0029
X00282Y01153999
X00266
X0025
X00234
X00218
X00202
X00186
X0017
X00162Y01169999
X00178
X00194
X0021
X00226
X00242
X00258
X0025Y01185999
X00234
X00218
X00202
X00186
X0017
X00162Y01201999
X00178
X00194
X0021
X00226
X00218Y01217999
X00202
X00186
X0017
X00162Y01233999
X00178
X00194
X00186Y01249999
X0017
X00162Y01265999
Y01042
X00194Y01009999
X00178Y00977999
X00162
X0017Y00962
X00186
X00178Y00946
X00194
X0021
X00258
X00274
X0029
X00306
X00322
X00338
X00354
X0037
X00386
X00402
X00418
X00434
X0045
X00466
X00482
X00226Y00977999
X00162Y00946
X00114
X00098
X00082
X00066
X0005
X00034
X00018
X00026Y00962
X00042
X00058
X00074
X0009
X00106
X00122
X00114Y00977999
X00098
X00082
X00066
X0005
X00034
X00018
X00026Y00993999
X00042
X00058
X00074
X0009
X00106
X00122
X00114Y01009999
X00098
X00082
X00066
X0005
X00034
X00018
X00026Y01026
X00042
X00058
X00074
X0009
X00106
X00122
X00114Y01042
X00098
X00082
X00066
X0005
X00034
X00018
X00026Y01057999
X00042
X00058
X00074
X0009
X00106
X00122
X00114Y01073999
X00098
X00082
X00066
X0005
X00034
X00018
X00026Y01089999
X00042
X00058
X00074
X0009
X00106
X00122
X00114Y01105999
X00098
X00082
X00066
X0005
X00034
X00018
X00026Y01121999
X00042
X00058
X00074
X0009
X00106
X00122
X00114Y01137999
X00098
X00082
X00106Y01153999
X00122
X00114Y01169999
X00098
X00106Y01185999
X00122
X00114Y01201999
X00098
X00106Y01217999
X0009
X00074
X00066Y01233999
X00082
X00098
X00114
X00122Y01217999
Y01249999
X00106
X0009
X00074
X00058
X00042
X00026
X00018Y01265999
X00034
X0005
X00066
X00082
X00098
X00114
X00122Y01281999
X00106
X0009
X00074
X00058
X00042
X00026
X00018Y01297999
Y01329999
X00082Y01297999
X00098
X00114
X0005Y01233999
X00034
X00018
X00026Y01217999
X00042
X00018Y01201999
Y01137999
X00034
X00018Y01361999
Y01393999
Y01425999
Y01457999
Y01489999
Y01521999
X00066
X00074Y01537999
X0009
X00082Y01553999
X00098
X00066
X00058Y01537999
Y01505999
X00106
X00122
X00138
X0013Y01521999
X00138Y01537999
X0013Y01489999
X00114
X00098
X00106Y01473999
X00122
X00138
X0013Y01457999
X00114
X00098
X00082
X0009Y01473999
Y01441999
X00106
X00122
X00138
X0013Y01425999
X00114
X00098
X00082
X0009Y01409999
X00106
X00122
X00138
X0013Y01393999
X00114
X00098
X00122Y01377999
X00138
X0013Y01361999
X0009Y01345999
X00082Y01613
X00063Y01682
X00202Y01697999
Y01729999
X00218
X00234
X0025
X00266
X00282
X00298
X00314
X0033
X00346
X00338Y01713999
X00322
X00306
X00314Y01697999
X0033
X00346
X00338Y01681999
X00322
X00306
X00314Y01665999
X0033
X00346
X00338Y01649999
X00322
X00306
X00314Y01633999
X0033
X00346
X00338Y01617999
X00322
X0033Y01601999
X00346
X00338Y01585999
X00322
X00306
X00314Y01601999
Y01569999
X0033
X00346
X00338Y01553999
X00322
X00306
X0029
X00274
X00282Y01537999
X00298
X00314
X0033
X00306Y01521999
X0029
X00274
X00258
X00242
X0025Y01505999
X00266
X00282
X00298
X00274Y01489999
X00258
X00242
X00234Y01441999
X00218
X00202
X00186
X0017
X00154
X00146Y01457999
X00162
X00178
X00194
X0021
Y01425999
X00194
X00178
X00162
X00146
X00154Y01409999
X0017
X00186
X00202
X00178Y01393999
X00162
X00146
X00154Y01377999
X0017
X00146Y01361999
X00186Y01345999
X00202
X00218
X00234
X0025
X00266
X00282
X00298
X00314
X0033
X00346
X00362
X00378
X00394
X0041
X00426
X00442
X00458
X00474
X0049
X00506
X00522
X00538
X0053Y01361999
X00514
X00498
X00482
X00466
X0045
X00434
X00418
X00402
X00386
X0037
X00354
X00338
X00322
X00306
X0029
X00274
X00258
X00242
X00226
X0021
X00218Y01377999
X00234
X0025
X00266
X00282
X00298
X00314
X0033
X00346
X00362
X00378
X00394
X0041
X00426
X00442
X00458
X00474
X0049
X00506
X00522
X00538
X0053Y01393999
X00514
X00498
X00482
X00466
X0045
X00434
X00418
X00402
X00386
X0037
X00354
X00338
X00322
X00306
X0029
X00274
X00258
X00242
X0025Y01409999
X00266
X00282
X00298
X00314
X0033
X00346
X00362
X00378
X00394
X0041
X00426
X00442
X00458
X00474
X0049
X00506
X00522
X00538
X0053Y01425999
X00514
X00498
X00482
X00466
X0045
X00434
X00418
X00402
X00386
X0037
X00354
X00338
X00322
X00306
X0029
X00274
X00282Y01441999
X00298
X00314
X0033
X00346
X00362
X00378
X00394
X0041
X00426
X00442
X00458
X00474
X0049
X00506
X00522
X00538
X0053Y01489999
X00538Y01505999
X00522
X0053Y01521999
X00538Y01537999
X00522
X00506
X0049
X00474
X00426
X0041
X00418Y01521999
X00442Y01505999
X00434Y01585999
X00418
X00426Y01601999
X0041
X00418Y01617999
X00434
X00426Y01633999
X0041
X00418Y01649999
X00434
X00426Y01665999
X0041
X00418Y01681999
X00434
X00426Y01697999
X0041
X00418Y01713999
X00434
X00426Y01729999
X0041
X00474
X0049
X00506
X00522
X00538
X0053Y01713999
X00514
X00498
X00482
X00466
X00474Y01697999
X0049
X00506
X00522
X00538
X0053Y01681999
X00514
X00498
X00482
X00466
X00474Y01665999
X0049
X00506
X00522
X00538
X0053Y01649999
X00514
X00498
X00482
X00466
X00474Y01633999
X0049
X00506
X00522
X00538
X0053Y01617999
X00514
X00498
X00482
X00466
X00474Y01601999
X0049
X00506
X00522
X00538
X0053Y01585999
X00514
X00498
X00482
X00466
X00298Y01569999
X00258Y01585999
X00242
X00226
X0021
X00194
X00202Y01601999
X00218
X0025
X00266
Y01537999
X00226Y01553999
X0021
X00194
X00178
X00162
X0017Y01537999
X00186
X00202
Y01569999
X00218
X00234
X00212999Y01637007
X00194Y01649999
X00202Y01665999
X00218
X00242Y01713999
X00298Y01665999
X00346Y01505999
X00338Y01489999
X00186Y01473999
X0017
X00154
X00146Y01489999
X00154Y01505999
X00146Y01521999
X00162
X00154Y01537999
X00554
X0057
X00586
X00602
X00618
X00634
X0065
X00666
X00658Y01521999
X00674
X00642
X00626
X0061
X00594
X00578
X00562
X00546
X00554Y01505999
X0057
X00586
X00602
X00618
X00634
X0065
X00642Y01489999
X00626
X0061
X00594
X00578
X00562
X00546
X00554Y01441999
X0057
X00586
X00562Y01425999
X00546
X00554Y01409999
X0057
X00562Y01393999
X00578
X0057Y01377999
X00554
X00546Y01393999
Y01361999
X00562
X00578
X00586Y01345999
X00602
X00618
X00634
X0065
X00666
X00658Y01361999
X00674
X0069
X00666Y01377999
X0065
X00634
X00626Y01361999
X00642
X0061
X0057Y01345999
X00554
X00634Y01409999
X0065
X00666
X0069Y01425999
X00706
X00722
X00738
X0073Y01441999
X00714
X00698
X00674Y01457999
X00658
X00666Y01473999
X00682
X0069Y01489999
X00706
X00714Y01505999
X00698
X00722Y01521999
X00738
X0073Y01537999
X00714
X00711Y01557
X0077Y01585999
X00786
X00802
X00818
X00834
X00849999
X00866
X00882
X00897999
X00889999Y01601999
X00873999
X00857999
X00842
X00826
X00809999
X00794
X00778
X00809999Y01569999
X00826
Y01505999
X00809999
X00794
X00778
X0077Y01489999
X00786
X00802
X00818
X00826Y01473999
X00842
X00809999
X00794
X00778
X0077Y01457999
Y01425999
Y01393999
X00753Y01384993
X00754Y01361999
X0077
X00762Y01345999
X00746
X00714Y01409999
X00722Y01457999
X00738
X0073Y01473999
X0084Y01519
X00884Y01409
X00903Y0134
X00642Y01585999
X00626
X0061
X00594
X00578
X00562
X00546
X00554Y01601999
X0057
X00586
X00602
X00618
X00634
X0065
X00578Y01617999
X00562
X00546
X00554Y01633999
X0057
X00562Y01649999
X00578
X0057Y01665999
X00554
X00546Y01681999
X00562
X00578
X0057Y01697999
X00554
X00546Y01713999
X00562
X00578
X0057Y01729999
X00554
X00546Y01649999
X01541Y01492
X01849999Y02113999
X01689999
X01681999Y02097999
X01641999Y02113999
X0057Y01761999
X00554
X00538
X00522
X00506
X0049
X00474
X00442
X00426
X0041
X00346
X0033
X00314
X00298
X00282
X00266
X0025
X00234
X00218
X00202
X00929999Y02129999
Y02257999
X00913999
X00897999
X00882
X00889999Y02273999
X00906
X00913999Y02289999
X00929999
X00906Y02241999
X00889999
X00873999
X00857999
X00849999Y02225999
X00866
X00882
X00897999
X00882Y02321999
X00889999Y02337999
X00882Y02353999
X00897999
X00913999
X00857999Y02305999
X00842
X00834Y02289999
X00849999
X00937999Y02305999
X00946Y02321999
X00962
X00977999
X00992Y02318
X01009999Y02321999
X01026
X01033999Y02337999
X01017999
X01002
X00986
X00969999
X00953999
X00977999Y02353999
X00993999
X01009999
X01026
X01071Y02359
X01089999Y02353999
X01105999
X01121999
X01137999
X01153999
X01145999Y02337999
X01129999
X01113999
X01121999Y02321999
X01137999
X01153999
X01145999Y02305999
X01129999
X01113999
X01121999Y02289999
X01137999
X01153999
X01145999Y02273999
X01129999
X01113999
X01105999Y02257999
X01121999
X01137999
X01153999
X01145999Y02241999
X01153999Y02225999
X01185999
X01193999Y02241999
X01209999
X01177999
X01185999Y02257999
X01193999Y02273999
X01177999
X01185999Y02289999
X01177999Y02305999
X01185999Y02321999
X01201999
X01217999
X01238Y02318
X01241999Y02337999
X01257999
X01273999
X01265999Y02353999
X01281999
X01249999
X01233999
X01217999
X01185999
X01193999Y02337999
X01177999
X01265999Y02321999
X01273999Y02305999
X01257999
X01265999Y02289999
X01246Y02273
Y02252
X01249999Y02225999
X01265999
Y02193999
X01249999
X01233999
X01217999
X01207Y02165
Y02144
X01185999Y02129999
X01193999Y02177999
X01113999
X01097999
X01105999Y02193999
Y02225999
X01113999Y02241999
X01097999
X01089999Y02257999
X01057999
X01042
X01033999Y02273999
X01026Y02289999
X01009999
X01017999Y02305999
X01033999
Y02241999
X01026Y02225999
X01009999
Y02193999
X01026
X00993999
X00977999
X00961Y02165
Y02144
X00946Y02129999
X01009999
X01017999Y02145999
X01033999
X01049999
X01065999
X01113999
X01105999Y02161999
X01121999
X01082Y02223
X01Y02252
Y02273
X00937999Y02273999
X00953999Y02241999
X00946Y02225999
X01281999Y02257999
X01328Y02223
X01313999Y02193999
X01321999Y02145999
X01305999
X01289999
X01273999
X01257999
X01249999Y02129999
X01317Y02359
X01345999Y02353999
X01361999
X01377999
X01393999
X01409999
X01425999
X01433999Y02337999
X01449999
X01441999Y02321999
X01457999
X01484Y02318
X01497999Y02305999
X01513999
X01505999Y02289999
X01521999
X01492Y02273
Y02252
X01489999Y02225999
X01505999
X01521999
Y02193999
X01505999
X01489999
X01473999
X01457999
X01453Y02165
Y02144
X01441999Y02129999
X01425999
X01393999
X01377999Y02161999
X01361999
X01353999Y02177999
X01345999Y02193999
X01361999
X01393999
Y02225999
X01409999
X01425999
X01441999
X01449999Y02241999
X01433999
X01425999Y02257999
X01441999
X01433999Y02273999
X01425999Y02289999
X01409999
X01393999
X01377999
X01361999
X01369999Y02305999
X01385999
X01377999Y02321999
X01393999
X01409999
X01425999
X01385999Y02337999
X01369999
X01353999
X01361999Y02321999
X01369999Y02273999
X01385999
X01377999Y02257999
X01393999
X01409999
X01361999
X01345999
X01353999Y02273999
Y02241999
X01345999Y02225999
X01353999Y02145999
X01489999Y02129999
X01505999
X01513999Y02145999
X01529999
X01545999
X01561999
X01609999
X01601999Y02161999
X01617999
X01641999Y02177999
X01593999
X01601999Y02193999
Y02225999
X01593999Y02241999
X01585999Y02257999
X01601999
X01617999
X01633999
X01641999Y02273999
X01657999
X01673999
X01689999
X01681999Y02257999
X01689999Y02241999
X01705999
X01673999
X01657999
X01641999
X01625999Y02273999
X01609999
X01601999Y02289999
X01617999
X01633999
X01641999Y02305999
X01657999
X01673999
Y02337999
X01689999
X01705999
X01721999
X01713999Y02353999
X01729999
X01697999
X01681999
X01657999Y02337999
X01641999
X01625999
X01609999
X01601999Y02353999
X01617999
X01633999
X01585999
X01563Y02359
X01521999Y02353999
X01505999
X01489999
X01497999Y02337999
X01513999
X01553999Y02257999
X01574Y02223
X01681999Y02225999
X01713999Y02193999
X01729999
X01699Y02165
Y02144
X01681999Y02129999
X01625999Y02305999
X01609999
X0173Y02318
X01745999Y02321999
X01761999
X01769999Y02337999
X01753999
X01737999
X01745999Y02353999
X01761999
X01777999
X01809Y02359
X01825999Y02353999
X01841999
X01857999
X01873999
X01889999
X01881999Y02337999
X01865999
X01849999
X01857999Y02321999
X01873999
X01889999
X01881999Y02305999
X01865999
X01849999
X01857999Y02289999
X01873999
X01889999
X01881999Y02273999
X01865999
X01849999
X01841999Y02257999
X01857999
X01873999
X01889999
Y02225999
X01841999
X01849999Y02241999
X01833999
X0182Y02223
X01841999Y02193999
X01849999Y02177999
X01841999Y02161999
X01857999
X01873999
X01849999Y02145999
X01857999Y02129999
X01817999Y02145999
X01801999
X01785999
X01769999
X01753999
X01745999Y02129999
Y02193999
X01761999
Y02225999
X01745999
X01738Y02252
Y02273
X01745999Y02289999
X01761999
X01769999Y02305999
X01753999
X01769999Y02273999
X01777999Y02257999
X01769999Y02241999
T02
X004023Y00470493
X00427701
X00453101
X00478501
X007473Y01332493
X00772701
X00798101
X00823501
X001425Y01689507
X00167899
X001933
X00218699
T03
X001735Y001625
X001865Y002375
T04
X00949Y00288
Y00338
X01052Y006819
Y007073
Y007327
X01052Y007581
X01298
X01298Y007327
Y007073
Y006819
X01544
Y007073
Y007327
X01544Y007581
X0179
X0179Y007327
Y007073
Y006819
X01776Y011039
X01776Y011293
Y011547
Y011801
X0153
Y011547
Y011293
X0153Y011039
X01284
X01284Y011293
Y011547
Y011801
X01038
Y011547
Y011293
X01038Y011039
X01051Y021689
Y021943
Y022197
X01051Y022451
X01297
X01297Y022197
Y021943
Y021689
X01543
Y021943
Y022197
X01543Y022451
X01789
X01789Y022197
Y021943
Y021689
T05
X0045Y000325
X0079
X01825Y000925
X02Y001625
Y004375
X01825Y003675
X0079Y002575
X0045
X002454Y005373
X0022
X001946
Y005627
X0022
X002454
X008373Y007592
X008627
Y007846
Y0081
Y008354
Y008608
X008373
Y008354
Y0081
Y007846
Y009992
X008627
Y010246
Y0105
Y010754
Y011008
X008373
Y010754
Y0105
Y010246
X000627Y012992
X000373
Y013246
X000627
Y0135
X000373
Y013754
Y014008
X000627
Y013754
X001746Y014873
Y015127
X002
X002254
Y014873
X002
X00405Y014876
X004304
Y01513
X00405
X004558
Y014876
X004812
Y01513
X005066
Y014876
X005923Y014254
X006177
Y014
Y013746
X005923
Y014
X001325Y0225
X004075
X005125
X007875
T06
X0098995Y00563
X0101535
X0123595
X0126135
X0148195
X0150735
X0172795
X0175335
X0181265Y01299
X0183805
X0159205
X0156665
X0134605
X0132065
X0110005
X0107465
X0175235Y0205
X0172695
X0150635
X0148095
X0126035
X0123495
X0101435
X0098895
T07
X002875Y000733
Y001237
X003625
Y000733
Y001741
X002875
Y003267
X003625
T08
X007619Y003069
X007873
X008127
X008381
Y003831
X008127
X007873
X007619
X007281Y004319
X007027
X006773
X006519
Y005081
X006773
X007027
X007281
X009919Y016169
X010173
X010427
X010681
Y016931
X010427
X010173
X009919
X011169Y015881
X011423
X011677
X011931
Y015119
X011677
X011423
X011169
X013119
Y015881
X013373
X013627
X013881
Y015119
X013627
X013373
X017619
X017873
X018127
X018381
Y015881
X018127
X017873
X017619
Y017619
X017873
X018127
X018381
Y018381
X018127
X017873
X017619
X013881
X013627
X013373
Y017619
X013627
X013881
X013119
Y018381
X001219Y023619
Y024381
X001473
X001727
X001981
Y023619
X001727
X001473
X007119
X007373
X007627
X007881
Y024381
X007627
X007373
X007119
T09
X000865Y00136499
X00205Y0035
X00055
X000865Y00263499
Y00199999
X0047Y024
X0062
T10
X0104325Y00563
X0109405
X0128925
X0134005
X0153525
X0158605
X0178125
X0183205
X0178475Y01299
X0173395
X0153875
X0148795
X0129275
X0124195
X0104675
X0099595
X0178025Y0205
X0183105
X0158505
X0153425
X0133905
X0128825
X0109305
X0104225
T11
X00545Y0008
X00695
X01185Y0014
X01555
Y0024
X01185
X00695Y0033
X00545
X006Y0195
X007
X0032
X0022
T12
X0089Y0008
Y003
T13
X0101Y00042
Y00318
T14
X0005Y0005
X0205
X00057Y00713
X00055Y01176
X0085Y017
X0205Y0165
X0005Y0245
X0205
M30
