G04*
G04 #@! TF.GenerationSoftware,Altium Limited,Altium Designer,25.8.1 (18)*
G04*
G04 Layer_Color=128*
%FSLAX44Y44*%
%MOMM*%
G71*
G04*
G04 #@! TF.SameCoordinates,DDD3FA79-87ED-428B-B654-174255E92D83*
G04*
G04*
G04 #@! TF.FilePolarity,Positive*
G04*
G01*
G75*
%ADD21R,1.5200X1.1000*%
%ADD23R,1.1000X1.5200*%
%ADD96R,2.8000X1.4500*%
%ADD97R,2.2860X1.9050*%
G36*
X2046000Y2472039D02*
X2046000Y2472040D01*
X2044344Y2471674D01*
X2041138Y2470573D01*
X2038136Y2469000D01*
X2035405Y2466992D01*
X2033008Y2464595D01*
X2031000Y2461864D01*
X2029427Y2458862D01*
X2028326Y2455656D01*
X2027960Y2454000D01*
Y2454000D01*
X2013871D01*
X2013871Y2454000D01*
X2014096Y2456035D01*
X2015001Y2460028D01*
X2016348Y2463894D01*
X2018121Y2467585D01*
X2020296Y2471053D01*
X2022848Y2474255D01*
X2025743Y2477150D01*
X2028945Y2479702D01*
X2032413Y2481878D01*
X2036103Y2483651D01*
X2039969Y2484998D01*
X2043962Y2485903D01*
X2045997Y2486129D01*
X2046000D01*
Y2472039D01*
D02*
G37*
G36*
X46000D02*
X46000Y2472040D01*
X44344Y2471674D01*
X41138Y2470573D01*
X38135Y2469000D01*
X35405Y2466992D01*
X33008Y2464595D01*
X31000Y2461864D01*
X29427Y2458862D01*
X28326Y2455656D01*
X27960Y2454000D01*
Y2454000D01*
X13871D01*
X13871Y2454000D01*
X14096Y2456035D01*
X15001Y2460028D01*
X16348Y2463894D01*
X18121Y2467585D01*
X20297Y2471053D01*
X22848Y2474255D01*
X25743Y2477150D01*
X28945Y2479702D01*
X32413Y2481878D01*
X36103Y2483651D01*
X39969Y2484998D01*
X43962Y2485903D01*
X45997Y2486129D01*
X46000D01*
Y2472039D01*
D02*
G37*
G36*
X2056035Y2485904D02*
X2060028Y2484999D01*
X2063894Y2483652D01*
X2067585Y2481879D01*
X2071053Y2479703D01*
X2074255Y2477152D01*
X2077150Y2474257D01*
X2079702Y2471055D01*
X2081878Y2467587D01*
X2083651Y2463897D01*
X2084998Y2460031D01*
X2085903Y2456038D01*
X2086129Y2454003D01*
Y2454000D01*
X2072039D01*
X2072040Y2454000D01*
X2071674Y2455656D01*
X2070573Y2458862D01*
X2069000Y2461864D01*
X2066992Y2464595D01*
X2064595Y2466992D01*
X2061864Y2469000D01*
X2058862Y2470573D01*
X2055656Y2471674D01*
X2054000Y2472040D01*
X2054000Y2472040D01*
X2054000D01*
Y2486129D01*
X2054000D01*
X2056035Y2485904D01*
D02*
G37*
G36*
X56035D02*
X60028Y2484999D01*
X63894Y2483652D01*
X67585Y2481879D01*
X71053Y2479703D01*
X74255Y2477152D01*
X77150Y2474257D01*
X79702Y2471055D01*
X81878Y2467587D01*
X83651Y2463897D01*
X84999Y2460031D01*
X85903Y2456038D01*
X86129Y2454003D01*
Y2454000D01*
X72039D01*
X72040Y2454000D01*
X71674Y2455656D01*
X70573Y2458862D01*
X69000Y2461864D01*
X66992Y2464595D01*
X64595Y2466992D01*
X61864Y2469000D01*
X58862Y2470573D01*
X55656Y2471674D01*
X54000Y2472040D01*
X54000Y2472040D01*
X54000D01*
Y2486129D01*
X54000D01*
X56035Y2485904D01*
D02*
G37*
G36*
X2086129Y2446000D02*
X2085904Y2443965D01*
X2084999Y2439972D01*
X2083652Y2436106D01*
X2081879Y2432415D01*
X2079703Y2428947D01*
X2077152Y2425745D01*
X2074257Y2422850D01*
X2071055Y2420298D01*
X2067587Y2418122D01*
X2063897Y2416349D01*
X2060031Y2415002D01*
X2056038Y2414097D01*
X2054003Y2413871D01*
X2054000Y2413871D01*
Y2427961D01*
X2054000Y2427960D01*
X2055656Y2428326D01*
X2058862Y2429427D01*
X2061864Y2431000D01*
X2064595Y2433008D01*
X2066992Y2435405D01*
X2069000Y2438136D01*
X2070573Y2441138D01*
X2071674Y2444344D01*
X2072040Y2446000D01*
X2072040D01*
Y2446000D01*
X2086129D01*
Y2446000D01*
D02*
G37*
G36*
X86129D02*
X85904Y2443965D01*
X84999Y2439972D01*
X83652Y2436106D01*
X81879Y2432415D01*
X79703Y2428947D01*
X77152Y2425745D01*
X74257Y2422850D01*
X71055Y2420298D01*
X67587Y2418122D01*
X63897Y2416349D01*
X60031Y2415002D01*
X56038Y2414097D01*
X54003Y2413871D01*
X54000Y2413871D01*
Y2427961D01*
X54000Y2427960D01*
X55656Y2428326D01*
X58862Y2429427D01*
X61864Y2431000D01*
X64595Y2433008D01*
X66992Y2435405D01*
X69000Y2438136D01*
X70573Y2441138D01*
X71674Y2444344D01*
X72040Y2446000D01*
X72040D01*
Y2446000D01*
X86129D01*
Y2446000D01*
D02*
G37*
G36*
X2027960Y2446000D02*
X2028326Y2444344D01*
X2029427Y2441138D01*
X2031000Y2438136D01*
X2033008Y2435405D01*
X2035405Y2433008D01*
X2038136Y2431000D01*
X2041138Y2429427D01*
X2044344Y2428326D01*
X2046000Y2427960D01*
X2046000D01*
Y2413871D01*
X2046000Y2413871D01*
X2043965Y2414096D01*
X2039972Y2415001D01*
X2036106Y2416348D01*
X2032415Y2418121D01*
X2028947Y2420297D01*
X2025745Y2422848D01*
X2022850Y2425743D01*
X2020298Y2428945D01*
X2018122Y2432413D01*
X2016349Y2436103D01*
X2015002Y2439969D01*
X2014097Y2443962D01*
X2013871Y2445997D01*
X2013871Y2446000D01*
X2027961D01*
X2027960Y2446000D01*
D02*
G37*
G36*
X27960D02*
X28326Y2444344D01*
X29427Y2441138D01*
X31000Y2438136D01*
X33008Y2435405D01*
X35405Y2433008D01*
X38135Y2431000D01*
X41138Y2429427D01*
X44344Y2428326D01*
X46000Y2427960D01*
X46000D01*
Y2413871D01*
X46000Y2413871D01*
X43965Y2414096D01*
X39972Y2415001D01*
X36106Y2416348D01*
X32415Y2418121D01*
X28947Y2420297D01*
X25745Y2422848D01*
X22850Y2425743D01*
X20298Y2428945D01*
X18122Y2432413D01*
X16349Y2436103D01*
X15001Y2439969D01*
X14096Y2443962D01*
X13871Y2445997D01*
X13871Y2446000D01*
X27961D01*
X27960Y2446000D01*
D02*
G37*
G36*
X846000Y1722039D02*
X846000Y1722040D01*
X844344Y1721674D01*
X841138Y1720573D01*
X838136Y1719000D01*
X835405Y1716992D01*
X833008Y1714595D01*
X831000Y1711864D01*
X829427Y1708862D01*
X828326Y1705656D01*
X827960Y1704000D01*
Y1704000D01*
X813871D01*
X813871Y1704000D01*
X814096Y1706035D01*
X815001Y1710028D01*
X816348Y1713894D01*
X818121Y1717585D01*
X820297Y1721053D01*
X822848Y1724255D01*
X825743Y1727150D01*
X828945Y1729702D01*
X832413Y1731878D01*
X836103Y1733651D01*
X839969Y1734998D01*
X843962Y1735903D01*
X845997Y1736129D01*
X846000D01*
Y1722039D01*
D02*
G37*
G36*
X856035Y1735904D02*
X860028Y1734999D01*
X863894Y1733652D01*
X867585Y1731879D01*
X871053Y1729703D01*
X874255Y1727152D01*
X877150Y1724257D01*
X879702Y1721055D01*
X881878Y1717587D01*
X883651Y1713897D01*
X884998Y1710031D01*
X885903Y1706038D01*
X886129Y1704003D01*
Y1704000D01*
X872039D01*
X872040Y1704000D01*
X871674Y1705656D01*
X870573Y1708862D01*
X869000Y1711864D01*
X866992Y1714595D01*
X864595Y1716992D01*
X861864Y1719000D01*
X858862Y1720573D01*
X855656Y1721674D01*
X854000Y1722040D01*
X854000Y1722040D01*
X854000D01*
Y1736129D01*
X854000D01*
X856035Y1735904D01*
D02*
G37*
G36*
X886129Y1696000D02*
X885904Y1693965D01*
X884999Y1689972D01*
X883652Y1686106D01*
X881879Y1682415D01*
X879703Y1678947D01*
X877152Y1675745D01*
X874257Y1672850D01*
X871055Y1670298D01*
X867587Y1668122D01*
X863897Y1666349D01*
X860031Y1665002D01*
X856038Y1664097D01*
X854003Y1663871D01*
X854000Y1663871D01*
Y1677961D01*
X854000Y1677960D01*
X855656Y1678326D01*
X858862Y1679427D01*
X861864Y1681000D01*
X864595Y1683008D01*
X866992Y1685405D01*
X869000Y1688136D01*
X870573Y1691138D01*
X871674Y1694344D01*
X872040Y1696000D01*
X872040D01*
Y1696000D01*
X886129D01*
Y1696000D01*
D02*
G37*
G36*
X2046000Y1672039D02*
X2046000Y1672040D01*
X2044344Y1671674D01*
X2041138Y1670573D01*
X2038136Y1669000D01*
X2035405Y1666992D01*
X2033008Y1664595D01*
X2031000Y1661864D01*
X2029427Y1658862D01*
X2028326Y1655656D01*
X2027960Y1654000D01*
Y1654000D01*
X2013871D01*
X2013871Y1654000D01*
X2014096Y1656035D01*
X2015001Y1660028D01*
X2016348Y1663894D01*
X2018121Y1667585D01*
X2020296Y1671053D01*
X2022848Y1674255D01*
X2025743Y1677150D01*
X2028945Y1679702D01*
X2032413Y1681878D01*
X2036103Y1683651D01*
X2039969Y1684998D01*
X2043962Y1685903D01*
X2045997Y1686129D01*
X2046000D01*
Y1672039D01*
D02*
G37*
G36*
X827960Y1696000D02*
X828326Y1694344D01*
X829427Y1691138D01*
X831000Y1688136D01*
X833008Y1685405D01*
X835405Y1683008D01*
X838136Y1681000D01*
X841138Y1679427D01*
X844344Y1678326D01*
X846000Y1677960D01*
X846000D01*
Y1663871D01*
X846000Y1663871D01*
X843965Y1664096D01*
X839972Y1665001D01*
X836106Y1666348D01*
X832415Y1668121D01*
X828947Y1670297D01*
X825745Y1672848D01*
X822850Y1675743D01*
X820298Y1678945D01*
X818122Y1682413D01*
X816349Y1686103D01*
X815002Y1689969D01*
X814097Y1693962D01*
X813871Y1695997D01*
X813871Y1696000D01*
X827961D01*
X827960Y1696000D01*
D02*
G37*
G36*
X2056035Y1685904D02*
X2060028Y1684999D01*
X2063894Y1683652D01*
X2067585Y1681879D01*
X2071053Y1679703D01*
X2074255Y1677152D01*
X2077150Y1674257D01*
X2079702Y1671055D01*
X2081878Y1667587D01*
X2083651Y1663897D01*
X2084998Y1660031D01*
X2085903Y1656038D01*
X2086129Y1654003D01*
Y1654000D01*
X2072039D01*
X2072040Y1654000D01*
X2071674Y1655656D01*
X2070573Y1658862D01*
X2069000Y1661864D01*
X2066992Y1664595D01*
X2064595Y1666992D01*
X2061864Y1669000D01*
X2058862Y1670573D01*
X2055656Y1671674D01*
X2054000Y1672040D01*
X2054000Y1672040D01*
X2054000D01*
Y1686129D01*
X2054000D01*
X2056035Y1685904D01*
D02*
G37*
G36*
X2086129Y1646000D02*
X2085904Y1643965D01*
X2084999Y1639972D01*
X2083652Y1636106D01*
X2081879Y1632415D01*
X2079703Y1628947D01*
X2077152Y1625745D01*
X2074257Y1622850D01*
X2071055Y1620298D01*
X2067587Y1618122D01*
X2063897Y1616349D01*
X2060031Y1615002D01*
X2056038Y1614097D01*
X2054003Y1613871D01*
X2054000Y1613871D01*
Y1627961D01*
X2054000Y1627960D01*
X2055656Y1628326D01*
X2058862Y1629427D01*
X2061864Y1631000D01*
X2064595Y1633008D01*
X2066992Y1635405D01*
X2069000Y1638136D01*
X2070573Y1641138D01*
X2071674Y1644344D01*
X2072040Y1646000D01*
X2072040D01*
Y1646000D01*
X2086129D01*
Y1646000D01*
D02*
G37*
G36*
X2027960Y1646000D02*
X2028326Y1644344D01*
X2029427Y1641138D01*
X2031000Y1638136D01*
X2033008Y1635405D01*
X2035405Y1633008D01*
X2038136Y1631000D01*
X2041138Y1629427D01*
X2044344Y1628326D01*
X2046000Y1627960D01*
X2046000D01*
Y1613871D01*
X2046000Y1613871D01*
X2043965Y1614096D01*
X2039972Y1615001D01*
X2036106Y1616348D01*
X2032415Y1618121D01*
X2028947Y1620297D01*
X2025745Y1622848D01*
X2022850Y1625743D01*
X2020298Y1628945D01*
X2018122Y1632413D01*
X2016349Y1636103D01*
X2015002Y1639969D01*
X2014097Y1643962D01*
X2013871Y1645997D01*
X2013871Y1646000D01*
X2027961D01*
X2027960Y1646000D01*
D02*
G37*
G36*
X2046000Y72039D02*
X2046000Y72040D01*
X2044344Y71674D01*
X2041138Y70573D01*
X2038136Y69000D01*
X2035405Y66992D01*
X2033008Y64595D01*
X2031000Y61864D01*
X2029427Y58862D01*
X2028326Y55656D01*
X2027960Y54000D01*
Y54000D01*
X2013871D01*
X2013871Y54000D01*
X2014096Y56035D01*
X2015001Y60028D01*
X2016348Y63894D01*
X2018121Y67585D01*
X2020296Y71053D01*
X2022848Y74255D01*
X2025743Y77150D01*
X2028945Y79702D01*
X2032413Y81878D01*
X2036103Y83651D01*
X2039969Y84999D01*
X2043962Y85903D01*
X2045997Y86129D01*
X2046000D01*
Y72039D01*
D02*
G37*
G36*
X46000D02*
X46000Y72040D01*
X44344Y71674D01*
X41138Y70573D01*
X38135Y69000D01*
X35405Y66992D01*
X33008Y64595D01*
X31000Y61864D01*
X29427Y58862D01*
X28326Y55656D01*
X27960Y54000D01*
Y54000D01*
X13871D01*
X13871Y54000D01*
X14096Y56035D01*
X15001Y60028D01*
X16348Y63894D01*
X18121Y67585D01*
X20297Y71053D01*
X22848Y74255D01*
X25743Y77150D01*
X28945Y79702D01*
X32413Y81878D01*
X36103Y83651D01*
X39969Y84999D01*
X43962Y85903D01*
X45997Y86129D01*
X46000D01*
Y72039D01*
D02*
G37*
G36*
X2056035Y85904D02*
X2060028Y84999D01*
X2063894Y83652D01*
X2067585Y81879D01*
X2071053Y79703D01*
X2074255Y77152D01*
X2077150Y74257D01*
X2079702Y71055D01*
X2081878Y67587D01*
X2083651Y63897D01*
X2084998Y60031D01*
X2085903Y56038D01*
X2086129Y54003D01*
Y54000D01*
X2072039D01*
X2072040Y54000D01*
X2071674Y55656D01*
X2070573Y58862D01*
X2069000Y61864D01*
X2066992Y64595D01*
X2064595Y66992D01*
X2061864Y69000D01*
X2058862Y70573D01*
X2055656Y71674D01*
X2054000Y72040D01*
X2054000Y72040D01*
X2054000D01*
Y86129D01*
X2054000D01*
X2056035Y85904D01*
D02*
G37*
G36*
X56035D02*
X60028Y84999D01*
X63894Y83652D01*
X67585Y81879D01*
X71053Y79703D01*
X74255Y77152D01*
X77150Y74257D01*
X79702Y71055D01*
X81878Y67587D01*
X83651Y63897D01*
X84999Y60031D01*
X85903Y56038D01*
X86129Y54003D01*
Y54000D01*
X72039D01*
X72040Y54000D01*
X71674Y55656D01*
X70573Y58862D01*
X69000Y61864D01*
X66992Y64595D01*
X64595Y66992D01*
X61864Y69000D01*
X58862Y70573D01*
X55656Y71674D01*
X54000Y72040D01*
X54000Y72040D01*
X54000D01*
Y86129D01*
X54000D01*
X56035Y85904D01*
D02*
G37*
G36*
X2086129Y46000D02*
X2085904Y43965D01*
X2084999Y39972D01*
X2083652Y36106D01*
X2081879Y32415D01*
X2079703Y28947D01*
X2077152Y25745D01*
X2074257Y22850D01*
X2071055Y20298D01*
X2067587Y18122D01*
X2063897Y16349D01*
X2060031Y15001D01*
X2056038Y14096D01*
X2054003Y13871D01*
X2054000Y13871D01*
Y27961D01*
X2054000Y27960D01*
X2055656Y28326D01*
X2058862Y29427D01*
X2061864Y31000D01*
X2064595Y33008D01*
X2066992Y35405D01*
X2069000Y38135D01*
X2070573Y41138D01*
X2071674Y44344D01*
X2072040Y46000D01*
X2072040D01*
Y46000D01*
X2086129D01*
Y46000D01*
D02*
G37*
G36*
X86129D02*
X85904Y43965D01*
X84999Y39972D01*
X83652Y36106D01*
X81879Y32415D01*
X79703Y28947D01*
X77152Y25745D01*
X74257Y22850D01*
X71055Y20298D01*
X67587Y18122D01*
X63897Y16349D01*
X60031Y15001D01*
X56038Y14096D01*
X54003Y13871D01*
X54000Y13871D01*
Y27961D01*
X54000Y27960D01*
X55656Y28326D01*
X58862Y29427D01*
X61864Y31000D01*
X64595Y33008D01*
X66992Y35405D01*
X69000Y38135D01*
X70573Y41138D01*
X71674Y44344D01*
X72040Y46000D01*
X72040D01*
Y46000D01*
X86129D01*
Y46000D01*
D02*
G37*
G36*
X2027960Y46000D02*
X2028326Y44344D01*
X2029427Y41138D01*
X2031000Y38135D01*
X2033008Y35405D01*
X2035405Y33008D01*
X2038136Y31000D01*
X2041138Y29427D01*
X2044344Y28326D01*
X2046000Y27960D01*
X2046000D01*
Y13871D01*
X2046000Y13871D01*
X2043965Y14096D01*
X2039972Y15001D01*
X2036106Y16348D01*
X2032415Y18121D01*
X2028947Y20297D01*
X2025745Y22848D01*
X2022850Y25743D01*
X2020298Y28945D01*
X2018122Y32413D01*
X2016349Y36103D01*
X2015002Y39969D01*
X2014097Y43962D01*
X2013871Y45997D01*
X2013871Y46000D01*
X2027961D01*
X2027960Y46000D01*
D02*
G37*
G36*
X27960D02*
X28326Y44344D01*
X29427Y41138D01*
X31000Y38135D01*
X33008Y35405D01*
X35405Y33008D01*
X38135Y31000D01*
X41138Y29427D01*
X44344Y28326D01*
X46000Y27960D01*
X46000D01*
Y13871D01*
X46000Y13871D01*
X43965Y14096D01*
X39972Y15001D01*
X36106Y16348D01*
X32415Y18121D01*
X28947Y20297D01*
X25745Y22848D01*
X22850Y25743D01*
X20298Y28945D01*
X18122Y32413D01*
X16349Y36103D01*
X15001Y39969D01*
X14096Y43962D01*
X13871Y45997D01*
X13871Y46000D01*
X27961D01*
X27960Y46000D01*
D02*
G37*
D21*
X1328000Y2223000D02*
D03*
Y2171000D02*
D03*
Y2191000D02*
D03*
X1820000Y2243000D02*
D03*
X1745000Y1106000D02*
D03*
X1574000Y2243000D02*
D03*
X1328000D02*
D03*
X1499000Y1106000D02*
D03*
X1253000D02*
D03*
X1821000Y756000D02*
D03*
X1575000D02*
D03*
X1329000D02*
D03*
X1082000Y2243000D02*
D03*
X753000Y1404993D02*
D03*
X212999Y1617007D02*
D03*
X1007000Y1106000D02*
D03*
X1083000Y756000D02*
D03*
X408000Y542993D02*
D03*
X753000Y1384993D02*
D03*
X212999Y1637007D02*
D03*
X408000Y522993D02*
D03*
X1574000Y2223000D02*
D03*
Y2171000D02*
D03*
Y2191000D02*
D03*
X1745000Y1126000D02*
D03*
Y1158000D02*
D03*
Y1178000D02*
D03*
X1329000Y736000D02*
D03*
Y704000D02*
D03*
Y684000D02*
D03*
X1082000Y2171000D02*
D03*
Y2191000D02*
D03*
Y2223000D02*
D03*
X1820000Y2171000D02*
D03*
Y2191000D02*
D03*
Y2223000D02*
D03*
X1007000Y1178000D02*
D03*
Y1158000D02*
D03*
Y1126000D02*
D03*
X1253000Y1178000D02*
D03*
Y1158000D02*
D03*
Y1126000D02*
D03*
X1499000Y1178000D02*
D03*
Y1158000D02*
D03*
Y1126000D02*
D03*
X1821000Y684000D02*
D03*
Y704000D02*
D03*
Y736000D02*
D03*
X1575000Y684000D02*
D03*
Y704000D02*
D03*
Y736000D02*
D03*
X1083000D02*
D03*
Y684000D02*
D03*
Y704000D02*
D03*
D23*
X821001Y1306993D02*
D03*
X406001Y444993D02*
D03*
X426001D02*
D03*
X145000Y1715007D02*
D03*
X1207000Y2165000D02*
D03*
Y2144000D02*
D03*
X1187000Y2165000D02*
D03*
Y2144000D02*
D03*
X1758000Y2273000D02*
D03*
Y2252000D02*
D03*
X1512000D02*
D03*
Y2273000D02*
D03*
X1807000Y1097000D02*
D03*
X1561000D02*
D03*
X1266000Y2252000D02*
D03*
Y2273000D02*
D03*
X1315000Y1097000D02*
D03*
X1807000Y1076000D02*
D03*
X1561000D02*
D03*
X1759000Y786000D02*
D03*
Y765000D02*
D03*
X1315000Y1076000D02*
D03*
X1267000Y786000D02*
D03*
X1513000D02*
D03*
Y765000D02*
D03*
X1267000D02*
D03*
X1020000Y2252000D02*
D03*
Y2273000D02*
D03*
X771001Y1306993D02*
D03*
X195000Y1715007D02*
D03*
X1069000Y1097000D02*
D03*
Y1076000D02*
D03*
X1021000Y786000D02*
D03*
Y765000D02*
D03*
X1827000Y1097000D02*
D03*
X1738000Y2273000D02*
D03*
Y2252000D02*
D03*
X1581000Y1097000D02*
D03*
X1827000Y1076000D02*
D03*
X1492000Y2273000D02*
D03*
Y2252000D02*
D03*
X1246000Y2273000D02*
D03*
Y2252000D02*
D03*
X1335000Y1097000D02*
D03*
Y1076000D02*
D03*
X1581000D02*
D03*
X1739000Y786000D02*
D03*
Y765000D02*
D03*
X1493000Y786000D02*
D03*
X1247000D02*
D03*
X1493000Y765000D02*
D03*
X1247000D02*
D03*
X1000000Y2252000D02*
D03*
Y2273000D02*
D03*
X1089000Y1097000D02*
D03*
Y1076000D02*
D03*
X1001000Y786000D02*
D03*
Y765000D02*
D03*
X1453000Y2165000D02*
D03*
Y2144000D02*
D03*
X1433000Y2165000D02*
D03*
Y2144000D02*
D03*
X1886000Y1184000D02*
D03*
X1866000D02*
D03*
X1886000Y1205000D02*
D03*
X1866000D02*
D03*
X1188000Y678000D02*
D03*
X1208000D02*
D03*
X1188000Y657000D02*
D03*
X1208000D02*
D03*
X476001Y444993D02*
D03*
X801001Y1306993D02*
D03*
X751001D02*
D03*
X215000Y1715007D02*
D03*
X165000D02*
D03*
X456001Y444993D02*
D03*
X961000Y2144000D02*
D03*
X941000D02*
D03*
X961000Y2165000D02*
D03*
X941000D02*
D03*
X1699000Y2144000D02*
D03*
X1679000D02*
D03*
X1699000Y2165000D02*
D03*
X1679000D02*
D03*
X1128000Y1205000D02*
D03*
X1148000D02*
D03*
X1128000Y1184000D02*
D03*
X1148000D02*
D03*
X1374000Y1205000D02*
D03*
X1394000D02*
D03*
X1374000Y1184000D02*
D03*
X1394000D02*
D03*
X1620000Y1205000D02*
D03*
X1640000D02*
D03*
X1620000Y1184000D02*
D03*
X1640000D02*
D03*
X1700000Y657000D02*
D03*
X1680000D02*
D03*
X1700000Y678000D02*
D03*
X1680000D02*
D03*
X1454000Y657000D02*
D03*
X1434000D02*
D03*
X1454000Y678000D02*
D03*
X1434000D02*
D03*
X962000D02*
D03*
X942000D02*
D03*
X962000Y657000D02*
D03*
X942000D02*
D03*
D96*
X790000Y58750D02*
D03*
Y175750D02*
D03*
Y230250D02*
D03*
Y113250D02*
D03*
D97*
X349523Y285000D02*
D03*
X300477D02*
D03*
M02*
