G04*
G04 #@! TF.GenerationSoftware,Altium Limited,Altium Designer,25.8.1 (18)*
G04*
G04 Layer_Color=32896*
%FSLAX44Y44*%
%MOMM*%
G71*
G04*
G04 #@! TF.SameCoordinates,DDD3FA79-87ED-428B-B654-174255E92D83*
G04*
G04*
G04 #@! TF.FilePolarity,Positive*
G04*
G01*
G75*
%ADD10C,0.2000*%
%ADD11C,0.1524*%
%ADD15C,0.2540*%
%ADD16C,0.5000*%
G36*
X1751250Y2265500D02*
X1749000D01*
Y2280500D01*
X1751250D01*
Y2265500D01*
D02*
G37*
G36*
X1747000Y2280500D02*
X1747000Y2265500D01*
X1744750Y2265500D01*
X1744750Y2280500D01*
X1747000Y2280500D01*
D02*
G37*
G36*
X1505250Y2265500D02*
X1503000D01*
Y2280500D01*
X1505250D01*
Y2265500D01*
D02*
G37*
G36*
X1501000Y2280500D02*
X1501000Y2265500D01*
X1498750Y2265500D01*
X1498750Y2280500D01*
X1501000Y2280500D01*
D02*
G37*
G36*
X1259250Y2265500D02*
X1257000D01*
Y2280500D01*
X1259250D01*
Y2265500D01*
D02*
G37*
G36*
X1255000Y2280500D02*
X1255000Y2265500D01*
X1252750Y2265500D01*
X1252750Y2280500D01*
X1255000Y2280500D01*
D02*
G37*
G36*
X1013250Y2265500D02*
X1011000D01*
Y2280500D01*
X1013250D01*
Y2265500D01*
D02*
G37*
G36*
X1009000Y2280500D02*
X1009000Y2265500D01*
X1006750Y2265500D01*
X1006750Y2280500D01*
X1009000Y2280500D01*
D02*
G37*
G36*
X1751250Y2244500D02*
X1749000D01*
Y2259500D01*
X1751250D01*
Y2244500D01*
D02*
G37*
G36*
X1747000Y2259500D02*
X1747000Y2244500D01*
X1744750Y2244500D01*
X1744750Y2259500D01*
X1747000Y2259500D01*
D02*
G37*
G36*
X1505250Y2244500D02*
X1503000D01*
Y2259500D01*
X1505250D01*
Y2244500D01*
D02*
G37*
G36*
X1501000Y2259500D02*
X1501000Y2244500D01*
X1498750Y2244500D01*
X1498750Y2259500D01*
X1501000Y2259500D01*
D02*
G37*
G36*
X1259250Y2244500D02*
X1257000D01*
Y2259500D01*
X1259250D01*
Y2244500D01*
D02*
G37*
G36*
X1255000Y2259500D02*
X1255000Y2244500D01*
X1252750Y2244500D01*
X1252750Y2259500D01*
X1255000Y2259500D01*
D02*
G37*
G36*
X1013250Y2244500D02*
X1011000D01*
Y2259500D01*
X1013250D01*
Y2244500D01*
D02*
G37*
G36*
X1009000Y2259500D02*
X1009000Y2244500D01*
X1006750Y2244500D01*
X1006750Y2259500D01*
X1009000Y2259500D01*
D02*
G37*
G36*
X1827500Y2234000D02*
X1812500Y2234000D01*
X1812500Y2236250D01*
X1827500Y2236250D01*
X1827500Y2234000D01*
D02*
G37*
G36*
X1581500D02*
X1566500Y2234000D01*
X1566500Y2236250D01*
X1581500Y2236250D01*
X1581500Y2234000D01*
D02*
G37*
G36*
X1335500D02*
X1320500Y2234000D01*
X1320500Y2236250D01*
X1335500Y2236250D01*
X1335500Y2234000D01*
D02*
G37*
G36*
X1089500D02*
X1074500Y2234000D01*
X1074500Y2236250D01*
X1089500Y2236250D01*
X1089500Y2234000D01*
D02*
G37*
G36*
X1827500Y2229750D02*
X1812500D01*
Y2232000D01*
X1827500D01*
Y2229750D01*
D02*
G37*
G36*
X1581500D02*
X1566500D01*
Y2232000D01*
X1581500D01*
Y2229750D01*
D02*
G37*
G36*
X1335500D02*
X1320500D01*
Y2232000D01*
X1335500D01*
Y2229750D01*
D02*
G37*
G36*
X1089500D02*
X1074500D01*
Y2232000D01*
X1089500D01*
Y2229750D01*
D02*
G37*
G36*
X1827500Y2182000D02*
X1812500Y2182000D01*
X1812500Y2184250D01*
X1827500Y2184250D01*
X1827500Y2182000D01*
D02*
G37*
G36*
X1581500D02*
X1566500Y2182000D01*
X1566500Y2184250D01*
X1581500Y2184250D01*
X1581500Y2182000D01*
D02*
G37*
G36*
X1335500D02*
X1320500Y2182000D01*
X1320500Y2184250D01*
X1335500Y2184250D01*
X1335500Y2182000D01*
D02*
G37*
G36*
X1089500D02*
X1074500Y2182000D01*
X1074500Y2184250D01*
X1089500Y2184250D01*
X1089500Y2182000D01*
D02*
G37*
G36*
X1827500Y2177750D02*
X1812500D01*
Y2180000D01*
X1827500D01*
Y2177750D01*
D02*
G37*
G36*
X1581500D02*
X1566500D01*
Y2180000D01*
X1581500D01*
Y2177750D01*
D02*
G37*
G36*
X1335500D02*
X1320500D01*
Y2180000D01*
X1335500D01*
Y2177750D01*
D02*
G37*
G36*
X1089500D02*
X1074500D01*
Y2180000D01*
X1089500D01*
Y2177750D01*
D02*
G37*
G36*
X1692250Y2157500D02*
X1690000D01*
Y2172500D01*
X1692250D01*
Y2157500D01*
D02*
G37*
G36*
X1688000Y2172500D02*
X1688000Y2157500D01*
X1685750Y2157500D01*
X1685750Y2172500D01*
X1688000Y2172500D01*
D02*
G37*
G36*
X1446250Y2157500D02*
X1444000D01*
Y2172500D01*
X1446250D01*
Y2157500D01*
D02*
G37*
G36*
X1442000Y2172500D02*
X1442000Y2157500D01*
X1439750Y2157500D01*
X1439750Y2172500D01*
X1442000Y2172500D01*
D02*
G37*
G36*
X1200250Y2157500D02*
X1198000D01*
Y2172500D01*
X1200250D01*
Y2157500D01*
D02*
G37*
G36*
X1196000Y2172500D02*
X1196000Y2157500D01*
X1193750Y2157500D01*
X1193750Y2172500D01*
X1196000Y2172500D01*
D02*
G37*
G36*
X954250Y2157500D02*
X952000D01*
Y2172500D01*
X954250D01*
Y2157500D01*
D02*
G37*
G36*
X950000Y2172500D02*
X950000Y2157500D01*
X947750Y2157500D01*
X947750Y2172500D01*
X950000Y2172500D01*
D02*
G37*
G36*
X1692250Y2136500D02*
X1690000D01*
Y2151500D01*
X1692250D01*
Y2136500D01*
D02*
G37*
G36*
X1688000Y2151500D02*
X1688000Y2136500D01*
X1685750Y2136500D01*
X1685750Y2151500D01*
X1688000Y2151500D01*
D02*
G37*
G36*
X1446250Y2136500D02*
X1444000D01*
Y2151500D01*
X1446250D01*
Y2136500D01*
D02*
G37*
G36*
X1442000Y2151500D02*
X1442000Y2136500D01*
X1439750Y2136500D01*
X1439750Y2151500D01*
X1442000Y2151500D01*
D02*
G37*
G36*
X1200250Y2136500D02*
X1198000D01*
Y2151500D01*
X1200250D01*
Y2136500D01*
D02*
G37*
G36*
X1196000Y2151500D02*
X1196000Y2136500D01*
X1193750Y2136500D01*
X1193750Y2151500D01*
X1196000Y2151500D01*
D02*
G37*
G36*
X954250Y2136500D02*
X952000D01*
Y2151500D01*
X954250D01*
Y2136500D01*
D02*
G37*
G36*
X950000Y2151500D02*
X950000Y2136500D01*
X947750Y2136500D01*
X947750Y2151500D01*
X950000Y2151500D01*
D02*
G37*
G36*
X208249Y1707507D02*
X206000D01*
Y1722507D01*
X208249D01*
Y1707507D01*
D02*
G37*
G36*
X204000Y1722507D02*
X204000Y1707507D01*
X201749Y1707507D01*
X201749Y1722507D01*
X204000Y1722507D01*
D02*
G37*
G36*
X158250Y1707507D02*
X155999D01*
Y1722507D01*
X158250D01*
Y1707507D01*
D02*
G37*
G36*
X154000Y1722507D02*
X154000Y1707507D01*
X151749Y1707507D01*
X151749Y1722507D01*
X154000Y1722507D01*
D02*
G37*
G36*
X220499Y1628007D02*
X205499D01*
Y1630257D01*
X220499D01*
Y1628007D01*
D02*
G37*
G36*
X220499Y1623757D02*
X205499Y1623757D01*
X205499Y1626007D01*
X220499Y1626007D01*
X220499Y1623757D01*
D02*
G37*
G36*
X760500Y1395993D02*
X745500Y1395993D01*
X745500Y1398243D01*
X760501Y1398243D01*
X760500Y1395993D01*
D02*
G37*
G36*
Y1391743D02*
X745500D01*
Y1393993D01*
X760500D01*
Y1391743D01*
D02*
G37*
G36*
X810001Y1299492D02*
X807750D01*
Y1314493D01*
X810001D01*
Y1299492D01*
D02*
G37*
G36*
X760001D02*
X757750D01*
Y1314493D01*
X760001D01*
Y1299492D01*
D02*
G37*
G36*
X814250Y1314492D02*
X814251Y1299492D01*
X812001Y1299492D01*
X812001Y1314493D01*
X814250Y1314492D01*
D02*
G37*
G36*
X764250D02*
X764251Y1299492D01*
X762001Y1299492D01*
X762001Y1314493D01*
X764250Y1314492D01*
D02*
G37*
G36*
X1875000Y1197500D02*
X1872750D01*
Y1212500D01*
X1875000D01*
Y1197500D01*
D02*
G37*
G36*
X1629000D02*
X1626750D01*
Y1212500D01*
X1629000D01*
Y1197500D01*
D02*
G37*
G36*
X1383000D02*
X1380750D01*
Y1212500D01*
X1383000D01*
Y1197500D01*
D02*
G37*
G36*
X1137000D02*
X1134750D01*
Y1212500D01*
X1137000D01*
Y1197500D01*
D02*
G37*
G36*
X1879250Y1212500D02*
X1879250Y1197500D01*
X1877000Y1197500D01*
X1877000Y1212500D01*
X1879250Y1212500D01*
D02*
G37*
G36*
X1633250D02*
X1633250Y1197500D01*
X1631000Y1197500D01*
X1631000Y1212500D01*
X1633250Y1212500D01*
D02*
G37*
G36*
X1387250D02*
X1387250Y1197500D01*
X1385000Y1197500D01*
X1385000Y1212500D01*
X1387250Y1212500D01*
D02*
G37*
G36*
X1141250D02*
X1141250Y1197500D01*
X1139000Y1197500D01*
X1139000Y1212500D01*
X1141250Y1212500D01*
D02*
G37*
G36*
X1875000Y1176500D02*
X1872750D01*
Y1191500D01*
X1875000D01*
Y1176500D01*
D02*
G37*
G36*
X1629000D02*
X1626750D01*
Y1191500D01*
X1629000D01*
Y1176500D01*
D02*
G37*
G36*
X1383000D02*
X1380750D01*
Y1191500D01*
X1383000D01*
Y1176500D01*
D02*
G37*
G36*
X1137000D02*
X1134750D01*
Y1191500D01*
X1137000D01*
Y1176500D01*
D02*
G37*
G36*
X1879250Y1191500D02*
X1879250Y1176500D01*
X1877000Y1176500D01*
X1877000Y1191500D01*
X1879250Y1191500D01*
D02*
G37*
G36*
X1633250D02*
X1633250Y1176500D01*
X1631000Y1176500D01*
X1631000Y1191500D01*
X1633250Y1191500D01*
D02*
G37*
G36*
X1387250D02*
X1387250Y1176500D01*
X1385000Y1176500D01*
X1385000Y1191500D01*
X1387250Y1191500D01*
D02*
G37*
G36*
X1141250D02*
X1141250Y1176500D01*
X1139000Y1176500D01*
X1139000Y1191500D01*
X1141250Y1191500D01*
D02*
G37*
G36*
X1752500Y1169000D02*
X1737500D01*
Y1171250D01*
X1752500D01*
Y1169000D01*
D02*
G37*
G36*
X1506500D02*
X1491500D01*
Y1171250D01*
X1506500D01*
Y1169000D01*
D02*
G37*
G36*
X1260500D02*
X1245500D01*
Y1171250D01*
X1260500D01*
Y1169000D01*
D02*
G37*
G36*
X1014500D02*
X999500D01*
Y1171250D01*
X1014500D01*
Y1169000D01*
D02*
G37*
G36*
X1752500Y1164750D02*
X1737500Y1164750D01*
X1737500Y1167000D01*
X1752500Y1167000D01*
X1752500Y1164750D01*
D02*
G37*
G36*
X1506500D02*
X1491500Y1164750D01*
X1491500Y1167000D01*
X1506500Y1167000D01*
X1506500Y1164750D01*
D02*
G37*
G36*
X1260500D02*
X1245500Y1164750D01*
X1245500Y1167000D01*
X1260500Y1167000D01*
X1260500Y1164750D01*
D02*
G37*
G36*
X1014500D02*
X999500Y1164750D01*
X999500Y1167000D01*
X1014500Y1167000D01*
X1014500Y1164750D01*
D02*
G37*
G36*
X1752500Y1117000D02*
X1737500D01*
Y1119250D01*
X1752500D01*
Y1117000D01*
D02*
G37*
G36*
X1506500D02*
X1491500D01*
Y1119250D01*
X1506500D01*
Y1117000D01*
D02*
G37*
G36*
X1260500D02*
X1245500D01*
Y1119250D01*
X1260500D01*
Y1117000D01*
D02*
G37*
G36*
X1014500D02*
X999500D01*
Y1119250D01*
X1014500D01*
Y1117000D01*
D02*
G37*
G36*
X1752500Y1112750D02*
X1737500Y1112750D01*
X1737500Y1115000D01*
X1752500Y1115000D01*
X1752500Y1112750D01*
D02*
G37*
G36*
X1506500D02*
X1491500Y1112750D01*
X1491500Y1115000D01*
X1506500Y1115000D01*
X1506500Y1112750D01*
D02*
G37*
G36*
X1260500D02*
X1245500Y1112750D01*
X1245500Y1115000D01*
X1260500Y1115000D01*
X1260500Y1112750D01*
D02*
G37*
G36*
X1014500D02*
X999500Y1112750D01*
X999500Y1115000D01*
X1014500Y1115000D01*
X1014500Y1112750D01*
D02*
G37*
G36*
X1816000Y1089500D02*
X1813750D01*
Y1104500D01*
X1816000D01*
Y1089500D01*
D02*
G37*
G36*
X1570000D02*
X1567750D01*
Y1104500D01*
X1570000D01*
Y1089500D01*
D02*
G37*
G36*
X1324000D02*
X1321750D01*
Y1104500D01*
X1324000D01*
Y1089500D01*
D02*
G37*
G36*
X1078000D02*
X1075750D01*
Y1104500D01*
X1078000D01*
Y1089500D01*
D02*
G37*
G36*
X1820250Y1104500D02*
X1820250Y1089500D01*
X1818000Y1089500D01*
X1818000Y1104500D01*
X1820250Y1104500D01*
D02*
G37*
G36*
X1574250D02*
X1574250Y1089500D01*
X1572000Y1089500D01*
X1572000Y1104500D01*
X1574250Y1104500D01*
D02*
G37*
G36*
X1328250D02*
X1328250Y1089500D01*
X1326000Y1089500D01*
X1326000Y1104500D01*
X1328250Y1104500D01*
D02*
G37*
G36*
X1082250D02*
X1082250Y1089500D01*
X1080000Y1089500D01*
X1080000Y1104500D01*
X1082250Y1104500D01*
D02*
G37*
G36*
X1816000Y1068500D02*
X1813750D01*
Y1083500D01*
X1816000D01*
Y1068500D01*
D02*
G37*
G36*
X1570000D02*
X1567750D01*
Y1083500D01*
X1570000D01*
Y1068500D01*
D02*
G37*
G36*
X1324000D02*
X1321750D01*
Y1083500D01*
X1324000D01*
Y1068500D01*
D02*
G37*
G36*
X1078000D02*
X1075750D01*
Y1083500D01*
X1078000D01*
Y1068500D01*
D02*
G37*
G36*
X1820250Y1083500D02*
X1820250Y1068500D01*
X1818000Y1068500D01*
X1818000Y1083500D01*
X1820250Y1083500D01*
D02*
G37*
G36*
X1574250D02*
X1574250Y1068500D01*
X1572000Y1068500D01*
X1572000Y1083500D01*
X1574250Y1083500D01*
D02*
G37*
G36*
X1328250D02*
X1328250Y1068500D01*
X1326000Y1068500D01*
X1326000Y1083500D01*
X1328250Y1083500D01*
D02*
G37*
G36*
X1082250D02*
X1082250Y1068500D01*
X1080000Y1068500D01*
X1080000Y1083500D01*
X1082250Y1083500D01*
D02*
G37*
G36*
X1752250Y778500D02*
X1750000D01*
Y793500D01*
X1752250D01*
Y778500D01*
D02*
G37*
G36*
X1748000Y793500D02*
X1748000Y778500D01*
X1745750Y778500D01*
X1745750Y793500D01*
X1748000Y793500D01*
D02*
G37*
G36*
X1506250Y778500D02*
X1504000D01*
Y793500D01*
X1506250D01*
Y778500D01*
D02*
G37*
G36*
X1502000Y793500D02*
X1502000Y778500D01*
X1499750Y778500D01*
X1499750Y793500D01*
X1502000Y793500D01*
D02*
G37*
G36*
X1260250Y778500D02*
X1258000D01*
Y793500D01*
X1260250D01*
Y778500D01*
D02*
G37*
G36*
X1256000Y793500D02*
X1256000Y778500D01*
X1253750Y778500D01*
X1253750Y793500D01*
X1256000Y793500D01*
D02*
G37*
G36*
X1014250Y778500D02*
X1012000D01*
Y793500D01*
X1014250D01*
Y778500D01*
D02*
G37*
G36*
X1010000Y793500D02*
X1010000Y778500D01*
X1007750Y778500D01*
X1007750Y793500D01*
X1010000Y793500D01*
D02*
G37*
G36*
X1752250Y757500D02*
X1750000D01*
Y772500D01*
X1752250D01*
Y757500D01*
D02*
G37*
G36*
X1748000Y772500D02*
X1748000Y757500D01*
X1745750Y757500D01*
X1745750Y772500D01*
X1748000Y772500D01*
D02*
G37*
G36*
X1506250Y757500D02*
X1504000D01*
Y772500D01*
X1506250D01*
Y757500D01*
D02*
G37*
G36*
X1502000Y772500D02*
X1502000Y757500D01*
X1499750Y757500D01*
X1499750Y772500D01*
X1502000Y772500D01*
D02*
G37*
G36*
X1260250Y757500D02*
X1258000D01*
Y772500D01*
X1260250D01*
Y757500D01*
D02*
G37*
G36*
X1256000Y772500D02*
X1256000Y757500D01*
X1253750Y757500D01*
X1253750Y772500D01*
X1256000Y772500D01*
D02*
G37*
G36*
X1014250Y757500D02*
X1012000D01*
Y772500D01*
X1014250D01*
Y757500D01*
D02*
G37*
G36*
X1010000Y772500D02*
X1010000Y757500D01*
X1007750Y757500D01*
X1007750Y772500D01*
X1010000Y772500D01*
D02*
G37*
G36*
X1828500Y747000D02*
X1813500Y747000D01*
X1813500Y749250D01*
X1828500Y749250D01*
X1828500Y747000D01*
D02*
G37*
G36*
X1582500D02*
X1567500Y747000D01*
X1567500Y749250D01*
X1582500Y749250D01*
X1582500Y747000D01*
D02*
G37*
G36*
X1336500D02*
X1321500Y747000D01*
X1321500Y749250D01*
X1336500Y749250D01*
X1336500Y747000D01*
D02*
G37*
G36*
X1090500D02*
X1075500Y747000D01*
X1075500Y749250D01*
X1090500Y749250D01*
X1090500Y747000D01*
D02*
G37*
G36*
X1828500Y742750D02*
X1813500D01*
Y745000D01*
X1828500D01*
Y742750D01*
D02*
G37*
G36*
X1582500D02*
X1567500D01*
Y745000D01*
X1582500D01*
Y742750D01*
D02*
G37*
G36*
X1336500D02*
X1321500D01*
Y745000D01*
X1336500D01*
Y742750D01*
D02*
G37*
G36*
X1090500D02*
X1075500D01*
Y745000D01*
X1090500D01*
Y742750D01*
D02*
G37*
G36*
X1828500Y695000D02*
X1813500Y695000D01*
X1813500Y697250D01*
X1828500Y697250D01*
X1828500Y695000D01*
D02*
G37*
G36*
X1582500D02*
X1567500Y695000D01*
X1567500Y697250D01*
X1582500Y697250D01*
X1582500Y695000D01*
D02*
G37*
G36*
X1336500D02*
X1321500Y695000D01*
X1321500Y697250D01*
X1336500Y697250D01*
X1336500Y695000D01*
D02*
G37*
G36*
X1090500D02*
X1075500Y695000D01*
X1075500Y697250D01*
X1090500Y697250D01*
X1090500Y695000D01*
D02*
G37*
G36*
X1828500Y690750D02*
X1813500D01*
Y693000D01*
X1828500D01*
Y690750D01*
D02*
G37*
G36*
X1582500D02*
X1567500D01*
Y693000D01*
X1582500D01*
Y690750D01*
D02*
G37*
G36*
X1336500D02*
X1321500D01*
Y693000D01*
X1336500D01*
Y690750D01*
D02*
G37*
G36*
X1090500D02*
X1075500D01*
Y693000D01*
X1090500D01*
Y690750D01*
D02*
G37*
G36*
X1693250Y670500D02*
X1691000D01*
Y685500D01*
X1693250D01*
Y670500D01*
D02*
G37*
G36*
X1689000Y685500D02*
X1689000Y670500D01*
X1686750Y670500D01*
X1686750Y685500D01*
X1689000Y685500D01*
D02*
G37*
G36*
X1447250Y670500D02*
X1445000D01*
Y685500D01*
X1447250D01*
Y670500D01*
D02*
G37*
G36*
X1443000Y685500D02*
X1443000Y670500D01*
X1440750Y670500D01*
X1440750Y685500D01*
X1443000Y685500D01*
D02*
G37*
G36*
X1201250Y670500D02*
X1199000D01*
Y685500D01*
X1201250D01*
Y670500D01*
D02*
G37*
G36*
X1197000Y685500D02*
X1197000Y670500D01*
X1194750Y670500D01*
X1194750Y685500D01*
X1197000Y685500D01*
D02*
G37*
G36*
X955250Y670500D02*
X953000D01*
Y685500D01*
X955250D01*
Y670500D01*
D02*
G37*
G36*
X951000Y685500D02*
X951000Y670500D01*
X948750Y670500D01*
X948750Y685500D01*
X951000Y685500D01*
D02*
G37*
G36*
X1693250Y649500D02*
X1691000D01*
Y664500D01*
X1693250D01*
Y649500D01*
D02*
G37*
G36*
X1689000Y664500D02*
X1689000Y649500D01*
X1686750Y649500D01*
X1686750Y664500D01*
X1689000Y664500D01*
D02*
G37*
G36*
X1447250Y649500D02*
X1445000D01*
Y664500D01*
X1447250D01*
Y649500D01*
D02*
G37*
G36*
X1443000Y664500D02*
X1443000Y649500D01*
X1440750Y649500D01*
X1440750Y664500D01*
X1443000Y664500D01*
D02*
G37*
G36*
X1201250Y649500D02*
X1199000D01*
Y664500D01*
X1201250D01*
Y649500D01*
D02*
G37*
G36*
X1197000Y664500D02*
X1197000Y649500D01*
X1194750Y649500D01*
X1194750Y664500D01*
X1197000Y664500D01*
D02*
G37*
G36*
X955250Y649500D02*
X953000D01*
Y664500D01*
X955250D01*
Y649500D01*
D02*
G37*
G36*
X951000Y664500D02*
X951000Y649500D01*
X948750Y649500D01*
X948750Y664500D01*
X951000Y664500D01*
D02*
G37*
G36*
X415500Y533993D02*
X400500Y533993D01*
X400500Y536243D01*
X415501Y536243D01*
X415500Y533993D01*
D02*
G37*
G36*
Y529743D02*
X400500D01*
Y531993D01*
X415500D01*
Y529743D01*
D02*
G37*
G36*
X465000Y437492D02*
X462751D01*
Y452493D01*
X465000D01*
Y437492D01*
D02*
G37*
G36*
X415000D02*
X412751D01*
Y452493D01*
X415000D01*
Y437492D01*
D02*
G37*
G36*
X469250Y452492D02*
X469251Y437492D01*
X467001Y437492D01*
X467001Y452493D01*
X469250Y452492D01*
D02*
G37*
G36*
X419250D02*
X419251Y437492D01*
X417001Y437492D01*
X417001Y452493D01*
X419250Y452492D01*
D02*
G37*
D10*
X808000Y176500D02*
Y229500D01*
X772000Y176500D02*
Y229500D01*
Y59500D02*
Y112500D01*
X808000Y59500D02*
Y112500D01*
D11*
X285697Y285000D02*
G03*
X285697Y285000I-762J0D01*
G01*
X300743Y296836D02*
Y301002D01*
Y268998D02*
Y273164D01*
Y268998D02*
X349257D01*
Y296836D02*
Y301002D01*
X300743D02*
X349257D01*
Y268998D02*
Y273164D01*
D15*
X896000Y148049D02*
G03*
X896000Y127265I-6000J-10392D01*
G01*
X896000Y168834D02*
G03*
X896000Y148049I-6000J-10392D01*
G01*
X896000Y189618D02*
G03*
X896000Y168834I-6000J-10392D01*
G01*
X896000Y210403D02*
G03*
X896000Y189618I-6000J-10392D01*
G01*
X896000Y231188D02*
G03*
X896000Y210403I-6000J-10392D01*
G01*
X896000Y251972D02*
G03*
X896000Y231188I-6000J-10392D01*
G01*
D16*
X990599Y21759D02*
G03*
X1034251Y55255I19621J19621D01*
G01*
X1034031Y304125D02*
G03*
X990378Y337621I-24031J13874D01*
G01*
X862060Y336830D02*
X990378Y337621D01*
X862060Y21759D02*
X990599D01*
X862060D02*
Y336830D01*
X1034031Y55475D02*
Y304125D01*
M02*
